<?xml version="1.0" encoding="UTF-8"?>
<svg id="Layer_2" data-name="Layer 2" xmlns="http://www.w3.org/2000/svg" xmlns:xlink="http://www.w3.org/1999/xlink" viewBox="0 0 178.536 218.4934">
  <defs>
    <clipPath id="clippath">
      <path d="M15.9034,55.9117v82.7308c0,2.0254,1.0806,3.897,2.8346,4.9098l74.4816,43.002,77.3163-44.6386v-69.3534c-6.1644-10.6771-11.0901-19.2085-17.2545-29.8857L96.0543,9.6366c-1.7541-1.0127-3.9152-1.0127-5.6693,0L18.738,51.002c-1.7541,1.0127-2.8346,2.8843-2.8346,4.9098Z" style="fill: none;"/>
    </clipPath>
    <clipPath id="clippath-1">
      <path d="M27.2644,146.2025c4.7775-1.3392,8.2104-7.4764,7.6743-13.7187-.5347-6.2253-4.8355-10.1939-9.613-8.8547-4.7776,1.3392-8.2106,7.4756-7.6759,13.7009.5361,6.2423,4.837,10.2118,9.6146,8.8726Z" style="fill: none;"/>
    </clipPath>
    <clipPath id="clippath-2">
      <path d="M15.9034,55.9117v82.7308c0,2.0254,1.0806,3.897,2.8346,4.9098l74.4816,43.002,77.3163-44.6386V55.9117c0-2.0254-1.0806-3.897-2.8346-4.9098L96.0543,9.6366c-1.7541-1.0127-3.9152-1.0127-5.6693,0L18.738,51.002c-1.7541,1.0127-2.8346,2.8843-2.8346,4.9098Z" style="fill: none;"/>
    </clipPath>
  </defs>
  <g id="_图层_1" data-name="图层 1">
    <g>
      <g>
        <path d="M129.4047,200.2374c-1.6494,0-3.3818-.0469-5.1514-.1387-9.2373-.4805-16.0664-2.0195-20.8779-4.7051-6.1387-3.4268-9.1934-8.9067-8.832-15.8477.6816-13.1157,14.4512-23.3896,31.3457-23.3896.7314,0,1.4668.019,2.209.0576,17.7832.9243,31.6689,12.8955,30.9531,26.686-.4111,7.9092-5.8887,17.3374-29.6465,17.3374Z" style="fill: #9e9e9e;"/>
        <path d="M125.8889,159.7833c.6686,0,1.3417.0173,2.0201.0526,15.8129.8222,28.1338,11.0641,27.5197,22.8761-.5492,10.5618-12.2498,13.8985-26.0248,13.8985-1.6305,0-3.2889-.0467-4.9625-.1337-15.8129-.8222-26.8901-4.9302-26.276-16.7422.5878-11.3051,12.8123-19.951,27.7235-19.9513M125.8904,152.5294h-.0016c-8.7371.0002-17.067,2.5188-23.4553,7.0919-7.0233,5.0278-11.1118,12.037-11.5121,19.7366-.4314,8.2958,3.3639,15.1154,10.6864,19.2028,5.3073,2.9625,12.653,4.6503,22.4569,5.1601,1.8313.0952,3.6277.1435,5.3392.1435,28.0068,0,32.8654-13.0166,33.2688-20.7757.4127-7.9374-3.3075-15.779-10.2068-21.5141-6.3929-5.3142-14.9803-8.5044-24.1803-8.9827-.7965-.0414-1.6024-.0624-2.3953-.0624h0Z" style="fill: #060001;"/>
      </g>
      <g>
        <path d="M85.3031,214.8668c-1.6484,0-3.3809-.0469-5.1494-.1387-9.2373-.4805-16.0664-2.0195-20.8779-4.7051-6.1387-3.4268-9.1934-8.9067-8.832-15.8477.6816-13.1157,14.4512-23.3901,31.3457-23.3901.7314,0,1.4668.019,2.209.0576,8.4238.438,16.2549,3.3325,22.0498,8.1499,6.0996,5.0698,9.2617,11.6528,8.9033,18.5366-.4111,7.9092-5.8887,17.3374-29.6484,17.3374Z" style="fill: #9e9e9e;"/>
        <path d="M81.7896,174.4123c.6685,0,1.3416.0173,2.02.0526,15.8127.8222,28.1337,11.0642,27.5195,22.8761-.5492,10.5618-12.2496,13.8985-26.0247,13.8985-1.6305,0-3.2891-.0467-4.9626-.1337-15.8127-.8222-26.89-4.9302-26.2759-16.7422.5878-11.3051,12.8123-19.951,27.7236-19.9514M81.791,167.1585h-.0017c-8.7371.0002-17.067,2.5188-23.4553,7.0919-7.0233,5.0278-11.1118,12.037-11.5121,19.7366-.4314,8.2957,3.3639,15.1154,10.6864,19.2028,5.3071,2.9625,12.6528,4.6503,22.4568,5.1601,1.8313.0952,3.6277.1435,5.3394.1435,28.0067,0,32.8652-13.0166,33.2687-20.7757.4127-7.9374-3.3075-15.779-10.2068-21.5141-6.3928-5.3143-14.9802-8.5044-24.1802-8.9827-.7965-.0414-1.6024-.0624-2.3951-.0624h0Z" style="fill: #060001;"/>
      </g>
      <g>
        <path d="M15.9034,53.041v88.4723c0,.249.1329.4791.3485.6036l76.6193,44.2362c.2157.1245.4814.1245.697,0l76.6193-44.2362c.2157-.1245.3485-.3546.3485-.6036v-68.951c-6.1644-10.6771-11.0901-19.2085-17.2545-29.8857L93.5682,8.2012c-.2157-.1245-.4814-.1245-.697,0L16.2519,52.4374c-.2157.1245-.3485.3546-.3485.6036Z" style="fill: #ece3d0;"/>
        <g style="clip-path: url(#clippath);">
          <path d="M214.6746,124.1321l-122.0278,73.0273L-29.4851,126.6468l8.8994-15.4146,111.6272,64.4481c.8908.5143,1.9903.5057,2.873-.0225l111.6199-66.7991,9.1401,15.2734Z" style="fill: #de651d;"/>
          <path d="M213.813,106.2373l-122.0278,73.0273L-30.3467,108.7519l8.8994-15.4146,111.6272,64.4481c.8908.5143,1.9903.5057,2.873-.0225l111.6199-66.7991,9.1401,15.2734Z" style="fill: #c95a2b;"/>
          <path d="M214.5987,117.5845l-122.0278,73.0273L-29.561,120.0991l8.8994-15.4146,111.6272,64.4481c.8908.5143,1.9903.5057,2.873-.0225l111.6199-66.7991,9.1401,15.2734Z" style="fill: #6e347a;"/>
          <path d="M214.9261,126.8038l-122.0278,73.0273L-29.2335,129.3185l8.8994-15.4146,111.6272,64.4481c.8908.5143,1.9903.5057,2.873-.0225l111.6199-66.7991,9.1401,15.2734Z" style="fill: #41a0a9;"/>
        </g>
        <path d="M93.2196,8l59.7909,34.5202c6.1611,10.6235,11.093,19.1277,17.2542,29.7513l.2712,69.6442-77.3163,44.6386L15.9034,141.9157V52.6386L93.2196,8M93.2196,0c-1.3812,0-2.7625.3573-4,1.0718L11.9034,45.7104c-2.4752,1.4291-4,4.0701-4,6.9282v89.2772c0,2.8581,1.5248,5.4991,4,6.9282l77.3163,44.6386c1.2375.7145,2.6188,1.0718,4,1.0718s2.7625-.3573,4-1.0718l77.3163-44.6386c2.4849-1.4346,4.0111-4.0901,4-6.9594l-.2712-69.6443c-.0055-1.399-.3778-2.7721-1.0796-3.9823l-6.1993-10.6894-11.0548-19.0619c-.7019-1.2102-1.7089-2.2152-2.9204-2.9147L97.2196,1.0718c-1.2375-.7145-2.6188-1.0718-4-1.0718h0Z" style="fill: #060001;"/>
      </g>
      <g>
        <g>
          <path d="M24.8695,158.1036c-7.8779-.001-14.6602-6.4956-16.4941-15.7944-1.0078-5.1128-.5928-10.4712,1.2002-15.4966,1.0908-3.0532,1.668-5.979,1.7168-8.6968.0146-.8765-.0146-1.7778-.0879-2.6753-.0762-.8506-.1982-1.7158-.3584-2.5356-.4795-2.4487-1.4639-4.7959-2.9258-6.9746-2.666-3.9771-4.0195-8.9844-3.9141-14.4824.1963-10.3647,6.1328-20.1768,14.1152-23.3315,1.8516-.7319,3.7568-1.103,5.6631-1.103,7.583,0,14.1309,5.9131,16.2939,14.7134.4629,1.8848,1.1445,9.2349,2.5977,26.0898,1.46,16.9614,2.0908,24.8789,1.9629,26.958-.7109,11.6465-8.1631,21.5879-17.334,23.125-.8076.1353-1.626.2041-2.4336.2041h-.002Z" style="fill: #9e9e9e;"/>
          <path d="M23.7845,71.0135c5.6379,0,10.6443,4.4838,12.4094,11.6678.4564,1.8576,1.4749,13.6181,2.4965,25.4789,1.0425,12.1017,2.0825,24.3093,1.9565,26.3703-.5934,9.7159-6.6624,18.194-14.0033,19.4242-.5972.1-1.1888.1488-1.7738.1488-5.9253,0-11.0798-5.0134-12.5696-12.5679-.9052-4.5899-.4203-9.2793,1.0431-13.3788,1.1364-3.1829,1.8875-6.5783,1.9478-9.9696.0184-1.0327-.0168-2.0583-.0991-3.0701-.0913-1.0098-.2297-2.0059-.4205-2.98-.6263-3.1988-1.9116-6.0238-3.5284-8.4351-2.0822-3.1056-3.3308-7.3091-3.238-12.1782.1676-8.8065,5.0651-17.1101,11.5859-19.6872,1.4106-.5575,2.8203-.8232,4.1936-.8232M23.7845,63.0135c-2.4116,0-4.8118.4653-7.134,1.3831C7.081,68.1786.2367,79.2711.0064,91.3716c-.1205,6.3208,1.4673,12.1252,4.5918,16.7854,1.1642,1.7362,1.9454,3.5923,2.3223,5.5174.1316.6716.2327,1.3873.3008,2.1286.0603.7555.0841,1.5094.071,2.2415-.0405,2.2823-.5396,4.7794-1.4832,7.4225-2.0363,5.704-2.5056,11.7955-1.3578,17.6164,2.2085,11.1988,10.6049,19.0201,20.4185,19.0201,1.0292,0,2.0707-.087,3.0955-.2587,10.9603-1.8367,19.8448-13.3696,20.6667-26.8266.1415-2.3149-.3934-9.2296-1.9712-27.5445-1.59-18.4588-2.1696-24.5504-2.698-26.7012-2.6099-10.6221-10.719-17.7589-20.1783-17.7589h0Z" style="fill: #060001;"/>
        </g>
        <path d="M21.4828,78.8844c-4.7776,1.3392-8.2105,7.476-7.6744,13.7188.5346,6.2249,4.8355,10.1939,9.6131,8.8547,4.7775-1.3392,8.2105-7.476,7.6758-13.7009-.5362-6.2427-4.837-10.2118-9.6146-8.8726Z" style="fill: #ece3d0; stroke: #060001; stroke-miterlimit: 10; stroke-width: 3.8846px;"/>
        <g>
          <path d="M31.9115,115.5499c-2.1133-.0005-3.8018-1.8115-4.0166-4.3062-.2324-2.71,1.3281-5.3208,3.5518-5.9443l18.3223-5.1357c.332-.0928.6709-.1401,1.0068-.1401,2.1133,0,3.8018,1.811,4.0166,4.3062.2324,2.71-1.3271,5.3208-3.5508,5.9438l-18.3232,5.1362c-.332.0928-.6709.1401-1.0068.1401h0Z" style="fill: #9e9e9e;"/>
          <path d="M50.7757,101.6376c1.2374,0,2.264,1.1499,2.4084,2.8302h0c.166,1.9334-.8988,3.837-2.3784,4.2517l-18.3226,5.1359c-.1937.0543-.3849.0804-.5713.0804-1.2374,0-2.264-1.1499-2.4083-2.8302h0c-.1661-1.9334.8987-3.837,2.3783-4.2517l18.3226-5.1359c.1937-.0543.3849-.0804.5713-.0804M50.7757,98.4097c-.4834,0-.9688.0674-1.4425.2002l-18.3226,5.1358c-2.9945.8394-5.025,4.1222-4.723,7.6361.2876,3.3501,2.6531,5.7817,5.6243,5.7817.4834,0,.9688-.0674,1.4425-.2002l18.3226-5.1358c2.9944-.8394,5.0249-4.1221,4.7231-7.6359-.2878-3.3504-2.6533-5.7819-5.6244-5.7819h0Z" style="fill: #060001;"/>
        </g>
      </g>
      <g>
        <path d="M118.4643,38.4227l1.5335-26.6123c.2864-4.9695,6.7087-8.5094,11.6782-8.223h0c2.0191.1164,3.5616,1.8475,3.4453,3.8666h0c-.1164,2.0191-1.8475,3.5616-3.8666,3.4453l-11.1597-.7751" style="fill: #1f1f1d; stroke: #1f1f1d; stroke-linecap: round; stroke-miterlimit: 10; stroke-width: 6px;"/>
        <path d="M82.6964,53.8704l1.5335-26.6123c.2864-4.9695,6.7087-8.5094,11.6782-8.223h0c2.0191.1164,3.5616,1.8475,3.4453,3.8666h0c-.1164,2.0191-1.8475,3.5616-3.8666,3.4453l-11.1597-.7751" style="fill: #1f1f1d; stroke: #1f1f1d; stroke-linecap: round; stroke-miterlimit: 10; stroke-width: 6px;"/>
      </g>
      <g style="clip-path: url(#clippath-1);">
        <g style="clip-path: url(#clippath-2);">
          <path d="M214.6746,124.1321l-122.0278,73.0273L-29.4851,126.6468l8.8994-15.4146,111.6272,64.4481c.8908.5143,1.9903.5057,2.873-.0225l111.6199-66.7991,9.1401,15.2734Z" style="fill: #de651d;"/>
          <path d="M213.813,106.2373l-122.0278,73.0273L-30.3467,108.7519l8.8994-15.4146,111.6272,64.4481c.8908.5143,1.9903.5057,2.873-.0225l111.6199-66.7991,9.1401,15.2734Z" style="fill: #c95a2b;"/>
          <path d="M214.5987,117.5845l-122.0278,73.0273L-29.561,120.0991l8.8994-15.4146,111.6272,64.4481c.8908.5143,1.9903.5057,2.873-.0225l111.6199-66.7991,9.1401,15.2734Z" style="fill: #6e347a;"/>
          <path d="M214.9261,126.8038l-122.0278,73.0273L-29.2335,129.3185l8.8994-15.4146,111.6272,64.4481c.8908.5143,1.9903.5057,2.873-.0225l111.6199-66.7991,9.1401,15.2734Z" style="fill: #41a0a9;"/>
        </g>
      </g>
      <path d="M27.2644,146.2025c4.7775-1.3392,8.2104-7.4764,7.6743-13.7187-.5347-6.2253-4.8355-10.1939-9.613-8.8547-4.7776,1.3392-8.2106,7.4756-7.6759,13.7009.5361,6.2423,4.837,10.2118,9.6146,8.8726Z" style="fill: none; stroke: #060001; stroke-miterlimit: 10; stroke-width: 3.8846px;"/>
      <g>
        <g>
          <path d="M163.074,93.7014s-3.1679,40.0309-32.0676,56.0618c-28.8997,16.0308-32.0676-20.4856-32.0676-20.4856" style="fill: #ece3d0; stroke: #060001; stroke-linecap: round; stroke-miterlimit: 10; stroke-width: 5.8273px;"/>
          <g>
            <polygon points="166.3996 98.5595 158.0386 96.3378 160.5129 88.8754 168.874 91.097 166.3996 98.5595" style="fill: #060001;"/>
            <polygon points="95.6133 137.8251 103.9744 126.3276 101.5001 121.6102 93.139 133.1077 95.6133 137.8251" style="fill: #060001;"/>
          </g>
        </g>
        <g>
          <g>
            <polygon points="123.4961 103.8197 113.9771 109.0999 113.9771 95.5733 123.4961 90.2931 123.4961 103.8197" style="fill: #060001;"/>
            <polygon points="123.4961 130.8728 113.9771 136.153 113.9771 122.6264 123.4961 117.3462 123.4961 130.8728" style="fill: #060001;"/>
            <polygon points="125.4042 116.2877 115.8853 121.568 115.8853 108.0414 125.4042 102.7612 125.4042 116.2877" style="fill: #060001;"/>
          </g>
          <g>
            <polygon points="146.8202 90.8816 137.3012 96.1618 137.3012 82.6353 146.8202 77.3551 146.8202 90.8816" style="fill: #060001;"/>
            <polygon points="146.8202 117.9347 137.3012 123.2149 137.3012 109.6884 146.8202 104.4082 146.8202 117.9347" style="fill: #060001;"/>
            <polygon points="148.7283 103.3497 139.2094 108.6299 139.2094 95.1034 148.7283 89.8232 148.7283 103.3497" style="fill: #060001;"/>
          </g>
        </g>
      </g>
    </g>
  </g>
</svg>