<?xml version="1.0" encoding="UTF-8" standalone="no"?>
<!DOCTYPE svg PUBLIC "-//W3C//DTD SVG 1.1//EN" "http://www.w3.org/Graphics/SVG/1.1/DTD/svg11.dtd">
<svg width="100%" height="100%" viewBox="0 0 7888 1415" version="1.1" xmlns="http://www.w3.org/2000/svg" xmlns:xlink="http://www.w3.org/1999/xlink" xml:space="preserve" xmlns:serif="http://www.serif.com/" style="fill-rule:evenodd;clip-rule:evenodd;stroke-miterlimit:10;">
    <g transform="matrix(1,0,0,1,-26618.765625,-1591.035937)">
        <g id="Page-9" serif:id="Page 9" transform="matrix(4.166667,0,0,4.166667,26618.765625,1591.035937)">
            <rect x="0" y="0" width="1892.89" height="339.421" style="fill:none;"/>
            <g id="图层-1" serif:id="图层 1">
                <g transform="matrix(1,0,0,1,1009.6,129.909)">
                    <path d="M0,84.083C-10.026,84.083 -18.702,76.928 -20.628,67.07C-21.005,65.141 -21.065,57.685 -21.061,41.701C-21.055,26.395 -21.011,18.97 -20.628,17.012C-18.701,7.155 -10.026,0 0,0C0.585,0 1.178,0.025 1.762,0.075C11.436,0.898 19.416,8.463 20.739,18.063C21.429,23.065 20.316,28.142 17.605,32.356C16.032,34.803 15.069,37.257 14.743,39.649C14.638,40.427 14.581,41.238 14.576,42.062C14.581,42.845 14.638,43.657 14.743,44.433C15.069,46.827 16.032,49.28 17.605,51.726C20.315,55.941 21.429,61.018 20.739,66.021C19.415,75.621 11.435,83.185 1.763,84.008C1.178,84.058 0.585,84.083 0.001,84.083L0,84.083Z" style="fill:rgb(158,158,158);fill-rule:nonzero;"/>
                </g>
                <g transform="matrix(1,0,0,1,1009.6001,217.35)">
                    <path d="M0,-90.799C-11.629,-90.799 -21.691,-82.503 -23.924,-71.072C-24.344,-68.922 -24.413,-63.156 -24.419,-45.742C-24.425,-26.898 -24.328,-21.793 -23.924,-19.727C-21.691,-8.296 -11.629,0 0,0C0.68,0 1.368,-0.029 2.046,-0.086C13.269,-1.042 22.53,-9.821 24.065,-20.961C24.864,-26.758 23.573,-32.643 20.43,-37.531C19.123,-39.563 18.329,-41.558 18.071,-43.46C17.986,-44.083 17.94,-44.735 17.935,-45.399C17.94,-46.064 17.986,-46.716 18.071,-47.339C18.33,-49.241 19.123,-51.236 20.43,-53.268C23.573,-58.156 24.864,-64.041 24.065,-69.837C22.53,-80.978 13.269,-89.758 2.046,-90.712C1.368,-90.77 0.68,-90.799 0,-90.799M0,-84.083C0.489,-84.083 0.982,-84.062 1.477,-84.02C9.569,-83.332 16.303,-76.966 17.412,-68.92C18.025,-64.472 16.96,-60.289 14.781,-56.901C13.089,-54.27 11.838,-51.344 11.416,-48.245C11.287,-47.301 11.224,-46.35 11.218,-45.399C11.224,-44.449 11.287,-43.498 11.416,-42.554C11.838,-39.455 13.089,-36.529 14.781,-33.898C16.96,-30.51 18.025,-26.327 17.412,-21.878C16.303,-13.833 9.569,-7.467 1.477,-6.779C0.982,-6.736 0.49,-6.716 0,-6.716C-8.344,-6.716 -15.714,-12.729 -17.332,-21.015C-17.696,-22.875 -17.706,-34.356 -17.702,-45.739C-17.699,-56.897 -17.689,-67.961 -17.332,-69.785C-15.714,-78.07 -8.345,-84.083 0,-84.083" style="fill:rgb(6,0,1);fill-rule:nonzero;"/>
                </g>
                <g transform="matrix(-1,0,0,1,1009.5329,161.5235)">
                    <path d="M0,-21.233C-5.872,-21.233 -10.625,-16.48 -10.625,-10.608C-10.625,-4.753 -5.872,0 0,0C5.872,0 10.625,-4.753 10.625,-10.608C10.625,-16.48 5.872,-21.233 0,-21.233" style="fill:white;fill-rule:nonzero;"/>
                </g>
                <g transform="matrix(-1,0,0,1,1009.5329,161.5235)">
                    <ellipse cx="0" cy="-10.617" rx="10.625" ry="10.617" style="fill:none;stroke:rgb(6,0,1);stroke-width:3.36px;"/>
                </g>
                <g transform="matrix(1,0,0,1,1009.5328,182.3779)">
                    <path d="M0,21.233C-5.872,21.233 -10.625,16.48 -10.625,10.608C-10.625,4.753 -5.872,0 0,0C5.872,0 10.625,4.753 10.625,10.608C10.625,16.48 5.872,21.233 0,21.233" style="fill:white;fill-rule:nonzero;"/>
                </g>
                <g transform="matrix(1,0,0,1,1009.5328,182.3779)">
                    <path d="M0,21.233C-5.872,21.233 -10.625,16.48 -10.625,10.608C-10.625,4.753 -5.872,0 0,0C5.872,0 10.625,4.753 10.625,10.608C10.625,16.48 5.872,21.233 0,21.233Z" style="fill:none;fill-rule:nonzero;stroke:rgb(6,0,1);stroke-width:3.36px;"/>
                </g>
                <g transform="matrix(1,0,0,1,964.3676,166.9787)">
                    <path d="M0,9.944C-2.741,9.944 -4.972,7.714 -4.972,4.972C-4.972,2.23 -2.741,0 0,0L35.567,0C38.309,0 40.539,2.23 40.539,4.972C40.539,7.714 38.309,9.944 35.567,9.944L0,9.944Z" style="fill:rgb(158,158,158);fill-rule:nonzero;"/>
                </g>
                <g transform="matrix(1,0,0,1,999.9349,178.6018)">
                    <path d="M0,-13.302L-35.567,-13.302C-39.234,-13.302 -42.218,-10.318 -42.218,-6.651C-42.218,-2.984 -39.234,0 -35.567,0L0,0C3.667,0 6.651,-2.984 6.651,-6.651C6.651,-10.318 3.667,-13.302 0,-13.302M0,-9.944C1.819,-9.944 3.293,-8.47 3.293,-6.651C3.293,-4.832 1.819,-3.358 0,-3.358L-35.567,-3.358C-37.386,-3.358 -38.86,-4.832 -38.86,-6.651C-38.86,-8.47 -37.386,-9.944 -35.567,-9.944L0,-9.944Z" style="fill:rgb(6,0,1);fill-rule:nonzero;"/>
                </g>
                <g transform="matrix(1,0,0,1,269.682,129.909)">
                    <path d="M0,84.083C-10.027,84.083 -18.702,76.928 -20.627,67.07C-21.004,65.146 -21.064,57.688 -21.06,41.701C-21.055,25.83 -20.994,18.891 -20.627,17.012C-18.702,7.155 -10.026,0 0,0C0.585,0 1.178,0.025 1.762,0.075C11.435,0.898 19.416,8.462 20.74,18.063C21.43,23.065 20.317,28.142 17.606,32.356C16.033,34.803 15.07,37.257 14.744,39.649C14.639,40.427 14.582,41.238 14.577,42.062C14.582,42.845 14.639,43.657 14.744,44.433C15.07,46.827 16.033,49.28 17.606,51.726C20.316,55.941 21.43,61.018 20.74,66.021C19.416,75.621 11.435,83.185 1.762,84.008C1.178,84.058 0.585,84.083 0.001,84.083L0,84.083Z" style="fill:rgb(158,158,158);fill-rule:nonzero;"/>
                </g>
                <g transform="matrix(1,0,0,1,269.683,217.35)">
                    <path d="M0,-90.799C-11.629,-90.799 -21.691,-82.503 -23.924,-71.072C-24.344,-68.922 -24.413,-63.156 -24.419,-45.742C-24.425,-26.898 -24.328,-21.792 -23.924,-19.727C-21.691,-8.296 -11.629,0 0,0C0.68,0 1.368,-0.029 2.046,-0.086C13.269,-1.042 22.53,-9.821 24.065,-20.961C24.864,-26.758 23.573,-32.643 20.43,-37.531C19.123,-39.563 18.329,-41.558 18.07,-43.46C17.986,-44.083 17.94,-44.735 17.935,-45.399C17.94,-46.063 17.986,-46.716 18.07,-47.338C18.329,-49.241 19.123,-51.236 20.43,-53.268C23.573,-58.157 24.864,-64.041 24.065,-69.837C22.53,-80.978 13.269,-89.758 2.046,-90.712C1.368,-90.77 0.68,-90.799 0,-90.799M0,-84.083C0.489,-84.083 0.982,-84.062 1.477,-84.02C9.569,-83.332 16.303,-76.966 17.412,-68.92C18.025,-64.472 16.96,-60.289 14.781,-56.901C13.089,-54.27 11.838,-51.344 11.416,-48.245C11.287,-47.301 11.224,-46.35 11.218,-45.399C11.224,-44.449 11.287,-43.498 11.416,-42.554C11.838,-39.455 13.089,-36.529 14.781,-33.898C16.96,-30.51 18.025,-26.327 17.412,-21.878C16.303,-13.833 9.569,-7.467 1.477,-6.779C0.982,-6.736 0.49,-6.716 0,-6.716C-8.344,-6.716 -15.714,-12.729 -17.332,-21.015C-17.696,-22.875 -17.706,-34.356 -17.702,-45.739C-17.699,-56.897 -17.689,-67.961 -17.332,-69.785C-15.714,-78.07 -8.345,-84.083 0,-84.083" style="fill:rgb(6,0,1);fill-rule:nonzero;"/>
                </g>
                <g transform="matrix(-1,0,0,1,269.6157,161.5235)">
                    <path d="M0,-21.233C-5.872,-21.233 -10.625,-16.48 -10.625,-10.608C-10.625,-4.753 -5.872,0 0,0C5.872,0 10.625,-4.753 10.625,-10.608C10.625,-16.48 5.872,-21.233 0,-21.233" style="fill:white;fill-rule:nonzero;"/>
                </g>
                <g transform="matrix(-1,0,0,1,269.6157,161.5235)">
                    <ellipse cx="0" cy="-10.617" rx="10.625" ry="10.617" style="fill:none;stroke:rgb(6,0,1);stroke-width:3.36px;"/>
                </g>
                <g transform="matrix(1,0,0,1,269.6157,182.3779)">
                    <path d="M0,21.233C-5.872,21.233 -10.625,16.48 -10.625,10.608C-10.625,4.753 -5.872,0 0,0C5.872,0 10.625,4.753 10.625,10.608C10.625,16.48 5.872,21.233 0,21.233" style="fill:white;fill-rule:nonzero;"/>
                </g>
                <g transform="matrix(1,0,0,1,269.6157,182.3779)">
                    <path d="M0,21.233C-5.872,21.233 -10.625,16.48 -10.625,10.608C-10.625,4.753 -5.872,0 0,0C5.872,0 10.625,4.753 10.625,10.608C10.625,16.48 5.872,21.233 0,21.233Z" style="fill:none;fill-rule:nonzero;stroke:rgb(6,0,1);stroke-width:3.36px;"/>
                </g>
                <g transform="matrix(1,0,0,1,224.4506,166.9787)">
                    <path d="M0,9.944C-2.741,9.944 -4.972,7.714 -4.972,4.972C-4.972,2.23 -2.741,0 0,0L35.567,0C38.309,0 40.539,2.23 40.539,4.972C40.539,7.714 38.309,9.944 35.567,9.944L0,9.944Z" style="fill:rgb(158,158,158);fill-rule:nonzero;"/>
                </g>
                <g transform="matrix(1,0,0,1,260.0177,178.6018)">
                    <path d="M0,-13.302L-35.567,-13.302C-39.234,-13.302 -42.218,-10.318 -42.218,-6.651C-42.218,-2.984 -39.234,0 -35.567,0L0,0C3.667,0 6.651,-2.984 6.651,-6.651C6.651,-10.318 3.667,-13.302 0,-13.302M0,-9.944C1.819,-9.944 3.293,-8.47 3.293,-6.651C3.293,-4.832 1.819,-3.358 0,-3.358L-35.567,-3.358C-37.386,-3.358 -38.86,-4.832 -38.86,-6.651C-38.86,-8.47 -37.386,-9.944 -35.567,-9.944L0,-9.944Z" style="fill:rgb(6,0,1);fill-rule:nonzero;"/>
                </g>
                <g transform="matrix(1,0,0,1,933.9164,219.5015)">
                    <path d="M0,68.64C-13.478,68.64 -24.034,53.565 -24.034,34.32C-24.034,15.076 -13.478,0 0,0C13.478,0 24.034,15.076 24.034,34.32C24.034,53.565 13.478,68.64 0,68.64" style="fill:rgb(158,158,158);fill-rule:nonzero;"/>
                </g>
                <g transform="matrix(1,0,0,1,933.9163,292.2719)">
                    <path d="M0,-76.901C-15.793,-76.901 -28.165,-60.011 -28.165,-38.45C-28.165,-16.889 -15.793,0 0,0C15.793,0 28.165,-16.889 28.165,-38.45C28.165,-60.011 15.793,-76.901 0,-76.901M0,-68.639C10.992,-68.639 19.903,-55.123 19.903,-38.45C19.903,-21.777 10.992,-8.261 0,-8.261C-10.992,-8.261 -19.903,-21.777 -19.903,-38.45C-19.903,-55.123 -10.992,-68.639 0,-68.639" style="fill:rgb(6,0,1);fill-rule:nonzero;"/>
                </g>
                <g transform="matrix(1,0,0,1,124.475,236.5285)">
                    <path d="M0,46.342C-12.78,46.342 -22.61,40.483 -25.043,31.416C-26.678,25.321 -24.764,18.793 -19.654,13.034C-14.966,7.752 -8.024,3.673 -0.109,1.55C3.725,0.521 7.59,0 11.382,0C24.162,0 33.992,5.859 36.425,14.926C38.06,21.021 36.146,27.549 31.035,33.307C26.348,38.59 19.406,42.669 11.491,44.792C7.657,45.821 3.791,46.342 0,46.342" style="fill:rgb(158,158,158);fill-rule:nonzero;"/>
                </g>
                <g transform="matrix(1,0,0,1,135.8561,287.0011)">
                    <path d="M0,-54.604C-4.153,-54.604 -8.379,-54.035 -12.561,-52.913C-21.248,-50.583 -28.906,-46.061 -34.125,-40.18C-40.099,-33.448 -42.391,-25.359 -40.413,-17.987C-37.482,-7.06 -26.086,0 -11.381,0C-7.228,0 -3.002,-0.568 1.18,-1.69C9.867,-4.021 17.526,-8.543 22.744,-14.424C28.718,-21.156 31.01,-29.245 29.032,-36.617C26.101,-47.544 14.705,-54.604 0,-54.604M0,-46.342C10.481,-46.342 19.071,-41.864 21.053,-34.476C23.665,-24.738 13.81,-13.632 -0.96,-9.67C-4.523,-8.714 -8.049,-8.261 -11.381,-8.261C-21.863,-8.261 -30.452,-12.738 -32.434,-20.127C-35.046,-29.865 -25.19,-40.971 -10.421,-44.934C-6.857,-45.89 -3.333,-46.342 0,-46.342" style="fill:rgb(6,0,1);fill-rule:nonzero;"/>
                </g>
                <g transform="matrix(1,0,0,1,199.6693,236.5285)">
                    <path d="M0,46.342C-3.792,46.342 -7.658,45.821 -11.491,44.792C-19.406,42.669 -26.348,38.59 -31.036,33.307C-36.146,27.549 -38.06,21.021 -36.425,14.926C-33.992,5.859 -24.162,0 -11.382,0C-7.591,0 -3.725,0.521 0.109,1.55C8.024,3.673 14.965,7.752 19.653,13.034C24.763,18.793 26.677,25.321 25.042,31.416C22.609,40.483 12.778,46.342 0,46.342C-0.001,46.342 0,46.342 0,46.342" style="fill:rgb(158,158,158);fill-rule:nonzero;"/>
                </g>
                <g transform="matrix(1,0,0,1,188.2876,287.0011)">
                    <path d="M0,-54.604C-14.705,-54.604 -26.101,-47.544 -29.032,-36.617C-31.01,-29.245 -28.718,-21.156 -22.744,-14.424C-17.525,-8.543 -9.867,-4.021 -1.18,-1.69C3.002,-0.568 7.229,0 11.381,0C26.086,0 37.482,-7.06 40.413,-17.987C42.391,-25.359 40.099,-33.448 34.125,-40.18C28.906,-46.061 21.248,-50.583 12.561,-52.913C8.379,-54.035 4.152,-54.604 0,-54.604M0,-46.342C3.333,-46.342 6.857,-45.89 10.421,-44.934C25.191,-40.971 35.046,-29.865 32.434,-20.127C30.452,-12.738 21.863,-8.261 11.381,-8.261C8.049,-8.261 4.523,-8.714 0.96,-9.67C-13.81,-13.632 -23.665,-24.738 -21.053,-34.476C-19.071,-41.864 -10.481,-46.342 0,-46.342" style="fill:rgb(6,0,1);fill-rule:nonzero;"/>
                </g>
                <g transform="matrix(1,0,0,1,145.0558,93.7357)">
                    <path d="M0,-31.232C-1.264,-31.232 -2.291,-30.204 -2.291,-28.94C-2.291,-27.676 -1.264,-26.648 0,-26.648L12.075,-26.648L12.075,-26.759C12.075,-29.225 10.068,-31.232 7.6,-31.232L0,-31.232ZM16.098,4.023L9.867,4.023L9.867,-22.625L0,-22.625C-3.481,-22.625 -6.314,-25.458 -6.314,-28.94C-6.314,-32.422 -3.481,-35.255 0,-35.255L7.6,-35.255C12.286,-35.255 16.098,-31.443 16.098,-26.759L16.098,4.023Z" style="fill:rgb(6,0,1);fill-rule:nonzero;"/>
                </g>
                <g transform="matrix(1,0,0,1,145.0527,60.4955)">
                    <path d="M0,8.607C-1.186,8.607 -2.265,8.12 -3.045,7.34C-3.824,6.561 -4.304,5.489 -4.304,4.303C-4.304,1.924 -2.371,0 0,0L7.608,0C11.189,0 14.088,2.899 14.088,6.48L14.088,8.607L0,8.607Z" style="fill:rgb(6,0,1);fill-rule:nonzero;"/>
                </g>
                <g transform="matrix(1,0,0,1,180.2598,93.7357)">
                    <path d="M0,-31.232C-1.264,-31.232 -2.291,-30.204 -2.291,-28.94C-2.291,-27.676 -1.264,-26.648 0,-26.648L12.075,-26.648L12.075,-26.759C12.075,-29.225 10.068,-31.232 7.6,-31.232L0,-31.232ZM16.098,4.023L9.867,4.023L9.867,-22.625L0,-22.625C-3.481,-22.625 -6.314,-25.458 -6.314,-28.94C-6.314,-32.422 -3.481,-35.255 0,-35.255L7.6,-35.255C12.286,-35.255 16.098,-31.443 16.098,-26.759L16.098,4.023Z" style="fill:rgb(6,0,1);fill-rule:nonzero;"/>
                </g>
                <g transform="matrix(1,0,0,1,180.2567,60.4955)">
                    <path d="M0,8.607C-1.186,8.607 -2.265,8.12 -3.045,7.34C-3.824,6.561 -4.304,5.489 -4.304,4.303C-4.304,1.924 -2.371,0 0,0L7.608,0C11.189,0 14.088,2.899 14.088,6.48L14.088,8.607L0,8.607Z" style="fill:rgb(6,0,1);fill-rule:nonzero;"/>
                </g>
                <g transform="matrix(1,0,0,1,91.7172,90.4132)">
                    <path d="M0,150.428C-2.209,150.428 -4,148.637 -4,146.428L-4,32.494C-4,31.433 -3.578,30.416 -2.828,29.665L25.666,1.171C26.416,0.421 27.434,0 28.494,0L142.428,0C144.637,0 146.428,1.791 146.428,4L146.428,146.428C146.428,148.637 144.637,150.428 142.428,150.428L0,150.428Z" style="fill:rgb(236,227,208);fill-rule:nonzero;"/>
                </g>
                <g transform="matrix(1,0,0,1,234.1454,244.8408)">
                    <path d="M0,-158.428L-113.934,-158.428C-116.056,-158.428 -118.091,-157.585 -119.591,-156.085L-148.085,-127.591C-149.586,-126.09 -150.428,-124.055 -150.428,-121.934L-150.428,-8C-150.428,-3.581 -146.847,0 -142.428,0L0,0C4.418,0 8,-3.581 8,-8L8,-150.428C8,-154.846 4.418,-158.428 0,-158.428M0,-150.428L0,-8L-142.428,-8L-142.428,-121.934L-113.934,-150.428L0,-150.428Z" style="fill:rgb(6,0,1);fill-rule:nonzero;"/>
                </g>
                <g>
                    <clipPath id="_clip1">
                        <path d="M120.211,94.413C109.084,105.541 102.845,111.779 91.717,122.907L91.717,236.841L234.145,236.841L234.145,94.413L120.211,94.413Z" clip-rule="nonzero"/>
                    </clipPath>
                    <g clip-path="url(#_clip1)">
                        <g transform="matrix(1,0,0,1,0,120.821)">
                            <rect x="91.717" y="102.58" width="142.428" height="13.44" style="fill:rgb(65,160,169);"/>
                        </g>
                        <g transform="matrix(1,0,0,1,0,93.943)">
                            <rect x="91.717" y="116.019" width="142.428" height="13.44" style="fill:rgb(110,52,122);"/>
                        </g>
                        <g transform="matrix(1,0,0,1,0,67.063)">
                            <rect x="91.717" y="129.459" width="142.428" height="13.44" style="fill:rgb(201,90,43);"/>
                        </g>
                    </g>
                </g>
                <g transform="matrix(1,0,0,1,749.6869,129.909)">
                    <path d="M0,84.083C-10.026,84.083 -18.702,76.928 -20.628,67.07C-21.003,65.149 -21.064,57.691 -21.061,41.701C-21.055,26.395 -21.011,18.97 -20.628,17.012C-18.701,7.155 -10.026,0 0,0C0.585,0 1.178,0.025 1.762,0.075C11.436,0.898 19.416,8.463 20.739,18.063C21.429,23.065 20.316,28.142 17.605,32.356C16.032,34.805 15.068,37.259 14.743,39.649C14.637,40.428 14.581,41.239 14.577,42.059C14.581,42.845 14.637,43.655 14.743,44.433C15.069,46.825 16.032,49.278 17.606,51.727C20.315,55.941 21.429,61.018 20.739,66.021C19.416,75.62 11.436,83.185 1.763,84.008C1.178,84.058 0.585,84.083 0.001,84.083L0,84.083Z" style="fill:rgb(158,158,158);fill-rule:nonzero;"/>
                </g>
                <g transform="matrix(1,0,0,1,749.6874,217.35)">
                    <path d="M0,-90.799C-11.629,-90.799 -21.691,-82.503 -23.924,-71.072C-24.344,-68.922 -24.413,-63.156 -24.419,-45.742C-24.425,-26.898 -24.328,-21.792 -23.924,-19.727C-21.691,-8.296 -11.629,0 0,0C0.68,0 1.368,-0.029 2.046,-0.086C13.269,-1.042 22.53,-9.821 24.065,-20.961C24.864,-26.758 23.573,-32.643 20.43,-37.531C19.123,-39.563 18.329,-41.558 18.071,-43.46C17.986,-44.083 17.94,-44.735 17.935,-45.399C17.94,-46.064 17.986,-46.716 18.071,-47.339C18.33,-49.241 19.123,-51.236 20.43,-53.268C23.573,-58.156 24.864,-64.041 24.065,-69.837C22.53,-80.978 13.269,-89.758 2.046,-90.712C1.368,-90.77 0.68,-90.799 0,-90.799M0,-84.083C0.489,-84.083 0.982,-84.062 1.477,-84.02C9.569,-83.332 16.303,-76.966 17.412,-68.92C18.025,-64.472 16.96,-60.289 14.781,-56.901C13.089,-54.27 11.838,-51.344 11.416,-48.245C11.287,-47.301 11.224,-46.35 11.218,-45.399C11.224,-44.449 11.287,-43.498 11.416,-42.554C11.838,-39.455 13.089,-36.529 14.781,-33.898C16.96,-30.51 18.025,-26.327 17.412,-21.878C16.303,-13.833 9.569,-7.467 1.477,-6.779C0.982,-6.736 0.49,-6.716 0,-6.716C-8.344,-6.716 -15.714,-12.729 -17.332,-21.015C-17.696,-22.875 -17.706,-34.356 -17.702,-45.739C-17.699,-56.897 -17.689,-67.961 -17.332,-69.785C-15.714,-78.07 -8.345,-84.083 0,-84.083" style="fill:rgb(6,0,1);fill-rule:nonzero;"/>
                </g>
                <g transform="matrix(-1,0,0,1,749.6202,161.5235)">
                    <path d="M0,-21.233C-5.872,-21.233 -10.625,-16.48 -10.625,-10.608C-10.625,-4.753 -5.872,0 0,0C5.872,0 10.625,-4.753 10.625,-10.608C10.625,-16.48 5.872,-21.233 0,-21.233" style="fill:white;fill-rule:nonzero;"/>
                </g>
                <g transform="matrix(-1,0,0,1,749.6202,161.5235)">
                    <ellipse cx="0" cy="-10.617" rx="10.625" ry="10.617" style="fill:none;stroke:rgb(6,0,1);stroke-width:3.36px;"/>
                </g>
                <g transform="matrix(1,0,0,1,749.6202,182.3779)">
                    <path d="M0,21.233C-5.872,21.233 -10.625,16.48 -10.625,10.608C-10.625,4.753 -5.872,0 0,0C5.872,0 10.625,4.753 10.625,10.608C10.625,16.48 5.872,21.233 0,21.233" style="fill:white;fill-rule:nonzero;"/>
                </g>
                <g transform="matrix(1,0,0,1,749.6202,182.3779)">
                    <path d="M0,21.233C-5.872,21.233 -10.625,16.48 -10.625,10.608C-10.625,4.753 -5.872,0 0,0C5.872,0 10.625,4.753 10.625,10.608C10.625,16.48 5.872,21.233 0,21.233Z" style="fill:none;fill-rule:nonzero;stroke:rgb(6,0,1);stroke-width:3.36px;"/>
                </g>
                <g transform="matrix(1,0,0,1,704.4554,166.9787)">
                    <path d="M0,9.944C-2.741,9.944 -4.972,7.714 -4.972,4.972C-4.972,2.23 -2.741,0 0,0L35.566,0C38.308,0 40.538,2.23 40.538,4.972C40.538,7.714 38.308,9.944 35.566,9.944L0,9.944Z" style="fill:rgb(158,158,158);fill-rule:nonzero;"/>
                </g>
                <g transform="matrix(1,0,0,1,740.0222,178.6018)">
                    <path d="M0,-13.302L-35.567,-13.302C-39.234,-13.302 -42.218,-10.318 -42.218,-6.651C-42.218,-2.984 -39.234,0 -35.567,0L0,0C3.667,0 6.651,-2.984 6.651,-6.651C6.651,-10.318 3.667,-13.302 0,-13.302M0,-9.944C1.819,-9.944 3.293,-8.47 3.293,-6.651C3.293,-4.832 1.819,-3.358 0,-3.358L-35.567,-3.358C-37.386,-3.358 -38.86,-4.832 -38.86,-6.651C-38.86,-8.47 -37.386,-9.944 -35.567,-9.944L0,-9.944Z" style="fill:rgb(6,0,1);fill-rule:nonzero;"/>
                </g>
                <g transform="matrix(1,0,0,1,604.4789,236.5285)">
                    <path d="M0,46.342C-12.779,46.342 -22.609,40.483 -25.042,31.416C-26.677,25.321 -24.763,18.793 -19.653,13.034C-14.965,7.752 -8.024,3.673 -0.109,1.55C3.725,0.521 7.591,0 11.382,0C24.162,0 33.992,5.859 36.425,14.926C38.06,21.021 36.146,27.549 31.036,33.307C26.348,38.59 19.406,42.669 11.491,44.792C7.657,45.821 3.792,46.342 0,46.342" style="fill:rgb(158,158,158);fill-rule:nonzero;"/>
                </g>
                <g transform="matrix(1,0,0,1,615.8606,287.0011)">
                    <path d="M0,-54.604C-4.152,-54.604 -8.379,-54.035 -12.561,-52.913C-32.032,-47.69 -44.266,-32.348 -40.413,-17.987C-37.482,-7.06 -26.086,0 -11.381,0C-7.228,0 -3.002,-0.568 1.18,-1.69C20.651,-6.914 32.885,-22.255 29.032,-36.617C26.101,-47.544 14.705,-54.604 0,-54.604M0,-46.342C10.481,-46.342 19.071,-41.864 21.053,-34.476C23.665,-24.738 13.81,-13.632 -0.96,-9.67C-4.523,-8.714 -8.049,-8.261 -11.381,-8.261C-21.863,-8.261 -30.452,-12.738 -32.434,-20.127C-35.046,-29.865 -25.19,-40.971 -10.421,-44.934C-6.857,-45.89 -3.333,-46.342 0,-46.342" style="fill:rgb(6,0,1);fill-rule:nonzero;"/>
                </g>
                <g transform="matrix(1,0,0,1,679.6732,236.5285)">
                    <path d="M0,46.342C-3.791,46.342 -7.657,45.821 -11.491,44.792C-19.406,42.669 -26.348,38.59 -31.035,33.307C-36.146,27.549 -38.059,21.021 -36.423,14.925C-33.991,5.859 -24.161,0 -11.382,0C-7.59,0 -3.725,0.521 0.109,1.55C8.024,3.673 14.966,7.752 19.654,13.034C24.764,18.793 26.678,25.321 25.043,31.416C22.61,40.483 12.779,46.342 0.001,46.342L0,46.342Z" style="fill:rgb(158,158,158);fill-rule:nonzero;"/>
                </g>
                <g transform="matrix(1,0,0,1,668.2921,287.0011)">
                    <path d="M0,-54.604C-14.705,-54.604 -26.101,-47.544 -29.032,-36.617C-32.885,-22.255 -20.651,-6.914 -1.18,-1.69C3.002,-0.568 7.228,0 11.381,0C26.086,0 37.482,-7.06 40.413,-17.987C44.266,-32.348 32.032,-47.69 12.561,-52.913C8.379,-54.035 4.152,-54.604 0,-54.604M0,-46.342C3.333,-46.342 6.857,-45.89 10.421,-44.934C25.19,-40.971 35.046,-29.865 32.434,-20.127C30.452,-12.738 21.863,-8.261 11.381,-8.261C8.049,-8.261 4.523,-8.714 0.96,-9.67C-13.81,-13.632 -23.665,-24.738 -21.053,-34.476C-19.071,-41.864 -10.481,-46.342 0,-46.342" style="fill:rgb(6,0,1);fill-rule:nonzero;"/>
                </g>
                <g transform="matrix(1,0,0,1,1490.2875,217.4869)">
                    <path d="M0,46.343C-3.791,46.343 -7.657,45.822 -11.491,44.793C-28.725,40.17 -39.676,27.051 -36.424,14.927C-33.991,5.86 -24.161,0 -11.38,0C-7.589,0 -3.724,0.522 0.11,1.55C17.344,6.174 28.295,19.292 25.043,31.417C22.61,40.484 12.779,46.343 0.001,46.343L0,46.343Z" style="fill:rgb(158,158,158);fill-rule:nonzero;"/>
                </g>
                <g transform="matrix(1,0,0,1,1478.9066,267.9605)">
                    <path d="M0,-54.604C-14.705,-54.604 -26.101,-47.544 -29.032,-36.617C-32.885,-22.255 -20.651,-6.914 -1.18,-1.69C3.002,-0.568 7.229,0 11.381,0C26.086,0 37.482,-7.06 40.413,-17.987C44.266,-32.348 32.032,-47.69 12.561,-52.913C8.379,-54.035 4.153,-54.604 0,-54.604M0,-46.342C3.333,-46.342 6.857,-45.89 10.421,-44.934C25.19,-40.971 35.046,-29.865 32.434,-20.127C30.452,-12.738 21.863,-8.261 11.381,-8.261C8.049,-8.261 4.523,-8.714 0.96,-9.67C-13.81,-13.632 -23.665,-24.738 -21.053,-34.476C-19.071,-41.864 -10.481,-46.342 0,-46.342" style="fill:rgb(6,0,1);fill-rule:nonzero;"/>
                </g>
                <g transform="matrix(1,0,0,1,625.0602,93.7357)">
                    <path d="M0,-31.232C-1.264,-31.232 -2.291,-30.204 -2.291,-28.94C-2.291,-27.676 -1.264,-26.648 0,-26.648L12.075,-26.648L12.075,-26.759C12.075,-29.225 10.068,-31.232 7.6,-31.232L0,-31.232ZM16.098,4.023L9.867,4.023L9.867,-22.625L0,-22.625C-3.481,-22.625 -6.314,-25.458 -6.314,-28.94C-6.314,-32.422 -3.481,-35.255 0,-35.255L7.6,-35.255C12.286,-35.255 16.098,-31.443 16.098,-26.759L16.098,4.023Z" style="fill:rgb(6,0,1);fill-rule:nonzero;"/>
                </g>
                <g transform="matrix(1,0,0,1,625.0571,60.4955)">
                    <path d="M0,8.607C-1.185,8.607 -2.265,8.12 -3.045,7.34C-3.824,6.561 -4.304,5.489 -4.304,4.303C-4.304,1.924 -2.371,0 0,0L7.608,0C11.189,0 14.088,2.899 14.088,6.48L14.088,8.607L0,8.607Z" style="fill:rgb(6,0,1);fill-rule:nonzero;"/>
                </g>
                <g transform="matrix(1,0,0,1,660.2643,93.7357)">
                    <path d="M0,-31.232C-1.264,-31.232 -2.291,-30.204 -2.291,-28.94C-2.291,-27.676 -1.264,-26.648 0,-26.648L12.075,-26.648L12.075,-26.759C12.075,-29.225 10.068,-31.232 7.6,-31.232L0,-31.232ZM16.098,4.023L9.867,4.023L9.867,-22.625L0,-22.625C-3.481,-22.625 -6.314,-25.458 -6.314,-28.94C-6.314,-32.422 -3.481,-35.255 0,-35.255L7.6,-35.255C12.286,-35.255 16.098,-31.443 16.098,-26.759L16.098,4.023Z" style="fill:rgb(6,0,1);fill-rule:nonzero;"/>
                </g>
                <g transform="matrix(1,0,0,1,660.2611,60.4955)">
                    <path d="M0,8.607C-1.185,8.607 -2.265,8.12 -3.045,7.34C-3.824,6.561 -4.304,5.489 -4.304,4.303C-4.304,1.924 -2.371,0 0,0L7.608,0C11.189,0 14.088,2.899 14.088,6.48L14.088,8.607L0,8.607Z" style="fill:rgb(6,0,1);fill-rule:nonzero;"/>
                </g>
                <g transform="matrix(1,0,0,1,571.7211,90.4132)">
                    <path d="M0,150.428C-2.209,150.428 -4,148.637 -4,146.428L-4,32.494C-4,31.433 -3.578,30.416 -2.828,29.665L25.667,1.171C26.417,0.421 27.435,0 28.495,0L142.429,0C144.638,0 146.429,1.791 146.429,4L146.429,146.428C146.429,148.637 144.638,150.428 142.429,150.428L0,150.428Z" style="fill:rgb(236,227,208);fill-rule:nonzero;"/>
                </g>
                <g transform="matrix(1,0,0,1,714.1498,244.8408)">
                    <path d="M0,-158.428L-113.934,-158.428C-116.056,-158.428 -118.091,-157.585 -119.591,-156.085L-148.085,-127.591C-149.585,-126.09 -150.428,-124.055 -150.428,-121.934L-150.428,-8C-150.428,-3.581 -146.847,0 -142.428,0L0,0C4.418,0 8,-3.581 8,-8L8,-150.428C8,-154.846 4.418,-158.428 0,-158.428M0,-150.428L0,-8L-142.428,-8L-142.428,-121.934C-131.301,-133.061 -125.062,-139.3 -113.934,-150.428L0,-150.428Z" style="fill:rgb(6,0,1);fill-rule:nonzero;"/>
                </g>
                <g>
                    <clipPath id="_clip2">
                        <path d="M600.215,94.413C589.088,105.541 582.849,111.779 571.721,122.907L571.721,236.841L714.15,236.841L714.15,94.413L600.215,94.413Z" clip-rule="nonzero"/>
                    </clipPath>
                    <g clip-path="url(#_clip2)">
                        <g transform="matrix(1,0,0,1,0,120.821)">
                            <rect x="571.721" y="102.58" width="142.428" height="13.44" style="fill:rgb(65,160,169);"/>
                        </g>
                        <g transform="matrix(1,0,0,1,0,93.943)">
                            <rect x="571.721" y="116.019" width="142.428" height="13.44" style="fill:rgb(110,52,122);"/>
                        </g>
                        <g transform="matrix(1,0,0,1,0,67.063)">
                            <rect x="571.721" y="129.459" width="142.428" height="13.44" style="fill:rgb(201,90,43);"/>
                        </g>
                    </g>
                </g>
                <g transform="matrix(1,0,0,1,884.973,93.7357)">
                    <path d="M0,-31.232C-1.264,-31.232 -2.291,-30.204 -2.291,-28.94C-2.291,-27.676 -1.264,-26.648 0,-26.648L12.075,-26.648L12.075,-26.759C12.075,-29.225 10.068,-31.232 7.6,-31.232L0,-31.232ZM16.098,4.023L9.867,4.023L9.867,-22.625L0,-22.625C-3.481,-22.625 -6.314,-25.458 -6.314,-28.94C-6.314,-32.422 -3.481,-35.255 0,-35.255L7.6,-35.255C12.286,-35.255 16.098,-31.443 16.098,-26.759L16.098,4.023Z" style="fill:rgb(6,0,1);fill-rule:nonzero;"/>
                </g>
                <g transform="matrix(1,0,0,1,884.9698,60.4955)">
                    <path d="M0,8.607C-1.185,8.607 -2.265,8.12 -3.045,7.34C-3.824,6.561 -4.304,5.489 -4.304,4.303C-4.304,1.924 -2.371,0 0,0L7.608,0C11.189,0 14.088,2.899 14.088,6.48L14.088,8.607L0,8.607Z" style="fill:rgb(6,0,1);fill-rule:nonzero;"/>
                </g>
                <g transform="matrix(1,0,0,1,920.177,93.7357)">
                    <path d="M0,-31.232C-1.264,-31.232 -2.291,-30.204 -2.291,-28.94C-2.291,-27.676 -1.264,-26.648 0,-26.648L12.075,-26.648L12.075,-26.759C12.075,-29.225 10.068,-31.232 7.6,-31.232L0,-31.232ZM16.098,4.023L9.867,4.023L9.867,-22.625L0,-22.625C-3.481,-22.625 -6.314,-25.458 -6.314,-28.94C-6.314,-32.422 -3.481,-35.255 0,-35.255L7.6,-35.255C12.286,-35.255 16.098,-31.443 16.098,-26.759L16.098,4.023Z" style="fill:rgb(6,0,1);fill-rule:nonzero;"/>
                </g>
                <g transform="matrix(1,0,0,1,920.1738,60.4955)">
                    <path d="M0,8.607C-1.185,8.607 -2.265,8.12 -3.045,7.34C-3.824,6.561 -4.304,5.489 -4.304,4.303C-4.304,1.924 -2.371,0 0,0L7.608,0C11.189,0 14.088,2.899 14.088,6.48L14.088,8.607L0,8.607Z" style="fill:rgb(6,0,1);fill-rule:nonzero;"/>
                </g>
                <g transform="matrix(1,0,0,1,831.6342,90.4132)">
                    <path d="M0,150.428C-2.209,150.428 -4,148.637 -4,146.428L-4,32.494C-4,31.433 -3.578,30.416 -2.828,29.665L25.666,1.171C26.416,0.421 27.434,0 28.494,0L142.429,0C144.638,0 146.429,1.791 146.429,4L146.429,146.428C146.429,148.637 144.638,150.428 142.429,150.428L0,150.428Z" style="fill:rgb(236,227,208);fill-rule:nonzero;"/>
                </g>
                <g transform="matrix(1,0,0,1,974.0625,244.8408)">
                    <path d="M0,-158.428L-113.934,-158.428C-116.056,-158.428 -118.091,-157.585 -119.591,-156.085L-148.085,-127.591C-149.586,-126.09 -150.428,-124.055 -150.428,-121.934L-150.428,-8C-150.428,-3.581 -146.847,0 -142.428,0L0,0C4.418,0 8,-3.581 8,-8L8,-150.428C8,-154.846 4.418,-158.428 0,-158.428M0,-150.428L0,-8L-142.428,-8L-142.428,-121.934C-131.301,-133.061 -125.062,-139.3 -113.934,-150.428L0,-150.428Z" style="fill:rgb(6,0,1);fill-rule:nonzero;"/>
                </g>
                <g>
                    <clipPath id="_clip3">
                        <path d="M860.128,94.413C849.001,105.541 842.762,111.779 831.634,122.907L831.634,236.841L974.063,236.841L974.063,94.413L860.128,94.413Z" clip-rule="nonzero"/>
                    </clipPath>
                    <g clip-path="url(#_clip3)">
                        <g transform="matrix(1,0,0,1,0,120.821)">
                            <rect x="831.634" y="102.58" width="142.428" height="13.44" style="fill:rgb(65,160,169);"/>
                        </g>
                        <g transform="matrix(1,0,0,1,0,93.943)">
                            <rect x="831.634" y="116.019" width="142.428" height="13.44" style="fill:rgb(110,52,122);"/>
                        </g>
                        <g transform="matrix(1,0,0,1,0,67.063)">
                            <rect x="831.634" y="129.459" width="142.428" height="13.44" style="fill:rgb(201,90,43);"/>
                        </g>
                    </g>
                </g>
                <g transform="matrix(1,0,0,1,953.8491,209.3702)">
                    <path d="M0,-44.329C0,-44.329 -5.214,0 -52.778,0C-100.343,0 -105.557,-44.329 -105.557,-44.329" style="fill:rgb(236,227,208);fill-rule:nonzero;stroke:rgb(6,0,1);stroke-width:7.5px;stroke-linecap:round;"/>
                </g>
                <g transform="matrix(-0.866023,-0.500004,-0.500004,0.866023,954.03218,156.389023)">
                    <rect x="-12.789" y="3.427" width="15.89" height="8.144" style="fill:rgb(6,0,1);"/>
                </g>
                <g transform="matrix(0.866023,-0.500004,-0.500004,-0.866023,847.21768,174.222177)">
                    <rect x="-3.1" y="3.427" width="15.89" height="8.144" style="fill:rgb(6,0,1);"/>
                </g>
                <g transform="matrix(1,0,0,1,0,10.244)">
                    <rect x="915.972" y="156.755" width="15.667" height="15.667" style="fill:rgb(6,0,1);"/>
                </g>
                <g transform="matrix(1,0,0,1,0,-52.422)">
                    <rect x="915.972" y="188.088" width="15.667" height="15.667" style="fill:rgb(6,0,1);"/>
                </g>
                <g transform="matrix(1,0,0,1,0,-21.088)">
                    <rect x="908.138" y="172.421" width="15.667" height="15.667" style="fill:rgb(6,0,1);"/>
                </g>
                <g transform="matrix(-1,0,0,1,1762.011,-52.422)">
                    <rect x="873.172" y="188.088" width="15.667" height="15.667" style="fill:rgb(6,0,1);"/>
                </g>
                <g transform="matrix(-1,0,0,1,1762.011,10.244)">
                    <rect x="873.172" y="156.755" width="15.667" height="15.667" style="fill:rgb(6,0,1);"/>
                </g>
                <g transform="matrix(-1,0,0,1,1768.291,-21.09)">
                    <rect x="876.312" y="172.422" width="15.667" height="15.667" style="fill:rgb(6,0,1);"/>
                </g>
                <g transform="matrix(1,0,0,1,879.2152,220.6259)">
                    <path d="M0,64.226C-10.444,64.226 -21.747,56.338 -28.795,44.13C-33.227,36.455 -35.419,28.034 -34.967,20.418C-34.477,12.169 -30.987,5.767 -25.141,2.391C-22.393,0.805 -19.305,0 -15.962,0C-5.519,0 5.785,7.888 12.833,20.096C22.455,36.763 20.85,55.097 9.179,61.835C6.431,63.421 3.343,64.226 0,64.226" style="fill:rgb(158,158,158);fill-rule:nonzero;"/>
                </g>
                <g transform="matrix(1,0,0,1,863.2531,288.9823)">
                    <path d="M0,-72.487C-4.077,-72.487 -7.86,-71.496 -11.244,-69.543C-24.922,-61.646 -27.191,-40.833 -16.411,-22.161C-8.638,-8.699 4.069,0 15.962,0C20.039,0 23.822,-0.99 27.206,-2.944C40.884,-10.841 43.153,-31.653 32.373,-50.326C24.6,-63.788 11.893,-72.487 0,-72.487M0,-64.225C8.657,-64.226 18.772,-57.359 25.218,-46.195C33.554,-31.756 32.595,-15.595 23.076,-10.099C20.917,-8.852 18.502,-8.261 15.962,-8.261C7.305,-8.261 -2.81,-15.127 -9.256,-26.292C-17.592,-40.731 -16.633,-56.892 -7.113,-62.388C-4.954,-63.634 -2.54,-64.225 0,-64.225" style="fill:rgb(6,0,1);fill-rule:nonzero;"/>
                </g>
                <g transform="matrix(1,0,0,1,1184.1156,219.5015)">
                    <path d="M0,68.64C-13.478,68.64 -24.034,53.565 -24.034,34.32C-24.034,15.076 -13.478,0 0,0C13.478,0 24.034,15.076 24.034,34.32C24.034,53.565 13.478,68.64 0,68.64" style="fill:rgb(158,158,158);fill-rule:nonzero;"/>
                </g>
                <g transform="matrix(1,0,0,1,1184.1157,292.2719)">
                    <path d="M0,-76.901C-15.793,-76.901 -28.165,-60.011 -28.165,-38.45C-28.165,-16.889 -15.793,0 0,0C15.793,0 28.165,-16.889 28.165,-38.45C28.165,-60.011 15.793,-76.901 0,-76.901M0,-68.639C10.992,-68.639 19.903,-55.123 19.903,-38.45C19.903,-21.777 10.992,-8.261 0,-8.261C-10.992,-8.261 -19.903,-21.777 -19.903,-38.45C-19.903,-55.123 -10.992,-68.639 0,-68.639" style="fill:rgb(6,0,1);fill-rule:nonzero;"/>
                </g>
                <g transform="matrix(1,0,0,1,1557.7084,129.909)">
                    <path d="M0,84.083C-10.026,84.083 -18.702,76.928 -20.628,67.07C-21.003,65.149 -21.064,57.691 -21.061,41.701C-21.055,26.395 -21.011,18.97 -20.628,17.012C-18.701,7.155 -10.026,0 0,0C0.585,0 1.178,0.025 1.762,0.075C11.436,0.898 19.416,8.463 20.739,18.063C21.429,23.065 20.316,28.142 17.605,32.356C16.032,34.805 15.068,37.259 14.743,39.649C14.637,40.428 14.581,41.239 14.577,42.059C14.581,42.845 14.637,43.655 14.743,44.433C15.069,46.825 16.032,49.278 17.606,51.727C20.315,55.941 21.429,61.018 20.739,66.021C19.416,75.62 11.436,83.185 1.763,84.008C1.178,84.058 0.585,84.083 0.001,84.083L0,84.083Z" style="fill:rgb(158,158,158);fill-rule:nonzero;"/>
                </g>
                <g transform="matrix(1,0,0,1,1557.7089,217.35)">
                    <path d="M0,-90.799C-11.629,-90.799 -21.691,-82.503 -23.924,-71.072C-24.344,-68.923 -24.413,-63.157 -24.419,-45.742C-24.425,-26.899 -24.328,-21.793 -23.924,-19.727C-21.691,-8.296 -11.629,0 0,0C0.68,0 1.368,-0.029 2.046,-0.086C13.27,-1.042 22.53,-9.821 24.065,-20.961C24.865,-26.758 23.573,-32.642 20.43,-37.531C19.123,-39.563 18.329,-41.558 18.07,-43.46C17.986,-44.082 17.94,-44.735 17.935,-45.399C17.94,-46.064 17.986,-46.716 18.071,-47.339C18.33,-49.241 19.124,-51.236 20.43,-53.268C23.573,-58.157 24.865,-64.041 24.065,-69.837C22.53,-80.978 13.27,-89.758 2.046,-90.712C1.368,-90.77 0.68,-90.799 0,-90.799M0,-84.083C0.489,-84.083 0.982,-84.062 1.477,-84.02C9.569,-83.332 16.303,-76.966 17.412,-68.92C18.025,-64.472 16.96,-60.289 14.781,-56.901C13.089,-54.27 11.838,-51.344 11.416,-48.245C11.287,-47.301 11.224,-46.35 11.218,-45.399C11.224,-44.449 11.287,-43.498 11.416,-42.554C11.838,-39.455 13.089,-36.529 14.781,-33.898C16.96,-30.51 18.025,-26.327 17.412,-21.878C16.303,-13.833 9.569,-7.467 1.477,-6.779C0.982,-6.736 0.49,-6.716 0,-6.716C-8.344,-6.716 -15.714,-12.729 -17.332,-21.015C-17.696,-22.875 -17.706,-34.356 -17.702,-45.739C-17.699,-56.897 -17.689,-67.961 -17.332,-69.785C-15.714,-78.07 -8.345,-84.083 0,-84.083" style="fill:rgb(6,0,1);fill-rule:nonzero;"/>
                </g>
                <g transform="matrix(-1,0,0,1,1557.6416,161.5235)">
                    <path d="M0,-21.233C-5.872,-21.233 -10.625,-16.48 -10.625,-10.608C-10.625,-4.753 -5.872,0 0,0C5.872,0 10.625,-4.753 10.625,-10.608C10.625,-16.48 5.872,-21.233 0,-21.233" style="fill:white;fill-rule:nonzero;"/>
                </g>
                <g transform="matrix(-1,0,0,1,1557.6416,161.5235)">
                    <ellipse cx="0" cy="-10.617" rx="10.625" ry="10.617" style="fill:none;stroke:rgb(6,0,1);stroke-width:3.36px;"/>
                </g>
                <g transform="matrix(1,0,0,1,1557.6416,182.3779)">
                    <path d="M0,21.233C-5.872,21.233 -10.625,16.48 -10.625,10.608C-10.625,4.753 -5.872,0 0,0C5.872,0 10.625,4.753 10.625,10.608C10.625,16.48 5.872,21.233 0,21.233" style="fill:white;fill-rule:nonzero;"/>
                </g>
                <g transform="matrix(1,0,0,1,1557.6416,182.3779)">
                    <path d="M0,21.233C-5.872,21.233 -10.625,16.48 -10.625,10.608C-10.625,4.753 -5.872,0 0,0C5.872,0 10.625,4.753 10.625,10.608C10.625,16.48 5.872,21.233 0,21.233Z" style="fill:none;fill-rule:nonzero;stroke:rgb(6,0,1);stroke-width:3.36px;"/>
                </g>
                <g transform="matrix(1,0,0,1,1512.4769,166.9787)">
                    <path d="M0,9.944C-2.741,9.944 -4.972,7.714 -4.972,4.972C-4.972,2.23 -2.741,0 0,0L35.566,0C38.308,0 40.538,2.23 40.538,4.972C40.538,7.714 38.308,9.944 35.566,9.944L0,9.944Z" style="fill:rgb(158,158,158);fill-rule:nonzero;"/>
                </g>
                <g transform="matrix(1,0,0,1,1548.0436,178.6018)">
                    <path d="M0,-13.302L-35.567,-13.302C-39.234,-13.302 -42.218,-10.318 -42.218,-6.651C-42.218,-2.984 -39.234,0 -35.567,0L0,0C3.667,0 6.651,-2.984 6.651,-6.651C6.651,-10.318 3.667,-13.302 0,-13.302M0,-9.944C1.819,-9.944 3.293,-8.47 3.293,-6.651C3.293,-4.832 1.819,-3.358 0,-3.358L-35.567,-3.358C-37.385,-3.358 -38.86,-4.832 -38.86,-6.651C-38.86,-8.47 -37.385,-9.944 -35.567,-9.944L0,-9.944Z" style="fill:rgb(6,0,1);fill-rule:nonzero;"/>
                </g>
                <g transform="matrix(1,0,0,1,1433.0818,93.7357)">
                    <path d="M0,-31.232C-1.264,-31.232 -2.291,-30.204 -2.291,-28.94C-2.291,-27.676 -1.264,-26.648 0,-26.648L12.075,-26.648L12.075,-26.759C12.075,-29.225 10.068,-31.232 7.6,-31.232L0,-31.232ZM16.098,4.023L9.866,4.023L9.866,-22.625L0,-22.625C-3.481,-22.625 -6.314,-25.458 -6.314,-28.94C-6.314,-32.422 -3.481,-35.255 0,-35.255L7.6,-35.255C12.286,-35.255 16.098,-31.443 16.098,-26.759L16.098,4.023Z" style="fill:rgb(6,0,1);fill-rule:nonzero;"/>
                </g>
                <g transform="matrix(1,0,0,1,1433.0786,60.4955)">
                    <path d="M0,8.607C-1.186,8.607 -2.265,8.12 -3.045,7.34C-3.824,6.561 -4.303,5.489 -4.303,4.303C-4.303,1.924 -2.371,0 0,0L7.608,0C11.189,0 14.088,2.899 14.088,6.48L14.088,8.607L0,8.607Z" style="fill:rgb(6,0,1);fill-rule:nonzero;"/>
                </g>
                <g transform="matrix(1,0,0,1,1468.2858,93.7357)">
                    <path d="M0,-31.232C-1.264,-31.232 -2.291,-30.204 -2.291,-28.94C-2.291,-27.676 -1.264,-26.648 0,-26.648L12.075,-26.648L12.075,-26.759C12.075,-29.225 10.068,-31.232 7.6,-31.232L0,-31.232ZM16.098,4.023L9.866,4.023L9.866,-22.625L0,-22.625C-3.481,-22.625 -6.314,-25.458 -6.314,-28.94C-6.314,-32.422 -3.481,-35.255 0,-35.255L7.6,-35.255C12.286,-35.255 16.098,-31.443 16.098,-26.759L16.098,4.023Z" style="fill:rgb(6,0,1);fill-rule:nonzero;"/>
                </g>
                <g transform="matrix(1,0,0,1,1468.2826,60.4955)">
                    <path d="M0,8.607C-1.185,8.607 -2.265,8.12 -3.045,7.34C-3.824,6.561 -4.303,5.489 -4.303,4.303C-4.303,1.924 -2.371,0 0,0L7.608,0C11.189,0 14.088,2.899 14.088,6.48L14.088,8.607L0,8.607Z" style="fill:rgb(6,0,1);fill-rule:nonzero;"/>
                </g>
                <g transform="matrix(1,0,0,1,1379.7426,90.4132)">
                    <path d="M0,150.428C-2.209,150.428 -4,148.637 -4,146.428L-4,32.494C-4,31.433 -3.578,30.416 -2.828,29.665L25.667,1.171C26.417,0.421 27.435,0 28.495,0L142.429,0C144.638,0 146.429,1.791 146.429,4L146.429,146.428C146.429,148.637 144.638,150.428 142.429,150.428L0,150.428Z" style="fill:rgb(236,227,208);fill-rule:nonzero;"/>
                </g>
                <g transform="matrix(1,0,0,1,1522.1713,244.8408)">
                    <path d="M0,-158.428L-113.934,-158.428C-116.056,-158.428 -118.091,-157.585 -119.591,-156.085L-148.085,-127.591C-149.585,-126.09 -150.428,-124.055 -150.428,-121.934L-150.428,-8C-150.428,-3.581 -146.847,0 -142.428,0L0,0C4.418,0 8,-3.581 8,-8L8,-150.428C8,-154.846 4.418,-158.428 0,-158.428M0,-150.428L0,-8L-142.428,-8L-142.428,-121.934C-131.301,-133.061 -125.062,-139.3 -113.934,-150.428L0,-150.428Z" style="fill:rgb(6,0,1);fill-rule:nonzero;"/>
                </g>
                <g>
                    <clipPath id="_clip4">
                        <path d="M1408.237,94.413C1397.11,105.541 1390.871,111.779 1379.743,122.907L1379.743,236.841L1522.171,236.841L1522.171,94.413L1408.237,94.413Z" clip-rule="nonzero"/>
                    </clipPath>
                    <g clip-path="url(#_clip4)">
                        <g transform="matrix(1,0,0,1,0,120.821)">
                            <rect x="1379.743" y="102.58" width="142.428" height="13.44" style="fill:rgb(65,160,169);"/>
                        </g>
                        <g transform="matrix(1,0,0,1,0,93.943)">
                            <rect x="1379.743" y="116.019" width="142.428" height="13.44" style="fill:rgb(110,52,122);"/>
                        </g>
                        <g transform="matrix(1,0,0,1,0,67.063)">
                            <rect x="1379.743" y="129.459" width="142.428" height="13.44" style="fill:rgb(201,90,43);"/>
                        </g>
                    </g>
                </g>
                <g transform="matrix(1,0,0,1,1501.9579,209.3702)">
                    <path d="M0,-44.329C0,-44.329 -5.214,0 -52.778,0C-100.343,0 -105.557,-44.329 -105.557,-44.329" style="fill:rgb(236,227,208);fill-rule:nonzero;stroke:rgb(6,0,1);stroke-width:7.5px;stroke-linecap:round;"/>
                </g>
                <g transform="matrix(-0.866023,-0.500004,-0.500004,0.866023,1502.14098,156.389023)">
                    <rect x="-12.789" y="3.427" width="15.89" height="8.144" style="fill:rgb(6,0,1);"/>
                </g>
                <g transform="matrix(0.866023,-0.500004,-0.500004,-0.866023,1395.32648,174.222177)">
                    <rect x="-3.1" y="3.427" width="15.89" height="8.144" style="fill:rgb(6,0,1);"/>
                </g>
                <g transform="matrix(-1,0,0,1,2842.314,-26.501)">
                    <rect x="1413.976" y="175.78" width="14.362" height="14.362" style="fill:rgb(6,0,1);"/>
                </g>
                <g transform="matrix(-1,0,0,1,2856.676,2.223)">
                    <rect x="1421.157" y="161.418" width="14.362" height="14.362" style="fill:rgb(6,0,1);"/>
                </g>
                <g transform="matrix(-1,0,0,1,2871.038,-26.501)">
                    <rect x="1428.338" y="175.78" width="14.362" height="14.362" style="fill:rgb(6,0,1);"/>
                </g>
                <g transform="matrix(1,0,0,1,0,2.223)">
                    <rect x="1462.84" y="161.418" width="14.362" height="14.362" style="fill:rgb(6,0,1);"/>
                </g>
                <g transform="matrix(1,0,0,1,0,-26.501)">
                    <rect x="1470.021" y="175.78" width="14.362" height="14.362" style="fill:rgb(6,0,1);"/>
                </g>
                <g transform="matrix(1,0,0,1,0,-26.501)">
                    <rect x="1455.659" y="175.78" width="14.362" height="14.362" style="fill:rgb(6,0,1);"/>
                </g>
                <g transform="matrix(1,0,0,1,213.6151,209.3702)">
                    <path d="M0,-44.329C0,-44.329 -5.214,0 -52.778,0C-100.343,0 -105.557,-44.329 -105.557,-44.329" style="fill:rgb(236,227,208);fill-rule:nonzero;stroke:rgb(6,0,1);stroke-width:7.5px;stroke-linecap:round;"/>
                </g>
                <g transform="matrix(-0.866023,-0.500004,-0.500004,0.866023,213.79818,156.389023)">
                    <rect x="-12.789" y="3.427" width="15.89" height="8.144" style="fill:rgb(6,0,1);"/>
                </g>
                <g transform="matrix(0.866023,-0.500004,-0.500004,-0.866023,106.98368,174.222177)">
                    <rect x="-3.1" y="3.427" width="15.89" height="8.144" style="fill:rgb(6,0,1);"/>
                </g>
                <g transform="matrix(-1,0,0,1,281.285,-52.422)">
                    <rect x="132.809" y="188.088" width="15.667" height="15.667" style="fill:rgb(6,0,1);"/>
                </g>
                <g transform="matrix(-1,0,0,1,281.285,10.244)">
                    <rect x="132.809" y="156.755" width="15.667" height="15.667" style="fill:rgb(6,0,1);"/>
                </g>
                <g transform="matrix(1,0,0,1,0,-21.088)">
                    <rect x="132.309" y="171.921" width="16.667" height="16.667" style="fill:rgb(6,0,1);"/>
                </g>
                <g transform="matrix(1,0,0,1,149.4758,167.9996)">
                    <path d="M0,-17.667L-17.667,-17.667L-17.667,0L0,0L0,-17.667ZM-1,-1L-16.667,-1L-16.667,-16.667L-1,-16.667L-1,-1Z" style="fill:rgb(236,227,208);fill-rule:nonzero;"/>
                </g>
                <g transform="matrix(-1,0,0,1,358.061,-52.422)">
                    <rect x="171.197" y="188.088" width="15.667" height="15.667" style="fill:rgb(6,0,1);"/>
                </g>
                <g transform="matrix(-1,0,0,1,358.061,10.244)">
                    <rect x="171.197" y="156.755" width="15.667" height="15.667" style="fill:rgb(6,0,1);"/>
                </g>
                <g transform="matrix(1,0,0,1,0,-21.088)">
                    <rect x="170.697" y="171.921" width="16.667" height="16.667" style="fill:rgb(6,0,1);"/>
                </g>
                <g transform="matrix(1,0,0,1,187.8638,167.9996)">
                    <path d="M0,-17.667L-17.667,-17.667L-17.667,0L0,0L0,-17.667ZM-1,-1L-16.667,-1L-16.667,-16.667L-1,-16.667L-1,-1Z" style="fill:rgb(236,227,208);fill-rule:nonzero;"/>
                </g>
                <g transform="matrix(1,0,0,1,509.4357,129.909)">
                    <path d="M0,84.083C-10.027,84.083 -18.702,76.928 -20.627,67.07C-21.004,65.146 -21.064,57.688 -21.06,41.701C-21.055,25.83 -20.994,18.891 -20.627,17.012C-18.702,7.155 -10.026,0 0,0C0.585,0 1.178,0.025 1.762,0.075C11.435,0.898 19.416,8.462 20.74,18.063C21.43,23.065 20.317,28.142 17.606,32.356C16.033,34.803 15.07,37.257 14.744,39.649C14.639,40.427 14.582,41.238 14.577,42.062C14.582,42.845 14.639,43.657 14.744,44.433C15.07,46.827 16.033,49.28 17.606,51.726C20.316,55.941 21.43,61.018 20.74,66.021C19.416,75.621 11.435,83.185 1.762,84.008C1.178,84.058 0.585,84.083 0.001,84.083L0,84.083Z" style="fill:rgb(158,158,158);fill-rule:nonzero;"/>
                </g>
                <g transform="matrix(1,0,0,1,509.4367,217.35)">
                    <path d="M0,-90.799C-11.629,-90.799 -21.691,-82.503 -23.924,-71.072C-24.344,-68.922 -24.413,-63.156 -24.419,-45.742C-24.425,-26.898 -24.328,-21.792 -23.924,-19.727C-21.691,-8.296 -11.629,0 0,0C0.68,0 1.368,-0.029 2.046,-0.086C13.269,-1.042 22.53,-9.821 24.065,-20.961C24.864,-26.758 23.573,-32.643 20.43,-37.531C19.123,-39.563 18.329,-41.558 18.07,-43.46C17.986,-44.083 17.94,-44.735 17.935,-45.399C17.94,-46.063 17.986,-46.716 18.07,-47.338C18.329,-49.241 19.123,-51.236 20.43,-53.268C23.573,-58.157 24.864,-64.041 24.065,-69.837C22.53,-80.978 13.269,-89.758 2.046,-90.712C1.368,-90.77 0.68,-90.799 0,-90.799M0,-84.083C0.489,-84.083 0.982,-84.062 1.477,-84.02C9.569,-83.332 16.303,-76.966 17.412,-68.92C18.025,-64.472 16.96,-60.289 14.781,-56.901C13.089,-54.27 11.838,-51.344 11.416,-48.245C11.287,-47.301 11.224,-46.35 11.218,-45.399C11.224,-44.449 11.287,-43.498 11.416,-42.554C11.838,-39.455 13.089,-36.529 14.781,-33.898C16.96,-30.51 18.025,-26.327 17.412,-21.878C16.303,-13.833 9.569,-7.467 1.477,-6.779C0.982,-6.736 0.49,-6.716 0,-6.716C-8.344,-6.716 -15.714,-12.729 -17.332,-21.015C-17.696,-22.875 -17.706,-34.356 -17.702,-45.739C-17.699,-56.897 -17.689,-67.961 -17.332,-69.785C-15.714,-78.07 -8.345,-84.083 0,-84.083" style="fill:rgb(6,0,1);fill-rule:nonzero;"/>
                </g>
                <g transform="matrix(-1,0,0,1,509.3694,161.5235)">
                    <path d="M0,-21.233C-5.872,-21.233 -10.625,-16.48 -10.625,-10.608C-10.625,-4.753 -5.872,0 0,0C5.872,0 10.625,-4.753 10.625,-10.608C10.625,-16.48 5.872,-21.233 0,-21.233" style="fill:white;fill-rule:nonzero;"/>
                </g>
                <g transform="matrix(-1,0,0,1,509.3694,161.5235)">
                    <ellipse cx="0" cy="-10.617" rx="10.625" ry="10.617" style="fill:none;stroke:rgb(6,0,1);stroke-width:3.36px;"/>
                </g>
                <g transform="matrix(1,0,0,1,509.3694,182.3779)">
                    <path d="M0,21.233C-5.872,21.233 -10.625,16.48 -10.625,10.608C-10.625,4.753 -5.872,0 0,0C5.872,0 10.625,4.753 10.625,10.608C10.625,16.48 5.872,21.233 0,21.233" style="fill:white;fill-rule:nonzero;"/>
                </g>
                <g transform="matrix(1,0,0,1,509.3694,182.3779)">
                    <path d="M0,21.233C-5.872,21.233 -10.625,16.48 -10.625,10.608C-10.625,4.753 -5.872,0 0,0C5.872,0 10.625,4.753 10.625,10.608C10.625,16.48 5.872,21.233 0,21.233Z" style="fill:none;fill-rule:nonzero;stroke:rgb(6,0,1);stroke-width:3.36px;"/>
                </g>
                <g transform="matrix(1,0,0,1,464.2043,166.9787)">
                    <path d="M0,9.944C-2.741,9.944 -4.972,7.714 -4.972,4.972C-4.972,2.23 -2.741,0 0,0L35.567,0C38.309,0 40.539,2.23 40.539,4.972C40.539,7.714 38.309,9.944 35.567,9.944L0,9.944Z" style="fill:rgb(158,158,158);fill-rule:nonzero;"/>
                </g>
                <g transform="matrix(1,0,0,1,499.7714,178.6018)">
                    <path d="M0,-13.302L-35.567,-13.302C-39.234,-13.302 -42.218,-10.318 -42.218,-6.651C-42.218,-2.984 -39.234,0 -35.567,0L0,0C3.667,0 6.651,-2.984 6.651,-6.651C6.651,-10.318 3.667,-13.302 0,-13.302M0,-9.944C1.819,-9.944 3.293,-8.47 3.293,-6.651C3.293,-4.832 1.819,-3.358 0,-3.358L-35.567,-3.358C-37.386,-3.358 -38.86,-4.832 -38.86,-6.651C-38.86,-8.47 -37.386,-9.944 -35.567,-9.944L0,-9.944Z" style="fill:rgb(6,0,1);fill-rule:nonzero;"/>
                </g>
                <g transform="matrix(1,0,0,1,364.2287,236.5285)">
                    <path d="M0,46.342C-12.78,46.342 -22.61,40.483 -25.043,31.416C-26.678,25.321 -24.764,18.793 -19.654,13.034C-14.966,7.752 -8.024,3.673 -0.109,1.55C3.725,0.521 7.59,0 11.382,0C24.162,0 33.992,5.859 36.425,14.926C38.06,21.021 36.146,27.549 31.035,33.307C26.348,38.59 19.406,42.669 11.491,44.792C7.657,45.821 3.791,46.342 0,46.342" style="fill:rgb(158,158,158);fill-rule:nonzero;"/>
                </g>
                <g transform="matrix(1,0,0,1,375.6099,287.0011)">
                    <path d="M0,-54.604C-4.153,-54.604 -8.379,-54.035 -12.561,-52.913C-21.248,-50.583 -28.906,-46.061 -34.125,-40.18C-40.099,-33.448 -42.391,-25.359 -40.413,-17.987C-37.482,-7.06 -26.086,0 -11.381,0C-7.228,0 -3.002,-0.568 1.18,-1.69C9.867,-4.021 17.526,-8.543 22.744,-14.424C28.718,-21.156 31.01,-29.245 29.032,-36.617C26.101,-47.544 14.705,-54.604 0,-54.604M0,-46.342C10.481,-46.342 19.071,-41.864 21.053,-34.476C23.665,-24.738 13.81,-13.632 -0.96,-9.67C-4.523,-8.714 -8.049,-8.261 -11.381,-8.261C-21.863,-8.261 -30.452,-12.738 -32.434,-20.127C-35.046,-29.865 -25.19,-40.971 -10.421,-44.934C-6.857,-45.89 -3.333,-46.342 0,-46.342" style="fill:rgb(6,0,1);fill-rule:nonzero;"/>
                </g>
                <g transform="matrix(1,0,0,1,439.423,236.5285)">
                    <path d="M0,46.342C-3.792,46.342 -7.658,45.821 -11.491,44.792C-19.406,42.669 -26.348,38.59 -31.036,33.307C-36.146,27.549 -38.06,21.021 -36.425,14.926C-33.992,5.859 -24.162,0 -11.382,0C-7.591,0 -3.725,0.521 0.109,1.55C8.024,3.673 14.965,7.752 19.653,13.034C24.763,18.793 26.677,25.321 25.042,31.416C22.609,40.483 12.778,46.342 0,46.342C-0.001,46.342 0,46.342 0,46.342" style="fill:rgb(158,158,158);fill-rule:nonzero;"/>
                </g>
                <g transform="matrix(1,0,0,1,428.0413,287.0011)">
                    <path d="M0,-54.604C-14.705,-54.604 -26.101,-47.544 -29.032,-36.617C-31.01,-29.245 -28.718,-21.156 -22.744,-14.424C-17.525,-8.543 -9.867,-4.021 -1.18,-1.69C3.002,-0.568 7.229,0 11.381,0C26.086,0 37.482,-7.06 40.413,-17.987C42.391,-25.359 40.099,-33.448 34.125,-40.18C28.906,-46.061 21.248,-50.583 12.561,-52.913C8.379,-54.035 4.152,-54.604 0,-54.604M0,-46.342C3.333,-46.342 6.857,-45.89 10.421,-44.934C25.191,-40.971 35.046,-29.865 32.434,-20.127C30.452,-12.738 21.863,-8.261 11.381,-8.261C8.049,-8.261 4.523,-8.714 0.96,-9.67C-13.81,-13.632 -23.665,-24.738 -21.053,-34.476C-19.071,-41.864 -10.481,-46.342 0,-46.342" style="fill:rgb(6,0,1);fill-rule:nonzero;"/>
                </g>
                <g transform="matrix(1,0,0,1,384.8095,93.7357)">
                    <path d="M0,-31.232C-1.264,-31.232 -2.291,-30.204 -2.291,-28.94C-2.291,-27.676 -1.264,-26.648 0,-26.648L12.075,-26.648L12.075,-26.759C12.075,-29.225 10.068,-31.232 7.6,-31.232L0,-31.232ZM16.098,4.023L9.867,4.023L9.867,-22.625L0,-22.625C-3.481,-22.625 -6.314,-25.458 -6.314,-28.94C-6.314,-32.422 -3.481,-35.255 0,-35.255L7.6,-35.255C12.286,-35.255 16.098,-31.443 16.098,-26.759L16.098,4.023Z" style="fill:rgb(6,0,1);fill-rule:nonzero;"/>
                </g>
                <g transform="matrix(1,0,0,1,384.8064,60.4955)">
                    <path d="M0,8.607C-1.186,8.607 -2.265,8.12 -3.045,7.34C-3.824,6.561 -4.304,5.489 -4.304,4.303C-4.304,1.924 -2.371,0 0,0L7.608,0C11.189,0 14.088,2.899 14.088,6.48L14.088,8.607L0,8.607Z" style="fill:rgb(6,0,1);fill-rule:nonzero;"/>
                </g>
                <g transform="matrix(1,0,0,1,420.0135,93.7357)">
                    <path d="M0,-31.232C-1.264,-31.232 -2.291,-30.204 -2.291,-28.94C-2.291,-27.676 -1.264,-26.648 0,-26.648L12.075,-26.648L12.075,-26.759C12.075,-29.225 10.068,-31.232 7.6,-31.232L0,-31.232ZM16.098,4.023L9.867,4.023L9.867,-22.625L0,-22.625C-3.481,-22.625 -6.314,-25.458 -6.314,-28.94C-6.314,-32.422 -3.481,-35.255 0,-35.255L7.6,-35.255C12.286,-35.255 16.098,-31.443 16.098,-26.759L16.098,4.023Z" style="fill:rgb(6,0,1);fill-rule:nonzero;"/>
                </g>
                <g transform="matrix(1,0,0,1,420.0104,60.4955)">
                    <path d="M0,8.607C-1.185,8.607 -2.265,8.12 -3.045,7.34C-3.824,6.561 -4.304,5.489 -4.304,4.303C-4.304,1.924 -2.371,0 0,0L7.608,0C11.189,0 14.088,2.899 14.088,6.48L14.088,8.607L0,8.607Z" style="fill:rgb(6,0,1);fill-rule:nonzero;"/>
                </g>
                <g transform="matrix(1,0,0,1,331.4709,90.4132)">
                    <path d="M0,150.428C-2.209,150.428 -4,148.637 -4,146.428L-4,32.494C-4,31.433 -3.578,30.416 -2.828,29.665L25.666,1.171C26.416,0.421 27.434,0 28.494,0L142.428,0C144.637,0 146.428,1.791 146.428,4L146.428,146.428C146.428,148.637 144.637,150.428 142.428,150.428L0,150.428Z" style="fill:rgb(236,227,208);fill-rule:nonzero;"/>
                </g>
                <g transform="matrix(1,0,0,1,473.8991,244.8408)">
                    <path d="M0,-158.428L-113.934,-158.428C-116.056,-158.428 -118.091,-157.585 -119.591,-156.085L-148.085,-127.591C-149.586,-126.09 -150.428,-124.055 -150.428,-121.934L-150.428,-8C-150.428,-3.581 -146.847,0 -142.428,0L0,0C4.418,0 8,-3.581 8,-8L8,-150.428C8,-154.846 4.418,-158.428 0,-158.428M0,-150.428L0,-8L-142.428,-8L-142.428,-121.934L-113.934,-150.428L0,-150.428Z" style="fill:rgb(6,0,1);fill-rule:nonzero;"/>
                </g>
                <g>
                    <clipPath id="_clip5">
                        <path d="M359.965,94.413C348.837,105.541 342.599,111.779 331.471,122.907L331.471,236.841L473.9,236.841L473.9,94.413L359.965,94.413Z" clip-rule="nonzero"/>
                    </clipPath>
                    <g clip-path="url(#_clip5)">
                        <g transform="matrix(1,0,0,1,0,120.821)">
                            <rect x="331.471" y="102.58" width="142.428" height="13.44" style="fill:rgb(65,160,169);"/>
                        </g>
                        <g transform="matrix(1,0,0,1,0,93.943)">
                            <rect x="331.471" y="116.019" width="142.428" height="13.44" style="fill:rgb(110,52,122);"/>
                        </g>
                        <g transform="matrix(1,0,0,1,0,67.063)">
                            <rect x="331.471" y="129.459" width="142.428" height="13.44" style="fill:rgb(201,90,43);"/>
                        </g>
                    </g>
                </g>
                <g transform="matrix(1,0,0,1,453.3688,209.3702)">
                    <path d="M0,-44.329C0,-44.329 -5.214,0 -52.778,0C-100.343,0 -105.557,-44.329 -105.557,-44.329" style="fill:rgb(236,227,208);fill-rule:nonzero;stroke:rgb(6,0,1);stroke-width:7.5px;stroke-linecap:round;"/>
                </g>
                <g transform="matrix(-0.866023,-0.500004,-0.500004,0.866023,453.55188,156.389023)">
                    <rect x="-12.789" y="3.427" width="15.89" height="8.144" style="fill:rgb(6,0,1);"/>
                </g>
                <g transform="matrix(0.866023,-0.500004,-0.500004,-0.866023,346.73738,174.222177)">
                    <rect x="-3.1" y="3.427" width="15.89" height="8.144" style="fill:rgb(6,0,1);"/>
                </g>
                <g transform="matrix(-1,0,0,1,760.793,-52.422)">
                    <rect x="372.563" y="188.088" width="15.667" height="15.667" style="fill:rgb(6,0,1);"/>
                </g>
                <g transform="matrix(-1,0,0,1,760.793,10.244)">
                    <rect x="372.563" y="156.755" width="15.667" height="15.667" style="fill:rgb(6,0,1);"/>
                </g>
                <g transform="matrix(-1,0,0,1,767.073,-21.09)">
                    <rect x="375.703" y="172.422" width="15.667" height="15.667" style="fill:rgb(6,0,1);"/>
                </g>
                <g transform="matrix(-1,0,0,1,837.567,-52.422)">
                    <rect x="410.95" y="188.088" width="15.667" height="15.667" style="fill:rgb(6,0,1);"/>
                </g>
                <g transform="matrix(-1,0,0,1,837.567,10.244)">
                    <rect x="410.95" y="156.755" width="15.667" height="15.667" style="fill:rgb(6,0,1);"/>
                </g>
                <g transform="matrix(-1,0,0,1,843.849,-21.09)">
                    <rect x="414.091" y="172.422" width="15.667" height="15.667" style="fill:rgb(6,0,1);"/>
                </g>
                <g transform="matrix(1,0,0,1,1259.7992,129.909)">
                    <path d="M0,84.083C-10.026,84.083 -18.702,76.928 -20.628,67.07C-21.005,65.141 -21.065,57.685 -21.061,41.701C-21.055,26.395 -21.011,18.97 -20.628,17.012C-18.701,7.155 -10.026,0 0,0C0.585,0 1.178,0.025 1.762,0.075C11.436,0.898 19.416,8.463 20.739,18.063C21.429,23.065 20.316,28.142 17.605,32.356C16.032,34.805 15.068,37.259 14.743,39.649C14.637,40.428 14.581,41.239 14.577,42.059C14.581,42.845 14.637,43.655 14.743,44.433C15.069,46.825 16.032,49.278 17.606,51.727C20.315,55.941 21.429,61.018 20.739,66.021C19.416,75.62 11.436,83.185 1.763,84.008C1.178,84.058 0.585,84.083 0.001,84.083L0,84.083Z" style="fill:rgb(158,158,158);fill-rule:nonzero;"/>
                </g>
                <g transform="matrix(1,0,0,1,1259.7996,217.35)">
                    <path d="M0,-90.799C-11.629,-90.799 -21.691,-82.503 -23.924,-71.072C-24.344,-68.923 -24.413,-63.157 -24.419,-45.742C-24.425,-26.898 -24.328,-21.792 -23.924,-19.727C-21.691,-8.296 -11.629,0 0,0C0.68,0 1.368,-0.029 2.046,-0.086C13.27,-1.042 22.53,-9.821 24.065,-20.961C24.864,-26.758 23.573,-32.643 20.43,-37.531C19.123,-39.563 18.329,-41.558 18.07,-43.46C17.986,-44.083 17.94,-44.735 17.934,-45.399C17.94,-46.064 17.986,-46.716 18.07,-47.339C18.329,-49.241 19.123,-51.236 20.43,-53.268C23.573,-58.156 24.864,-64.041 24.065,-69.837C22.53,-80.978 13.269,-89.758 2.046,-90.712C1.368,-90.77 0.68,-90.799 0,-90.799M0,-84.083C0.489,-84.083 0.982,-84.062 1.477,-84.02C9.569,-83.332 16.303,-76.966 17.412,-68.92C18.025,-64.472 16.96,-60.289 14.781,-56.901C13.089,-54.27 11.838,-51.344 11.416,-48.245C11.287,-47.301 11.224,-46.35 11.218,-45.399C11.224,-44.449 11.287,-43.498 11.416,-42.554C11.838,-39.455 13.089,-36.529 14.781,-33.898C16.96,-30.51 18.025,-26.327 17.412,-21.878C16.303,-13.833 9.569,-7.467 1.477,-6.779C0.982,-6.736 0.49,-6.716 0,-6.716C-8.344,-6.716 -15.714,-12.729 -17.332,-21.015C-17.696,-22.875 -17.706,-34.356 -17.702,-45.739C-17.699,-56.897 -17.689,-67.961 -17.332,-69.785C-15.714,-78.07 -8.345,-84.083 0,-84.083" style="fill:rgb(6,0,1);fill-rule:nonzero;"/>
                </g>
                <g transform="matrix(-1,0,0,1,1259.7323,161.5235)">
                    <path d="M0,-21.233C-5.872,-21.233 -10.625,-16.48 -10.625,-10.608C-10.625,-4.753 -5.872,0 0,0C5.872,0 10.625,-4.753 10.625,-10.608C10.625,-16.48 5.872,-21.233 0,-21.233" style="fill:white;fill-rule:nonzero;"/>
                </g>
                <g transform="matrix(-1,0,0,1,1259.7323,161.5235)">
                    <ellipse cx="0" cy="-10.617" rx="10.625" ry="10.617" style="fill:none;stroke:rgb(6,0,1);stroke-width:3.36px;"/>
                </g>
                <g transform="matrix(1,0,0,1,1259.7323,182.3779)">
                    <path d="M0,21.233C-5.872,21.233 -10.625,16.48 -10.625,10.608C-10.625,4.753 -5.872,0 0,0C5.872,0 10.625,4.753 10.625,10.608C10.625,16.48 5.872,21.233 0,21.233" style="fill:white;fill-rule:nonzero;"/>
                </g>
                <g transform="matrix(1,0,0,1,1259.7323,182.3779)">
                    <path d="M0,21.233C-5.872,21.233 -10.625,16.48 -10.625,10.608C-10.625,4.753 -5.872,0 0,0C5.872,0 10.625,4.753 10.625,10.608C10.625,16.48 5.872,21.233 0,21.233Z" style="fill:none;fill-rule:nonzero;stroke:rgb(6,0,1);stroke-width:3.36px;"/>
                </g>
                <g transform="matrix(1,0,0,1,1214.5668,166.9787)">
                    <path d="M0,9.944C-2.741,9.944 -4.971,7.714 -4.971,4.972C-4.971,2.23 -2.741,0 0,0L35.567,0C38.309,0 40.539,2.23 40.539,4.972C40.539,7.714 38.309,9.944 35.567,9.944L0,9.944Z" style="fill:rgb(158,158,158);fill-rule:nonzero;"/>
                </g>
                <g transform="matrix(1,0,0,1,1250.1343,178.6018)">
                    <path d="M0,-13.302L-35.567,-13.302C-39.234,-13.302 -42.218,-10.318 -42.218,-6.651C-42.218,-2.984 -39.234,0 -35.567,0L0,0C3.667,0 6.651,-2.984 6.651,-6.651C6.651,-10.318 3.667,-13.302 0,-13.302M0,-9.944C1.819,-9.944 3.293,-8.47 3.293,-6.651C3.293,-4.832 1.819,-3.358 0,-3.358L-35.567,-3.358C-37.386,-3.358 -38.86,-4.832 -38.86,-6.651C-38.86,-8.47 -37.386,-9.944 -35.567,-9.944L0,-9.944Z" style="fill:rgb(6,0,1);fill-rule:nonzero;"/>
                </g>
                <g transform="matrix(1,0,0,1,1135.1724,93.7357)">
                    <path d="M0,-31.232C-1.264,-31.232 -2.291,-30.204 -2.291,-28.94C-2.291,-27.676 -1.264,-26.648 0,-26.648L12.075,-26.648L12.075,-26.759C12.075,-29.225 10.068,-31.232 7.6,-31.232L0,-31.232ZM16.098,4.023L9.867,4.023L9.867,-22.625L0,-22.625C-3.481,-22.625 -6.314,-25.458 -6.314,-28.94C-6.314,-32.422 -3.481,-35.255 0,-35.255L7.6,-35.255C12.286,-35.255 16.098,-31.443 16.098,-26.759L16.098,4.023Z" style="fill:rgb(6,0,1);fill-rule:nonzero;"/>
                </g>
                <g transform="matrix(1,0,0,1,1135.1692,60.4955)">
                    <path d="M0,8.607C-1.185,8.607 -2.265,8.12 -3.045,7.34C-3.824,6.561 -4.303,5.489 -4.303,4.303C-4.303,1.924 -2.371,0 0,0L7.608,0C11.189,0 14.088,2.899 14.088,6.48L14.088,8.607L0,8.607Z" style="fill:rgb(6,0,1);fill-rule:nonzero;"/>
                </g>
                <g transform="matrix(1,0,0,1,1170.3763,93.7357)">
                    <path d="M0,-31.232C-1.264,-31.232 -2.291,-30.204 -2.291,-28.94C-2.291,-27.676 -1.264,-26.648 0,-26.648L12.075,-26.648L12.075,-26.759C12.075,-29.225 10.068,-31.232 7.6,-31.232L0,-31.232ZM16.098,4.023L9.867,4.023L9.867,-22.625L0,-22.625C-3.481,-22.625 -6.314,-25.458 -6.314,-28.94C-6.314,-32.422 -3.481,-35.255 0,-35.255L7.6,-35.255C12.286,-35.255 16.098,-31.443 16.098,-26.759L16.098,4.023Z" style="fill:rgb(6,0,1);fill-rule:nonzero;"/>
                </g>
                <g transform="matrix(1,0,0,1,1170.3733,60.4955)">
                    <path d="M0,8.607C-1.186,8.607 -2.266,8.12 -3.045,7.34C-3.824,6.561 -4.304,5.489 -4.304,4.303C-4.304,1.924 -2.371,0 0,0L7.608,0C11.189,0 14.088,2.899 14.088,6.48L14.088,8.607L0,8.607Z" style="fill:rgb(6,0,1);fill-rule:nonzero;"/>
                </g>
                <g transform="matrix(1,0,0,1,1081.8334,90.4132)">
                    <path d="M0,150.428C-2.209,150.428 -4,148.637 -4,146.428L-4,32.494C-4,31.433 -3.578,30.416 -2.828,29.665L25.666,1.172C26.416,0.421 27.434,0 28.494,0L142.429,0C144.638,0 146.429,1.791 146.429,4L146.429,146.428C146.429,148.637 144.638,150.428 142.429,150.428L0,150.428Z" style="fill:rgb(236,227,208);fill-rule:nonzero;"/>
                </g>
                <g transform="matrix(1,0,0,1,1224.262,244.8408)">
                    <path d="M0,-158.428L-113.934,-158.428C-116.056,-158.428 -118.091,-157.585 -119.591,-156.085L-148.085,-127.591C-149.586,-126.09 -150.428,-124.055 -150.428,-121.934L-150.428,-8C-150.428,-3.581 -146.847,0 -142.428,0L0,0C4.418,0 8,-3.581 8,-8L8,-150.428C8,-154.846 4.418,-158.428 0,-158.428M0,-150.428L0,-8L-142.428,-8L-142.428,-121.934C-131.301,-133.061 -125.062,-139.3 -113.934,-150.428L0,-150.428Z" style="fill:rgb(6,0,1);fill-rule:nonzero;"/>
                </g>
                <g>
                    <clipPath id="_clip6">
                        <path d="M1110.328,94.413C1099.2,105.541 1092.961,111.779 1081.833,122.907L1081.833,236.841L1224.262,236.841L1224.262,94.413L1110.328,94.413Z" clip-rule="nonzero"/>
                    </clipPath>
                    <g clip-path="url(#_clip6)">
                        <g transform="matrix(1,0,0,1,0,120.821)">
                            <rect x="1081.833" y="102.58" width="142.428" height="13.44" style="fill:rgb(65,160,169);"/>
                        </g>
                        <g transform="matrix(1,0,0,1,0,93.943)">
                            <rect x="1081.833" y="116.019" width="142.428" height="13.44" style="fill:rgb(110,52,122);"/>
                        </g>
                        <g transform="matrix(1,0,0,1,0,67.063)">
                            <rect x="1081.833" y="129.459" width="142.428" height="13.44" style="fill:rgb(201,90,43);"/>
                        </g>
                    </g>
                </g>
                <g transform="matrix(1,0,0,1,1203.7317,209.3702)">
                    <path d="M0,-44.329C0,-44.329 -5.214,0 -52.778,0C-100.343,0 -105.557,-44.329 -105.557,-44.329" style="fill:rgb(236,227,208);fill-rule:nonzero;stroke:rgb(6,0,1);stroke-width:7.5px;stroke-linecap:round;"/>
                </g>
                <g transform="matrix(-0.866023,-0.500004,-0.500004,0.866023,1203.91478,156.389023)">
                    <rect x="-12.789" y="3.427" width="15.89" height="8.144" style="fill:rgb(6,0,1);"/>
                </g>
                <g transform="matrix(0.866023,-0.500004,-0.500004,-0.866023,1097.10028,174.222177)">
                    <rect x="-3.1" y="3.427" width="15.89" height="8.144" style="fill:rgb(6,0,1);"/>
                </g>
                <g transform="matrix(-1,0,0,1,2261.517,-52.422)">
                    <rect x="1122.925" y="188.088" width="15.667" height="15.667" style="fill:rgb(6,0,1);"/>
                </g>
                <g transform="matrix(-1,0,0,1,2261.517,10.244)">
                    <rect x="1122.925" y="156.755" width="15.667" height="15.667" style="fill:rgb(6,0,1);"/>
                </g>
                <g transform="matrix(-1,0,0,1,2267.799,-21.09)">
                    <rect x="1126.066" y="172.422" width="15.667" height="15.667" style="fill:rgb(6,0,1);"/>
                </g>
                <g transform="matrix(0.400142,0.916453,0.916453,-0.400142,1192.580414,157.766726)">
                    <rect x="-11.878" y="-18.147" width="15.667" height="15.667" style="fill:rgb(6,0,1);"/>
                </g>
                <g transform="matrix(0.400089,0.916476,0.916476,-0.400089,1176.965638,161.158132)">
                    <rect x="-11.879" y="-18.147" width="15.667" height="15.667" style="fill:rgb(6,0,1);"/>
                </g>
                <g transform="matrix(1,0,0,1,694.835,209.3702)">
                    <path d="M0,-44.329C0,-44.329 -5.214,0 -52.778,0C-100.343,0 -105.557,-44.329 -105.557,-44.329" style="fill:rgb(236,227,208);fill-rule:nonzero;stroke:rgb(6,0,1);stroke-width:7.5px;stroke-linecap:round;"/>
                </g>
                <g transform="matrix(-0.866023,-0.500004,-0.500004,0.866023,695.01808,156.389023)">
                    <rect x="-12.789" y="3.427" width="15.89" height="8.144" style="fill:rgb(6,0,1);"/>
                </g>
                <g transform="matrix(0.866023,-0.500004,-0.500004,-0.866023,588.20368,174.222177)">
                    <rect x="-3.1" y="3.427" width="15.89" height="8.144" style="fill:rgb(6,0,1);"/>
                </g>
                <g transform="matrix(-1,0,0,1,1238.645,-52.422)">
                    <rect x="611.489" y="188.088" width="15.667" height="15.667" style="fill:rgb(6,0,1);"/>
                </g>
                <g transform="matrix(-1,0,0,1,1238.645,10.244)">
                    <rect x="611.489" y="156.755" width="15.667" height="15.667" style="fill:rgb(6,0,1);"/>
                </g>
                <g transform="matrix(-1,0,0,1,1254.311,-21.09)">
                    <rect x="619.322" y="172.422" width="15.667" height="15.667" style="fill:rgb(6,0,1);"/>
                </g>
                <g transform="matrix(1,0,0,1,0,10.244)">
                    <rect x="656.958" y="156.755" width="15.667" height="15.667" style="fill:rgb(6,0,1);"/>
                </g>
                <g transform="matrix(1,0,0,1,0,-52.422)">
                    <rect x="656.958" y="188.088" width="15.667" height="15.667" style="fill:rgb(6,0,1);"/>
                </g>
                <g transform="matrix(1,0,0,1,0,-21.088)">
                    <rect x="649.124" y="172.421" width="15.667" height="15.667" style="fill:rgb(6,0,1);"/>
                </g>
                <g transform="matrix(1,0,0,1,1417.2445,233.3878)">
                    <path d="M0,46.343C-12.78,46.343 -22.61,40.484 -25.043,31.416C-26.678,25.321 -24.764,18.793 -19.654,13.035C-14.966,7.752 -8.024,3.674 -0.109,1.55C3.724,0.522 7.59,0 11.381,0C24.162,0 33.992,5.859 36.425,14.927C39.677,27.051 28.725,40.17 11.491,44.793C7.657,45.822 3.791,46.343 0,46.343" style="fill:rgb(158,158,158);fill-rule:nonzero;"/>
                </g>
                <g transform="matrix(1,0,0,1,1428.6282,283.8621)">
                    <path d="M0,-54.605L0,-46.343L-0.001,-54.605C-4.156,-54.605 -8.382,-54.036 -12.564,-52.914C-32.034,-47.691 -44.269,-32.349 -40.416,-17.988C-37.484,-7.061 -26.089,0 -11.383,0C-7.231,0 -3.005,-0.569 1.178,-1.691C20.649,-6.915 32.883,-22.256 29.03,-36.618C26.099,-47.545 14.704,-54.605 0,-54.605M-0.002,-46.343C10.48,-46.344 19.068,-41.866 21.05,-34.477C23.663,-24.739 13.807,-13.633 -0.963,-9.671C-4.526,-8.715 -8.051,-8.262 -11.383,-8.262C-21.865,-8.262 -30.454,-12.739 -32.436,-20.128C-35.049,-29.866 -25.193,-40.972 -10.423,-44.935C-6.86,-45.89 -3.335,-46.343 -0.002,-46.343" style="fill:rgb(6,0,1);fill-rule:nonzero;"/>
                </g>
                <g transform="matrix(1,0,0,1,1664.0043,217.4869)">
                    <path d="M0,46.343C-12.78,46.343 -22.61,40.484 -25.043,31.417C-26.678,25.322 -24.764,18.794 -19.654,13.035C-14.966,7.752 -8.024,3.674 -0.109,1.55C3.724,0.522 7.59,0 11.381,0C24.161,0 33.991,5.86 36.424,14.927C38.059,21.022 36.146,27.55 31.035,33.308C26.348,38.591 19.406,42.67 11.491,44.793C7.657,45.822 3.791,46.343 0,46.343" style="fill:rgb(158,158,158);fill-rule:nonzero;"/>
                </g>
                <g transform="matrix(1,0,0,1,1675.3854,267.9605)">
                    <path d="M0,-54.604C-4.153,-54.604 -8.379,-54.035 -12.561,-52.913C-32.032,-47.69 -44.266,-32.348 -40.413,-17.987C-37.482,-7.06 -26.086,0 -11.381,0C-7.229,0 -3.002,-0.568 1.18,-1.69C20.651,-6.914 32.885,-22.255 29.032,-36.617C26.101,-47.544 14.705,-54.604 0,-54.604M0,-46.342C10.481,-46.342 19.071,-41.864 21.053,-34.476C23.665,-24.738 13.81,-13.632 -0.96,-9.67C-4.523,-8.714 -8.049,-8.261 -11.381,-8.261C-21.863,-8.261 -30.452,-12.738 -32.434,-20.127C-35.046,-29.865 -25.19,-40.971 -10.42,-44.934C-6.857,-45.89 -3.333,-46.342 0,-46.342" style="fill:rgb(6,0,1);fill-rule:nonzero;"/>
                </g>
                <g transform="matrix(1,0,0,1,1804.4681,129.909)">
                    <path d="M0,84.083C-10.026,84.083 -18.702,76.928 -20.628,67.07C-21.003,65.149 -21.064,57.691 -21.061,41.701C-21.055,26.395 -21.011,18.97 -20.628,17.012C-18.701,7.155 -10.026,0 0,0C0.585,0 1.178,0.025 1.762,0.075C11.436,0.898 19.416,8.463 20.739,18.063C21.429,23.065 20.316,28.142 17.605,32.356C16.032,34.805 15.068,37.259 14.743,39.649C14.637,40.428 14.581,41.239 14.577,42.059C14.581,42.845 14.637,43.655 14.743,44.433C15.069,46.825 16.032,49.278 17.606,51.727C20.315,55.941 21.429,61.018 20.739,66.021C19.416,75.62 11.436,83.185 1.763,84.008C1.178,84.058 0.585,84.083 0.001,84.083L0,84.083Z" style="fill:rgb(158,158,158);fill-rule:nonzero;"/>
                </g>
                <g transform="matrix(1,0,0,1,1804.4684,217.35)">
                    <path d="M0,-90.799C-11.629,-90.799 -21.691,-82.503 -23.924,-71.072C-24.344,-68.923 -24.413,-63.157 -24.418,-45.742C-24.425,-26.898 -24.327,-21.792 -23.924,-19.727C-21.69,-8.296 -11.629,0 0,0C0.68,0 1.368,-0.029 2.046,-0.086C13.27,-1.042 22.53,-9.821 24.066,-20.961C24.865,-26.758 23.573,-32.642 20.431,-37.531C19.124,-39.563 18.33,-41.558 18.071,-43.46C17.986,-44.082 17.94,-44.735 17.935,-45.399C17.94,-46.064 17.986,-46.716 18.071,-47.339C18.33,-49.241 19.124,-51.236 20.43,-53.268C23.573,-58.156 24.865,-64.04 24.066,-69.837C22.53,-80.979 13.269,-89.758 2.046,-90.712C1.368,-90.77 0.68,-90.799 0,-90.799M0,-84.083C0.489,-84.083 0.982,-84.062 1.477,-84.02C9.569,-83.332 16.303,-76.966 17.412,-68.92C18.025,-64.472 16.96,-60.289 14.781,-56.901C13.089,-54.27 11.838,-51.344 11.416,-48.245C11.287,-47.301 11.224,-46.35 11.218,-45.399C11.224,-44.449 11.287,-43.498 11.416,-42.554C11.838,-39.455 13.089,-36.529 14.781,-33.898C16.96,-30.51 18.025,-26.327 17.412,-21.878C16.303,-13.833 9.569,-7.467 1.477,-6.779C0.982,-6.736 0.49,-6.716 0,-6.716C-8.344,-6.716 -15.713,-12.729 -17.332,-21.015C-17.696,-22.875 -17.706,-34.356 -17.702,-45.739C-17.698,-56.897 -17.688,-67.961 -17.332,-69.785C-15.713,-78.07 -8.345,-84.083 0,-84.083" style="fill:rgb(6,0,1);fill-rule:nonzero;"/>
                </g>
                <g transform="matrix(-1,0,0,1,1804.4014,161.5235)">
                    <path d="M0,-21.233C-5.872,-21.233 -10.625,-16.48 -10.625,-10.608C-10.625,-4.753 -5.872,0 0,0C5.872,0 10.625,-4.753 10.625,-10.608C10.625,-16.48 5.872,-21.233 0,-21.233" style="fill:white;fill-rule:nonzero;"/>
                </g>
                <g transform="matrix(-1,0,0,1,1804.4014,161.5235)">
                    <ellipse cx="0" cy="-10.617" rx="10.625" ry="10.617" style="fill:none;stroke:rgb(6,0,1);stroke-width:3.36px;"/>
                </g>
                <g transform="matrix(1,0,0,1,1804.4014,182.3779)">
                    <path d="M0,21.233C-5.872,21.233 -10.625,16.48 -10.625,10.608C-10.625,4.753 -5.872,0 0,0C5.872,0 10.625,4.753 10.625,10.608C10.625,16.48 5.872,21.233 0,21.233" style="fill:white;fill-rule:nonzero;"/>
                </g>
                <g transform="matrix(1,0,0,1,1804.4014,182.3779)">
                    <path d="M0,21.233C-5.872,21.233 -10.625,16.48 -10.625,10.608C-10.625,4.753 -5.872,0 0,0C5.872,0 10.625,4.753 10.625,10.608C10.625,16.48 5.872,21.233 0,21.233Z" style="fill:none;fill-rule:nonzero;stroke:rgb(6,0,1);stroke-width:3.36px;"/>
                </g>
                <g transform="matrix(1,0,0,1,1759.2367,166.9787)">
                    <path d="M0,9.944C-2.741,9.944 -4.972,7.714 -4.972,4.972C-4.972,2.23 -2.741,0 0,0L35.566,0C38.308,0 40.538,2.23 40.538,4.972C40.538,7.714 38.308,9.944 35.566,9.944L0,9.944Z" style="fill:rgb(158,158,158);fill-rule:nonzero;"/>
                </g>
                <g transform="matrix(1,0,0,1,1794.8033,178.6018)">
                    <path d="M0,-13.302L-35.567,-13.302C-39.234,-13.302 -42.218,-10.318 -42.218,-6.651C-42.218,-2.984 -39.234,0 -35.567,0L0,0C3.667,0 6.651,-2.984 6.651,-6.651C6.651,-10.318 3.667,-13.302 0,-13.302M0,-9.944C1.819,-9.944 3.293,-8.47 3.293,-6.651C3.293,-4.832 1.819,-3.358 0,-3.358L-35.567,-3.358C-37.386,-3.358 -38.86,-4.832 -38.86,-6.651C-38.86,-8.47 -37.386,-9.944 -35.567,-9.944L0,-9.944Z" style="fill:rgb(6,0,1);fill-rule:nonzero;"/>
                </g>
                <g transform="matrix(1,0,0,1,1679.8414,93.7357)">
                    <path d="M0,-31.232C-1.264,-31.232 -2.291,-30.204 -2.291,-28.94C-2.291,-27.676 -1.264,-26.648 0,-26.648L12.075,-26.648L12.075,-26.759C12.075,-29.225 10.068,-31.232 7.6,-31.232L0,-31.232ZM16.098,4.023L9.867,4.023L9.867,-22.625L0,-22.625C-3.481,-22.625 -6.314,-25.458 -6.314,-28.94C-6.314,-32.422 -3.481,-35.255 0,-35.255L7.6,-35.255C12.286,-35.255 16.098,-31.443 16.098,-26.759L16.098,4.023Z" style="fill:rgb(6,0,1);fill-rule:nonzero;"/>
                </g>
                <g transform="matrix(1,0,0,1,1679.8383,60.4955)">
                    <path d="M0,8.607C-1.185,8.607 -2.265,8.12 -3.045,7.34C-3.824,6.561 -4.303,5.489 -4.303,4.303C-4.303,1.924 -2.371,0 0,0L7.608,0C11.189,0 14.088,2.899 14.088,6.48L14.088,8.607L0,8.607Z" style="fill:rgb(6,0,1);fill-rule:nonzero;"/>
                </g>
                <g transform="matrix(1,0,0,1,1715.0454,93.7357)">
                    <path d="M0,-31.232C-1.264,-31.232 -2.291,-30.204 -2.291,-28.94C-2.291,-27.676 -1.264,-26.648 0,-26.648L12.075,-26.648L12.075,-26.759C12.075,-29.225 10.068,-31.232 7.6,-31.232L0,-31.232ZM16.098,4.023L9.867,4.023L9.867,-22.625L0,-22.625C-3.481,-22.625 -6.314,-25.458 -6.314,-28.94C-6.314,-32.422 -3.481,-35.255 0,-35.255L7.6,-35.255C12.286,-35.255 16.098,-31.443 16.098,-26.759L16.098,4.023Z" style="fill:rgb(6,0,1);fill-rule:nonzero;"/>
                </g>
                <g transform="matrix(1,0,0,1,1715.0424,60.4955)">
                    <path d="M0,8.607C-1.186,8.607 -2.266,8.12 -3.045,7.34C-3.824,6.561 -4.304,5.489 -4.304,4.303C-4.304,1.924 -2.371,0 0,0L7.608,0C11.189,0 14.088,2.899 14.088,6.48L14.088,8.607L0,8.607Z" style="fill:rgb(6,0,1);fill-rule:nonzero;"/>
                </g>
                <g transform="matrix(1,0,0,1,1626.5023,90.4132)">
                    <path d="M0,150.428C-2.209,150.428 -4,148.637 -4,146.428L-4,32.494C-4,31.433 -3.578,30.416 -2.828,29.665L25.666,1.172C26.416,0.421 27.434,0 28.494,0L142.429,0C144.638,0 146.429,1.791 146.429,4L146.429,146.428C146.429,148.637 144.638,150.428 142.429,150.428L0,150.428Z" style="fill:rgb(236,227,208);fill-rule:nonzero;"/>
                </g>
                <g transform="matrix(1,0,0,1,1768.931,244.8408)">
                    <path d="M0,-158.428L-113.934,-158.428C-116.056,-158.428 -118.091,-157.585 -119.591,-156.085L-148.085,-127.591C-149.586,-126.09 -150.428,-124.055 -150.428,-121.934L-150.428,-8C-150.428,-3.581 -146.847,0 -142.428,0L0,0C4.418,0 8,-3.581 8,-8L8,-150.428C8,-154.846 4.418,-158.428 0,-158.428M0,-150.428L0,-8L-142.428,-8L-142.428,-121.934C-131.301,-133.061 -125.062,-139.3 -113.934,-150.428L0,-150.428Z" style="fill:rgb(6,0,1);fill-rule:nonzero;"/>
                </g>
                <g>
                    <clipPath id="_clip7">
                        <path d="M1654.997,94.413C1643.869,105.541 1637.63,111.779 1626.503,122.907L1626.503,236.841L1768.931,236.841L1768.931,94.413L1654.997,94.413Z" clip-rule="nonzero"/>
                    </clipPath>
                    <g clip-path="url(#_clip7)">
                        <g transform="matrix(1,0,0,1,0,120.821)">
                            <rect x="1626.503" y="102.58" width="142.428" height="13.44" style="fill:rgb(65,160,169);"/>
                        </g>
                        <g transform="matrix(1,0,0,1,0,93.943)">
                            <rect x="1626.503" y="116.019" width="142.428" height="13.44" style="fill:rgb(110,52,122);"/>
                        </g>
                        <g transform="matrix(1,0,0,1,0,67.063)">
                            <rect x="1626.503" y="129.459" width="142.428" height="13.44" style="fill:rgb(201,90,43);"/>
                        </g>
                    </g>
                </g>
                <g transform="matrix(1,0,0,1,1748.7175,209.3702)">
                    <path d="M0,-44.329C0,-44.329 -5.214,0 -52.778,0C-100.343,0 -105.557,-44.329 -105.557,-44.329" style="fill:rgb(236,227,208);fill-rule:nonzero;stroke:rgb(6,0,1);stroke-width:7.5px;stroke-linecap:round;"/>
                </g>
                <g transform="matrix(-0.866023,-0.500004,-0.500004,0.866023,1748.90058,156.389023)">
                    <rect x="-12.789" y="3.427" width="15.89" height="8.144" style="fill:rgb(6,0,1);"/>
                </g>
                <g transform="matrix(0.866023,-0.500004,-0.500004,-0.866023,1642.08608,174.222177)">
                    <rect x="-3.1" y="3.427" width="15.89" height="8.144" style="fill:rgb(6,0,1);"/>
                </g>
                <g transform="matrix(-1,0,0,1,3334.066,-26.501)">
                    <rect x="1659.852" y="175.78" width="14.362" height="14.362" style="fill:rgb(6,0,1);"/>
                </g>
                <g transform="matrix(-1,0,0,1,3362.792,2.223)">
                    <rect x="1674.215" y="161.418" width="14.362" height="14.362" style="fill:rgb(6,0,1);"/>
                </g>
                <g transform="matrix(-1,0,0,1,3362.792,-26.501)">
                    <rect x="1674.215" y="175.78" width="14.362" height="14.362" style="fill:rgb(6,0,1);"/>
                </g>
                <g transform="matrix(1,0,0,1,0,2.223)">
                    <rect x="1715.897" y="161.418" width="14.362" height="14.362" style="fill:rgb(6,0,1);"/>
                </g>
                <g transform="matrix(1,0,0,1,0,-26.501)">
                    <rect x="1715.897" y="175.78" width="14.362" height="14.362" style="fill:rgb(6,0,1);"/>
                </g>
                <g transform="matrix(1,0,0,1,0,-26.501)">
                    <rect x="1701.535" y="175.78" width="14.362" height="14.362" style="fill:rgb(6,0,1);"/>
                </g>
                <g transform="matrix(1,0,0,1,1737.0463,233.3878)">
                    <path d="M0,46.343C-3.792,46.343 -7.657,45.822 -11.49,44.793C-28.724,40.17 -39.675,27.051 -36.423,14.927C-33.99,5.859 -24.16,0 -11.38,0C-7.589,0 -3.723,0.522 0.111,1.55C17.345,6.174 28.296,19.292 25.044,31.416C22.611,40.484 12.781,46.343 0.003,46.343L0,46.343Z" style="fill:rgb(158,158,158);fill-rule:nonzero;"/>
                </g>
                <g transform="matrix(1,0,0,1,1725.6664,283.8621)">
                    <path d="M0,-54.605C-14.705,-54.605 -26.101,-47.545 -29.032,-36.618C-32.885,-22.256 -20.651,-6.915 -1.18,-1.691C3.002,-0.569 7.229,0 11.381,0C26.086,0 37.482,-7.061 40.413,-17.988C44.266,-32.349 32.032,-47.691 12.561,-52.914C8.378,-54.036 4.152,-54.605 0,-54.605M0,-46.343C3.332,-46.343 6.858,-45.89 10.42,-44.935C25.19,-40.972 35.046,-29.866 32.434,-20.128C30.452,-12.739 21.863,-8.262 11.381,-8.262C8.049,-8.262 4.523,-8.715 0.96,-9.671C-13.81,-13.633 -23.665,-24.739 -21.053,-34.477C-19.071,-41.866 -10.482,-46.343 0,-46.343" style="fill:rgb(6,0,1);fill-rule:nonzero;"/>
                </g>
                <g transform="matrix(1,0,0,1,1129.4144,220.6259)">
                    <path d="M0,64.226C-10.444,64.226 -21.747,56.338 -28.795,44.13C-33.227,36.455 -35.418,28.034 -34.966,20.418C-34.477,12.169 -30.987,5.767 -25.141,2.391C-22.393,0.805 -19.305,0 -15.962,0C-5.518,0 5.786,7.888 12.833,20.096C17.265,27.771 19.456,36.192 19.004,43.808C18.515,52.057 15.025,58.459 9.179,61.835C6.431,63.421 3.343,64.226 0,64.226" style="fill:rgb(158,158,158);fill-rule:nonzero;"/>
                </g>
                <g transform="matrix(1,0,0,1,1113.4524,288.9823)">
                    <path d="M0,-72.487C-4.077,-72.487 -7.86,-71.496 -11.244,-69.543C-24.922,-61.646 -27.191,-40.833 -16.411,-22.161C-8.638,-8.699 4.069,0 15.962,0C20.039,0 23.822,-0.99 27.206,-2.944C40.884,-10.841 43.153,-31.653 32.373,-50.326C24.6,-63.788 11.893,-72.487 0,-72.487M0,-64.225C8.657,-64.226 18.772,-57.359 25.218,-46.195C33.554,-31.756 32.595,-15.595 23.076,-10.099C20.916,-8.852 18.502,-8.261 15.962,-8.261C7.305,-8.261 -2.81,-15.127 -9.256,-26.292C-17.592,-40.731 -16.633,-56.892 -7.113,-62.388C-4.954,-63.634 -2.54,-64.225 0,-64.225" style="fill:rgb(6,0,1);fill-rule:nonzero;"/>
                </g>
            </g>
        </g>
    </g>
</svg>
