<?xml version="1.0" encoding="UTF-8" standalone="no"?>
<!DOCTYPE svg PUBLIC "-//W3C//DTD SVG 1.1//EN" "http://www.w3.org/Graphics/SVG/1.1/DTD/svg11.dtd">
<svg width="100%" height="100%" viewBox="0 0 5006 1415" version="1.1" xmlns="http://www.w3.org/2000/svg" xmlns:xlink="http://www.w3.org/1999/xlink" xml:space="preserve" xmlns:serif="http://www.serif.com/" style="fill-rule:evenodd;clip-rule:evenodd;stroke-linejoin:round;stroke-miterlimit:2;">
    <g transform="matrix(1,0,0,1,-35491.6875,-1591.035937)">
        <g id="Page-10" serif:id="Page 10" transform="matrix(4.166667,0,0,4.166667,35491.6875,1591.035937)">
            <rect x="0" y="0" width="1201.41" height="339.421" style="fill:none;"/>
            <g id="图层-1" serif:id="图层 1">
                <g transform="matrix(1,0,0,1,299.8829,133.1428)">
                    <path d="M0,-20.978C0.866,-21.516 2.251,-21.436 3.102,-20.799L8.345,-16.865C10.093,-15.551 10.108,-13.579 8.35,-12.488L8.271,-12.438L-0.045,-18.837C-0.886,-19.484 -0.861,-20.44 0,-20.978M11.174,-18.623L5.871,-22.522C3.515,-24.249 -0.279,-24.439 -2.629,-22.975C-4.974,-21.511 -5.074,-18.897 -2.808,-17.119L3.864,-11.876L-0.881,-8.928L-8.833,-3.988L-8.838,-3.988L-14.908,-0.214L-10.855,3.461L-3.665,-1.001L-3.66,-1.001L4.302,-5.94L11.258,-10.252C14.639,-12.349 14.565,-16.133 11.174,-18.623" style="fill:rgb(233,224,206);fill-rule:nonzero;"/>
                </g>
                <g transform="matrix(1,0,0,1,298.451,117.6998)">
                    <path d="M0,-2.535C-0.781,-3.142 -1.156,-3.899 -1.134,-4.624C-1.112,-5.345 -0.697,-6.038 0.107,-6.539C1.721,-7.545 4.314,-7.404 5.913,-6.217L11.191,-2.297C13.757,-0.391 13.795,2.472 11.228,4.065L9.704,5.01L0,-2.535Z" style="fill:rgb(233,224,206);fill-rule:nonzero;"/>
                </g>
                <g transform="matrix(1,0,0,1,336.2919,145.755)">
                    <path d="M0,-3.53L-0.09,-3.475L-10.417,-11.422C-11.452,-12.219 -11.507,-13.344 -10.541,-13.937C-9.58,-14.529 -7.952,-14.38 -6.901,-13.588L-0.403,-8.714C1.773,-7.075 1.967,-4.745 0,-3.53M2.763,-10.665L-3.809,-15.495C-6.717,-17.631 -11.169,-18.02 -13.788,-16.402C-16.402,-14.783 -16.297,-11.716 -13.499,-9.52L-5.228,-3.017L-18.553,5.174L-26.256,9.909L-21.202,14.49L-18.553,12.867L3.625,-0.742C7.424,-3.072 6.986,-7.563 2.763,-10.665" style="fill:rgb(233,224,206);fill-rule:nonzero;"/>
                </g>
                <g transform="matrix(1,0,0,1,324.3275,138.8384)">
                    <path d="M0,-3.554C-0.965,-4.304 -1.468,-5.212 -1.504,-6.064C-1.539,-6.911 -1.113,-7.707 -0.216,-8.261C1.584,-9.372 4.628,-9.092 6.603,-7.626L13.146,-2.767C16.339,-0.396 16.645,2.999 13.764,4.767L12.053,5.818L0,-3.554Z" style="fill:rgb(233,224,206);fill-rule:nonzero;"/>
                </g>
                <g transform="matrix(1,0,0,1,280.9774,178.5098)">
                    <path d="M0,20.99C-0.09,22.12 0.43,23.18 1.43,23.89C1.26,24.44 1.07,25 0.86,25.56C0.63,26.18 0.16,26.84 -0.5,27.5C-1.37,28.35 -2.92,29.29 -4.57,30.28C-5.35,30.75 -6.15,31.24 -6.98,31.77C-15,36.92 -16.01,42.78 -15.89,45.83C-15.72,50.18 -13.17,54.01 -8.87,56.32C-5.73,58.01 -1.61,58.91 3.03,58.91C7.96,58.91 13.24,57.9 17.88,56.06C22.28,54.33 25.92,52 28.5,49.29L28.5,53.04C28.5,53.29 28.37,53.53 28.14,53.66L25.58,55.14L-44.15,95.4L-48.38,97.84L-50.95,99.32C-51.17,99.45 -51.45,99.45 -51.67,99.32L-54.23,97.84L-89.77,77.32C-89.4,77.34 -89.04,77.35 -88.67,77.35C-80.37,77.35 -72.38,73.13 -66.74,65.77C-61.45,58.88 -58.55,49.82 -58.55,40.27C-58.55,30.71 -61.45,21.66 -66.74,14.76C-72.38,7.41 -80.37,3.18 -88.67,3.18C-96.96,3.18 -104.95,7.41 -110.59,14.76C-115.87,21.66 -118.79,30.71 -118.79,40.27C-118.79,49.45 -116.1,58.17 -111.2,64.95L-128.2,55.14L-130.76,53.66C-130.99,53.53 -131.12,53.29 -131.12,53.04L-131.12,31.21C-128.92,30.6 -126.83,29.67 -124.92,28.45C-118.5,24.35 -114.4,17.14 -113.66,8.69C-112.99,0.83 -115.18,-7.52 -119.84,-14.83C-122.9,-19.62 -126.79,-23.59 -131.12,-26.51L-131.12,-38.3C-131.12,-38.55 -130.99,-38.79 -130.76,-38.92C-130.76,-38.92 -128.47,-40.24 -128.46,-40.24C-128.41,-40.27 -128.35,-40.31 -128.29,-40.34C-128.26,-40.36 -128.23,-40.38 -128.2,-40.4L-124.85,-42.34L-88.57,-63.28L-90.53,-59.11L-87.74,-58.7C-94.12,-51.91 -95.09,-45.46 -95.04,-41.98C-95.03,-41.53 -95.01,-41.13 -94.98,-40.78C-94.68,-37.45 -93.46,-34.27 -91.34,-31.23C-90.97,-30.69 -90.56,-30.15 -90.13,-29.62C-87.26,-26.12 -83.16,-22.84 -77.85,-19.79C-72.68,-16.83 -67.16,-14.57 -61.37,-13.02C-60.46,-12.78 -59.55,-12.55 -58.64,-12.34C-53.27,-11.13 -47.7,-10.52 -42,-10.52C-41.52,-10.52 -41.05,-10.52 -40.58,-10.53C-37.57,-10.58 -34.53,-10.8 -31.46,-11.2C-23.34,-12.24 -16.9,-14.23 -13.25,-15.56L-12.8,-14.57L-5.33,-15.78L-9.16,-24.16L-16.63,-22.95L-15.84,-21.24C-19.28,-20.02 -25.18,-18.25 -32.47,-17.33C-48.03,-15.38 -62.26,-18.02 -74.76,-25.18C-83.55,-30.22 -88.27,-35.66 -88.79,-41.34C-89.46,-48.82 -82.64,-55.2 -80.53,-56.98C-80.33,-57.15 -80.15,-57.35 -80,-57.56L-75.99,-56.97L-73.96,-61.29L-88.33,-63.41L-68.56,-74.83L-62.27,-78.46L-40.35,-78.46C-40.35,-78.46 -34.06,-74.83 -34.05,-74.83L10.07,-49.35C10.07,-49.35 15.24,-46.37 15.25,-46.37L25.58,-40.4C25.6,-40.39 25.63,-40.37 25.65,-40.36C25.67,-40.34 25.7,-40.33 25.72,-40.32L28.14,-38.92C28.37,-38.79 28.5,-38.55 28.5,-38.3L28.5,13.76C27.71,14.01 26.91,14.23 26.08,14.41C23.9,14.88 21.59,15.15 19.2,15.21C17.74,15.24 16.27,15.26 14.83,15.26C13.24,15.26 11.63,15.24 10.06,15.19L9.98,15.19C7.92,15.098 5.865,15.615 4.069,16.619C2.568,17.458 0.135,19.088 0,20.99" style="fill:rgb(233,224,206);fill-rule:nonzero;"/>
                </g>
                <g transform="matrix(1,0,0,1,249.3349,147.7575)">
                    <path d="M0,-0.17L-10.55,5.99L-21.01,0L-10.45,-6.16L-5.92,-3.56L0,-0.17Z" style="fill:white;fill-rule:nonzero;"/>
                </g>
                <g transform="matrix(1,0,0,1,270.455,135.4574)">
                    <path d="M0,-0.16L-10.56,5.99L-16.49,2.59L-21.01,0L-10.46,-6.15L0,-0.16Z" style="fill:white;fill-rule:nonzero;"/>
                </g>
                <g transform="matrix(1,0,0,1,244.5499,137.6235)">
                    <path d="M0,7.807L-6.685,3.985L-5.081,3.06L4.878,-2.744L16.328,3.819L4.781,10.551L0,7.807Z" style="fill:white;fill-rule:nonzero;"/>
                </g>
                <g transform="matrix(1,0,0,1,249.4254,148.7518)">
                    <path d="M0,-14.45L-0.5,-14.159L-10.21,-8.499L-11.055,-8.011L-12.564,-7.141L-11.052,-6.277L-5.122,-2.887L-0.594,-0.288L-0.092,0L0.408,-0.291L10.958,-6.441L12.452,-7.312L10.951,-8.173L6.431,-10.763L0.501,-14.162L0,-14.45ZM0.004,-13.295L5.934,-9.895L10.454,-7.305L-0.096,-1.155L-4.626,-3.755L-10.556,-7.145L-9.706,-7.635L0.004,-13.295Z" style="fill:rgb(233,224,206);fill-rule:nonzero;"/>
                </g>
                <g transform="matrix(1,0,0,1,225.1127,134.4145)">
                    <path d="M0,-0.16L-10.55,5.99L-21,0.01L-10.45,-6.15L-4.79,-2.91L0,-0.16Z" style="fill:white;fill-rule:nonzero;"/>
                </g>
                <g transform="matrix(1,0,0,1,246.2326,122.1146)">
                    <path d="M0,-0.16L-10.55,5.99L-15.35,3.24L-21.01,0L-10.45,-6.15L0,-0.16Z" style="fill:white;fill-rule:nonzero;"/>
                </g>
                <g transform="matrix(1,0,0,1,219.255,124.9996)">
                    <path d="M0,6.529L-5.541,3.348L6.016,-3.383L17.478,3.181L5.92,9.912L0,6.529Z" style="fill:white;fill-rule:nonzero;"/>
                </g>
                <g transform="matrix(1,0,0,1,225.2684,135.4887)">
                    <path d="M0,-14.449L-0.499,-14.158L-11.059,-8.008L-12.554,-7.138L-11.054,-6.277L-6.264,-3.527L-0.592,-0.286L-0.091,0L0.407,-0.29L10.967,-6.44L12.464,-7.312L10.961,-8.172L5.301,-11.412L0.501,-14.162L0,-14.449ZM0.004,-13.294L4.804,-10.544L10.464,-7.304L-0.096,-1.154L-5.766,-4.394L-10.556,-7.144L0.004,-13.294Z" style="fill:rgb(233,224,206);fill-rule:nonzero;"/>
                </g>
                <g transform="matrix(1,0,0,1,228.5399,231.8941)">
                    <path d="M0,-44.799L0,45.133C-0.015,45.128 -0.035,45.128 -0.05,45.123C-0.144,45.103 -0.244,45.078 -0.339,45.048C-0.398,45.038 -0.463,45.018 -0.523,44.998C-0.528,44.998 -0.528,44.998 -0.533,44.993C-0.637,44.969 -0.742,44.934 -0.841,44.894C-0.851,44.894 -0.861,44.889 -0.871,44.884C-0.906,44.874 -0.946,44.859 -0.981,44.844C-1.071,44.814 -1.155,44.779 -1.24,44.739C-1.26,44.73 -1.275,44.725 -1.295,44.715C-1.334,44.695 -1.379,44.675 -1.419,44.655C-1.429,44.65 -1.439,44.645 -1.449,44.64C-1.568,44.585 -1.683,44.52 -1.797,44.456L-37.335,23.941C-36.967,23.956 -36.598,23.966 -36.23,23.966C-27.934,23.966 -19.942,19.748 -14.301,12.389C-9.018,5.497 -6.11,-3.56 -6.11,-13.115C-6.11,-22.671 -9.018,-31.728 -14.301,-38.625C-19.942,-45.979 -27.934,-50.202 -36.23,-50.202C-44.525,-50.202 -52.517,-45.979 -58.154,-38.625C-63.437,-31.728 -66.35,-22.671 -66.35,-13.115C-66.35,-3.934 -63.661,4.785 -58.761,11.567L-75.761,1.753C-77.568,0.707 -78.683,-1.225 -78.683,-3.311L-78.683,-22.173C-76.483,-22.785 -74.396,-23.716 -72.484,-24.936C-66.061,-29.034 -61.958,-36.24 -61.226,-44.694C-60.549,-52.557 -62.745,-60.907 -67.405,-68.212C-70.463,-73.002 -74.351,-76.975 -78.683,-79.898L-78.683,-88.717C-78.683,-88.856 -78.679,-88.991 -78.669,-89.125C-78.664,-89.185 -78.659,-89.245 -78.654,-89.304C-78.649,-89.354 -78.639,-89.404 -78.634,-89.454C-78.624,-89.558 -78.609,-89.663 -78.589,-89.762C-78.584,-89.767 -78.584,-89.772 -78.584,-89.777C-78.579,-89.832 -78.569,-89.882 -78.554,-89.932L-15.625,-53.777L0,-44.799Z" style="fill:rgb(46,138,134);fill-rule:nonzero;"/>
                </g>
                <g transform="matrix(1,0,0,1,189.6355,129.358)">
                    <path d="M0,17.921C0.373,18.464 0.782,19.002 1.215,19.534L-27.162,3.152L-26.371,2.694L-18.912,-1.613L-3.695,7.171C-3.69,7.624 -3.665,8.022 -3.635,8.371C-3.336,11.697 -2.121,14.884 0,17.921" style="fill:rgb(191,88,43);fill-rule:nonzero;"/>
                </g>
                <g transform="matrix(1,0,0,1,252.2307,261.2218)">
                    <path d="M0,-84.719L-0.01,3.794L-0.01,6.702L-7.499,10.605L-8.286,11.014L-8.286,-81.975L-8.545,-81.831L-32.625,-95.733C-31.718,-95.489 -30.807,-95.26 -29.891,-95.056C-24.523,-93.841 -18.956,-93.229 -13.25,-93.229C-12.777,-93.229 -12.304,-93.234 -11.831,-93.244L-1.459,-87.253C-0.558,-86.731 0,-85.765 0,-84.719" style="fill:rgb(191,88,43);fill-rule:nonzero;"/>
                </g>
                <g transform="matrix(1,0,0,1,244.7418,225.38)">
                    <path d="M0,-44.585L-0.01,43.958L-0.01,46.447L-0.797,46.856L-0.797,44.416L-7.917,48.524L-8.291,48.743L-8.291,-41.841L-8.549,-41.697L-89.733,-88.563L-88.612,-89.21L-82.269,-92.87L-81.477,-93.328L-55.106,-78.101C-54.733,-77.558 -54.324,-77.02 -53.891,-76.488C-51.028,-72.992 -46.93,-69.711 -41.617,-66.663C-36.449,-63.701 -30.922,-61.44 -25.136,-59.891C-24.229,-59.647 -23.318,-59.418 -22.402,-59.214L-1.464,-47.119C-0.558,-46.597 0,-45.631 0,-44.585" style="fill:rgb(105,51,117);fill-rule:nonzero;"/>
                </g>
                <g transform="matrix(1,0,0,1,236.8346,228.8797)">
                    <path d="M0,-44.415L-0.01,45.024L-0.383,45.243L-4.242,47.469C-4.78,47.777 -5.353,47.997 -5.945,48.121C-6.717,48.29 -7.514,48.295 -8.291,48.146L-8.291,-41.671L-8.296,-41.666L-8.55,-41.527L-44.082,-62.037L-86.884,-86.749C-86.874,-86.804 -86.865,-86.864 -86.85,-86.919C-86.511,-88.522 -85.505,-89.931 -84.056,-90.773L-81.825,-92.062L-80.705,-92.71L-1.464,-46.949C-0.558,-46.427 0,-45.461 0,-44.415" style="fill:rgb(64,152,161);fill-rule:nonzero;"/>
                </g>
                <g transform="matrix(1,0,0,1,289.6206,201.9418)">
                    <path d="M0,0.374L-4.994,-3.032C-4.815,-3.256 -4.417,-3.619 -3.66,-3.983C-1.569,-4.999 0.832,-4.924 1.563,-4.426L5.437,-1.782L13.041,3.406C12.862,3.63 12.463,3.994 11.706,4.357C9.615,5.373 7.22,5.299 6.488,4.801L0,0.374Z" style="fill:rgb(233,224,206);fill-rule:nonzero;"/>
                </g>
                <g transform="matrix(1,0,0,1,192.3102,188.9478)">
                    <path d="M0,59.657C-12.628,59.657 -22.865,46.302 -22.865,29.831C-22.865,13.354 -12.628,0 0,0C12.628,0 22.865,13.354 22.865,29.831C22.865,46.302 12.628,59.657 0,59.657" style="fill:rgb(47,48,47);fill-rule:nonzero;"/>
                </g>
                <g transform="matrix(1,0,0,1,316.0866,175.3538)">
                    <path d="M0,30.11C-0.015,30.279 -0.045,30.727 0.742,31.265C1.016,31.449 1.319,31.609 1.653,31.743L1.653,27.785C0.578,28.651 0.045,29.503 0,30.11M-5.403,-44.396L-11.901,-48.15L-17.084,-51.138L-65.03,-78.823C-66.285,-79.545 -67.709,-79.928 -69.163,-79.928L-103.68,-79.928C-105.129,-79.928 -106.553,-79.545 -107.808,-78.823L-167.435,-44.396C-171.787,-41.881 -174.491,-37.201 -174.491,-32.177L-174.491,-27.466C-171.633,-26.515 -168.849,-25.131 -166.23,-23.358L-166.23,-32.177C-166.23,-32.316 -166.225,-32.45 -166.215,-32.585C-166.21,-32.645 -166.205,-32.704 -166.2,-32.764C-166.195,-32.814 -166.185,-32.864 -166.18,-32.913C-166.17,-33.018 -166.155,-33.123 -166.136,-33.222C-166.131,-33.227 -166.131,-33.232 -166.131,-33.237C-166.126,-33.292 -166.116,-33.342 -166.101,-33.391C-166.061,-33.591 -166.006,-33.79 -165.941,-33.984C-165.926,-34.029 -165.916,-34.074 -165.897,-34.118C-165.882,-34.163 -165.867,-34.203 -165.847,-34.248C-165.807,-34.353 -165.767,-34.452 -165.722,-34.552C-165.682,-34.646 -165.643,-34.736 -165.593,-34.826C-165.548,-34.915 -165.503,-35.005 -165.448,-35.094C-165.404,-35.179 -165.349,-35.269 -165.289,-35.353C-165.239,-35.438 -165.185,-35.523 -165.12,-35.602C-165.065,-35.687 -165,-35.767 -164.936,-35.846C-164.891,-35.901 -164.846,-35.956 -164.801,-36.011C-164.781,-36.031 -164.761,-36.055 -164.741,-36.075C-164.692,-36.135 -164.637,-36.19 -164.582,-36.245C-164.497,-36.334 -164.408,-36.424 -164.313,-36.509C-164.209,-36.603 -164.104,-36.693 -163.995,-36.777C-163.975,-36.792 -163.955,-36.807 -163.935,-36.822C-163.925,-36.827 -163.92,-36.837 -163.91,-36.842C-163.9,-36.847 -163.89,-36.857 -163.88,-36.862C-163.83,-36.902 -163.775,-36.937 -163.721,-36.977C-163.716,-36.977 -163.716,-36.982 -163.711,-36.987C-163.696,-36.997 -163.686,-37.006 -163.671,-37.011C-163.641,-37.036 -163.611,-37.056 -163.576,-37.081L-163.571,-37.081C-163.517,-37.111 -163.462,-37.151 -163.407,-37.186L-163.402,-37.186C-163.372,-37.206 -163.337,-37.226 -163.307,-37.245L-159.956,-39.182L-123.677,-60.126L-123.672,-60.131L-123.458,-60.26L-123.453,-60.26L-103.68,-71.673L-69.163,-71.673L-25.041,-46.198L-25.036,-46.198L-19.867,-43.211L-19.863,-43.211L-9.531,-37.245C-9.506,-37.231 -9.481,-37.216 -9.456,-37.201C-9.436,-37.186 -9.411,-37.176 -9.391,-37.161C-9.306,-37.111 -9.227,-37.056 -9.147,-37.001C-8.634,-36.648 -8.181,-36.22 -7.813,-35.732C-7.753,-35.657 -7.703,-35.582 -7.648,-35.508C-7.618,-35.468 -7.593,-35.428 -7.564,-35.383C-7.494,-35.279 -7.429,-35.174 -7.369,-35.065C-7.255,-34.86 -7.15,-34.646 -7.056,-34.422C-7.006,-34.308 -6.961,-34.188 -6.921,-34.069C-6.881,-33.949 -6.847,-33.83 -6.812,-33.705C-6.777,-33.581 -6.747,-33.456 -6.722,-33.332C-6.647,-32.953 -6.608,-32.57 -6.608,-32.177L-6.608,16.915C-5.318,16.506 -4.043,16.014 -2.649,15.471C-1.728,15.117 -0.772,14.749 0.244,14.38C0.712,14.211 1.18,14.052 1.653,13.902L1.653,-32.177C1.653,-37.201 -1.051,-41.881 -5.403,-44.396M-0.159,47.279C-0.797,47.592 -1.394,47.911 -1.937,48.235C-3.426,49.111 -4.651,50.137 -5.582,51.282C-5.901,51.676 -6.244,52.064 -6.608,52.442L-6.608,53.229C-6.608,55.315 -7.723,57.247 -9.531,58.293L-79.261,98.551L-83.493,100.996C-83.623,101.071 -83.757,101.14 -83.892,101.205C-83.902,101.21 -83.917,101.215 -83.927,101.22C-83.932,101.225 -83.942,101.225 -83.947,101.23C-84.071,101.29 -84.196,101.344 -84.325,101.389L-84.33,101.389C-84.34,101.394 -84.35,101.399 -84.36,101.404C-84.464,101.444 -84.574,101.484 -84.684,101.514C-84.728,101.534 -84.773,101.544 -84.823,101.554C-84.833,101.554 -84.843,101.559 -84.853,101.563C-84.863,101.563 -84.873,101.568 -84.883,101.568C-84.893,101.573 -84.903,101.573 -84.913,101.578C-84.928,101.583 -84.938,101.588 -84.953,101.588C-84.982,101.598 -85.017,101.608 -85.047,101.613C-85.097,101.628 -85.147,101.638 -85.197,101.648C-85.281,101.673 -85.371,101.688 -85.46,101.703C-85.49,101.708 -85.515,101.713 -85.545,101.713C-85.635,101.728 -85.719,101.743 -85.809,101.748C-85.909,101.763 -86.013,101.768 -86.113,101.773C-86.217,101.778 -86.317,101.783 -86.421,101.783C-86.526,101.783 -86.635,101.778 -86.74,101.773C-86.82,101.768 -86.904,101.763 -86.984,101.753C-87.079,101.748 -87.168,101.733 -87.263,101.718C-87.328,101.713 -87.387,101.703 -87.447,101.688C-87.477,101.683 -87.512,101.678 -87.542,101.668L-87.547,101.668C-87.562,101.668 -87.582,101.668 -87.596,101.663C-87.691,101.643 -87.791,101.618 -87.885,101.588C-87.945,101.578 -88.01,101.559 -88.07,101.539C-88.074,101.539 -88.074,101.539 -88.08,101.534C-88.184,101.509 -88.289,101.474 -88.388,101.434C-88.398,101.434 -88.408,101.429 -88.418,101.424C-88.453,101.414 -88.493,101.399 -88.528,101.384C-88.617,101.354 -88.702,101.32 -88.787,101.28C-88.807,101.27 -88.821,101.265 -88.841,101.255C-88.881,101.235 -88.926,101.215 -88.966,101.195C-88.976,101.19 -88.986,101.185 -88.996,101.18C-89.115,101.125 -89.23,101.061 -89.344,100.996L-124.882,80.481L-124.887,80.481C-132.779,80.122 -140.318,75.96 -145.7,68.929C-145.905,68.66 -146.109,68.391 -146.308,68.112L-146.308,68.107L-163.307,58.293C-165.115,57.247 -166.23,55.315 -166.23,53.229L-166.23,34.367C-168.361,34.97 -170.602,35.279 -172.888,35.279C-173.42,35.279 -173.958,35.264 -174.491,35.229L-174.491,53.229C-174.491,58.253 -171.787,62.934 -167.435,65.448L-93.477,108.146C-91.331,109.386 -88.891,110.038 -86.421,110.038C-83.947,110.038 -81.507,109.386 -79.366,108.146L-5.403,65.448C-1.051,62.934 1.653,58.253 1.653,53.229L1.653,46.482C1.041,46.726 0.433,46.995 -0.159,47.279" style="fill:rgb(233,224,206);fill-rule:nonzero;"/>
                </g>
                <g transform="matrix(1,0,0,1,292.4588,228.5171)">
                    <path d="M0,0.687C0.772,0.488 1.539,0.259 2.295,0C1.539,0.254 0.772,0.483 0,0.687" style="fill:rgb(156,156,156);fill-rule:nonzero;"/>
                </g>
                <g transform="matrix(1,0,0,1,333.3789,222.6167)">
                    <path d="M0,-20.55C-0.07,-19.594 -1.339,-18.05 -4.013,-16.756C-7.404,-15.108 -12.657,-14.331 -15.64,-15.521C-15.974,-15.655 -16.277,-15.815 -16.551,-15.999C-17.338,-16.537 -17.308,-16.985 -17.293,-17.154C-17.248,-17.762 -16.716,-18.613 -15.64,-19.479C-15.033,-19.977 -14.251,-20.475 -13.29,-20.943C-10.676,-22.208 -7.827,-22.771 -5.422,-22.771C-3.426,-22.771 -1.738,-22.387 -0.742,-21.705C0.045,-21.167 0.01,-20.719 0,-20.55M-35.308,-3.426C-35.378,-2.475 -36.643,-0.931 -39.307,0.363C-44.087,2.679 -49.654,2.629 -51.86,1.125C-52.647,0.587 -52.612,0.139 -52.602,-0.03C-52.527,-0.986 -51.262,-2.53 -48.583,-3.824C-44.814,-5.657 -38.734,-6.414 -36.045,-4.581C-35.259,-4.044 -35.293,-3.595 -35.308,-3.426M6.886,-25.465C6.752,-25.579 6.618,-25.694 6.468,-25.798C6.339,-25.898 6.209,-25.987 6.07,-26.077C6.03,-26.107 5.985,-26.132 5.945,-26.157C5.811,-26.246 5.676,-26.326 5.532,-26.406C5.029,-26.69 4.481,-26.938 3.884,-27.158C3.486,-27.302 3.072,-27.431 2.639,-27.551C2.206,-27.665 1.758,-27.765 1.295,-27.855C-0.095,-28.119 -1.618,-28.248 -3.217,-28.248C-3.894,-28.248 -4.591,-28.223 -5.293,-28.178C-5.761,-28.143 -6.234,-28.104 -6.707,-28.049C-9.326,-27.76 -12.04,-27.148 -14.639,-26.207C-14.978,-26.087 -15.311,-25.963 -15.64,-25.838C-18.404,-24.802 -20.923,-23.712 -23.901,-22.97C-24.204,-22.895 -24.513,-22.826 -24.827,-22.756C-27.287,-22.228 -29.757,-21.944 -32.147,-21.835L-28.566,-19.395C-27.526,-18.683 -26.973,-17.612 -27.058,-16.457C-27.172,-14.898 -28.427,-13.425 -30.503,-12.419C-31.928,-11.727 -33.785,-11.273 -35.542,-11.273C-36.937,-11.273 -38.271,-11.557 -39.272,-12.244L-44.889,-16.074C-44.894,-16.064 -44.894,-16.059 -44.899,-16.049C-45.461,-14.555 -46.432,-13.026 -47.916,-11.562C-49.938,-9.566 -52.826,-8.117 -55.549,-6.369C-62.037,-2.206 -63.103,3.162 -57.91,5.96C-57.372,6.249 -56.774,6.508 -56.132,6.722C-55.838,6.821 -55.53,6.911 -55.216,6.996C-55.116,7.026 -55.012,7.05 -54.907,7.075C-54.678,7.135 -54.444,7.185 -54.21,7.235C-54.1,7.26 -53.996,7.279 -53.886,7.304C-53.573,7.359 -53.254,7.414 -52.925,7.459C-52.791,7.479 -52.656,7.494 -52.522,7.509C-52.303,7.538 -52.089,7.563 -51.865,7.583C-51.705,7.598 -51.541,7.613 -51.377,7.623C-51.158,7.638 -50.934,7.653 -50.709,7.663C-50.466,7.673 -50.222,7.683 -49.978,7.688C-49.749,7.693 -49.519,7.698 -49.29,7.698C-48.842,7.693 -48.389,7.683 -47.936,7.663C-47.911,7.663 -47.891,7.663 -47.866,7.658C-47.368,7.638 -46.86,7.598 -46.353,7.553C-45.84,7.504 -45.327,7.444 -44.809,7.369C-44.032,7.255 -43.25,7.12 -42.474,6.956C-41.956,6.841 -41.438,6.722 -40.925,6.587L-40.92,6.587C-40.148,6.383 -39.382,6.154 -38.625,5.9C-38.117,5.731 -37.619,5.547 -37.126,5.352C-33.083,3.754 -30.12,1.683 -28.387,-0.453C-27.247,-1.858 -25.773,-3.232 -23.901,-4.477C-23.562,-4.701 -23.209,-4.925 -22.84,-5.144C-22.113,-5.572 -21.346,-5.98 -20.55,-6.369C-19.753,-6.752 -18.921,-7.121 -18.065,-7.459C-17.273,-7.773 -16.467,-8.057 -15.64,-8.311C-13.519,-8.973 -11.298,-9.461 -9.087,-9.81C-5.134,-10.432 -1.085,-11.761 2.335,-13.788C8.52,-17.443 10.432,-22.372 6.886,-25.465" style="fill:rgb(233,224,206);fill-rule:nonzero;"/>
                </g>
                <g transform="matrix(1,0,0,1,292.4588,228.5171)">
                    <path d="M0,0.687C0.772,0.488 1.539,0.259 2.295,0C1.539,0.254 0.772,0.483 0,0.687" style="fill:rgb(7,1,2);fill-rule:nonzero;"/>
                </g>
                <g transform="matrix(1,0,0,1,152.1519,156.173)">
                    <path d="M0,44.67C-0.737,45.138 -1.504,45.541 -2.296,45.88C-4.387,46.771 -6.637,47.199 -8.953,47.199C-9.486,47.199 -10.018,47.175 -10.556,47.13C-18.11,46.502 -26.112,41.493 -31.365,33.262C-39.237,20.928 -37.952,6.04 -28.502,0.005C-25.803,-1.713 -22.736,-2.529 -19.544,-2.529C-16.591,-2.529 -13.524,-1.832 -10.556,-0.503C-7.653,0.792 -4.835,2.689 -2.296,5.119C-0.393,6.927 1.349,9.038 2.868,11.413C10.74,23.747 9.456,38.635 0,44.67" style="fill:rgb(47,48,47);fill-rule:nonzero;"/>
                </g>
                <g transform="matrix(1,0,0,1,192.643,115.1966)">
                    <path d="M0,-0.099L-0.229,0.025L-0.159,-0.124L0,-0.099Z" style="fill:rgb(7,1,2);fill-rule:nonzero;"/>
                </g>
                <g transform="matrix(1,0,0,1,570.9412,133.1428)">
                    <path d="M0,-20.978C0.866,-21.516 2.251,-21.436 3.102,-20.799L8.345,-16.865C10.093,-15.551 10.108,-13.579 8.35,-12.488L8.271,-12.438L-0.045,-18.837C-0.886,-19.484 -0.861,-20.44 0,-20.978M11.174,-18.623L5.871,-22.522C3.515,-24.249 -0.279,-24.439 -2.629,-22.975C-4.974,-21.511 -5.074,-18.897 -2.808,-17.119L3.864,-11.876L-0.881,-8.928L-8.833,-3.988L-8.838,-3.988L-14.908,-0.214L-10.855,3.461L-3.665,-1.001L-3.66,-1.001L4.302,-5.94L11.258,-10.252C14.639,-12.349 14.565,-16.133 11.174,-18.623" style="fill:rgb(233,224,206);fill-rule:nonzero;"/>
                </g>
                <g transform="matrix(1,0,0,1,569.5092,117.6998)">
                    <path d="M0,-2.535C-0.781,-3.142 -1.156,-3.899 -1.134,-4.624C-1.112,-5.345 -0.697,-6.038 0.107,-6.539C1.721,-7.545 4.314,-7.404 5.913,-6.217L11.191,-2.297C13.757,-0.391 13.795,2.472 11.228,4.065L9.704,5.01L0,-2.535Z" style="fill:rgb(233,224,206);fill-rule:nonzero;"/>
                </g>
                <g transform="matrix(1,0,0,1,607.3502,145.755)">
                    <path d="M0,-3.53L-0.09,-3.475L-10.417,-11.422C-11.452,-12.219 -11.507,-13.344 -10.541,-13.937C-9.58,-14.529 -7.952,-14.38 -6.901,-13.588L-0.403,-8.714C1.773,-7.075 1.967,-4.745 0,-3.53M2.763,-10.665L-3.809,-15.495C-6.717,-17.631 -11.169,-18.02 -13.788,-16.402C-16.402,-14.783 -16.297,-11.716 -13.499,-9.52L-5.228,-3.017L-18.553,5.174L-26.256,9.909L-21.202,14.49L-18.553,12.867L3.625,-0.742C7.424,-3.072 6.986,-7.563 2.763,-10.665" style="fill:rgb(233,224,206);fill-rule:nonzero;"/>
                </g>
                <g transform="matrix(1,0,0,1,595.3857,138.8384)">
                    <path d="M0,-3.554C-0.965,-4.304 -1.468,-5.212 -1.504,-6.064C-1.539,-6.911 -1.113,-7.707 -0.216,-8.261C1.584,-9.372 4.628,-9.092 6.603,-7.626L13.146,-2.767C16.339,-0.396 16.645,2.999 13.764,4.767L12.053,5.818L0,-3.554Z" style="fill:rgb(233,224,206);fill-rule:nonzero;"/>
                </g>
                <g transform="matrix(1,0,0,1,486.2336,159.2256)">
                    <path d="M0,59.553C0,43.076 -10.237,29.722 -22.865,29.722C-35.493,29.722 -45.73,43.076 -45.73,59.553C-45.73,76.025 -35.493,89.379 -22.865,89.379C-10.237,89.379 0,76.025 0,59.553M49.002,-14.301L43.071,-17.696L33.521,-12.135L32.52,-11.547L38.446,-8.151L27.889,-1.997L17.433,-7.987L27.989,-14.141L22.063,-17.537L22.91,-18.03L32.62,-23.687L38.55,-20.291L49.106,-26.44L59.563,-20.45L49.002,-14.301ZM13.773,-22.292L8.106,-25.534L-2.45,-19.384L-12.901,-25.37L-2.345,-31.524L3.316,-28.282L3.879,-28.611L13.872,-34.432L8.211,-37.674L18.772,-43.823L29.224,-37.833L18.673,-31.688L24.329,-28.447L14.49,-22.711L13.773,-22.292ZM93.945,-19.633L91.52,-21.033C91.5,-21.048 91.475,-21.057 91.456,-21.072C91.431,-21.087 91.406,-21.102 91.381,-21.117L81.049,-27.082L81.044,-27.082L75.875,-30.07L75.87,-30.07L31.748,-55.544L31.743,-55.544L25.449,-59.179L3.535,-59.179L-2.758,-55.544L-22.532,-44.127L-8.156,-42.011L-10.193,-37.683L-14.201,-38.276C-14.35,-38.067 -14.525,-37.868 -14.729,-37.693C-16.84,-35.916 -23.662,-29.537 -22.985,-22.053C-22.472,-16.372 -17.751,-10.934 -8.958,-5.895C3.54,1.265 17.776,3.909 33.337,1.952C40.626,1.036 46.517,-0.732 49.963,-1.952L49.176,-3.665L56.645,-4.88L60.474,3.501L53.005,4.716L52.552,3.725C48.897,5.054 42.464,7.041 34.338,8.087C31.27,8.48 28.233,8.704 25.225,8.754C24.752,8.764 24.279,8.769 23.806,8.769C18.1,8.769 12.533,8.156 7.165,6.941C6.249,6.737 5.338,6.508 4.432,6.264C-1.354,4.716 -6.881,2.455 -12.05,-0.508C-17.363,-3.555 -21.461,-6.836 -24.324,-10.332C-24.757,-10.865 -25.165,-11.403 -25.539,-11.945C-27.66,-14.983 -28.875,-18.169 -29.174,-21.496C-29.204,-21.844 -29.229,-22.243 -29.234,-22.696C-29.283,-26.171 -28.322,-32.629 -21.939,-39.416L-24.727,-39.83L-22.765,-43.997L-59.045,-23.054L-62.396,-21.117C-62.426,-21.097 -62.461,-21.077 -62.491,-21.057L-62.496,-21.057C-62.55,-21.023 -62.605,-20.983 -62.66,-20.953L-62.665,-20.953L-64.96,-19.633C-65.184,-19.504 -65.319,-19.27 -65.319,-19.011L-65.319,-7.23C-60.987,-4.307 -57.098,-0.333 -54.041,4.457C-49.38,11.761 -47.184,20.112 -47.861,27.974C-48.593,36.429 -52.696,43.634 -59.12,47.732C-61.032,48.952 -63.118,49.883 -65.319,50.496L-65.319,72.32C-65.319,72.574 -65.184,72.813 -64.96,72.942L-62.396,74.421L-45.397,84.236C-50.296,77.454 -52.985,68.735 -52.985,59.553C-52.985,49.998 -50.072,40.94 -44.789,34.044C-39.152,26.689 -31.161,22.467 -22.865,22.467C-14.569,22.467 -6.578,26.689 -0.936,34.044C4.347,40.94 7.255,49.998 7.255,59.553C7.255,69.108 4.347,78.166 -0.936,85.057C-6.578,92.417 -14.569,96.634 -22.865,96.634C-23.234,96.634 -23.602,96.624 -23.97,96.609L11.567,117.124L14.131,118.608C14.355,118.732 14.629,118.732 14.853,118.608L17.418,117.124L21.65,114.679L91.381,74.421L93.945,72.942C94.169,72.813 94.304,72.574 94.304,72.32L94.304,68.571C91.719,71.284 88.08,73.61 83.683,75.347C79.037,77.18 73.764,78.191 68.834,78.191C64.189,78.191 60.071,77.294 56.929,75.601C52.637,73.291 50.077,69.467 49.913,65.11C49.793,62.068 50.799,56.202 58.821,51.053C59.647,50.521 60.454,50.037 61.231,49.564C62.879,48.574 64.433,47.637 65.299,46.781C65.961,46.129 66.429,45.461 66.663,44.844C66.873,44.286 67.067,43.724 67.236,43.171C66.235,42.464 65.712,41.408 65.797,40.278C65.912,38.719 67.166,37.246 69.238,36.24C70.074,35.831 71.06,35.508 72.091,35.314L72.365,35.179L73.988,34.392L75.786,34.472C75.81,34.477 75.84,34.477 75.865,34.477C77.434,34.522 79.037,34.547 80.63,34.547C82.069,34.547 83.538,34.527 84.997,34.492C87.387,34.432 89.703,34.163 91.884,33.695C92.715,33.516 93.512,33.297 94.304,33.043L94.304,-19.011C94.304,-19.27 94.169,-19.504 93.945,-19.633M77.284,69.98C78.056,69.781 78.823,69.552 79.58,69.293C78.823,69.547 78.056,69.776 77.284,69.98" style="fill:rgb(233,224,206);fill-rule:nonzero;"/>
                </g>
                <g transform="matrix(1,0,0,1,499.5982,231.8941)">
                    <path d="M0,-44.799L0,45.133C-0.015,45.128 -0.035,45.128 -0.05,45.123C-0.144,45.103 -0.244,45.078 -0.339,45.048C-0.398,45.038 -0.463,45.018 -0.523,44.998C-0.528,44.998 -0.528,44.998 -0.533,44.993C-0.637,44.969 -0.742,44.934 -0.841,44.894C-0.851,44.894 -0.861,44.889 -0.871,44.884C-0.906,44.874 -0.946,44.859 -0.981,44.844C-1.07,44.814 -1.155,44.779 -1.24,44.739C-1.26,44.73 -1.275,44.725 -1.295,44.715C-1.334,44.695 -1.379,44.675 -1.419,44.655C-1.429,44.65 -1.439,44.645 -1.449,44.64C-1.568,44.585 -1.683,44.52 -1.797,44.456L-37.335,23.941C-36.967,23.956 -36.598,23.966 -36.23,23.966C-27.934,23.966 -19.942,19.748 -14.301,12.389C-9.018,5.497 -6.11,-3.56 -6.11,-13.115C-6.11,-22.671 -9.018,-31.728 -14.301,-38.625C-19.942,-45.979 -27.934,-50.202 -36.23,-50.202C-44.525,-50.202 -52.517,-45.979 -58.154,-38.625C-63.437,-31.728 -66.35,-22.671 -66.35,-13.115C-66.35,-3.934 -63.661,4.785 -58.761,11.567L-75.761,1.753C-77.568,0.707 -78.684,-1.225 -78.684,-3.311L-78.684,-22.173C-76.483,-22.785 -74.396,-23.716 -72.484,-24.936C-66.061,-29.034 -61.958,-36.24 -61.226,-44.694C-60.549,-52.557 -62.745,-60.907 -67.405,-68.212C-70.463,-73.002 -74.352,-76.975 -78.684,-79.898L-78.684,-88.717C-78.684,-88.856 -78.678,-88.991 -78.669,-89.125C-78.664,-89.185 -78.659,-89.245 -78.654,-89.304C-78.649,-89.354 -78.639,-89.404 -78.634,-89.454C-78.624,-89.558 -78.609,-89.663 -78.589,-89.762C-78.584,-89.767 -78.584,-89.772 -78.584,-89.777C-78.579,-89.832 -78.569,-89.882 -78.554,-89.932L-15.625,-53.777L0,-44.799Z" style="fill:rgb(46,138,134);fill-rule:nonzero;"/>
                </g>
                <g transform="matrix(1,0,0,1,460.6938,129.358)">
                    <path d="M0,17.921C0.373,18.464 0.782,19.002 1.215,19.534L-27.162,3.152L-26.371,2.694L-18.911,-1.613L-3.695,7.171C-3.69,7.624 -3.665,8.022 -3.635,8.371C-3.336,11.697 -2.121,14.884 0,17.921" style="fill:rgb(191,88,43);fill-rule:nonzero;"/>
                </g>
                <g transform="matrix(1,0,0,1,523.289,261.2218)">
                    <path d="M0,-84.719L-0.01,3.794L-0.01,6.702L-7.499,10.605L-8.286,11.014L-8.286,-81.975L-8.544,-81.831L-32.625,-95.733C-31.718,-95.489 -30.807,-95.26 -29.891,-95.056C-24.523,-93.841 -18.956,-93.229 -13.25,-93.229C-12.777,-93.229 -12.304,-93.234 -11.831,-93.244L-1.459,-87.253C-0.558,-86.731 0,-85.765 0,-84.719" style="fill:rgb(191,88,43);fill-rule:nonzero;"/>
                </g>
                <g transform="matrix(1,0,0,1,515.8,225.38)">
                    <path d="M0,-44.585L-0.01,43.958L-0.01,46.447L-0.797,46.856L-0.797,44.416L-7.917,48.524L-8.291,48.743L-8.291,-41.841L-8.549,-41.697L-89.733,-88.563L-88.612,-89.21L-82.269,-92.87L-81.477,-93.328L-55.106,-78.101C-54.733,-77.558 -54.324,-77.02 -53.891,-76.488C-51.028,-72.992 -46.93,-69.711 -41.617,-66.663C-36.449,-63.701 -30.922,-61.44 -25.136,-59.891C-24.229,-59.647 -23.318,-59.418 -22.402,-59.214L-1.464,-47.119C-0.558,-46.597 0,-45.631 0,-44.585" style="fill:rgb(105,51,117);fill-rule:nonzero;"/>
                </g>
                <g transform="matrix(1,0,0,1,507.8929,228.8797)">
                    <path d="M0,-44.415L-0.01,45.024L-0.383,45.243L-4.242,47.469C-4.78,47.777 -5.353,47.997 -5.945,48.121C-6.717,48.29 -7.514,48.295 -8.291,48.146L-8.291,-41.671L-8.296,-41.666L-8.55,-41.527L-44.082,-62.037L-86.884,-86.749C-86.874,-86.804 -86.865,-86.864 -86.85,-86.919C-86.511,-88.522 -85.505,-89.931 -84.056,-90.773L-81.826,-92.062L-80.705,-92.71L-1.464,-46.949C-0.558,-46.427 0,-45.461 0,-44.415" style="fill:rgb(64,152,161);fill-rule:nonzero;"/>
                </g>
                <g transform="matrix(1,0,0,1,463.3685,188.9478)">
                    <path d="M0,59.657C-12.628,59.657 -22.865,46.302 -22.865,29.831C-22.865,13.354 -12.628,0 0,0C12.628,0 22.865,13.354 22.865,29.831C22.865,46.302 12.628,59.657 0,59.657" style="fill:rgb(47,48,47);fill-rule:nonzero;"/>
                </g>
                <g transform="matrix(1,0,0,1,587.1449,175.3538)">
                    <path d="M0,30.11C-0.015,30.279 -0.045,30.727 0.742,31.265C1.016,31.449 1.32,31.609 1.653,31.743L1.653,27.785C0.578,28.651 0.045,29.503 0,30.11M-5.403,-44.396L-11.901,-48.15L-17.084,-51.138L-65.03,-78.823C-66.285,-79.545 -67.709,-79.928 -69.163,-79.928L-103.68,-79.928C-105.129,-79.928 -106.553,-79.545 -107.808,-78.823L-167.435,-44.396C-171.787,-41.881 -174.491,-37.201 -174.491,-32.177L-174.491,-27.466C-171.633,-26.515 -168.849,-25.131 -166.23,-23.358L-166.23,-32.177C-166.23,-32.316 -166.225,-32.45 -166.215,-32.585C-166.21,-32.645 -166.205,-32.704 -166.2,-32.764C-166.195,-32.814 -166.185,-32.864 -166.18,-32.913C-166.17,-33.018 -166.155,-33.123 -166.135,-33.222C-166.131,-33.227 -166.131,-33.232 -166.131,-33.237C-166.126,-33.292 -166.116,-33.342 -166.101,-33.391C-166.061,-33.591 -166.006,-33.79 -165.941,-33.984C-165.926,-34.029 -165.916,-34.074 -165.897,-34.118C-165.882,-34.163 -165.867,-34.203 -165.847,-34.248C-165.807,-34.353 -165.767,-34.452 -165.722,-34.552C-165.682,-34.646 -165.643,-34.736 -165.593,-34.826C-165.548,-34.915 -165.503,-35.005 -165.448,-35.094C-165.404,-35.179 -165.349,-35.269 -165.289,-35.353C-165.239,-35.438 -165.185,-35.523 -165.12,-35.602C-165.065,-35.687 -165,-35.767 -164.936,-35.846C-164.891,-35.901 -164.846,-35.956 -164.801,-36.011C-164.781,-36.031 -164.761,-36.055 -164.741,-36.075C-164.692,-36.135 -164.637,-36.19 -164.582,-36.245C-164.497,-36.334 -164.408,-36.424 -164.313,-36.509C-164.209,-36.603 -164.104,-36.693 -163.995,-36.777C-163.975,-36.792 -163.955,-36.807 -163.935,-36.822C-163.925,-36.827 -163.92,-36.837 -163.91,-36.842C-163.9,-36.847 -163.89,-36.857 -163.88,-36.862C-163.83,-36.902 -163.775,-36.937 -163.721,-36.977C-163.716,-36.977 -163.716,-36.982 -163.711,-36.987C-163.696,-36.997 -163.686,-37.006 -163.671,-37.011C-163.641,-37.036 -163.611,-37.056 -163.576,-37.081L-163.571,-37.081C-163.517,-37.111 -163.462,-37.151 -163.407,-37.186L-163.402,-37.186C-163.372,-37.206 -163.337,-37.226 -163.307,-37.245L-159.956,-39.182L-123.677,-60.126L-123.672,-60.131L-123.458,-60.26L-123.453,-60.26L-103.68,-71.673L-69.163,-71.673L-25.041,-46.198L-25.036,-46.198L-19.867,-43.211L-19.863,-43.211L-9.531,-37.245C-9.506,-37.231 -9.481,-37.216 -9.456,-37.201C-9.436,-37.186 -9.411,-37.176 -9.391,-37.161C-9.306,-37.111 -9.227,-37.056 -9.147,-37.001C-8.634,-36.648 -8.181,-36.22 -7.812,-35.732C-7.753,-35.657 -7.703,-35.582 -7.648,-35.508C-7.618,-35.468 -7.593,-35.428 -7.564,-35.383C-7.494,-35.279 -7.429,-35.174 -7.369,-35.065C-7.255,-34.86 -7.15,-34.646 -7.056,-34.422C-7.006,-34.308 -6.961,-34.188 -6.921,-34.069C-6.881,-33.949 -6.847,-33.83 -6.812,-33.705C-6.777,-33.581 -6.747,-33.456 -6.722,-33.332C-6.647,-32.953 -6.608,-32.57 -6.608,-32.177L-6.608,16.915C-5.318,16.506 -4.043,16.014 -2.649,15.471C-1.728,15.117 -0.772,14.749 0.244,14.38C0.712,14.211 1.18,14.052 1.653,13.902L1.653,-32.177C1.653,-37.201 -1.051,-41.881 -5.403,-44.396M-0.159,47.279C-0.797,47.592 -1.394,47.911 -1.937,48.235C-3.426,49.111 -4.651,50.137 -5.582,51.282C-5.901,51.676 -6.244,52.064 -6.608,52.442L-6.608,53.229C-6.608,55.315 -7.723,57.247 -9.531,58.293L-79.261,98.551L-83.493,100.996C-83.623,101.071 -83.757,101.14 -83.892,101.205C-83.902,101.21 -83.917,101.215 -83.927,101.22C-83.932,101.225 -83.942,101.225 -83.947,101.23C-84.071,101.29 -84.196,101.344 -84.325,101.389L-84.33,101.389C-84.34,101.394 -84.35,101.399 -84.36,101.404C-84.464,101.444 -84.574,101.484 -84.684,101.514C-84.728,101.534 -84.773,101.544 -84.823,101.554C-84.833,101.554 -84.843,101.559 -84.853,101.563C-84.863,101.563 -84.873,101.568 -84.883,101.568C-84.893,101.573 -84.903,101.573 -84.913,101.578C-84.928,101.583 -84.938,101.588 -84.952,101.588C-84.982,101.598 -85.017,101.608 -85.047,101.613C-85.097,101.628 -85.147,101.638 -85.196,101.648C-85.281,101.673 -85.371,101.688 -85.46,101.703C-85.49,101.708 -85.515,101.713 -85.545,101.713C-85.635,101.728 -85.719,101.743 -85.809,101.748C-85.908,101.763 -86.013,101.768 -86.113,101.773C-86.217,101.778 -86.317,101.783 -86.421,101.783C-86.526,101.783 -86.635,101.778 -86.74,101.773C-86.82,101.768 -86.904,101.763 -86.984,101.753C-87.079,101.748 -87.168,101.733 -87.263,101.718C-87.328,101.713 -87.387,101.703 -87.447,101.688C-87.477,101.683 -87.512,101.678 -87.542,101.668L-87.547,101.668C-87.562,101.668 -87.582,101.668 -87.596,101.663C-87.691,101.643 -87.791,101.618 -87.885,101.588C-87.945,101.578 -88.01,101.559 -88.07,101.539C-88.074,101.539 -88.074,101.539 -88.08,101.534C-88.184,101.509 -88.289,101.474 -88.388,101.434C-88.398,101.434 -88.408,101.429 -88.418,101.424C-88.453,101.414 -88.493,101.399 -88.528,101.384C-88.617,101.354 -88.702,101.32 -88.787,101.28C-88.806,101.27 -88.821,101.265 -88.841,101.255C-88.881,101.235 -88.926,101.215 -88.966,101.195C-88.976,101.19 -88.986,101.185 -88.996,101.18C-89.115,101.125 -89.23,101.061 -89.344,100.996L-124.882,80.481L-124.887,80.481C-132.779,80.122 -140.318,75.96 -145.7,68.929C-145.905,68.66 -146.109,68.391 -146.308,68.112L-146.308,68.107L-163.307,58.293C-165.115,57.247 -166.23,55.315 -166.23,53.229L-166.23,34.367C-168.361,34.97 -170.602,35.279 -172.888,35.279C-173.42,35.279 -173.958,35.264 -174.491,35.229L-174.491,53.229C-174.491,58.253 -171.787,62.934 -167.435,65.448L-93.477,108.146C-91.331,109.386 -88.891,110.038 -86.421,110.038C-83.947,110.038 -81.507,109.386 -79.366,108.146L-5.403,65.448C-1.051,62.934 1.653,58.253 1.653,53.229L1.653,46.482C1.041,46.726 0.433,46.995 -0.159,47.279" style="fill:rgb(233,224,206);fill-rule:nonzero;"/>
                </g>
                <g transform="matrix(1,0,0,1,563.5171,228.5171)">
                    <path d="M0,0.687C0.772,0.488 1.539,0.259 2.295,0C1.539,0.254 0.772,0.483 0,0.687" style="fill:rgb(156,156,156);fill-rule:nonzero;"/>
                </g>
                <g transform="matrix(1,0,0,1,604.4373,222.6167)">
                    <path d="M0,-20.55C-0.07,-19.594 -1.339,-18.05 -4.013,-16.756C-7.404,-15.108 -12.657,-14.331 -15.64,-15.521C-15.974,-15.655 -16.277,-15.815 -16.551,-15.999C-17.338,-16.537 -17.308,-16.985 -17.293,-17.154C-17.248,-17.762 -16.716,-18.613 -15.64,-19.479C-15.033,-19.977 -14.251,-20.475 -13.29,-20.943C-10.676,-22.208 -7.828,-22.771 -5.422,-22.771C-3.426,-22.771 -1.738,-22.387 -0.742,-21.705C0.045,-21.167 0.01,-20.719 0,-20.55M-35.308,-3.426C-35.378,-2.475 -36.643,-0.931 -39.307,0.363C-44.087,2.679 -49.654,2.629 -51.86,1.125C-52.647,0.587 -52.612,0.139 -52.602,-0.03C-52.527,-0.986 -51.262,-2.53 -48.583,-3.824C-44.814,-5.657 -38.734,-6.414 -36.045,-4.581C-35.259,-4.044 -35.294,-3.595 -35.308,-3.426M6.886,-25.465C6.752,-25.579 6.618,-25.694 6.468,-25.798C6.339,-25.898 6.209,-25.987 6.07,-26.077C6.03,-26.107 5.985,-26.132 5.945,-26.157C5.811,-26.246 5.676,-26.326 5.532,-26.406C5.029,-26.69 4.481,-26.938 3.884,-27.158C3.486,-27.302 3.072,-27.431 2.639,-27.551C2.206,-27.665 1.758,-27.765 1.295,-27.855C-0.095,-28.119 -1.618,-28.248 -3.217,-28.248C-3.894,-28.248 -4.591,-28.223 -5.293,-28.178C-5.761,-28.143 -6.234,-28.104 -6.707,-28.049C-9.326,-27.76 -12.04,-27.148 -14.639,-26.207C-14.978,-26.087 -15.311,-25.963 -15.64,-25.838C-18.404,-24.802 -20.923,-23.712 -23.901,-22.97C-24.205,-22.895 -24.513,-22.826 -24.827,-22.756C-27.287,-22.228 -29.757,-21.944 -32.147,-21.835L-28.567,-19.395C-27.526,-18.683 -26.973,-17.612 -27.058,-16.457C-27.172,-14.898 -28.427,-13.425 -30.503,-12.419C-31.928,-11.727 -33.785,-11.273 -35.542,-11.273C-36.937,-11.273 -38.271,-11.557 -39.272,-12.244L-44.889,-16.074C-44.894,-16.064 -44.894,-16.059 -44.899,-16.049C-45.461,-14.555 -46.432,-13.026 -47.916,-11.562C-49.938,-9.566 -52.826,-8.117 -55.55,-6.369C-62.038,-2.206 -63.103,3.162 -57.91,5.96C-57.372,6.249 -56.774,6.508 -56.132,6.722C-55.838,6.821 -55.53,6.911 -55.216,6.996C-55.116,7.026 -55.012,7.05 -54.907,7.075C-54.678,7.135 -54.444,7.185 -54.21,7.235C-54.1,7.26 -53.996,7.279 -53.886,7.304C-53.573,7.359 -53.254,7.414 -52.925,7.459C-52.791,7.479 -52.656,7.494 -52.522,7.509C-52.303,7.538 -52.089,7.563 -51.865,7.583C-51.705,7.598 -51.541,7.613 -51.377,7.623C-51.158,7.638 -50.934,7.653 -50.71,7.663C-50.466,7.673 -50.222,7.683 -49.978,7.688C-49.749,7.693 -49.52,7.698 -49.29,7.698C-48.842,7.693 -48.389,7.683 -47.936,7.663C-47.911,7.663 -47.891,7.663 -47.866,7.658C-47.368,7.638 -46.86,7.598 -46.353,7.553C-45.84,7.504 -45.327,7.444 -44.809,7.369C-44.032,7.255 -43.25,7.12 -42.474,6.956C-41.956,6.841 -41.438,6.722 -40.925,6.587L-40.92,6.587C-40.148,6.383 -39.382,6.154 -38.625,5.9C-38.117,5.731 -37.619,5.547 -37.126,5.352C-33.083,3.754 -30.12,1.683 -28.387,-0.453C-27.247,-1.858 -25.773,-3.232 -23.901,-4.477C-23.562,-4.701 -23.209,-4.925 -22.84,-5.144C-22.113,-5.572 -21.346,-5.98 -20.55,-6.369C-19.753,-6.752 -18.922,-7.121 -18.065,-7.459C-17.273,-7.773 -16.467,-8.057 -15.64,-8.311C-13.519,-8.973 -11.298,-9.461 -9.087,-9.81C-5.134,-10.432 -1.086,-11.761 2.335,-13.788C8.52,-17.443 10.432,-22.372 6.886,-25.465" style="fill:rgb(233,224,206);fill-rule:nonzero;"/>
                </g>
                <g transform="matrix(1,0,0,1,563.5171,228.5171)">
                    <path d="M0,0.687C0.772,0.488 1.539,0.259 2.295,0C1.539,0.254 0.772,0.483 0,0.687" style="fill:rgb(7,1,2);fill-rule:nonzero;"/>
                </g>
                <g transform="matrix(1,0,0,1,573.7197,198.9102)">
                    <path d="M0,6.438C-0.179,6.662 -0.578,7.026 -1.335,7.389C-3.426,8.405 -5.821,8.33 -6.553,7.832L-13.041,3.406L-18.035,0C-17.856,-0.224 -17.458,-0.588 -16.701,-0.951C-14.609,-1.967 -12.209,-1.892 -11.477,-1.395L-7.603,1.25L0,6.438Z" style="fill:rgb(233,224,206);fill-rule:nonzero;"/>
                </g>
                <g transform="matrix(1,0,0,1,423.2102,156.173)">
                    <path d="M0,44.67C-0.737,45.138 -1.504,45.541 -2.296,45.88C-4.387,46.771 -6.637,47.199 -8.953,47.199C-9.486,47.199 -10.018,47.175 -10.556,47.13C-18.11,46.502 -26.112,41.493 -31.365,33.262C-39.237,20.928 -37.952,6.04 -28.502,0.005C-25.803,-1.713 -22.736,-2.529 -19.544,-2.529C-16.591,-2.529 -13.524,-1.832 -10.556,-0.503C-7.653,0.792 -4.835,2.689 -2.296,5.119C-0.393,6.927 1.349,9.038 2.868,11.413C10.74,23.747 9.456,38.635 0,44.67" style="fill:rgb(47,48,47);fill-rule:nonzero;"/>
                </g>
                <g transform="matrix(1,0,0,1,463.7013,115.1966)">
                    <path d="M0,-0.099L-0.229,0.025L-0.159,-0.124L0,-0.099Z" style="fill:rgb(7,1,2);fill-rule:nonzero;"/>
                </g>
                <g transform="matrix(1,0,0,1,739.7624,228.31)">
                    <path d="M0,14.25C-0.13,15.57 -0.41,16.88 -0.87,18.16C-3.17,24.58 -8.05,27.14 -14.64,27.14C-19.48,27.14 -25.25,25.75 -31.57,23.49C-46.48,18.15 -58.84,9.98 -54.86,-1.16C-52.4,-8.05 -45.6,-12.47 -37.24,-13.58L-41.18,-16.52C-49.41,-14.49 -55.77,-9.38 -58.27,-2.38C-61.19,5.77 -59.14,17.47 -32.79,26.9C-25.53,29.5 -19.59,30.77 -14.64,30.77L-14.63,30.77C-3.8,30.77 0.68,24.58 2.54,19.39C2.86,18.51 3.11,17.61 3.29,16.71L0,14.25Z" style="fill:rgb(236,227,208);fill-rule:nonzero;"/>
                </g>
                <g transform="matrix(1,0,0,1,743.0524,225.85)">
                    <path d="M0,19.17C-0.18,20.07 -0.43,20.97 -0.75,21.85C-2.61,27.04 -7.09,33.23 -17.92,33.23L-17.93,33.23C-22.88,33.23 -28.82,31.96 -36.08,29.36C-62.43,19.93 -64.48,8.23 -61.56,0.08C-59.06,-6.92 -52.7,-12.03 -44.47,-14.06L-40.53,-11.12L-3.29,16.71L0,19.17Z" style="fill:rgb(47,48,47);fill-rule:nonzero;"/>
                </g>
                <g transform="matrix(1,0,0,1,835.7724,273.2799)">
                    <path d="M0,-19.89C-0.42,-24.68 -1.66,-29.16 -3.52,-33.1L-6.82,-31.68C-5.13,-28.1 -4.01,-23.99 -3.62,-19.57C-2.29,-4.46 -10.08,8.57 -21.02,9.53C-21.45,9.57 -21.88,9.59 -22.3,9.59C-32.72,9.59 -41.95,-1.54 -43.24,-16.05L-46.72,-14.56C-44.88,1.11 -34.33,13.21 -22.3,13.21C-21.77,13.21 -21.23,13.19 -20.7,13.14C-7.79,12 1.5,-2.81 0,-19.89" style="fill:rgb(236,227,208);fill-rule:nonzero;"/>
                </g>
                <g transform="matrix(1,0,0,1,815.0724,240.25)">
                    <path d="M0,46.17C-0.53,46.22 -1.07,46.24 -1.6,46.24C-13.63,46.24 -24.18,34.14 -26.02,18.47L-22.54,16.98L13.88,1.35L17.18,-0.07C19.04,3.87 20.28,8.35 20.7,13.14C22.2,30.22 12.91,45.03 0,46.17" style="fill:rgb(47,48,47);fill-rule:nonzero;"/>
                </g>
                <g transform="matrix(1,0,0,1,790.3656,220.8198)">
                    <path d="M0,-137.98C-0.15,-137.99 -0.3,-138 -0.45,-138C-3.91,-138 -6.84,-135.25 -7.05,-131.73C-7.27,-128.07 -4.47,-124.9 -0.77,-124.68L7.37,-124.28L5.84,-99.02C5.74,-97.36 7,-95.94 8.65,-95.84L8.84,-95.84C10.41,-95.84 11.73,-97.06 11.83,-98.65L13.44,-125.26C13.46,-125.62 13.46,-125.98 13.44,-126.33C13.5,-126.54 13.54,-126.76 13.55,-126.98C13.59,-127.77 13.32,-128.5 12.85,-129.06C11,-133.96 5.26,-137.66 0,-137.98M16.45,-126.04C16.46,-125.73 16.45,-125.41 16.43,-125.08L14.82,-98.46C14.62,-95.31 11.99,-92.84 8.84,-92.84L8.65,-92.84L8.47,-92.85C5.17,-93.05 2.64,-95.9 2.84,-99.2L4.19,-121.43L-0.95,-121.69C-3.54,-121.84 -5.91,-122.99 -7.63,-124.92C-9.34,-126.85 -10.2,-129.34 -10.05,-131.91C-9.74,-137 -5.53,-141 -0.45,-141C-0.24,-141 -0.02,-140.99 0.18,-140.97C6.65,-140.58 13.14,-136.13 15.48,-130.54C16.24,-129.46 16.61,-128.16 16.54,-126.84C16.53,-126.58 16.5,-126.31 16.45,-126.04M-21.98,-50.31L-26.84,-53.37L-28.64,-41.34L-28.8,-40.24L-23.94,-37.18L-25.9,-24.05L-35.63,-30.18L-33.67,-43.31L-38.53,-46.37L-38.34,-47.64L-36.57,-59.5L-26.84,-53.37L-31.7,-56.44L-29.74,-69.56L-20.01,-63.44L-21.98,-50.31ZM-46.6,-65.82L-48.35,-54.15L-48.57,-52.69L-50.52,-53.92L-52.48,-40.79L-62.21,-46.91L-60.25,-60.04L-58.3,-58.81L-58.05,-60.45L-56.33,-71.94L-58.28,-73.17L-56.32,-86.3L-46.59,-80.17L-48.55,-67.05L-46.6,-65.82ZM74.98,-92.43L4.11,-145.39C3.91,-145.54 3.65,-145.57 3.42,-145.47L-17.77,-136.37L-17.86,-134.87L-18.88,-118.04C-19.06,-114.87 -21.69,-112.39 -24.86,-112.39C-24.95,-112.39 -25.12,-112.39 -25.33,-112.41C-26.89,-112.53 -28.32,-113.24 -29.36,-114.41C-30.42,-115.61 -30.95,-117.15 -30.86,-118.75L-30.11,-131.07L-59.65,-118.393C-67.021,-108.568 -72.922,-100.704 -80.293,-90.879L-85.06,-51.99L-73.14,-42.78C-76.07,-52.83 -76.15,-62.02 -75.9,-66.85L-77.63,-66.62L-79.28,-74.13L-69.74,-75.4L-68.09,-67.9L-69.27,-67.74L-69.96,-68.19C-69.97,-68.02 -69.98,-67.84 -70,-67.64C-70.31,-62.67 -70.44,-48.97 -64.14,-35.84C-60.65,-28.56 -55.19,-21.45 -46.68,-16.09C-41.28,-12.68 -36.4,-11.01 -32.1,-11.1C-30.26,-11.13 -28.53,-11.49 -26.91,-12.16C-18.48,-15.7 -14.96,-27.03 -14.19,-29.92L-17.01,-32.87L-16.66,-33.56L-14.53,-37.78L-4.72,-27.5L-7.19,-22.59L-9.59,-25.1C-11.53,-19.63 -15.96,-10.45 -24.63,-6.8C-25.05,-6.62 -25.48,-6.46 -25.91,-6.32L-13.69,3.11C-12.88,3.74 -11.79,3.88 -10.84,3.47L33.23,-15.45C33.59,-18.21 34.74,-24.05 37.16,-35.83L32.81,-37.63C29.93,-38.81 28.3,-42.31 29.02,-45.77C29.64,-48.78 31.96,-50.88 34.67,-50.88C35.36,-50.88 36.04,-50.75 36.69,-50.48L39.92,-49.15C42.46,-61.31 43.47,-65.81 44.13,-67.56C47.64,-76.9 55.46,-82.94 64.07,-82.94C67.23,-82.94 70.3,-82.15 73.18,-80.6C73.42,-80.47 73.65,-80.34 73.88,-80.2L75.26,-91.79C75.29,-92.04 75.18,-92.28 74.98,-92.43M53.05,-40.23L46.77,-42.82L43.01,-44.37L39.24,-45.93L35.46,-47.49C35.2,-47.6 34.93,-47.65 34.67,-47.65C34.1,-47.65 33.56,-47.4 33.12,-46.96C32.68,-46.52 32.34,-45.89 32.18,-45.11C31.78,-43.21 32.62,-41.2 34.04,-40.61L37.82,-39.05L41.59,-37.49L45.35,-35.94L51.63,-33.35C51.89,-33.24 52.16,-33.19 52.42,-33.19C52.99,-33.19 53.53,-33.44 53.97,-33.88C54.41,-34.32 54.75,-34.95 54.91,-35.73C55.3,-37.63 54.47,-39.65 53.05,-40.23M71.03,-56.13L70.48,-51.5C70.6,-51.87 70.7,-52.26 70.78,-52.65C71.02,-53.8 71.09,-54.98 71.03,-56.13M70.78,-52.65C70.7,-52.26 70.6,-51.87 70.48,-51.5C69.77,-49.24 68.45,-47.44 66.83,-46.58C65.55,-45.9 64.17,-45.84 62.83,-46.39C59.14,-47.91 56.92,-53.56 57.98,-58.71C58.57,-61.56 60.01,-63.78 61.94,-64.8C62.64,-65.17 63.38,-65.36 64.12,-65.36C64.72,-65.36 65.33,-65.23 65.93,-64.99C68.79,-63.8 70.78,-60.13 71.03,-56.13C71.09,-54.98 71.02,-53.8 70.78,-52.65M61.73,-8.91C61.72,-8.83 61.71,-8.76 61.69,-8.68C61.66,-8.54 61.63,-8.4 61.59,-8.26C60.96,-5.65 59.53,-3.56 57.73,-2.6C57.03,-2.23 56.3,-2.04 55.56,-2.04C54.95,-2.04 54.34,-2.16 53.74,-2.41C52.93,-2.74 52.2,-3.27 51.56,-3.95C51.42,-4.09 51.29,-4.23 51.17,-4.38C49.64,-6.23 48.69,-8.95 48.64,-11.79C48.61,-12.78 48.7,-13.77 48.9,-14.75C49.47,-17.54 50.95,-19.81 52.85,-20.82C53.55,-21.19 54.29,-21.38 55.03,-21.38C55.63,-21.38 56.24,-21.26 56.84,-21.01C58.47,-20.34 59.81,-18.86 60.71,-16.98C61.82,-14.66 62.26,-11.72 61.73,-8.91M72.79,-70.94C71.76,-72.01 70.61,-72.89 69.38,-73.56C67.64,-74.5 65.84,-74.94 64.07,-74.94C58.92,-74.94 54.02,-71.16 51.62,-64.75C51.07,-63.28 49.37,-55.29 47.44,-46.04L54.28,-43.22C57.16,-42.03 58.79,-38.53 58.07,-35.08C57.45,-32.07 55.12,-29.96 52.42,-29.96C51.73,-29.96 51.05,-30.1 50.4,-30.37L44.68,-32.73C43.61,-27.53 42.64,-22.72 41.97,-19.2C41.46,-16.46 41.12,-14.51 41.08,-13.78C40.98,-12.04 41.06,-10.32 41.3,-8.65C41.69,-5.95 42.5,-3.39 43.64,-1.15C43.72,-0.98 43.81,-0.82 43.9,-0.66C44.85,1.11 46.02,2.67 47.35,3.95C48.92,5.47 50.73,6.58 52.7,7.16C53.69,7.45 54.69,7.59 55.67,7.59C61.11,7.59 66.2,3.33 68.41,-3.49C69.85,-7.94 69.92,-12.65 68.95,-16.89C68.2,-20.19 67.85,-23.65 68.19,-27.02C68.29,-28.05 68.45,-29.07 68.65,-30.06C68.86,-31.05 69.11,-32.03 69.42,-32.97C70.42,-36.07 72.03,-38.73 73.92,-40.93C76.35,-43.77 78.09,-47.8 78.57,-52.64C79.27,-59.66 76.92,-66.7 72.79,-70.94M71.03,-56.13L70.48,-51.5C70.6,-51.87 70.7,-52.26 70.78,-52.65C71.02,-53.8 71.09,-54.98 71.03,-56.13" style="fill:rgb(236,227,208);fill-rule:nonzero;"/>
                </g>
                <g transform="matrix(1,0,0,1,835.9957,234.3298)">
                    <path d="M0,-0.85C-0.33,-1.04 -0.65,-1.25 -0.96,-1.48L-1.13,-1.59L-1.41,-1.77C-2.36,-2.39 -3.64,-2.12 -4.26,-1.17C-4.85,-0.28 -4.65,0.89 -3.85,1.54L-2.2,0.83L0.68,-0.4L0.72,-0.42C0.48,-0.56 0.24,-0.7 0,-0.85" style="fill:rgb(236,227,208);fill-rule:nonzero;"/>
                </g>
                <g transform="matrix(1,0,0,1,723.0042,245.1622)">
                    <path d="M0,-149.014L37.791,-164.352L37.341,-156.922L37.252,-155.412L7.669,-142.717C0.303,-132.92 -5.599,-125.07 -12.966,-115.273L-17.809,-76.412L-19.198,-64.672L-19.979,-58.122L-19.998,-57.972L-20.248,-55.812L-20.299,-55.422L-20.309,-55.332L-21.329,-46.742L-21.369,-46.412L-21.409,-46.102L-21.099,-45.862L49.811,7.108L50.111,7.338L50.482,7.178L106.992,-17.072C108.421,-15.272 110.061,-13.692 111.861,-12.422L111.664,-12.55C110.823,-13.09 109.684,-13.033 108.987,-12.318C108.101,-11.41 108.242,-10.023 109.141,-9.292L107.351,-8.522L104.021,-7.102L69.391,7.768L65.771,9.318L62.191,10.858L53.262,14.688C52.252,15.128 51.181,15.338 50.111,15.338C48.411,15.338 46.721,14.798 45.321,13.748L24.002,-2.182L20.441,-4.842L16.471,-7.802L-14.079,-30.642L-18.899,-34.242L-23.069,-37.352L-26.198,-39.692C-28.498,-41.412 -29.698,-44.222 -29.349,-47.072L-21.328,-120.772C-13.678,-130.902 -7.651,-138.883 0,-149.014" style="fill:rgb(236,227,208);fill-rule:nonzero;"/>
                </g>
                <g transform="matrix(1,0,0,1,880.4457,139.3798)">
                    <path d="M0,29.18C-0.71,36.27 -3.28,42.58 -7.43,47.43C-8.59,48.78 -9.42,50.24 -9.92,51.78C-10.1,52.33 -10.26,52.94 -10.41,53.65C-10.54,54.34 -10.64,55.01 -10.7,55.6C-10.91,57.64 -10.72,59.93 -10.14,62.43C-8.63,69.05 -8.92,75.88 -10.96,82.21C-14.73,93.85 -24.06,101.37 -34.75,101.37C-36.62,101.37 -38.4,101.09 -40.7,100.43C-42.29,99.96 -43.8,99.3 -45.47,98.35L-45.58,98.29L-48.11,96.63C-48.18,96.59 -48.24,96.54 -48.3,96.49L-46.65,95.78L-43.77,94.55L-43.38,94.8C-42.01,95.57 -40.79,96.1 -39.55,96.47C-37.63,97.02 -36.23,97.25 -34.75,97.25C-25.88,97.25 -18.09,90.85 -14.89,80.94C-13.07,75.32 -12.82,69.24 -14.16,63.36C-14.84,60.42 -15.06,57.67 -14.8,55.19C-14.74,54.48 -14.62,53.71 -14.46,52.83C-14.26,51.93 -14.06,51.19 -13.85,50.52C-13.18,48.45 -12.08,46.51 -10.56,44.75C-6.96,40.54 -4.73,35.02 -4.1,28.77C-3.33,21.09 -5.29,13.3 -9.46,7.38L-9.48,7.35C-11.35,4.85 -13.61,2.77 -16.19,1.24L-14.82,-10.35L-14.77,-10.75L-15.1,-10.99L-85.97,-63.95L-86.29,-64.19L-86.66,-64.03L-107.85,-54.93L-107.4,-62.37L-107.35,-63.17C-107.33,-63.4 -107.32,-63.63 -107.32,-63.87L-89.44,-71.54C-88.43,-71.97 -87.36,-72.19 -86.29,-72.19C-84.59,-72.19 -82.91,-71.65 -81.5,-70.6L-9.98,-17.16C-7.69,-15.45 -6.49,-12.64 -6.83,-9.8L-8.33,2.85C-7.82,2.94 -7.34,3.23 -7.02,3.69L-6.09,5C-1.35,11.72 0.87,20.53 0,29.18" style="fill:rgb(236,227,208);fill-rule:nonzero;"/>
                </g>
                <g transform="matrix(1,0,0,1,826.6723,191.36)">
                    <path d="M0,31.46C0.09,31.63 0.17,31.79 0.25,31.95L-51.28,54.07L-52.12,53.42L-123.89,-1.98L-123.92,-2.01L-123.93,-2.01L-123.67,-4.17L-123.65,-4.32L-122.87,-10.87L-121.48,-22.61L-121.37,-22.53L-109.45,-13.32C-107.3,-5.96 -103.63,1.87 -97.43,8.77C-94.33,12.24 -90.59,15.47 -86.09,18.3C-84.78,19.13 -83.49,19.86 -82.22,20.51C-77.43,22.97 -72.91,24.2 -68.71,24.2C-66.46,24.2 -64.29,23.85 -62.22,23.14L-50,32.57C-49.19,33.2 -48.1,33.34 -47.15,32.93L-3.08,14.01C-3.15,14.51 -3.19,14.9 -3.21,15.22C-3.38,18.25 -3.14,21.22 -2.54,24.05C-1.99,26.67 -1.12,29.16 0,31.46" style="fill:rgb(201,90,43);fill-rule:nonzero;"/>
                </g>
                <g transform="matrix(1,0,0,1,826.9223,209.68)">
                    <path d="M0,13.63C0.88,15.35 1.91,16.95 3.07,18.4L3.07,18.41L-53.44,42.66L-53.81,42.82L-54.11,42.59L-125.02,-10.38L-125.04,-10.41L-125.33,-10.62L-125.29,-10.93L-125.25,-11.26L-124.23,-19.85L-124.22,-19.94L-124.18,-20.33L-123.92,-22.49L-123.9,-22.64L-123.12,-29.19L-123.06,-29.14L-97.68,-9.55C-94.58,-6.08 -90.84,-2.85 -86.34,-0.02C-85.03,0.81 -83.74,1.54 -82.47,2.19L-52.37,25.43C-51.56,26.06 -50.47,26.19 -49.52,25.79L-2.79,5.73C-2.24,8.35 -1.37,10.84 -0.25,13.14C-0.16,13.31 -0.08,13.47 0,13.63" style="fill:rgb(110,52,122);fill-rule:nonzero;"/>
                </g>
                <g transform="matrix(1,0,0,1,826.9223,219.02)">
                    <path d="M0,4.29C0.88,6.01 1.91,7.61 3.07,9.06L3.07,9.07L-53.44,33.32L-53.81,33.48L-54.11,33.25L-125.02,-19.72L-125.04,-19.75L-125.33,-19.96L-125.29,-20.27L-125.25,-20.6L-124.23,-29.19L-124.2,-29.17L-53.78,25.2C-53.37,25.52 -52.88,25.71 -52.37,25.76C-51.89,25.83 -51.39,25.76 -50.93,25.56L-0.25,3.8C-0.16,3.97 -0.08,4.13 0,4.29" style="fill:rgb(65,160,169);fill-rule:nonzero;"/>
                </g>
                <g transform="matrix(1,0,0,1,770.2157,94.4198)">
                    <path d="M0,-20.14C-0.01,-19.91 -0.05,-19.7 -0.11,-19.49C-0.08,-19.13 -0.08,-18.78 -0.11,-18.42L-0.16,-17.59L-0.7,-8.65L-1.72,8.19C-1.81,9.78 -3.14,11.01 -4.71,11.01C-4.77,11.01 -4.83,11.01 -4.9,11C-6.55,10.9 -7.81,9.48 -7.71,7.83L-6.87,-6L-6.33,-14.94L-6.18,-17.44L-14.32,-17.84C-16.13,-17.95 -17.76,-18.74 -18.94,-20.07C-20.12,-21.4 -20.71,-23.11 -20.6,-24.89C-20.39,-28.42 -17.43,-31.15 -13.97,-31.15C-13.83,-31.15 -13.69,-31.15 -13.55,-31.14C-8.29,-30.82 -2.55,-27.12 -0.7,-22.21C-0.23,-21.66 0.04,-20.92 0,-20.14" style="fill:rgb(236,227,208);fill-rule:nonzero;"/>
                </g>
                <g transform="matrix(1,0,0,1,803.9156,113.9598)">
                    <path d="M0,-20.12C-0.01,-19.9 -0.05,-19.68 -0.11,-19.47C-0.09,-19.12 -0.09,-18.76 -0.11,-18.4L-1.72,8.21C-1.82,9.8 -3.14,11.02 -4.71,11.02L-4.9,11.02C-6.55,10.92 -7.81,9.5 -7.71,7.84L-6.18,-17.42L-14.32,-17.82C-18.02,-18.04 -20.82,-21.21 -20.6,-24.87C-20.39,-28.39 -17.46,-31.14 -14,-31.14C-13.85,-31.14 -13.7,-31.13 -13.55,-31.12C-8.29,-30.8 -2.55,-27.1 -0.7,-22.2C-0.23,-21.64 0.04,-20.91 0,-20.12" style="fill:rgb(236,227,208);fill-rule:nonzero;"/>
                </g>
                <g transform="matrix(1,0,0,1,836.6723,233.88)">
                    <path d="M0,0.05L-2.88,1.28L-4.53,1.99C-5.33,1.34 -5.53,0.17 -4.94,-0.72C-4.32,-1.67 -3.04,-1.94 -2.09,-1.32L-1.81,-1.14L-1.64,-1.03L-0.68,-0.4L0,0.05Z" style="fill:rgb(236,227,208);fill-rule:nonzero;"/>
                </g>
                <g transform="matrix(1,0,0,1,1081.6857,242.7398)">
                    <path d="M0,19.44C-1.3,19.21 -2.54,18.93 -3.72,18.61C-5.51,18.13 -7.15,17.54 -8.62,16.84L-12.3,18.96L-15.73,20.94C-15.76,20.96 -15.78,20.97 -15.81,20.98C-15.04,21.55 -14.21,22.07 -13.34,22.56C-10.9,23.92 -8.03,25.01 -4.69,25.84C-3.54,26.13 -2.33,26.39 -1.06,26.62C-0.6,25.45 -0.31,24.27 -0.15,23.1C-0.08,22.57 -0.03,22.05 0,21.53C0.04,20.83 0.04,20.13 0,19.44M-16.78,3.73C-16.75,3.23 -16.71,2.74 -16.63,2.25C-16.46,1.01 -16.14,-0.19 -15.69,-1.34C-15.26,-2.46 -14.7,-3.54 -14.03,-4.57C-15.11,-5.09 -16.22,-5.57 -17.37,-6C-18.53,-6.45 -19.73,-6.84 -20.95,-7.18C-21.56,-6.1 -22.08,-4.99 -22.51,-3.85C-22.94,-2.72 -23.29,-1.55 -23.54,-0.36C-23.8,0.86 -23.96,2.1 -24.03,3.36C-24.24,7.5 -23.4,11.28 -21.6,14.53C-20.95,14.52 -20.3,14.35 -19.74,14.02L-18.22,13.14L-15.1,11.34C-16.34,9.25 -16.94,6.74 -16.78,3.73" style="fill:rgb(236,227,208);fill-rule:nonzero;"/>
                </g>
                <g transform="matrix(1,0,0,1,1072.6556,242.0398)">
                    <path d="M0,8.54L-6.07,12.04L-9.19,13.84C-10.82,11.1 -11.56,7.87 -11.37,4.24C-11.32,3.29 -11.2,2.35 -11.01,1.44C-10.78,0.24 -10.43,-0.92 -9.97,-2.05C-9.54,-3.17 -8.99,-4.26 -8.34,-5.3C-7.19,-4.87 -6.08,-4.39 -5,-3.87C-5.67,-2.84 -6.23,-1.76 -6.66,-0.64C-4.19,0.55 -1.9,2 0.13,3.69C0.53,4.02 0.91,4.35 1.28,4.7C1.53,4.93 1.78,5.16 2.01,5.39C2.23,5.6 2.44,5.82 2.65,6.04C2.8,6.2 2.96,6.37 3.11,6.54C3.15,6.58 3.19,6.63 3.22,6.67L0,8.54Z" style="fill:rgb(236,227,208);fill-rule:nonzero;"/>
                </g>
                <g transform="matrix(1,0,0,1,1081.6857,257.0398)">
                    <path d="M0,7.23C-0.03,7.75 -0.08,8.27 -0.15,8.8C-1.4,8.58 -2.59,8.33 -3.71,8.05C-6.77,7.3 -9.39,6.32 -11.57,5.09C-11.82,4.95 -12.07,4.81 -12.3,4.66L-8.62,2.54L-4.71,0.28L-1.51,-1.57L-1.51,-1.56C-1.37,-1.22 -1.24,-0.88 -1.12,-0.53C-1.1,-0.47 -1.08,-0.42 -1.06,-0.36C-0.96,-0.06 -0.86,0.24 -0.77,0.55C-0.76,0.58 -0.75,0.62 -0.74,0.66C-0.67,0.89 -0.61,1.13 -0.56,1.37C-0.48,1.66 -0.42,1.95 -0.36,2.25C-0.33,2.4 -0.3,2.55 -0.27,2.7C-0.25,2.85 -0.22,3 -0.2,3.15C-0.16,3.37 -0.13,3.6 -0.11,3.83C-0.1,3.91 -0.09,3.99 -0.08,4.07C-0.04,4.42 -0.02,4.78 0,5.14C0.04,5.83 0.04,6.53 0,7.23" style="fill:rgb(236,227,208);fill-rule:nonzero;"/>
                </g>
                <g transform="matrix(1,0,0,1,1108.3556,243.4298)">
                    <path d="M0,-13.46L-29.29,3.45C-30.45,2.05 -31.78,0.73 -33.25,-0.49C-35.48,-2.35 -37.99,-3.95 -40.7,-5.26C-36.21,-12.23 -26.7,-16.91 -15.73,-16.91C-15.06,-16.91 -14.39,-16.89 -13.71,-16.86C-8.69,-16.6 -4.02,-15.38 0,-13.46" style="fill:rgb(236,227,208);fill-rule:nonzero;"/>
                </g>
                <g transform="matrix(1,0,0,1,1122.1656,248.8398)">
                    <path d="M0,0.61C-0.55,11.17 -12.25,14.51 -26.02,14.51C-27.65,14.51 -29.31,14.46 -30.99,14.38C-33.02,14.27 -34.97,14.11 -36.83,13.88C-36.9,10.79 -37.59,7.72 -38.86,4.82L-6.43,-13.9C-2.17,-9.91 0.28,-4.81 0,0.61" style="fill:rgb(47,48,47);fill-rule:nonzero;"/>
                </g>
                <g transform="matrix(1,0,0,1,1081.6857,254.9898)">
                    <path d="M0,7.19C-0.02,6.83 -0.04,6.47 -0.08,6.12C-0.09,6.04 -0.1,5.96 -0.11,5.88C-0.13,5.65 -0.16,5.42 -0.2,5.2C-0.22,5.05 -0.25,4.9 -0.27,4.75C-0.3,4.6 -0.33,4.45 -0.36,4.3C-0.42,4 -0.48,3.71 -0.56,3.42C-0.61,3.18 -0.67,2.94 -0.74,2.71C-0.75,2.67 -0.76,2.63 -0.77,2.6C-0.86,2.29 -0.96,1.99 -1.06,1.69C-1.08,1.63 -1.1,1.58 -1.12,1.52C-1.24,1.17 -1.37,0.83 -1.51,0.49L-1.51,0.48L-4.71,2.33C-4.21,3.63 -3.88,4.98 -3.72,6.36C-3.6,7.26 -3.57,8.17 -3.62,9.09C-3.64,9.43 -3.67,9.77 -3.71,10.1C-3.87,11.37 -4.2,12.53 -4.69,13.59C-7.94,20.63 -18.06,22.99 -29.64,22.99C-31.27,22.99 -32.93,22.94 -34.61,22.85C-50.42,22.03 -61.5,17.92 -60.88,6.11C-60.63,1.2 -58.17,-3.21 -54.26,-6.63L-57.5,-8.5C-61.64,-4.55 -64.22,0.44 -64.5,5.92C-64.87,12.86 -61.81,18.34 -55.67,21.77C-50.86,24.46 -44.03,26 -34.8,26.48C-33.03,26.57 -31.29,26.62 -29.65,26.62C-10.88,26.62 -3.52,20.74 -1.06,14.37C-0.6,13.2 -0.31,12.02 -0.15,10.85C-0.08,10.32 -0.03,9.8 0,9.28C0.04,8.58 0.04,7.88 0,7.19M-5.92,-6.41C-6.07,-6.58 -6.23,-6.75 -6.38,-6.91C-6.59,-7.13 -6.8,-7.35 -7.02,-7.56C-7.25,-7.79 -7.5,-8.02 -7.75,-8.25C-8.12,-8.6 -8.5,-8.93 -8.9,-9.26C-10.93,-10.95 -13.22,-12.4 -15.69,-13.59C-15.26,-14.71 -14.7,-15.79 -14.03,-16.82C-15.11,-17.34 -16.22,-17.82 -17.37,-18.25C-18.53,-18.7 -19.73,-19.09 -20.95,-19.43C-21.56,-18.35 -22.08,-17.24 -22.51,-16.1C-25.21,-16.82 -28.05,-17.26 -30.95,-17.41C-31.69,-17.45 -32.43,-17.47 -33.16,-17.47C-39.48,-17.47 -45.35,-16.03 -50.27,-13.56L-46.44,-11.34C-42.49,-12.94 -37.96,-13.84 -33.16,-13.84C-32.49,-13.84 -31.82,-13.82 -31.14,-13.79C-28.49,-13.65 -25.94,-13.25 -23.54,-12.61C-22.33,-12.3 -21.16,-11.93 -20.04,-11.51C-18.85,-11.06 -17.72,-10.56 -16.63,-10C-13.67,-8.5 -11.09,-6.59 -9.03,-4.41L-5.81,-6.28L-5.8,-6.28C-5.84,-6.32 -5.88,-6.37 -5.92,-6.41" style="fill:rgb(236,227,208);fill-rule:nonzero;"/>
                </g>
                <g transform="matrix(1,0,0,1,1035.2457,251.1698)">
                    <path d="M0,-7.52L-3.83,-9.74C1.09,-12.21 6.96,-13.65 13.28,-13.65C14.01,-13.65 14.75,-13.63 15.49,-13.59C18.39,-13.44 21.23,-13 23.93,-12.28C25.13,-11.97 26.3,-11.6 27.44,-11.18C28.57,-10.76 29.68,-10.29 30.75,-9.77C33.22,-8.58 35.51,-7.13 37.54,-5.44C37.94,-5.11 38.32,-4.78 38.69,-4.43C38.94,-4.2 39.19,-3.97 39.42,-3.74C39.64,-3.53 39.85,-3.31 40.06,-3.09C40.21,-2.93 40.37,-2.76 40.52,-2.59C40.56,-2.55 40.6,-2.5 40.64,-2.46L40.63,-2.46L37.41,-0.59L31.34,2.91L28.22,4.71L26.7,5.59C26.14,5.92 25.49,6.09 24.84,6.1C24.1,6.13 23.35,5.96 22.71,5.59L0,-7.52Z" style="fill:rgb(236,227,208);fill-rule:nonzero;"/>
                </g>
                <g transform="matrix(1,0,0,1,1081.6857,263.8298)">
                    <path d="M0,0.44C-0.03,0.96 -0.08,1.48 -0.15,2.01C-0.31,3.18 -0.6,4.36 -1.06,5.53C-3.52,11.9 -10.88,17.78 -29.65,17.78C-31.29,17.78 -33.03,17.73 -34.8,17.64C-44.03,17.16 -50.86,15.62 -55.67,12.93C-61.81,9.5 -64.87,4.02 -64.5,-2.92C-64.22,-8.4 -61.64,-13.39 -57.5,-17.34L-54.26,-15.47L-27.74,-0.15C-25.92,0.9 -23.85,1.46 -21.73,1.46C-19.64,1.46 -17.6,0.92 -15.81,-0.11C-15.78,-0.12 -15.76,-0.13 -15.73,-0.15L-12.3,-2.13L-8.62,-4.25L-4.71,-6.51L-1.51,-8.36L-1.51,-8.35C-1.37,-8.01 -1.24,-7.67 -1.12,-7.32C-1.1,-7.26 -1.08,-7.21 -1.06,-7.15C-0.96,-6.85 -0.86,-6.55 -0.77,-6.24C-0.76,-6.21 -0.75,-6.17 -0.74,-6.13C-0.67,-5.9 -0.61,-5.66 -0.56,-5.42C-0.48,-5.13 -0.42,-4.84 -0.36,-4.54C-0.33,-4.39 -0.3,-4.24 -0.27,-4.09C-0.25,-3.94 -0.22,-3.79 -0.2,-3.64C-0.16,-3.42 -0.13,-3.19 -0.11,-2.96C-0.1,-2.88 -0.09,-2.8 -0.08,-2.72C-0.04,-2.37 -0.02,-2.01 0,-1.65C0.04,-0.96 0.04,-0.26 0,0.44" style="fill:rgb(47,48,47);fill-rule:nonzero;"/>
                </g>
                <g transform="matrix(1,0,0,1,1136.9474,204.9098)">
                    <path d="M0,-81.78L0.21,-26.71L-9.89,-20.67L-9.89,-20.66C-12.29,-14.3 -15.25,-8.57 -18.72,-3.56C-23.98,4.06 -30.41,10.05 -37.79,14.14C-43.12,17.1 -48.03,18.58 -52.45,18.58C-53.44,18.58 -54.39,18.51 -55.33,18.35L-55.34,18.35C-57.24,18.06 -59.04,17.46 -60.73,16.56C-62.63,15.55 -64.26,14.23 -65.66,12.71L-77.16,19.59C-78.04,20.12 -79.14,20.13 -80.03,19.61L-121.57,-4.36C-121.55,-3.86 -121.56,-3.46 -121.58,-3.15C-121.76,-0.13 -122.35,2.79 -123.28,5.53C-123.9,7.35 -124.67,9.09 -125.57,10.72C-125.92,11.37 -126.29,11.99 -126.69,12.6C-126.78,12.75 -126.88,12.9 -126.99,13.05C-128.06,14.65 -129.27,16.13 -130.59,17.43L-130.14,17.69L-77.32,48.19C-77.11,48.31 -76.87,48.31 -76.66,48.19L-76.64,48.18L0.02,3.92C0.21,3.79 0.33,3.58 0.33,3.35L0.33,-81.21L0,-81.78ZM-137.202,-5.52C-137.452,-8.36 -138.652,-10.79 -140.412,-12.01C-141.222,-12.57 -142.112,-12.86 -143.042,-12.86C-143.472,-12.86 -143.912,-12.8 -144.362,-12.67C-146.052,-12.2 -147.562,-10.89 -148.672,-9.13C-149.652,-7.59 -150.332,-5.7 -150.572,-3.72C-150.672,-2.9 -150.692,-2.06 -150.642,-1.22C-150.632,-1.15 -150.632,-1.08 -150.622,-1.01C-150.612,-0.86 -150.592,-0.71 -150.572,-0.57C-150.252,2.1 -149.092,4.34 -147.412,5.5C-146.232,6.32 -144.862,6.55 -143.472,6.16C-142.632,5.93 -141.842,5.49 -141.122,4.89C-140.982,4.78 -140.842,4.65 -140.702,4.51L-140.692,4.51C-140.172,4.02 -139.702,3.44 -139.282,2.8C-138.272,1.29 -137.562,-0.58 -137.282,-2.55C-137.202,-3.17 -137.152,-3.8 -137.152,-4.43C-137.152,-4.79 -137.172,-5.16 -137.202,-5.52M-76.652,-129.98C-76.862,-130.09 -77.122,-130.09 -77.332,-129.98L-77.342,-129.97L-79.822,-128.53C-78.072,-129.55 -75.912,-129.55 -74.152,-128.53L-76.652,-129.98ZM-153.962,-85.73L-153.982,-85.72C-154.182,-85.59 -154.302,-85.37 -154.302,-85.13L-154.302,-82.26C-154.302,-84.24 -153.272,-86.07 -151.592,-87.09L-151.522,-87.14L-153.962,-85.73Z" style="fill:rgb(236,227,208);fill-rule:nonzero;"/>
                </g>
                <g transform="matrix(1,0,0,1,997.6656,204.9398)">
                    <path d="M0,2.77C-0.42,3.41 -0.89,3.99 -1.41,4.48L-1.42,4.48C-1.56,4.62 -1.7,4.75 -1.84,4.86C-2.56,5.46 -3.35,5.9 -4.19,6.13C-5.58,6.52 -6.95,6.29 -8.13,5.47C-9.81,4.31 -10.97,2.07 -11.29,-0.6C-11.31,-0.74 -11.33,-0.89 -11.34,-1.04C-11.35,-1.11 -11.35,-1.18 -11.36,-1.25C-11.41,-2.09 -11.39,-2.93 -11.29,-3.75L0,2.77Z" style="fill:rgb(222,101,29);fill-rule:nonzero;"/>
                </g>
                <g transform="matrix(1,0,0,1,1137.2755,253.2898)">
                    <path d="M0,-56.74L0,-44.64L-0.31,-44.46L-76.97,-0.2L-76.99,-0.19L-77.32,0L-77.65,-0.19L-130.47,-30.69L-130.92,-30.95C-129.6,-32.25 -128.39,-33.73 -127.32,-35.33C-127.21,-35.48 -127.11,-35.63 -127.02,-35.78C-126.62,-36.39 -126.25,-37.01 -125.9,-37.66L-125.46,-37.41L-79.5,-10.87C-78.61,-10.36 -77.51,-10.37 -76.62,-10.89L-0.05,-56.71L0,-56.74Z" style="fill:rgb(222,101,29);fill-rule:nonzero;"/>
                </g>
                <g transform="matrix(1,0,0,1,999.7955,201.3698)">
                    <path d="M0,-0.89C0,-0.26 -0.05,0.37 -0.13,0.99C-0.41,2.96 -1.12,4.83 -2.13,6.34C-2.55,6.98 -3.02,7.56 -3.54,8.05L-3.55,8.05C-3.69,8.19 -3.83,8.32 -3.97,8.43L-13.42,2.97C-13.44,2.83 -13.46,2.68 -13.47,2.53C-13.48,2.46 -13.48,2.39 -13.49,2.32C-13.54,1.48 -13.52,0.64 -13.42,-0.18C-13.18,-2.16 -12.5,-4.05 -11.52,-5.59C-10.41,-7.35 -8.9,-8.66 -7.21,-9.13C-6.76,-9.26 -6.32,-9.32 -5.89,-9.32C-4.96,-9.32 -4.07,-9.03 -3.26,-8.47C-1.5,-7.25 -0.3,-4.82 -0.05,-1.98C-0.02,-1.62 0,-1.25 0,-0.89" style="fill:rgb(201,90,43);fill-rule:nonzero;"/>
                </g>
                <g transform="matrix(1,0,0,1,1137.2755,245.9998)">
                    <path d="M0,-67.87L0,-47.13L-0.04,-47.11L-77.86,-0.53L-78.75,0L-126.89,-27.79L-127.32,-28.04C-127.21,-28.19 -127.11,-28.34 -127.02,-28.49C-126.62,-29.1 -126.25,-29.72 -125.9,-30.37C-125,-32 -124.23,-33.74 -123.61,-35.56C-122.68,-38.3 -122.09,-41.22 -121.91,-44.24C-121.89,-44.55 -121.88,-44.95 -121.9,-45.45L-121.38,-45.15L-80.36,-21.48C-79.47,-20.96 -78.37,-20.97 -77.49,-21.5L-65.99,-28.38C-64.59,-26.86 -62.96,-25.54 -61.06,-24.53C-59.37,-23.63 -57.57,-23.03 -55.67,-22.74L-55.66,-22.74C-54.72,-22.58 -53.77,-22.51 -52.78,-22.51C-48.36,-22.51 -43.45,-23.99 -38.12,-26.95C-30.74,-31.04 -24.31,-37.03 -19.05,-44.65C-15.58,-49.66 -12.62,-55.39 -10.22,-61.75L-10.22,-61.76L-0.12,-67.8L0,-67.87Z" style="fill:rgb(201,90,43);fill-rule:nonzero;"/>
                </g>
                <g transform="matrix(1,0,0,1,999.6656,204.8798)">
                    <path d="M0,-2.52C-0.28,-0.55 -0.99,1.32 -2,2.83C-2.42,3.47 -2.89,4.05 -3.41,4.54L-3.42,4.54C-3.56,4.68 -3.7,4.81 -3.84,4.92C-4.56,5.52 -5.35,5.96 -6.19,6.19C-7.58,6.58 -8.95,6.35 -10.13,5.53C-11.81,4.37 -12.97,2.13 -13.29,-0.54C-13.31,-0.68 -13.33,-0.83 -13.34,-0.98C-13.35,-1.05 -13.35,-1.12 -13.36,-1.19C-13.41,-2.03 -13.39,-2.87 -13.29,-3.69C-13.05,-5.67 -12.37,-7.56 -11.39,-9.1L0,-2.52Z" style="fill:rgb(110,52,122);fill-rule:nonzero;"/>
                </g>
                <g transform="matrix(1,0,0,1,1137.2755,253.2898)">
                    <path d="M0,-63.34L0,-44.64L-0.31,-44.46L-76.97,-0.2L-76.99,-0.19L-77.32,0L-77.65,-0.19L-130.47,-30.69L-130.92,-30.95C-129.6,-32.25 -128.39,-33.73 -127.32,-35.33C-127.21,-35.48 -127.11,-35.63 -127.02,-35.78C-126.62,-36.39 -126.25,-37.01 -125.9,-37.66C-125,-39.29 -124.23,-41.03 -123.61,-42.85L-123.18,-42.6L-79.57,-17.42C-78.68,-16.9 -77.58,-16.91 -76.7,-17.44L-55.67,-30.03L-55.66,-30.03C-54.72,-29.87 -53.77,-29.8 -52.78,-29.8C-48.36,-29.8 -43.45,-31.28 -38.12,-34.24C-30.74,-38.33 -24.31,-44.32 -19.05,-51.94L-0.07,-63.3L0,-63.34Z" style="fill:rgb(110,52,122);fill-rule:nonzero;"/>
                </g>
                <g transform="matrix(1,0,0,1,996.2457,205.7298)">
                    <path d="M0,3.69C-0.14,3.83 -0.28,3.96 -0.42,4.07C-1.14,4.67 -1.93,5.11 -2.77,5.34C-4.16,5.73 -5.53,5.5 -6.71,4.68C-8.39,3.52 -9.55,1.28 -9.87,-1.39C-9.89,-1.53 -9.91,-1.68 -9.92,-1.83C-9.93,-1.9 -9.93,-1.97 -9.94,-2.04L0,3.69Z" style="fill:rgb(65,160,169);fill-rule:nonzero;"/>
                </g>
                <g transform="matrix(1,0,0,1,1137.2755,253.2898)">
                    <path d="M0,-53.92L0,-44.64L-0.31,-44.46L-76.97,-0.2L-76.99,-0.19L-77.32,0L-77.65,-0.19L-130.47,-30.69L-130.92,-30.95C-129.6,-32.25 -128.39,-33.73 -127.32,-35.33C-127.21,-35.48 -127.11,-35.63 -127.02,-35.78L-126.59,-35.53L-79.25,-8.2C-78.81,-7.96 -78.34,-7.83 -77.86,-7.82C-77.34,-7.81 -76.83,-7.95 -76.37,-8.22L-0.04,-53.9L0,-53.92Z" style="fill:rgb(65,160,169);fill-rule:nonzero;"/>
                </g>
                <g transform="matrix(1,0,0,1,1122.1984,226.5923)">
                    <path d="M0,-125.156L-29.781,-142.353L-30.291,-133.403L11.319,-109.383L5.177,-119.986C3.933,-122.133 2.148,-123.915 0,-125.156M22.814,-85.792C22.804,-88.269 22.145,-90.7 20.903,-92.844L15.079,-102.892L14.749,-103.463L14.959,-48.392L15.009,-36.603L15.029,-30.013L15.039,-27.702L15.039,-27.202L15.079,-18.343L15.079,-17.943L14.769,-17.763L-61.891,26.497L-61.911,26.507L-62.241,26.697L-62.571,26.507L-115.391,-3.993C-117.551,-1.843 -120.001,-0.113 -122.651,1.048L-66.241,33.627C-65.001,34.347 -63.621,34.697 -62.241,34.697C-60.861,34.697 -59.481,34.347 -58.241,33.627L19.079,-11.013C21.559,-12.443 23.089,-15.103 23.079,-17.973L22.814,-85.792ZM-58.241,-158.783C-59.481,-159.493 -60.861,-159.853 -62.241,-159.853C-63.621,-159.853 -65.001,-159.493 -66.241,-158.783L-143.551,-114.142C-146.031,-112.713 -147.551,-110.073 -147.551,-107.213L-147.551,-89.952C-146.721,-90.853 -145.831,-91.683 -144.901,-92.443C-143.261,-93.783 -141.451,-94.883 -139.551,-95.693L-139.551,-107.213L-139.231,-107.403L-139.211,-107.413L-136.841,-108.773L-136.771,-108.823L-100.891,-129.533L-65.071,-150.213L-62.591,-151.653L-62.581,-151.663L-62.241,-151.853L-61.901,-151.663L-59.401,-150.213L-41.921,-140.123L-41.451,-148.383C-41.441,-148.603 -41.421,-148.832 -41.391,-149.053L-58.241,-158.783Z" style="fill:rgb(236,227,208);fill-rule:nonzero;"/>
                </g>
                <g transform="matrix(1,0,0,1,995.8256,193.7098)">
                    <path d="M0,16.09C-0.72,16.69 -1.51,17.13 -2.35,17.36C-3.74,17.75 -5.11,17.52 -6.29,16.7C-7.97,15.54 -9.13,13.3 -9.45,10.63C-9.47,10.49 -9.49,10.34 -9.5,10.19C-9.51,10.12 -9.51,10.05 -9.52,9.98C-9.57,9.14 -9.55,8.3 -9.45,7.48C-9.21,5.5 -8.53,3.61 -7.55,2.07C-6.44,0.31 -4.93,-1 -3.24,-1.47C-2.79,-1.6 -2.35,-1.66 -1.92,-1.66C-0.99,-1.66 -0.1,-1.37 0.71,-0.81C2.47,0.41 3.67,2.84 3.92,5.68C3.95,6.04 3.97,6.41 3.97,6.77C3.97,7.4 3.92,8.03 3.84,8.65C3.56,10.62 2.85,12.49 1.84,14C1.42,14.64 0.95,15.22 0.43,15.71L0.42,15.71C0.28,15.85 0.14,15.98 0,16.09" style="fill:rgb(236,227,208);fill-rule:nonzero;"/>
                </g>
                <g transform="matrix(1,0,0,1,1015.8956,222.2998)">
                    <path d="M0,-21.45C0,-21.08 -0.01,-20.8 -0.02,-20.56C-0.21,-17.44 -0.82,-14.43 -1.8,-11.61C-2.41,-9.79 -3.18,-8.05 -4.08,-6.42C-4.44,-5.78 -4.81,-5.15 -5.21,-4.54C-5.3,-4.38 -5.4,-4.23 -5.51,-4.09C-6.57,-2.48 -7.78,-1.01 -9.09,0.3L-9.54,0.04C-8.22,-1.26 -7.01,-2.74 -5.94,-4.34C-5.83,-4.49 -5.73,-4.64 -5.64,-4.79C-5.24,-5.4 -4.87,-6.02 -4.52,-6.67C-3.62,-8.3 -2.85,-10.04 -2.23,-11.86C-1.3,-14.6 -0.71,-17.52 -0.53,-20.54C-0.51,-20.85 -0.5,-21.25 -0.52,-21.75L0,-21.45Z" style="fill:rgb(236,227,208);fill-rule:nonzero;"/>
                </g>
                <g transform="matrix(1,0,0,1,1132.1573,135.3598)">
                    <path d="M0,29.68C-0.66,33.84 -2.04,40.57 -4.81,48.1C-4.91,48.36 -5,48.62 -5.1,48.88L5,42.84L4.79,-12.23L1.36,-18.15L-40.25,-42.17L-40.96,-29.85C-41.15,-26.68 -43.78,-24.2 -46.95,-24.2C-47.06,-24.2 -47.17,-24.2 -47.3,-24.21C-50.6,-24.4 -53.13,-27.24 -52.94,-30.54L-51.88,-48.89L-69.36,-58.98C-71.12,-60 -73.28,-60 -75.03,-58.98L-110.85,-38.3L-146.73,-17.59L-146.8,-17.54C-148.48,-16.52 -149.51,-14.69 -149.51,-12.71L-149.51,-3.9C-149.27,-4.02 -149.02,-4.12 -148.77,-4.22C-146.45,-5.14 -144.05,-5.61 -141.63,-5.61C-132.17,-5.61 -124.07,1.53 -121.46,12.15C-121.01,13.96 -120.53,18.55 -119.45,30.93L-116.09,29.99C-115.61,29.86 -115.13,29.79 -114.64,29.79C-111.67,29.79 -109.31,32.22 -109.02,35.57C-108.72,39.08 -110.75,42.37 -113.74,43.21L-118.28,44.48C-117.26,56.48 -116.8,62.41 -116.78,65.19L-75.24,89.16C-74.35,89.68 -73.25,89.67 -72.37,89.14L-60.87,82.26C-65.01,77.8 -67.18,71.67 -68.28,67.12L-69.8,69.2L-72.28,64.49L-69.38,60.51L-67.51,57.93L-63.92,52.99L-61.44,57.71L-61.63,57.97L-63.56,60.62C-63.36,62.34 -61.88,73.6 -55.72,79.18C-54.95,79.87 -54.11,80.48 -53.19,80.97C-48.76,83.33 -42.91,82.53 -35.82,78.59C-25.24,72.72 -18.27,63.33 -13.7,54.03C-8.58,43.6 -6.47,33.29 -5.67,28.17L-7.38,27.72L-4.91,20.25L3.46,22.48L0.98,29.94L0,29.68ZM-64.752,-50.36C-65.932,-51.69 -67.562,-52.48 -69.342,-52.58C-69.582,-52.59 -69.822,-52.6 -70.072,-52.6C-75.182,-52.6 -80.842,-49.67 -83.152,-45.24C-83.682,-44.74 -84.032,-44.04 -84.082,-43.26C-84.102,-43.03 -84.092,-42.81 -84.062,-42.59C-84.122,-42.25 -84.162,-41.89 -84.182,-41.54L-85.722,-14.92C-85.812,-13.27 -84.552,-11.85 -82.902,-11.76C-82.842,-11.75 -82.782,-11.75 -82.722,-11.75C-81.142,-11.75 -79.822,-12.98 -79.732,-14.58L-78.272,-39.85L-70.102,-39.28C-69.972,-39.27 -69.832,-39.27 -69.702,-39.27C-68.052,-39.27 -66.522,-39.86 -65.292,-40.96C-63.962,-42.14 -63.172,-43.77 -63.072,-45.55C-62.972,-47.32 -63.562,-49.03 -64.752,-50.36M-64.752,-50.36C-65.932,-51.69 -67.562,-52.48 -69.342,-52.58C-69.582,-52.59 -69.822,-52.6 -70.072,-52.6C-75.182,-52.6 -80.842,-49.67 -83.152,-45.24C-83.682,-44.74 -84.032,-44.04 -84.082,-43.26C-84.102,-43.03 -84.092,-42.81 -84.062,-42.59C-84.122,-42.25 -84.162,-41.89 -84.182,-41.54L-85.722,-14.92C-85.812,-13.27 -84.552,-11.85 -82.902,-11.76C-82.842,-11.75 -82.782,-11.75 -82.722,-11.75C-81.142,-11.75 -79.822,-12.98 -79.732,-14.58L-78.272,-39.85L-70.102,-39.28C-69.972,-39.27 -69.832,-39.27 -69.702,-39.27C-68.052,-39.27 -66.522,-39.86 -65.292,-40.96C-63.962,-42.14 -63.172,-43.77 -63.072,-45.55C-62.972,-47.32 -63.562,-49.03 -64.752,-50.36M-64.752,-50.36C-65.932,-51.69 -67.562,-52.48 -69.342,-52.58C-69.582,-52.59 -69.822,-52.6 -70.072,-52.6C-75.182,-52.6 -80.842,-49.67 -83.152,-45.24C-83.682,-44.74 -84.032,-44.04 -84.082,-43.26C-84.102,-43.03 -84.092,-42.81 -84.062,-42.59C-84.122,-42.25 -84.162,-41.89 -84.182,-41.54L-85.722,-14.92C-85.812,-13.27 -84.552,-11.85 -82.902,-11.76C-82.842,-11.75 -82.782,-11.75 -82.722,-11.75C-81.142,-11.75 -79.822,-12.98 -79.732,-14.58L-78.272,-39.85L-70.102,-39.28C-69.972,-39.27 -69.832,-39.27 -69.702,-39.27C-68.052,-39.27 -66.522,-39.86 -65.292,-40.96C-63.962,-42.14 -63.172,-43.77 -63.072,-45.55C-62.972,-47.32 -63.562,-49.03 -64.752,-50.36M-64.752,-50.36C-65.932,-51.69 -67.562,-52.48 -69.342,-52.58C-69.582,-52.59 -69.822,-52.6 -70.072,-52.6C-75.182,-52.6 -80.842,-49.67 -83.152,-45.24C-83.682,-44.74 -84.032,-44.04 -84.082,-43.26C-84.102,-43.03 -84.092,-42.81 -84.062,-42.59C-84.122,-42.25 -84.162,-41.89 -84.182,-41.54L-85.722,-14.92C-85.812,-13.27 -84.552,-11.85 -82.902,-11.76C-82.842,-11.75 -82.782,-11.75 -82.722,-11.75C-81.142,-11.75 -79.822,-12.98 -79.732,-14.58L-78.272,-39.85L-70.102,-39.28C-69.972,-39.27 -69.832,-39.27 -69.702,-39.27C-68.052,-39.27 -66.522,-39.86 -65.292,-40.96C-63.962,-42.14 -63.172,-43.77 -63.072,-45.55C-62.972,-47.32 -63.562,-49.03 -64.752,-50.36M-69.342,-52.58C-69.582,-52.59 -69.822,-52.6 -70.072,-52.6C-75.182,-52.6 -80.842,-49.67 -83.152,-45.24C-83.682,-44.74 -84.032,-44.04 -84.082,-43.26C-84.102,-43.03 -84.092,-42.81 -84.062,-42.59C-84.122,-42.25 -84.162,-41.89 -84.182,-41.54L-85.722,-14.92C-85.812,-13.27 -84.552,-11.85 -82.902,-11.76C-82.842,-11.75 -82.782,-11.75 -82.722,-11.75C-81.142,-11.75 -79.822,-12.98 -79.732,-14.58L-78.272,-39.85L-70.102,-39.28C-69.972,-39.27 -69.832,-39.27 -69.702,-39.27C-68.052,-39.27 -66.522,-39.86 -65.292,-40.96C-63.962,-42.14 -63.172,-43.77 -63.072,-45.55C-62.972,-47.32 -63.562,-49.03 -64.752,-50.36C-65.932,-51.69 -67.562,-52.48 -69.342,-52.58M-16.692,34.73L-18.602,35.79L-18.602,49.31L-28.122,54.59L-28.122,41.07L-26.212,40.01L-26.212,26.48L-28.122,27.54L-28.122,14.01L-18.602,8.73L-18.602,22.26L-16.692,21.2L-16.692,34.73ZM-40.012,47.67L-41.922,48.73L-41.922,62.25L-51.442,67.53L-51.442,54.01L-49.532,52.95L-49.532,39.42L-51.442,40.48L-51.442,26.95L-41.922,21.67L-41.922,35.2L-40.012,34.14L-40.012,47.67ZM-60.072,-45.37C-60.222,-42.8 -61.372,-40.43 -63.292,-38.72C-65.072,-37.14 -67.342,-36.27 -69.702,-36.27C-69.892,-36.27 -70.092,-36.27 -70.312,-36.29L-75.452,-36.64L-76.732,-14.41C-76.912,-11.23 -79.542,-8.75 -82.722,-8.75C-82.832,-8.75 -82.942,-8.75 -83.072,-8.76C-86.372,-8.95 -88.902,-11.79 -88.712,-15.1L-87.182,-41.71C-87.162,-42.03 -87.132,-42.36 -87.082,-42.69C-87.102,-42.94 -87.102,-43.21 -87.082,-43.47C-86.992,-44.79 -86.462,-46.03 -85.592,-47.02C-82.742,-52.09 -76.432,-55.6 -70.072,-55.6C-69.772,-55.6 -69.472,-55.59 -69.162,-55.58C-66.592,-55.43 -64.222,-54.28 -62.512,-52.36C-60.792,-50.43 -59.932,-47.95 -60.072,-45.37M-64.752,-50.36C-65.932,-51.69 -67.562,-52.48 -69.342,-52.58C-69.582,-52.59 -69.822,-52.6 -70.072,-52.6C-75.182,-52.6 -80.842,-49.67 -83.152,-45.24C-83.682,-44.74 -84.032,-44.04 -84.082,-43.26C-84.102,-43.03 -84.092,-42.81 -84.062,-42.59C-84.122,-42.25 -84.162,-41.89 -84.182,-41.54L-85.722,-14.92C-85.812,-13.27 -84.552,-11.85 -82.902,-11.76C-82.842,-11.75 -82.782,-11.75 -82.722,-11.75C-81.142,-11.75 -79.822,-12.98 -79.732,-14.58L-78.272,-39.85L-70.102,-39.28C-69.972,-39.27 -69.832,-39.27 -69.702,-39.27C-68.052,-39.27 -66.522,-39.86 -65.292,-40.96C-63.962,-42.14 -63.172,-43.77 -63.072,-45.55C-62.972,-47.32 -63.562,-49.03 -64.752,-50.36M-64.752,-50.36C-65.932,-51.69 -67.562,-52.48 -69.342,-52.58C-69.582,-52.59 -69.822,-52.6 -70.072,-52.6C-75.182,-52.6 -80.842,-49.67 -83.152,-45.24C-83.682,-44.74 -84.032,-44.04 -84.082,-43.26C-84.102,-43.03 -84.092,-42.81 -84.062,-42.59C-84.122,-42.25 -84.162,-41.89 -84.182,-41.54L-85.722,-14.92C-85.812,-13.27 -84.552,-11.85 -82.902,-11.76C-82.842,-11.75 -82.782,-11.75 -82.722,-11.75C-81.142,-11.75 -79.822,-12.98 -79.732,-14.58L-78.272,-39.85L-70.102,-39.28C-69.972,-39.27 -69.832,-39.27 -69.702,-39.27C-68.052,-39.27 -66.522,-39.86 -65.292,-40.96C-63.962,-42.14 -63.172,-43.77 -63.072,-45.55C-62.972,-47.32 -63.562,-49.03 -64.752,-50.36M-64.752,-50.36C-65.932,-51.69 -67.562,-52.48 -69.342,-52.58C-69.582,-52.59 -69.822,-52.6 -70.072,-52.6C-75.182,-52.6 -80.842,-49.67 -83.152,-45.24C-83.682,-44.74 -84.032,-44.04 -84.082,-43.26C-84.102,-43.03 -84.092,-42.81 -84.062,-42.59C-84.122,-42.25 -84.162,-41.89 -84.182,-41.54L-85.722,-14.92C-85.812,-13.27 -84.552,-11.85 -82.902,-11.76C-82.842,-11.75 -82.782,-11.75 -82.722,-11.75C-81.142,-11.75 -79.822,-12.98 -79.732,-14.58L-78.272,-39.85L-70.102,-39.28C-69.972,-39.27 -69.832,-39.27 -69.702,-39.27C-68.052,-39.27 -66.522,-39.86 -65.292,-40.96C-63.962,-42.14 -63.172,-43.77 -63.072,-45.55C-62.972,-47.32 -63.562,-49.03 -64.752,-50.36M-64.752,-50.36C-65.932,-51.69 -67.562,-52.48 -69.342,-52.58C-69.582,-52.59 -69.822,-52.6 -70.072,-52.6C-75.182,-52.6 -80.842,-49.67 -83.152,-45.24C-83.682,-44.74 -84.032,-44.04 -84.082,-43.26C-84.102,-43.03 -84.092,-42.81 -84.062,-42.59C-84.122,-42.25 -84.162,-41.89 -84.182,-41.54L-85.722,-14.92C-85.812,-13.27 -84.552,-11.85 -82.902,-11.76C-82.842,-11.75 -82.782,-11.75 -82.722,-11.75C-81.142,-11.75 -79.822,-12.98 -79.732,-14.58L-78.272,-39.85L-70.102,-39.28C-69.972,-39.27 -69.832,-39.27 -69.702,-39.27C-68.052,-39.27 -66.522,-39.86 -65.292,-40.96C-63.962,-42.14 -63.172,-43.77 -63.072,-45.55C-62.972,-47.32 -63.562,-49.03 -64.752,-50.36M-64.752,-50.36C-65.932,-51.69 -67.562,-52.48 -69.342,-52.58C-69.582,-52.59 -69.822,-52.6 -70.072,-52.6C-75.182,-52.6 -80.842,-49.67 -83.152,-45.24C-83.682,-44.74 -84.032,-44.04 -84.082,-43.26C-84.102,-43.03 -84.092,-42.81 -84.062,-42.59C-84.122,-42.25 -84.162,-41.89 -84.182,-41.54L-85.722,-14.92C-85.812,-13.27 -84.552,-11.85 -82.902,-11.76C-82.842,-11.75 -82.782,-11.75 -82.722,-11.75C-81.142,-11.75 -79.822,-12.98 -79.732,-14.58L-78.272,-39.85L-70.102,-39.28C-69.972,-39.27 -69.832,-39.27 -69.702,-39.27C-68.052,-39.27 -66.522,-39.86 -65.292,-40.96C-63.962,-42.14 -63.172,-43.77 -63.072,-45.55C-62.972,-47.32 -63.562,-49.03 -64.752,-50.36M-64.752,-50.36C-65.932,-51.69 -67.562,-52.48 -69.342,-52.58C-69.582,-52.59 -69.822,-52.6 -70.072,-52.6C-75.182,-52.6 -80.842,-49.67 -83.152,-45.24C-83.682,-44.74 -84.032,-44.04 -84.082,-43.26C-84.102,-43.03 -84.092,-42.81 -84.062,-42.59C-84.122,-42.25 -84.162,-41.89 -84.182,-41.54L-85.722,-14.92C-85.812,-13.27 -84.552,-11.85 -82.902,-11.76C-82.842,-11.75 -82.782,-11.75 -82.722,-11.75C-81.142,-11.75 -79.822,-12.98 -79.732,-14.58L-78.272,-39.85L-70.102,-39.28C-69.972,-39.27 -69.832,-39.27 -69.702,-39.27C-68.052,-39.27 -66.522,-39.86 -65.292,-40.96C-63.962,-42.14 -63.172,-43.77 -63.072,-45.55C-62.972,-47.32 -63.562,-49.03 -64.752,-50.36" style="fill:rgb(236,227,208);fill-rule:nonzero;"/>
                </g>
                <g transform="matrix(1,0,0,1,1019.9457,177.4498)">
                    <path d="M0,-5.85C0,-4.06 -1.02,-2.38 -2.4,-1.99L-6.35,-0.88L-10.26,0.21L-14.19,1.31L-20.73,3.14C-20.92,3.2 -21.11,3.22 -21.3,3.22C-22.53,3.22 -23.56,2.07 -23.7,0.39C-23.71,0.25 -23.72,0.12 -23.72,-0.02C-23.72,-1.8 -22.71,-3.47 -21.33,-3.86L-14.79,-5.69L-10.87,-6.79L-6.95,-7.88L-3,-8.99C-2.81,-9.05 -2.62,-9.07 -2.43,-9.07C-1.2,-9.07 -0.17,-7.92 -0.02,-6.24C-0.01,-6.11 0,-5.98 0,-5.85" style="fill:rgb(236,227,208);fill-rule:nonzero;"/>
                </g>
                <g>
                    <clipPath id="_clip1">
                        <path d="M992.063,190.368C987.286,191.707 983.853,197.843 984.388,204.068C984.691,207.6 986.199,210.404 988.317,211.931L989.553,212.645C990.906,213.248 992.428,213.383 994.002,212.941C998.78,211.602 1002.212,205.464 1001.677,199.223C1001.212,193.814 997.904,190.107 993.91,190.107C993.307,190.107 992.689,190.192 992.063,190.368Z" clip-rule="nonzero"/>
                    </clipPath>
                    <g clip-path="url(#_clip1)">
                        <g transform="matrix(1,0,0,1,1181.4121,248.6246)">
                            <path d="M0,-57.754L-122.028,15.273L-244.16,-55.239L-235.26,-70.654L-123.633,-6.206C-122.742,-5.692 -121.643,-5.7 -120.76,-6.228L-9.14,-73.027L0,-57.754Z" style="fill:rgb(222,101,29);fill-rule:nonzero;"/>
                        </g>
                        <g transform="matrix(1,0,0,1,1180.5505,230.7297)">
                            <path d="M0,-57.754L-122.028,15.273L-244.16,-55.239L-235.26,-70.654L-123.633,-6.206C-122.742,-5.692 -121.643,-5.7 -120.76,-6.228L-9.14,-73.027L0,-57.754Z" style="fill:rgb(201,90,43);fill-rule:nonzero;"/>
                        </g>
                        <g transform="matrix(1,0,0,1,1181.3362,242.077)">
                            <path d="M0,-57.754L-122.028,15.273L-244.16,-55.239L-235.26,-70.654L-123.633,-6.206C-122.742,-5.692 -121.643,-5.7 -120.76,-6.228L-9.14,-73.027L0,-57.754Z" style="fill:rgb(110,52,122);fill-rule:nonzero;"/>
                        </g>
                        <g transform="matrix(1,0,0,1,1181.6637,251.2963)">
                            <path d="M0,-57.754L-122.028,15.273L-244.16,-55.239L-235.26,-70.654L-123.633,-6.206C-122.742,-5.692 -121.643,-5.7 -120.76,-6.228L-9.14,-73.027L0,-57.754Z" style="fill:rgb(65,160,169);fill-rule:nonzero;"/>
                        </g>
                    </g>
                </g>
                <g transform="matrix(1,0,0,1,993.4757,147.5198)">
                    <path d="M0,63.55C-1.39,63.94 -2.76,63.71 -3.94,62.89C-5.71,61.67 -6.91,59.24 -7.15,56.38C-7.6,51.14 -4.73,45.8 -0.89,44.72C-0.44,44.59 0,44.53 0.43,44.53C1.36,44.53 2.25,44.82 3.06,45.38C4.82,46.6 6.02,49.03 6.27,51.87C6.3,52.23 6.32,52.6 6.32,52.96C6.32,57.84 3.58,62.55 0,63.55M-10.83,12.85C-10.9,12.47 -10.96,12.07 -10.99,11.66C-11.09,10.49 -11.03,9.31 -10.83,8.18C-10.13,4.23 -7.73,0.81 -4.73,-0.03C-3.34,-0.42 -1.97,-0.19 -0.79,0.63C1,1.87 2.18,4.25 2.42,7.14C2.87,12.39 0,17.73 -3.84,18.81C-5.23,19.2 -6.6,18.97 -7.79,18.15C-9.3,17.1 -10.39,15.17 -10.83,12.85M13.66,48.26C13.41,44.69 13.01,39.8 12.56,34.52L6.62,36.18C6.14,36.31 5.66,36.38 5.17,36.38C2.2,36.38 -0.16,33.95 -0.45,30.6C-0.75,27.09 1.28,23.8 4.27,22.96L11.4,20.96C10.58,11.56 9.83,3.42 9.46,1.9C7.69,-5.28 2.68,-9.77 -2.95,-9.77C-4.33,-9.77 -5.74,-9.5 -7.15,-8.94C-8.45,-8.43 -9.69,-7.69 -10.83,-6.76C-15.44,-3.03 -18.6,3.7 -18.73,10.74C-18.83,15.61 -17.58,19.82 -15.5,22.92C-13.88,25.33 -12.59,28.16 -11.97,31.36C-11.78,32.33 -11.64,33.33 -11.55,34.34C-11.46,35.35 -11.43,36.37 -11.45,37.41C-11.51,40.8 -12.26,44.19 -13.39,47.38C-14.86,51.47 -15.34,56.16 -14.44,60.75C-12.95,68.31 -7.79,73.32 -1.87,73.32C-1.28,73.32 -0.69,73.27 -0.09,73.17C7.25,71.94 13.32,63.46 13.91,53.75C13.95,53.03 13.85,51.05 13.66,48.26" style="fill:rgb(236,227,208);fill-rule:nonzero;"/>
                </g>
                <g transform="matrix(1,0,0,1,1017.6156,163.5398)">
                    <path d="M0,31.51C-0.23,28.3 -0.59,23.75 -1.11,17.61L-1.3,15.41L-5.22,16.59L-5.1,17.95C-4.58,24.07 -4.22,28.6 -3.99,31.78C-3.7,36.09 -3.7,37.36 -3.74,38.08C-4.51,50.88 -12.86,61.84 -23.15,63.56C-24.11,63.72 -25.07,63.8 -26.01,63.8C-35.1,63.8 -42.89,56.48 -44.96,45.99C-46.06,40.41 -45.6,34.59 -43.65,29.15C-42.66,26.36 -42.14,23.71 -42.09,21.28C-42.08,20.43 -42.1,19.65 -42.17,18.9C-42.24,18.1 -42.35,17.32 -42.49,16.6C-42.9,14.47 -43.76,12.43 -45.04,10.53C-48,6.12 -49.5,0.61 -49.37,-5.42C-49.21,-14.23 -45.26,-22.82 -39.05,-27.84C-37.39,-29.2 -35.58,-30.26 -33.65,-31.02C-31.52,-31.86 -29.32,-32.29 -27.09,-32.29C-18.34,-32.29 -10.82,-25.62 -8.37,-15.68C-8.01,-14.21 -7.59,-10.84 -6.36,3.26L-2.43,2.23C-3.65,-11.72 -4.07,-14.92 -4.48,-16.63C-7.38,-28.39 -16.47,-36.29 -27.09,-36.29C-29.82,-36.29 -32.53,-35.77 -35.12,-34.74C-37.43,-33.84 -39.6,-32.56 -41.58,-30.95C-48.67,-25.21 -53.19,-15.45 -53.37,-5.5C-53.51,1.35 -51.78,7.66 -48.36,12.76C-47.38,14.21 -46.73,15.76 -46.42,17.36C-46.3,17.96 -46.21,18.59 -46.15,19.25C-46.1,19.86 -46.08,20.5 -46.09,21.21C-46.13,23.21 -46.57,25.43 -47.41,27.81C-49.61,33.92 -50.12,40.47 -48.89,46.76C-46.45,59.15 -37.04,67.8 -26.01,67.8C-24.85,67.8 -23.66,67.71 -22.49,67.51C-10.41,65.48 -0.63,52.94 0.26,38.31C0.31,37.29 0.29,35.8 0,31.51" style="fill:rgb(236,227,208);fill-rule:nonzero;"/>
                </g>
                <g transform="matrix(1,0,0,1,1104.8556,101.1098)">
                    <path d="M0,-26.75C-0.21,-23.21 -3.18,-20.46 -6.64,-20.46C-6.77,-20.46 -6.9,-20.47 -7.04,-20.48L-15.2,-21.04L-15.34,-18.54L-15.86,-9.6L-16.66,4.22C-16.75,5.82 -18.07,7.05 -19.65,7.05L-19.83,7.05C-21.48,6.95 -22.74,5.53 -22.65,3.88L-21.68,-12.96L-21.17,-21.91L-21.12,-22.73C-21.1,-23.09 -21.05,-23.45 -20.99,-23.8C-21.02,-24.01 -21.03,-24.23 -21.02,-24.46C-20.96,-25.24 -20.61,-25.93 -20.08,-26.43C-17.78,-30.87 -12.1,-33.8 -6.99,-33.8C-6.75,-33.8 -6.51,-33.79 -6.27,-33.78C-2.6,-33.57 0.21,-30.41 0,-26.75" style="fill:rgb(236,227,208);fill-rule:nonzero;"/>
                </g>
                <g transform="matrix(1,0,0,1,1069.0856,116.5598)">
                    <path d="M0,-26.75C-0.1,-24.97 -0.89,-23.34 -2.22,-22.16C-3.45,-21.06 -4.98,-20.47 -6.63,-20.47C-6.76,-20.47 -6.9,-20.47 -7.03,-20.48L-15.2,-21.05L-16.66,4.22C-16.75,5.82 -18.07,7.05 -19.65,7.05C-19.71,7.05 -19.77,7.05 -19.83,7.04C-21.48,6.95 -22.74,5.53 -22.65,3.88L-21.11,-22.74C-21.09,-23.09 -21.05,-23.45 -20.99,-23.79C-21.02,-24.01 -21.03,-24.23 -21.01,-24.46C-20.96,-25.24 -20.61,-25.94 -20.08,-26.44C-17.77,-30.87 -12.11,-33.8 -7,-33.8C-6.75,-33.8 -6.51,-33.79 -6.27,-33.78C-4.49,-33.68 -2.86,-32.89 -1.68,-31.56C-0.49,-30.23 0.1,-28.52 0,-26.75" style="fill:rgb(236,227,208);fill-rule:nonzero;"/>
                </g>
            </g>
        </g>
    </g>
</svg>
