<?xml version="1.0" encoding="UTF-8" standalone="no"?>
<!DOCTYPE svg PUBLIC "-//W3C//DTD SVG 1.1//EN" "http://www.w3.org/Graphics/SVG/1.1/DTD/svg11.dtd">
<svg width="100%" height="100%" viewBox="0 0 744 911" version="1.1" xmlns="http://www.w3.org/2000/svg" xmlns:xlink="http://www.w3.org/1999/xlink" xml:space="preserve" xmlns:serif="http://www.serif.com/" style="fill-rule:evenodd;clip-rule:evenodd;stroke-miterlimit:10;">
    <g transform="matrix(1,0,0,1,-17745.84375,-1591.035937)">
        <g id="Page-8" serif:id="Page 8" transform="matrix(4.166667,0,0,4.166667,17745.84375,1591.035937)">
            <rect x="0" y="0" width="178.536" height="218.493" style="fill:none;"/>
            <clipPath id="_clip1">
                <rect x="0" y="0" width="178.536" height="218.493"/>
            </clipPath>
            <g clip-path="url(#_clip1)">
                <g id="图层-1" serif:id="图层 1">
                    <g transform="matrix(1,0,0,1,49.1315,156.1552)">
                        <path d="M0,44.082C-23.758,44.082 -29.235,34.654 -29.646,26.745C-30.005,19.861 -26.843,13.278 -20.743,8.208C-14.947,3.391 -7.117,0.496 1.307,0.058C2.049,0.019 2.784,0 3.516,0C20.41,0 34.18,10.275 34.861,23.391C35.223,30.332 32.168,35.811 26.029,39.238C21.218,41.924 14.389,43.463 5.151,43.943C3.382,44.035 1.649,44.082 0.001,44.082L0,44.082Z" style="fill:rgb(158,158,158);fill-rule:nonzero;"/>
                    </g>
                    <g transform="matrix(1,0,0,1,52.6469,203.864)">
                        <path d="M0,-51.335C-0.794,-51.335 -1.6,-51.314 -2.397,-51.273C-11.597,-50.794 -20.184,-47.604 -26.577,-42.29C-33.476,-36.555 -37.196,-28.713 -36.784,-20.776C-36.38,-13.017 -31.522,0 -3.515,0C-1.803,0 -0.007,-0.048 1.824,-0.144C11.628,-0.653 18.974,-2.341 24.281,-5.304C31.604,-9.391 35.399,-16.211 34.968,-24.506C34.567,-32.206 30.479,-39.215 23.456,-44.243C17.067,-48.816 8.737,-51.335 0,-51.335M0,-44.081C14.911,-44.081 27.136,-35.435 27.724,-24.13C28.338,-12.318 17.26,-8.21 1.448,-7.388C-0.226,-7.301 -1.885,-7.254 -3.515,-7.254C-17.29,-7.254 -28.99,-10.591 -29.54,-21.152C-30.154,-32.964 -17.833,-43.206 -2.02,-44.029C-1.342,-44.064 -0.669,-44.081 0,-44.081" style="fill:rgb(6,0,1);fill-rule:nonzero;"/>
                    </g>
                    <g transform="matrix(1,0,0,1,93.2311,170.7852)">
                        <path d="M0,44.081C-23.758,44.081 -29.235,34.653 -29.646,26.744C-30.005,19.86 -26.843,13.277 -20.743,8.207C-14.947,3.39 -7.117,0.496 1.307,0.058C2.049,0.019 2.785,0 3.516,0C20.41,0 34.18,10.274 34.861,23.39C35.223,30.331 32.168,35.81 26.028,39.237C21.218,41.923 14.388,43.462 5.151,43.942C3.382,44.034 1.648,44.081 0,44.081" style="fill:rgb(158,158,158);fill-rule:nonzero;"/>
                    </g>
                    <g transform="matrix(1,0,0,1,96.7465,218.4931)">
                        <path d="M0,-51.335C-0.794,-51.335 -1.6,-51.314 -2.397,-51.273C-11.597,-50.794 -20.184,-47.604 -26.577,-42.29C-33.476,-36.555 -37.196,-28.713 -36.784,-20.776C-36.38,-13.017 -31.522,0 -3.515,0C-1.803,0 -0.007,-0.048 1.824,-0.144C11.628,-0.653 18.974,-2.341 24.281,-5.304C31.604,-9.391 35.399,-16.211 34.968,-24.506C34.567,-32.206 30.479,-39.215 23.456,-44.243C17.067,-48.816 8.737,-51.335 0,-51.335M0,-44.081C14.911,-44.081 27.136,-35.435 27.724,-24.13C28.338,-12.318 17.26,-8.21 1.448,-7.388C-0.226,-7.301 -1.885,-7.254 -3.515,-7.254C-17.29,-7.254 -28.99,-10.591 -29.54,-21.152C-30.154,-32.964 -17.833,-43.206 -2.02,-44.029C-1.342,-44.064 -0.669,-44.081 0,-44.081" style="fill:rgb(6,0,1);fill-rule:nonzero;"/>
                    </g>
                    <g transform="matrix(1,0,0,1,162.6326,141.5136)">
                        <path d="M0,-88.473L0,-0.001C0,0.248 -0.133,0.478 -0.349,0.603L-76.968,44.839C-77.183,44.964 -77.449,44.964 -77.665,44.839L-154.284,0.603C-154.5,0.478 -154.633,0.248 -154.633,-0.001L-154.633,-88.473C-154.633,-88.722 -154.5,-88.952 -154.284,-89.077L-77.665,-133.313C-77.449,-133.437 -77.183,-133.437 -76.968,-133.313L-0.349,-89.077C-0.133,-88.952 0,-88.722 0,-88.473" style="fill:rgb(236,227,208);fill-rule:nonzero;"/>
                    </g>
                    <g>
                        <clipPath id="_clip2">
                            <path d="M82.481,9.636L10.834,51.001C9.08,52.015 8,53.886 8,55.912L8,141.916L85.316,186.554L159.798,143.552C161.552,142.539 162.633,140.667 162.633,138.642L162.633,55.912C162.633,53.886 161.552,52.015 159.798,51.001L88.151,9.636C87.273,9.13 86.295,8.877 85.316,8.877C84.337,8.877 83.358,9.13 82.481,9.636Z" clip-rule="nonzero"/>
                        </clipPath>
                        <g clip-path="url(#_clip2)">
                            <g transform="matrix(1,0,0,1,-36.1386,181.8857)">
                                <path d="M0,-57.754L122.028,15.273L244.16,-55.239L235.26,-70.654L123.633,-6.206C122.742,-5.692 121.643,-5.7 120.76,-6.228L9.14,-73.027L0,-57.754Z" style="fill:rgb(222,101,29);fill-rule:nonzero;"/>
                            </g>
                            <g transform="matrix(1,0,0,1,-35.277,163.9909)">
                                <path d="M0,-57.754L122.028,15.273L244.16,-55.239L235.26,-70.654L123.633,-6.206C122.742,-5.692 121.643,-5.7 120.76,-6.228L9.14,-73.027L0,-57.754Z" style="fill:rgb(201,90,43);fill-rule:nonzero;"/>
                            </g>
                            <g transform="matrix(1,0,0,1,-36.0627,175.3381)">
                                <path d="M0,-57.754L122.028,15.273L244.16,-55.239L235.26,-70.654L123.633,-6.206C122.742,-5.692 121.643,-5.7 120.76,-6.228L9.14,-73.027L0,-57.754Z" style="fill:rgb(110,52,122);fill-rule:nonzero;"/>
                            </g>
                            <g transform="matrix(1,0,0,1,-36.3902,184.5575)">
                                <path d="M0,-57.754L122.028,15.273L244.16,-55.239L235.26,-70.654L123.633,-6.206C122.742,-5.692 121.643,-5.7 120.76,-6.228L9.14,-73.027L0,-57.754Z" style="fill:rgb(65,160,169);fill-rule:nonzero;"/>
                            </g>
                        </g>
                    </g>
                    <g transform="matrix(1,0,0,1,85.3163,194.5536)">
                        <path d="M0,-194.554C-1.381,-194.554 -2.762,-194.197 -4,-193.482L-63.791,-158.962C-65.002,-158.262 -66.009,-157.257 -66.711,-156.047L-75.338,-141.172L-83.965,-126.296C-84.667,-125.086 -85.04,-123.713 -85.045,-122.314L-85.316,-52.669C-85.327,-49.8 -83.801,-47.145 -81.316,-45.71L-4,-1.071C-2.762,-0.357 -1.381,0 0,0C1.381,0 2.762,-0.357 4,-1.071L81.316,-45.71C83.792,-47.139 85.316,-49.78 85.316,-52.638L85.316,-141.915C85.316,-144.774 83.792,-147.415 81.316,-148.844L4,-193.482C2.762,-194.197 1.381,-194.554 0,-194.554M0,-186.554L77.316,-141.915L77.316,-52.638L0,-8L-77.316,-52.638L-77.045,-122.283C-70.884,-132.906 -65.952,-141.41 -59.791,-152.034L0,-186.554Z" style="fill:rgb(6,0,1);fill-rule:nonzero;"/>
                    </g>
                    <g transform="matrix(1,0,0,1,153.6656,67.013)">
                        <path d="M0,91.09C-0.809,91.09 -1.627,91.021 -2.435,90.886C-11.606,89.349 -19.059,79.408 -19.769,67.761C-19.896,65.682 -19.266,57.765 -17.806,40.803C-16.354,23.952 -15.673,16.602 -15.207,14.713C-13.046,5.913 -6.498,0 1.085,0C2.991,0 4.897,0.371 6.75,1.104C14.731,4.258 20.668,14.07 20.864,24.435C20.97,29.934 19.615,34.942 16.949,38.917C15.488,41.095 14.504,43.443 14.024,45.893C13.864,46.711 13.742,47.576 13.663,48.462C13.592,49.325 13.563,50.224 13.578,51.102C13.627,53.82 14.204,56.746 15.294,59.798C17.088,64.825 17.503,70.184 16.495,75.296C14.661,84.595 7.878,91.09 0.001,91.09L0,91.09Z" style="fill:rgb(158,158,158);fill-rule:nonzero;"/>
                    </g>
                    <g transform="matrix(1,0,0,1,154.7515,162.103)">
                        <path d="M0,-99.09C-9.459,-99.09 -17.568,-91.953 -20.178,-81.331C-20.707,-79.181 -21.286,-73.089 -22.876,-54.63C-24.454,-36.314 -24.989,-29.399 -24.848,-27.085C-24.026,-13.628 -15.141,-2.095 -4.181,-0.259C-3.156,-0.087 -2.115,0 -1.085,0C8.728,0 17.125,-7.821 19.333,-19.02C20.481,-24.841 20.011,-30.933 17.975,-36.636C17.032,-39.28 16.533,-41.777 16.492,-44.059C16.479,-44.792 16.503,-45.546 16.563,-46.301C16.631,-47.042 16.732,-47.758 16.864,-48.429C17.241,-50.354 18.022,-52.21 19.186,-53.946C22.311,-58.607 23.898,-64.411 23.778,-70.732C23.548,-82.832 16.703,-93.925 7.134,-97.707C4.812,-98.625 2.411,-99.09 0,-99.09M0,-91.09C1.373,-91.09 2.783,-90.824 4.194,-90.267C10.714,-87.69 15.612,-79.386 15.78,-70.58C15.872,-65.71 14.624,-61.507 12.541,-58.401C10.925,-55.99 9.639,-53.165 9.013,-49.966C8.822,-48.992 8.684,-47.996 8.593,-46.986C8.51,-45.974 8.475,-44.949 8.493,-43.916C8.554,-40.525 9.305,-37.13 10.441,-33.947C11.904,-29.847 12.389,-25.158 11.484,-20.568C9.994,-13.013 4.84,-8 -1.085,-8C-1.67,-8 -2.262,-8.049 -2.859,-8.149C-10.2,-9.379 -16.269,-17.857 -16.862,-27.573C-16.988,-29.634 -15.948,-41.842 -14.906,-53.943C-13.884,-65.804 -12.866,-77.565 -12.409,-79.422C-10.644,-86.607 -5.638,-91.09 0,-91.09" style="fill:rgb(6,0,1);fill-rule:nonzero;"/>
                    </g>
                    <g transform="matrix(-0.996331,-0.085584,-0.085584,0.996331,154.15277,101.333657)">
                        <path d="M-0.968,-22.616C-5.844,-21.69 -9.789,-15.87 -9.788,-9.604C-9.789,-3.356 -5.844,0.967 -0.968,0.041C3.906,-0.885 7.851,-6.705 7.852,-12.952C7.851,-19.218 3.907,-23.541 -0.968,-22.616" style="fill:rgb(236,227,208);fill-rule:nonzero;"/>
                    </g>
                    <g transform="matrix(-0.996331,-0.085584,-0.085584,0.996331,154.15277,101.333657)">
                        <path d="M-0.968,-22.616C-5.844,-21.69 -9.789,-15.87 -9.788,-9.604C-9.789,-3.356 -5.844,0.967 -0.968,0.041C3.906,-0.885 7.851,-6.705 7.852,-12.952C7.851,-19.218 3.907,-23.541 -0.968,-22.616Z" style="fill:none;fill-rule:nonzero;stroke:rgb(6,0,1);stroke-width:3.89px;"/>
                    </g>
                    <g transform="matrix(1,0,0,1,146.6246,100.0233)">
                        <path d="M0,15.526C-0.337,15.526 -0.676,15.479 -1.008,15.386L-19.33,10.25C-21.554,9.626 -23.113,7.015 -22.881,4.306C-22.666,1.811 -20.978,0 -18.864,0C-18.528,0 -18.189,0.047 -17.857,0.141L0.465,5.276C2.688,5.9 4.249,8.51 4.017,11.22C3.802,13.715 2.112,15.526 0,15.526" style="fill:rgb(158,158,158);fill-rule:nonzero;"/>
                    </g>
                    <g transform="matrix(1,0,0,1,127.7605,117.1634)">
                        <path d="M0,-18.754C-2.971,-18.754 -5.337,-16.322 -5.625,-12.972C-5.926,-9.458 -3.896,-6.176 -0.901,-5.336L17.421,-0.2C17.895,-0.068 18.38,0 18.864,0C21.835,0 24.2,-2.432 24.488,-5.782C24.79,-9.296 22.759,-12.579 19.765,-13.418L1.442,-18.554C0.969,-18.687 0.483,-18.754 0,-18.754M0,-15.526C0.186,-15.526 0.377,-15.5 0.571,-15.446L18.894,-10.31C20.373,-9.895 21.438,-7.992 21.272,-6.058C21.128,-4.378 20.101,-3.228 18.864,-3.228C18.677,-3.228 18.486,-3.254 18.292,-3.308L-0.03,-8.444C-1.51,-8.859 -2.575,-10.763 -2.409,-12.696C-2.264,-14.376 -1.238,-15.526 0,-15.526" style="fill:rgb(6,0,1);fill-rule:nonzero;"/>
                    </g>
                    <g transform="matrix(1,0,0,1,60.0716,3.3003)">
                        <path d="M0,35.122L-1.534,8.51C-1.82,3.54 -8.242,0 -13.212,0.287C-15.231,0.403 -16.773,2.134 -16.657,4.153C-16.541,6.172 -14.81,7.715 -12.79,7.599L-1.631,6.823" style="fill:rgb(31,31,29);fill-rule:nonzero;stroke:rgb(31,31,29);stroke-width:6px;stroke-linecap:round;"/>
                    </g>
                    <g transform="matrix(1,0,0,1,95.8396,18.748)">
                        <path d="M0,35.122L-1.534,8.51C-1.82,3.54 -8.242,0 -13.212,0.287C-15.231,0.403 -16.773,2.134 -16.657,4.153C-16.541,6.172 -14.81,7.715 -12.79,7.599L-1.631,6.823" style="fill:rgb(31,31,29);fill-rule:nonzero;stroke:rgb(31,31,29);stroke-width:6px;stroke-linecap:round;"/>
                    </g>
                    <g>
                        <clipPath id="_clip3">
                            <path d="M143.597,132.484C143.061,138.726 146.494,144.863 151.271,146.202C152.845,146.643 154.367,146.508 155.72,145.906L156.958,145.191C159.075,143.664 160.583,140.86 160.886,137.329C161.42,131.104 157.988,124.968 153.211,123.628C152.584,123.453 151.966,123.368 151.364,123.368C147.37,123.368 144.062,127.075 143.597,132.484Z" clip-rule="nonzero"/>
                        </clipPath>
                        <g clip-path="url(#_clip3)">
                            <g transform="matrix(1,0,0,1,-36.1386,181.8857)">
                                <path d="M0,-57.754L122.028,15.273L244.16,-55.239L235.26,-70.654L123.633,-6.206C122.742,-5.692 121.643,-5.7 120.76,-6.228L9.14,-73.027L0,-57.754Z" style="fill:rgb(222,101,29);fill-rule:nonzero;"/>
                            </g>
                            <g transform="matrix(1,0,0,1,-35.277,163.9909)">
                                <path d="M0,-57.754L122.028,15.273L244.16,-55.239L235.26,-70.654L123.633,-6.206C122.742,-5.692 121.643,-5.7 120.76,-6.228L9.14,-73.027L0,-57.754Z" style="fill:rgb(201,90,43);fill-rule:nonzero;"/>
                            </g>
                            <g transform="matrix(1,0,0,1,-36.0627,175.3381)">
                                <path d="M0,-57.754L122.028,15.273L244.16,-55.239L235.26,-70.654L123.633,-6.206C122.742,-5.692 121.643,-5.7 120.76,-6.228L9.14,-73.027L0,-57.754Z" style="fill:rgb(110,52,122);fill-rule:nonzero;"/>
                            </g>
                            <g transform="matrix(1,0,0,1,-36.3902,184.5575)">
                                <path d="M0,-57.754L122.028,15.273L244.16,-55.239L235.26,-70.654L123.633,-6.206C122.742,-5.692 121.643,-5.7 120.76,-6.228L9.14,-73.027L0,-57.754Z" style="fill:rgb(65,160,169);fill-rule:nonzero;"/>
                            </g>
                        </g>
                    </g>
                    <g transform="matrix(0.996331,0.085584,0.085584,-0.996331,150.309071,146.077714)">
                        <path d="M0.97,-0.042C-3.906,0.884 -7.85,6.704 -7.85,12.97C-7.851,19.218 -3.906,23.541 0.97,22.615C5.844,21.689 9.789,15.87 9.79,9.622C9.79,3.356 5.845,-0.967 0.97,-0.042Z" style="fill:none;fill-rule:nonzero;stroke:rgb(6,0,1);stroke-width:3.89px;"/>
                    </g>
                    <g transform="matrix(1,0,0,1,15.462,163.79)">
                        <path d="M0,-70.089C0,-70.089 3.168,-30.058 32.068,-14.027C57.355,0 62.941,-26.205 63.943,-32.975" style="fill:rgb(236,227,208);fill-rule:nonzero;stroke:rgb(6,0,1);stroke-width:5.83px;stroke-linecap:round;"/>
                    </g>
                    <g transform="matrix(0.966453,-0.256842,-0.256842,-0.966453,13.478676,99.152682)">
                        <path d="M-1.145,0.918L7.506,0.918L7.032,8.766L-1.619,8.766L-1.145,0.918Z" style="fill:rgb(6,0,1);fill-rule:nonzero;"/>
                    </g>
                    <g transform="matrix(-0.588117,-0.808776,-0.808776,0.588117,84.805125,122.568408)">
                        <path d="M-11.232,10.495L2.985,10.495L5.345,5.72L-8.872,5.72L-11.232,10.495Z" style="fill:rgb(6,0,1);fill-rule:nonzero;"/>
                    </g>
                    <g transform="matrix(-0.887074,-0.461627,-0.461627,0.887074,36.075833,77.144585)">
                        <path d="M-14.173,14.638L-2.232,14.638L3.581,3.467L-8.36,3.468L-14.173,14.638Z" style="fill:rgb(6,0,1);fill-rule:nonzero;"/>
                    </g>
                    <g transform="matrix(-0.887074,-0.461627,-0.461627,0.887074,36.075833,102.329385)">
                        <path d="M-14.173,14.638L-2.232,14.638L3.581,3.467L-8.36,3.468L-14.173,14.638Z" style="fill:rgb(6,0,1);fill-rule:nonzero;"/>
                    </g>
                    <g transform="matrix(0,-1,-1,0,40.4387,105.99)">
                        <path d="M1.953,9.639L15.672,9.639L9.639,-1.953L-4.08,-1.953L1.953,9.639Z" style="fill:rgb(6,0,1);fill-rule:nonzero;"/>
                    </g>
                    <g transform="matrix(1,0,0,1,30.2993,110.8939)">
                        <path d="M0,-21.4L0,-6.553L0.538,-6.273L11.13,-0.761L12.592,0L12.592,-14.847L12.053,-15.127L1.462,-20.639L0,-21.4ZM1,-19.752L11.592,-14.24L11.592,-1.648L1,-7.16L1,-19.752Z" style="fill:rgb(236,227,208);fill-rule:nonzero;"/>
                    </g>
                    <g transform="matrix(-0.887074,-0.461627,-0.461627,0.887074,59.023233,88.248885)">
                        <path d="M-14.173,14.638L-2.232,14.638L3.581,3.467L-8.36,3.468L-14.173,14.638Z" style="fill:rgb(6,0,1);fill-rule:nonzero;"/>
                    </g>
                    <g transform="matrix(-0.887074,-0.461627,-0.461627,0.887074,59.023233,113.433685)">
                        <path d="M-14.173,14.638L-2.232,14.638L3.581,3.467L-8.36,3.468L-14.173,14.638Z" style="fill:rgb(6,0,1);fill-rule:nonzero;"/>
                    </g>
                    <g transform="matrix(0,-1,-1,0,63.3858,117.0882)">
                        <path d="M1.953,9.639L15.672,9.639L9.64,-1.953L-4.08,-1.953L1.953,9.639Z" style="fill:rgb(6,0,1);fill-rule:nonzero;"/>
                    </g>
                    <g transform="matrix(1,0,0,1,53.2468,121.992)">
                        <path d="M0,-21.4L0,-6.553L0.538,-6.273L11.13,-0.761L12.592,0L12.592,-14.847L12.053,-15.127L1.462,-20.639L0,-21.4ZM1,-19.752L11.592,-14.24L11.592,-1.648L1,-7.16L1,-19.752Z" style="fill:rgb(236,227,208);fill-rule:nonzero;"/>
                    </g>
                </g>
            </g>
        </g>
    </g>
</svg>
