<?xml version="1.0" encoding="UTF-8" standalone="no"?>
<!DOCTYPE svg PUBLIC "-//W3C//DTD SVG 1.1//EN" "http://www.w3.org/Graphics/SVG/1.1/DTD/svg11.dtd">
<svg width="100%" height="100%" viewBox="0 0 3172 1415" version="1.1" xmlns="http://www.w3.org/2000/svg" xmlns:xlink="http://www.w3.org/1999/xlink" xml:space="preserve" xmlns:serif="http://www.serif.com/" style="fill-rule:evenodd;clip-rule:evenodd;stroke-linejoin:round;stroke-miterlimit:2;">
    <g transform="matrix(1,0,0,1,0,-3182.071875)">
        <g id="Page-11" serif:id="Page 11" transform="matrix(4.166667,0,0,4.166667,0,3182.071875)">
            <rect x="0" y="0" width="761.207" height="339.421" style="fill:none;"/>
            <g id="图层-1" serif:id="图层 1">
                <g transform="matrix(1,0,0,1,501.5624,231.9225)">
                    <path d="M0,12.01L-3.4,9.42C-3.21,7.99 -2.94,6.58 -2.58,5.2C-0.48,-2.86 4.4,-8.87 11.16,-11.71C13.84,-12.84 16.71,-13.42 19.68,-13.42C20.59,-13.42 21.5,-13.37 22.41,-13.26C23.63,-13.12 24.84,-12.89 26.03,-12.56C27.18,-12.26 28.31,-11.87 29.43,-11.41C37.59,-8.04 44.84,-0.64 48.92,9.05C49.43,10.26 49.88,11.48 50.27,12.71L46.92,14.12L34.68,19.25L31.24,20.69L27.84,22.11L21.13,24.93C20.18,25.33 19.15,25.43 18.15,25.21C17.42,25.06 16.75,24.75 16.16,24.3L0,12.01Z" style="fill:rgb(158,158,158);fill-rule:nonzero;"/>
                </g>
                <g transform="matrix(1,0,0,1,553.8224,221.3625)">
                    <path d="M0,18.2C-4.46,7.6 -12.47,-0.5 -21.54,-4.23C-22.66,-4.68 -23.79,-5.08 -24.94,-5.4C-26.15,-5.74 -27.38,-6.01 -28.62,-6.18C-29.93,-6.38 -31.26,-6.48 -32.58,-6.48C-36.04,-6.48 -39.38,-5.82 -42.51,-4.5C-50.21,-1.25 -55.99,5.8 -58.35,14.84C-58.58,15.71 -58.77,16.6 -58.93,17.49L-55.66,19.98L-52.26,22.57C-51.71,13.26 -47.23,5.36 -39.69,2.19C-37.41,1.23 -35.01,0.77 -32.58,0.77C-31.96,0.77 -31.34,0.8 -30.73,0.86C-29.53,0.97 -28.33,1.19 -27.13,1.52C-25.98,1.82 -24.83,2.23 -23.7,2.74C-16.73,5.79 -10.36,12.29 -6.68,21.02C-6.17,22.24 -5.72,23.46 -5.34,24.68L-1.99,23.27L1.37,21.86C0.97,20.63 0.51,19.41 0,18.2" style="fill:rgb(6,0,1);fill-rule:nonzero;"/>
                </g>
                <g transform="matrix(1,0,0,1,617.1296,179.7579)">
                    <path d="M0,15.653C0.067,15.003 0.178,14.341 0.313,13.705C0.451,13.06 0.624,12.442 0.806,11.878C1.32,10.331 2.172,8.877 3.323,7.558C7.346,2.936 9.862,-3.102 10.597,-9.898C11.623,-19.352 8.768,-28.735 3.346,-35.24C1.313,-37.688 -1.085,-39.723 -3.784,-41.209C-3.839,-41.242 -3.893,-41.274 -3.95,-41.296C-5.818,-42.318 -7.799,-43.048 -9.824,-43.48C-20.904,-45.845 -31.87,-39.116 -36.485,-27.125C-37.211,-25.255 -38.229,-20.963 -40.866,-8.847L-38.522,-7.855C-37.448,-12.79 -36.634,-16.461 -36.008,-19.201C-35.894,-19.688 -35.784,-20.155 -35.682,-20.583C-35.655,-20.71 -35.62,-20.826 -35.595,-20.943C-35.558,-21.119 -35.51,-21.293 -35.475,-21.459C-35.204,-22.587 -34.968,-23.498 -34.773,-24.224C-34.734,-24.358 -34.706,-24.485 -34.672,-24.601L-34.663,-24.64C-34.606,-24.812 -34.563,-24.966 -34.522,-25.111C-34.516,-25.14 -34.509,-25.169 -34.495,-25.187C-34.477,-25.275 -34.448,-25.361 -34.421,-25.437C-34.323,-25.753 -34.238,-26.011 -34.151,-26.228C-29.99,-37.048 -20.194,-43.137 -10.345,-41.035C-8.497,-40.641 -6.699,-39.96 -4.987,-39.022C-4.75,-38.89 -4.522,-38.759 -4.287,-38.617C-3.67,-38.25 -3.073,-37.837 -2.492,-37.396C-2.323,-37.278 -2.156,-37.15 -2.001,-37.015C-1.859,-36.913 -1.727,-36.813 -1.599,-36.694C-1.416,-36.542 -1.234,-36.391 -1.064,-36.232C-0.16,-35.436 0.686,-34.56 1.474,-33.604C1.613,-33.442 1.76,-33.267 1.895,-33.085C2.024,-32.925 2.161,-32.752 2.286,-32.572C2.495,-32.303 2.701,-32.023 2.895,-31.737C6.943,-25.883 8.974,-18.056 8.117,-10.161C7.43,-3.876 5.128,1.686 1.436,5.908C0.066,7.487 -0.949,9.223 -1.561,11.087C-1.781,11.735 -1.973,12.44 -2.127,13.164C-2.286,13.907 -2.404,14.649 -2.487,15.378C-2.726,17.648 -2.553,20.19 -1.951,22.926C-0.649,28.848 -0.959,34.948 -2.824,40.572C-6.641,52.038 -16.813,58.784 -27.023,56.604C-27.522,56.498 -28.026,56.37 -28.524,56.212C-29.957,55.784 -31.322,55.186 -32.612,54.43C-32.934,54.259 -33.241,54.071 -33.545,53.863C-33.825,53.691 -34.103,53.508 -34.367,53.309C-34.437,53.253 -34.519,53.205 -34.589,53.149C-34.818,52.978 -35.057,52.804 -35.284,52.622C-35.319,52.595 -35.362,52.555 -35.406,52.525C-35.633,52.343 -35.849,52.154 -36.074,51.963C-36.151,51.895 -36.237,51.816 -36.314,51.748C-36.547,51.545 -36.775,51.323 -37.004,51.1C-37.275,50.837 -37.537,50.577 -37.794,50.297C-38.053,50.027 -38.311,49.747 -38.554,49.45C-38.801,49.172 -39.035,48.877 -39.258,48.584C-39.268,48.582 -39.276,48.57 -39.284,48.558L-39.293,48.556C-39.646,48.102 -39.988,47.641 -40.313,47.152C-40.517,46.863 -40.719,46.564 -40.9,46.26C-41.009,46.104 -41.107,45.94 -41.205,45.776C-41.455,45.364 -41.693,44.946 -41.919,44.519C-42.139,44.114 -42.357,43.699 -42.552,43.269C-42.714,42.928 -42.874,42.577 -43.025,42.228C-43.164,41.922 -43.294,41.618 -43.411,41.307C-43.844,40.223 -44.228,39.098 -44.535,37.948C-44.638,37.568 -44.741,37.189 -44.832,36.801C-44.906,36.478 -44.98,36.156 -45.043,35.825C-45.078,35.654 -45.113,35.483 -45.138,35.314C-45.197,35.015 -45.246,34.719 -45.293,34.412C-45.502,33.089 -45.633,31.742 -45.679,30.373C-45.701,30 -45.704,29.631 -45.706,29.252C-45.709,28.505 -45.682,27.754 -45.633,26.998C-45.617,26.684 -45.575,26.294 -45.5,25.799L-45.498,25.789C-45.468,25.55 -45.421,25.284 -45.378,24.987C-45.356,24.838 -45.323,24.682 -45.297,24.513C-45.208,23.949 -45.091,23.31 -44.943,22.564C-44.864,22.1 -44.769,21.609 -44.664,21.069C-43.989,17.665 -42.944,12.674 -41.39,5.439C-41.388,5.429 -41.388,5.429 -41.386,5.419L-43.73,4.428C-43.732,4.438 -43.732,4.438 -43.734,4.447C-46.866,19.025 -47.981,24.585 -48.134,26.832C-48.138,26.852 -48.132,26.873 -48.137,26.893L-48.139,26.903C-48.351,30.293 -48.082,33.633 -47.38,36.809C-46.811,39.415 -45.953,41.91 -44.841,44.223C-43.94,46.133 -42.871,47.925 -41.642,49.548C-39.863,51.942 -37.767,54.005 -35.42,55.61C-33.513,56.927 -31.44,57.942 -29.24,58.606C-28.683,58.776 -28.112,58.928 -27.535,59.051C-16.073,61.498 -4.68,54.062 -0.457,41.364C1.561,35.312 1.889,28.746 0.494,22.395C-0.051,19.916 -0.212,17.653 0,15.653" style="fill:white;fill-rule:nonzero;"/>
                </g>
                <g transform="matrix(1,0,0,1,619.619,179.5014)">
                    <path d="M0,16.175C0.058,15.615 0.148,15.051 0.271,14.474C0.388,13.926 0.532,13.395 0.695,12.918C1.099,11.696 1.779,10.522 2.713,9.453C7.084,4.445 9.802,-2.061 10.595,-9.366C11.777,-20.321 8.079,-31.212 1.27,-38.259C-0.613,-40.215 -2.745,-41.867 -5.069,-43.15C-5.408,-43.335 -5.749,-43.51 -6.099,-43.687C-7.922,-44.587 -9.835,-45.251 -11.791,-45.668C-24.104,-48.296 -36.237,-40.937 -41.308,-27.765C-42.085,-25.753 -43.08,-21.62 -45.751,-9.347C-45.57,-9.329 -45.383,-9.299 -45.197,-9.259C-44.864,-9.188 -44.538,-9.088 -44.218,-8.958L-43.356,-8.59L-41.011,-7.599C-39.937,-12.534 -39.123,-16.204 -38.497,-18.944C-38.383,-19.431 -38.273,-19.899 -38.172,-20.327C-38.145,-20.454 -38.11,-20.569 -38.085,-20.686C-38.047,-20.863 -38,-21.036 -37.964,-21.203C-37.693,-22.331 -37.458,-23.242 -37.262,-23.967C-37.223,-24.102 -37.196,-24.229 -37.161,-24.344L-37.153,-24.383C-37.095,-24.555 -37.052,-24.71 -37.011,-24.854C-37.005,-24.883 -36.999,-24.913 -36.985,-24.93C-36.966,-25.018 -36.937,-25.104 -36.911,-25.18C-36.813,-25.497 -36.727,-25.755 -36.64,-25.971C-32.48,-36.791 -22.683,-42.88 -12.835,-40.779C-10.986,-40.384 -9.189,-39.704 -7.477,-38.766C-7.239,-38.633 -7.011,-38.503 -6.776,-38.361C-6.159,-37.994 -5.562,-37.58 -4.981,-37.139C-4.812,-37.021 -4.645,-36.894 -4.49,-36.758C-4.348,-36.656 -4.216,-36.557 -4.088,-36.437C-3.906,-36.286 -3.723,-36.134 -3.553,-35.975C-2.649,-35.179 -1.803,-34.303 -1.015,-33.348C-0.876,-33.185 -0.729,-33.011 -0.595,-32.829C-0.465,-32.668 -0.328,-32.496 -0.203,-32.315C0.005,-32.046 0.212,-31.767 0.406,-31.48C4.453,-25.626 6.484,-17.8 5.628,-9.905C4.941,-3.62 2.639,1.942 -1.054,6.165C-2.424,7.743 -3.438,9.48 -4.051,11.343C-4.271,11.991 -4.462,12.697 -4.617,13.421C-4.775,14.164 -4.893,14.906 -4.977,15.634C-5.216,17.904 -5.043,20.446 -4.441,23.182C-3.138,29.105 -3.448,35.204 -5.313,40.829C-9.131,52.295 -19.302,59.04 -29.513,56.861C-30.011,56.755 -30.516,56.626 -31.014,56.469C-32.446,56.041 -33.811,55.442 -35.102,54.686C-35.423,54.516 -35.731,54.327 -36.034,54.119C-36.314,53.947 -36.592,53.765 -36.856,53.566C-36.926,53.51 -37.008,53.462 -37.078,53.406C-37.307,53.234 -37.546,53.06 -37.773,52.879C-37.808,52.851 -37.851,52.811 -37.896,52.781C-38.123,52.6 -38.338,52.411 -38.563,52.22C-38.641,52.152 -38.726,52.072 -38.804,52.005C-39.036,51.802 -39.265,51.579 -39.493,51.356C-39.765,51.094 -40.026,50.834 -40.283,50.554C-40.543,50.284 -40.8,50.004 -41.043,49.707C-41.291,49.429 -41.524,49.134 -41.748,48.84C-41.758,48.838 -41.765,48.826 -41.773,48.815L-41.783,48.812C-42.136,48.359 -42.477,47.897 -42.802,47.409C-43.007,47.12 -43.209,46.821 -43.389,46.517C-43.499,46.36 -43.597,46.196 -43.695,46.032C-43.944,45.621 -44.182,45.202 -44.408,44.776C-44.628,44.371 -44.847,43.956 -45.041,43.526C-45.203,43.185 -45.364,42.833 -45.514,42.484C-45.653,42.178 -45.783,41.875 -45.9,41.563C-46.334,40.479 -46.717,39.354 -47.024,38.205C-47.127,37.825 -47.23,37.445 -47.321,37.058C-47.396,36.735 -47.47,36.412 -47.532,36.082C-47.567,35.911 -47.602,35.74 -47.628,35.571C-47.687,35.272 -47.736,34.975 -47.783,34.669C-47.991,33.346 -48.123,31.999 -48.168,30.629C-48.191,30.256 -48.194,29.887 -48.195,29.509C-48.199,28.762 -48.172,28.011 -48.123,27.254C-48.107,26.941 -48.065,26.551 -47.99,26.056L-47.987,26.046C-47.957,25.807 -47.91,25.541 -47.867,25.243C-47.846,25.095 -47.812,24.938 -47.787,24.77C-47.697,24.206 -47.581,23.566 -47.432,22.821C-47.353,22.357 -47.259,21.866 -47.154,21.326C-46.478,17.922 -45.434,12.93 -43.879,5.695C-43.877,5.685 -43.877,5.685 -43.875,5.676L-46.22,4.684L-48.553,3.685L-48.555,3.695C-52.082,20.029 -52.956,24.607 -53.114,26.925C-53.145,27.358 -53.166,27.793 -53.176,28.221L-53.178,28.231C-53.282,31.593 -52.934,34.898 -52.194,38.042C-51.602,40.633 -50.729,43.109 -49.622,45.442C-48.738,47.338 -47.679,49.129 -46.488,50.784C-44.789,53.171 -42.813,55.27 -40.594,56.991C-38.141,58.915 -35.407,60.378 -32.456,61.264C-31.831,61.448 -31.192,61.615 -30.556,61.751C-17.813,64.471 -5.207,56.333 -0.57,42.414C1.581,35.93 1.935,28.909 0.441,22.108C-0.038,19.899 -0.195,17.902 0,16.175" style="fill:rgb(236,227,208);fill-rule:nonzero;"/>
                </g>
                <g transform="matrix(1,0,0,1,519.3815,85.49)">
                    <path d="M0,-0.341L-0.799,0L-0.797,-0.01L0,-0.341Z" style="fill:rgb(236,227,208);fill-rule:nonzero;"/>
                </g>
                <g transform="matrix(1,0,0,1,511.4281,88.7991)">
                    <path d="M0,13.109L0.957,-0.716L4.057,-2.017L7.155,-3.309L5.987,13.518C5.869,15.169 4.437,16.418 2.785,16.301C2.644,16.291 2.505,16.272 2.368,16.242C0.931,15.935 -0.106,14.61 0,13.109" style="fill:rgb(236,227,208);fill-rule:nonzero;"/>
                </g>
                <g transform="matrix(1,0,0,1,550.941,85.5138)">
                    <path d="M0,36.648C-0.108,38.302 -1.54,39.55 -3.201,39.431C-3.343,39.421 -3.482,39.402 -3.618,39.373C-5.056,39.066 -6.082,37.742 -5.985,36.23L-4.235,10.979L-12.379,10.519C-12.7,10.491 -13.017,10.444 -13.32,10.379C-16.528,9.694 -18.824,6.75 -18.591,3.405C-18.468,1.632 -17.663,0.014 -16.318,-1.161C-14.985,-2.328 -13.267,-2.902 -11.493,-2.78C-10.878,-2.74 -10.254,-2.648 -9.628,-2.514C-7.095,-1.974 -4.53,-0.721 -2.495,1.002C-0.642,2.574 0.649,4.383 1.322,6.306C1.766,6.861 2.002,7.576 1.963,8.334C1.947,8.556 1.91,8.773 1.857,8.976C1.872,9.337 1.867,9.694 1.841,10.057L0,36.648Z" style="fill:rgb(236,227,208);fill-rule:nonzero;"/>
                </g>
                <g transform="matrix(1,0,0,1,575.2123,103.2565)">
                    <path d="M0,121.016C-0.22,120.616 -0.44,120.196 -0.63,119.766C-0.8,119.426 -0.96,119.076 -1.11,118.726C-1.25,118.426 -1.38,118.116 -1.49,117.806C-1.93,116.726 -2.31,115.596 -2.62,114.446C-2.72,114.066 -2.82,113.686 -2.91,113.306C-2.99,112.976 -3.06,112.656 -3.13,112.326C-3.16,112.156 -3.2,111.986 -3.22,111.816C-3.28,111.516 -3.33,111.216 -3.38,110.916C-3.58,109.586 -3.72,108.246 -3.76,106.876C-3.77,106.506 -3.79,106.126 -3.79,105.756C-3.79,105.006 -3.77,104.256 -3.72,103.496C-3.71,103.376 -3.71,103.256 -3.69,103.116C-3.67,102.906 -3.64,102.666 -3.59,102.396C-3.6,102.366 -3.59,102.326 -3.58,102.296L-3.58,102.286L-6.22,103.396L-6.22,103.406L-8.77,104.466L-47.81,120.836C-48.76,121.226 -49.84,121.086 -50.66,120.446L-62.78,110.916C-66.29,112.076 -70.05,112.236 -74.05,111.386C-76.85,110.786 -79.74,109.696 -82.76,108.126C-84.03,107.466 -85.32,106.706 -86.63,105.866C-91.08,103.006 -94.76,99.766 -97.82,96.286C-97.83,96.276 -97.84,96.276 -97.85,96.266C-104,89.316 -107.61,81.456 -109.7,74.066L-109.7,74.056L-121.55,64.746L-114.37,10.036L-114.77,10.566L-121.66,64.666L-123.15,76.396L-123.98,82.936L-124.28,85.246L-124.34,85.726L-125.47,94.536L-125.46,94.546L-125.47,94.586L-125.47,94.636C-125.47,94.856 -125.37,95.056 -125.2,95.186L-54.78,148.746C-54.58,148.896 -54.31,148.926 -54.09,148.836L-48.81,146.626L-2.08,127.026L0.27,126.046L2.62,125.056C1.65,123.806 0.76,122.466 0,121.016M-31.584,-27.892C-31.592,-27.904 -31.612,-27.908 -31.621,-27.91L38.828,25.665L-31.584,-27.892ZM-106.322,48.674C-106.326,48.837 -106.344,49.017 -106.355,49.209L-105.642,49.126L-106.322,48.674Z" style="fill:rgb(236,227,208);fill-rule:nonzero;"/>
                </g>
                <g transform="matrix(1,0,0,1,577.8361,212.4298)">
                    <path d="M0,15.884L-51.435,37.453L-56.712,39.66L-57.083,39.816L-57.399,39.575L-127.821,-13.984L-128.138,-14.225L-128.092,-14.584L-128.084,-14.623L-126.968,-23.444L-126.905,-23.932L-126.87,-23.904L-55.562,32.114C-55.084,32.175 -54.591,32.117 -54.129,31.919L-3.258,10.597C-2.349,12.519 -1.252,14.277 0,15.884" style="fill:rgb(65,160,169);fill-rule:nonzero;"/>
                </g>
                <g transform="matrix(1,0,0,1,452.1236,187.737)">
                    <path d="M0,-8.034L0.002,-8.044L-0.06,-8.088L1.431,-19.815L1.535,-19.731L13.393,-10.421L13.391,-10.411C15.475,-3.023 19.085,4.833 25.24,11.781L0,-8.034Z" style="fill:rgb(201,90,43);fill-rule:nonzero;"/>
                </g>
                <g transform="matrix(1,0,0,1,572.0867,225.6233)">
                    <path d="M0,-10.04L-46.898,9.624C-47.842,10.026 -48.935,9.874 -49.74,9.242L-79.636,-14.245C-76.619,-12.671 -73.722,-11.582 -70.925,-10.985C-66.925,-10.131 -63.169,-10.291 -59.659,-11.454L-47.531,-1.922C-46.718,-1.278 -45.633,-1.139 -44.681,-1.529L-0.457,-20.066C-0.532,-19.571 -0.575,-19.181 -0.59,-18.868C-0.784,-15.852 -0.571,-12.872 0,-10.04" style="fill:rgb(201,90,43);fill-rule:nonzero;"/>
                </g>
                <g transform="matrix(1,0,0,1,574.5778,201.2273)">
                    <path d="M0,21.8L-50.871,43.121C-51.332,43.319 -51.825,43.378 -52.303,43.317L-123.611,-12.701L-123.646,-12.729L-123.348,-15.038L-122.514,-21.578L-122.452,-21.534L-122.454,-21.524L-97.214,-1.709C-97.206,-1.698 -97.197,-1.695 -97.189,-1.684C-94.127,1.792 -90.442,5.033 -85.992,7.895C-84.688,8.735 -83.398,9.491 -82.128,10.151L-52.232,33.638C-51.426,34.271 -50.333,34.422 -49.389,34.02L-2.491,14.356C-1.958,16.985 -1.114,19.497 0,21.8" style="fill:rgb(110,52,122);fill-rule:nonzero;"/>
                </g>
                <g transform="matrix(1,0,0,1,508.8724,246.4835)">
                    <path d="M0,-165.601L-30.917,-152.638C-33.225,-151.671 -35.235,-150.11 -36.743,-148.114L-44.04,-138.461L-0.62,-156.671L0,-165.601ZM74.71,-12.861C74.43,-13.031 74.16,-13.231 73.89,-13.421C73.82,-13.471 73.74,-13.521 73.67,-13.581C73.44,-13.751 73.2,-13.921 72.97,-14.101C72.94,-14.131 72.9,-14.171 72.85,-14.201C72.62,-14.381 72.41,-14.571 72.18,-14.761C72.11,-14.831 72.02,-14.911 71.94,-14.981C71.71,-15.181 71.48,-15.401 71.25,-15.621C70.98,-15.891 70.72,-16.151 70.46,-16.431C70.2,-16.701 69.95,-16.991 69.7,-17.271C69.46,-17.551 69.22,-17.851 69,-18.141C68.99,-18.141 68.98,-18.151 68.97,-18.171L68.96,-18.171L66.61,-17.181L64.26,-16.201L17.53,3.399L12.25,5.609L11.88,5.759L11.56,5.519L-58.86,-48.041L-59.17,-48.281L-59.13,-48.591L-59.13,-48.641L-59.12,-48.681L-57.91,-57.961L-56.75,-66.781L-56.75,-66.791L-55.21,-78.481L-48.03,-133.191L-48.43,-132.661L-55.543,-123.248C-57.022,-121.29 -57.968,-118.982 -58.287,-116.548L-67.11,-49.331C-67.48,-46.481 -66.31,-43.661 -64.02,-41.921L7.03,12.129C7.99,12.859 9.08,13.349 10.21,13.589C11.79,13.919 13.44,13.789 14.98,13.139L70.15,-9.991L72.84,-11.111L75.64,-12.291C75.33,-12.481 75.02,-12.661 74.71,-12.861M111.604,-101.965L112.016,-105.241L113.428,-116.31C113.786,-119.138 112.608,-121.956 110.34,-123.687L39.275,-177.731C38.325,-178.455 37.233,-178.944 36.099,-179.186C34.534,-179.52 32.869,-179.385 31.341,-178.74L14.429,-171.653C14.415,-171.585 14.412,-171.524 14.397,-171.456C14.399,-171.128 14.391,-170.803 14.373,-170.479L13.834,-162.731L34.058,-171.206L34.429,-171.362L34.693,-171.163L34.718,-171.137L105.167,-117.562L105.494,-117.319L105.44,-116.921L104.647,-110.669L104.307,-108.022L103.971,-105.343C104.588,-104.976 105.184,-104.562 105.765,-104.121C105.934,-104.003 106.101,-103.876 106.256,-103.74C106.398,-103.638 106.53,-103.539 106.658,-103.419C106.843,-103.278 107.013,-103.119 107.194,-102.957C108.097,-102.161 108.943,-101.285 109.731,-100.33C109.87,-100.167 110.017,-99.993 110.152,-99.811C110.281,-99.65 110.418,-99.478 110.543,-99.298C110.752,-99.028 110.958,-98.749 111.153,-98.462L111.604,-101.965ZM9.712,-161.003L10.33,-169.931L7.229,-168.63L4.132,-167.338L3.512,-158.4L6.612,-159.702L9.71,-160.994L10.509,-161.334L9.712,-161.003Z" style="fill:rgb(236,227,208);fill-rule:nonzero;"/>
                </g>
                <g transform="matrix(1,0,0,1,514.2134,62.7568)">
                    <path d="M0,42.343C-0.141,42.333 -0.28,42.314 -0.417,42.285C-1.855,41.978 -2.891,40.652 -2.785,39.151L-1.828,25.327L-1.209,16.389L-1.036,13.9L-9.177,13.431C-9.501,13.413 -9.828,13.363 -10.131,13.299C-13.338,12.614 -15.623,9.662 -15.401,6.325C-15.14,2.659 -11.951,-0.117 -8.292,0.132C-7.679,0.182 -7.054,0.274 -6.428,0.407C-3.905,0.946 -1.338,2.189 0.705,3.924C2.558,5.495 3.848,7.304 4.522,9.227C4.956,9.78 5.204,10.488 5.155,11.244C5.148,11.467 5.112,11.685 5.046,11.896C5.073,12.249 5.069,12.606 5.042,12.968L4.989,13.795L4.371,22.723L4.369,22.733L3.201,39.56C3.084,41.212 1.652,42.46 0,42.343" style="fill:rgb(236,227,208);fill-rule:nonzero;"/>
                </g>
                <g transform="matrix(1,0,0,1,547.7395,82.7308)">
                    <path d="M0,42.214C-0.141,42.204 -0.28,42.185 -0.417,42.156C-1.855,41.849 -2.881,40.525 -2.783,39.013L-1.034,13.762L-9.177,13.302C-9.499,13.274 -9.816,13.227 -10.119,13.162C-13.327,12.477 -15.623,9.533 -15.389,6.188C-15.266,4.415 -14.461,2.797 -13.116,1.622C-11.783,0.455 -10.065,-0.119 -8.292,0.003C-7.677,0.043 -7.052,0.135 -6.426,0.269C-3.893,0.809 -1.328,2.062 0.707,3.785C2.56,5.356 3.85,7.166 4.524,9.089C4.968,9.644 5.204,10.359 5.165,11.117C5.148,11.338 5.112,11.556 5.058,11.759C5.073,12.12 5.069,12.477 5.042,12.84L3.201,39.431C3.094,41.085 1.662,42.333 0,42.214" style="fill:rgb(236,227,208);fill-rule:nonzero;"/>
                </g>
                <g transform="matrix(1,0,0,1,469.5705,152.0139)">
                    <path d="M0,0.369L-0.713,0.452C-0.703,0.26 -0.685,0.08 -0.681,-0.083L0,0.369Z" style="fill:rgb(236,227,208);fill-rule:nonzero;"/>
                </g>
                <g transform="matrix(1,0,0,1,614.0424,170.7525)">
                    <path d="M0,-41.83L-70.45,-95.41L-70.48,-95.43C-70.67,-95.54 -70.9,-95.56 -71.11,-95.48L-91.34,-87L-92.64,-68.16C-92.77,-66.29 -93.61,-64.59 -95.02,-63.36C-96.44,-62.14 -98.24,-61.53 -100.1,-61.66C-100.43,-61.68 -100.76,-61.73 -101.08,-61.8C-104.47,-62.52 -106.84,-65.67 -106.6,-69.12L-105.79,-80.93L-149.21,-62.73L-149.22,-62.73L-153.2,-57.46L-160.38,-2.75L-148.53,6.56C-151.38,-3.52 -151.38,-12.72 -151.1,-17.54L-152.83,-17.32L-154.41,-24.84L-144.86,-26.04L-143.27,-18.52L-144.47,-18.37L-145.18,-18.29C-145.54,-13.32 -145.79,0.39 -139.59,13.59C-136.16,20.9 -130.76,28.05 -122.3,33.47C-116.93,36.92 -112.07,38.63 -107.77,38.59C-105.93,38.57 -104.2,38.23 -102.57,37.57C-94.11,34.1 -90.5,22.79 -89.7,19.92L-92.49,16.95L-92.14,16.27L-89.97,12.06L-80.25,22.41L-82.77,27.31L-85.14,24.78C-87.13,30.23 -91.64,39.36 -100.34,42.94C-100.76,43.12 -101.19,43.27 -101.61,43.42L-89.49,52.95C-88.67,53.59 -87.59,53.73 -86.64,53.34L-47.6,36.97L-45.05,35.91L-45.05,35.9L-42.41,34.79C-42.38,34.56 -42.33,34.29 -42.29,33.99C-42.27,33.84 -42.24,33.69 -42.21,33.52C-42.12,32.95 -42,32.32 -41.86,31.57C-41.78,31.11 -41.68,30.61 -41.58,30.07C-40.9,26.67 -39.86,21.68 -38.3,14.44L-40.65,13.45L-42.63,12.61C-42.76,12.56 -42.87,12.51 -42.98,12.44C-43.02,12.44 -43.05,12.42 -43.08,12.39C-45.67,11.03 -47.07,7.7 -46.36,4.44C-45.65,1.17 -43.05,-0.91 -40.17,-0.6C-39.99,-0.58 -39.81,-0.55 -39.62,-0.51C-39.29,-0.44 -38.96,-0.34 -38.64,-0.21L-37.78,0.16L-35.43,1.15C-34.36,-3.78 -33.55,-7.46 -32.92,-10.2C-32.81,-10.68 -32.7,-11.15 -32.6,-11.58C-32.57,-11.71 -32.53,-11.82 -32.51,-11.94C-32.47,-12.11 -32.42,-12.29 -32.39,-12.45C-32.12,-13.58 -31.88,-14.49 -31.69,-15.22C-31.65,-15.35 -31.62,-15.48 -31.58,-15.6L-31.58,-15.63C-31.52,-15.81 -31.48,-15.96 -31.43,-16.11C-31.43,-16.13 -31.42,-16.16 -31.41,-16.18C-31.39,-16.27 -31.36,-16.36 -31.33,-16.43C-31.24,-16.75 -31.15,-17.01 -31.06,-17.22C-26.9,-28.04 -17.11,-34.13 -7.26,-32.03C-5.41,-31.64 -3.61,-30.96 -1.9,-30.02C-1.66,-29.88 -1.43,-29.75 -1.2,-29.61L-0.86,-32.29L-0.52,-34.94L0.27,-41.19C0.3,-41.44 0.2,-41.68 0,-41.83M-61.494,-43.524C-62.902,-42.29 -64.709,-41.684 -66.572,-41.816C-66.893,-41.844 -67.232,-41.885 -67.555,-41.954C-70.939,-42.676 -73.312,-45.831 -73.076,-49.288L-71.606,-70.498L-75.747,-70.738C-76.253,-70.764 -76.768,-70.843 -77.257,-70.948C-82.43,-72.052 -86.05,-76.843 -85.684,-82.103C-85.486,-84.944 -84.196,-87.542 -82.048,-89.415C-79.899,-91.287 -77.157,-92.205 -74.306,-92.006C-73.52,-91.951 -72.706,-91.838 -71.894,-91.665C-68.686,-90.98 -65.531,-89.427 -63.003,-87.282C-60.805,-85.412 -59.153,-83.189 -58.201,-80.797C-57.44,-79.571 -57.06,-78.141 -57.148,-76.677C-57.163,-76.414 -57.19,-76.144 -57.235,-75.887C-57.233,-75.56 -57.243,-75.225 -57.269,-74.913L-59.11,-48.322C-59.232,-46.456 -60.087,-44.747 -61.494,-43.524M-111.138,19.482L-109.065,6.366L-113.903,3.258L-113.704,1.991L-111.831,-9.849L-106.992,-6.75L-104.911,-19.855L-95.233,-13.648L-97.316,-0.534L-102.154,-3.642L-104.054,8.376L-104.225,9.464L-104.227,9.474L-99.387,12.572L-101.461,25.689L-111.138,19.482ZM-127.902,8.726L-137.57,2.521L-135.497,-10.595L-133.554,-9.352L-133.299,-10.975L-131.482,-22.458L-133.424,-23.711L-131.352,-36.817L-121.675,-30.611L-123.748,-17.495L-121.805,-16.252L-123.659,-4.592L-123.886,-3.147L-125.819,-4.388L-127.902,8.726Z" style="fill:rgb(236,227,208);fill-rule:nonzero;"/>
                </g>
                <g transform="matrix(1,0,0,1,469.5705,152.0139)">
                    <path d="M0,0.369L-0.713,0.452C-0.703,0.26 -0.685,0.08 -0.681,-0.083L0,0.369Z" style="fill:rgb(6,0,1);fill-rule:nonzero;"/>
                </g>
                <g>
                    <clipPath id="_clip1">
                        <path d="M585.398,205.968C584.078,212.093 586.707,218.614 591.278,220.546C592.783,221.183 594.31,221.241 595.729,220.814L597.045,220.262C599.339,219.015 601.189,216.424 601.936,212.958C603.253,206.851 600.622,200.331 596.052,198.398C595.183,198.031 594.306,197.856 593.447,197.856C589.793,197.856 586.464,201.022 585.398,205.968Z" clip-rule="nonzero"/>
                    </clipPath>
                    <g clip-path="url(#_clip1)">
                        <g transform="matrix(1,0,0,1,408.1559,248.8407)">
                            <path d="M0,-73.858L111.827,13.997L241.887,-40.526L235.006,-56.941L116.133,-7.108C115.184,-6.71 114.094,-6.858 113.285,-7.493L10.996,-87.855L0,-73.858Z" style="fill:rgb(222,101,29);fill-rule:nonzero;"/>
                        </g>
                        <g transform="matrix(1,0,0,1,411.2707,231.1979)">
                            <path d="M0,-73.858L111.827,13.997L241.887,-40.526L235.006,-56.941L116.133,-7.108C115.184,-6.71 114.094,-6.858 113.285,-7.493L10.996,-87.855L0,-73.858Z" style="fill:rgb(201,90,43);fill-rule:nonzero;"/>
                        </g>
                        <g transform="matrix(1,0,0,1,409.0581,242.355)">
                            <path d="M0,-73.858L111.827,13.997L241.887,-40.526L235.006,-56.941L116.133,-7.108C115.184,-6.71 114.094,-6.858 113.285,-7.493L10.996,-87.855L0,-73.858Z" style="fill:rgb(110,52,122);fill-rule:nonzero;"/>
                        </g>
                        <g transform="matrix(1,0,0,1,407.5689,251.4592)">
                            <path d="M0,-73.858L111.827,13.997L241.887,-40.526L235.006,-56.941L116.133,-7.108C115.184,-6.71 114.094,-6.858 113.285,-7.493L10.996,-87.855L0,-73.858Z" style="fill:rgb(65,160,169);fill-rule:nonzero;"/>
                        </g>
                    </g>
                </g>
                <g transform="matrix(1,0,0,1,609.7687,169.7895)">
                    <path d="M0,-4.519L-0.576,0C-0.458,-0.363 -0.359,-0.73 -0.275,-1.122C-0.035,-2.246 0.056,-3.393 0,-4.519" style="fill:rgb(158,158,158);fill-rule:nonzero;"/>
                </g>
                <g transform="matrix(1,0,0,1,609.4934,166.3929)">
                    <path d="M0,2.275C-0.083,2.666 -0.182,3.034 -0.301,3.397L0.275,-1.122C0.331,0.004 0.24,1.15 0,2.275" style="fill:rgb(236,227,208);fill-rule:nonzero;"/>
                </g>
                <g transform="matrix(1,0,0,1,593.4886,176.1008)">
                    <path d="M0,9.346C-0.367,11.067 -1.62,12.098 -2.911,11.823C-3.038,11.796 -3.173,11.757 -3.304,11.698L-9.55,9.056L-17.052,5.88L-19.397,4.889L-20.833,4.286C-21.151,4.147 -21.444,3.941 -21.694,3.673C-22.555,2.773 -22.972,1.232 -22.65,-0.233C-22.336,-1.7 -21.387,-2.652 -20.317,-2.731C-20.128,-2.752 -19.936,-2.742 -19.74,-2.7C-19.613,-2.673 -19.478,-2.634 -19.346,-2.585L-17.92,-1.984L-15.575,-0.993L-8.073,2.183L-1.817,4.827C-0.41,5.424 0.405,7.449 0,9.346" style="fill:rgb(236,227,208);fill-rule:nonzero;"/>
                </g>
                <g transform="matrix(1,0,0,1,609.1926,205.3578)">
                    <path d="M0,-35.568C-0.718,-33.308 -2.053,-31.507 -3.698,-30.652C-4.973,-29.993 -6.364,-29.943 -7.697,-30.503C-11.374,-32.055 -13.548,-37.724 -12.441,-42.866C-11.824,-45.709 -10.362,-47.913 -8.428,-48.921C-7.439,-49.436 -6.386,-49.58 -5.34,-49.356C-5.036,-49.292 -4.73,-49.195 -4.429,-49.07C-1.56,-47.854 0.395,-44.124 0.576,-40.087C0.632,-38.961 0.541,-37.815 0.301,-36.69C0.217,-36.299 0.118,-35.931 0,-35.568M-9.157,7.192C-9.754,9.99 -11.26,12.255 -13.17,13.248C-14.445,13.907 -15.826,13.959 -17.159,13.399C-18.115,12.991 -18.981,12.305 -19.701,11.415C-21.216,9.557 -22.146,6.823 -22.192,3.971C-22.197,2.988 -22.108,1.995 -21.899,1.017C-21.294,-1.768 -19.8,-4.026 -17.891,-5.019C-16.615,-5.678 -15.234,-5.73 -13.901,-5.17C-12.278,-4.486 -10.948,-3.006 -10.064,-1.11C-8.966,1.221 -8.561,4.16 -9.111,6.977L-9.157,7.192ZM-2.494,-11.089C-2.387,-12.12 -2.223,-13.128 -2.01,-14.125C-1.799,-15.113 -1.53,-16.088 -1.218,-17.024C-0.199,-20.119 1.437,-22.756 3.346,-24.946C5.799,-27.766 7.575,-31.773 8.098,-36.621C8.857,-43.627 6.563,-50.701 2.466,-54.981C1.446,-56.047 0.319,-56.942 -0.909,-57.613C-1.952,-58.184 -3.012,-58.584 -4.078,-58.811C-9.966,-60.068 -15.95,-56.222 -18.748,-48.956C-19.316,-47.493 -21.08,-39.515 -23.09,-30.291L-16.272,-27.405C-13.403,-26.189 -11.801,-22.677 -12.547,-19.227C-13.3,-15.748 -16.199,-13.616 -19.289,-14.275C-19.622,-14.346 -19.946,-14.456 -20.266,-14.586L-25.95,-16.985C-27.069,-11.794 -28.084,-6.99 -28.77,-3.487C-29.313,-0.75 -29.666,1.189 -29.718,1.914C-29.835,3.659 -29.773,5.379 -29.537,7.055C-29.174,9.761 -28.393,12.33 -27.259,14.587C-26.281,16.565 -25.048,18.31 -23.609,19.712C-22.044,21.242 -20.248,22.362 -18.278,22.956C-17.991,23.048 -17.7,23.12 -17.416,23.181C-11.235,24.5 -5.034,20.118 -2.478,12.453C-1.008,8.011 -0.891,3.292 -1.825,-0.957C-2.553,-4.251 -2.865,-7.723 -2.494,-11.089" style="fill:rgb(236,227,208);fill-rule:nonzero;"/>
                </g>
                <g transform="matrix(1,0,0,1,553.2623,264.3825)">
                    <path d="M0,-13.83C0.56,-10.4 0.67,-6.98 0.31,-3.68C0.18,-2.44 -0.02,-1.21 -0.29,-0.01C-0.47,0 -0.66,0 -0.84,0C-1.89,0 -2.93,-0.09 -3.96,-0.26C-8.5,-1.01 -12.79,-3.38 -16.43,-6.94L-12.73,-8.5L-3.46,-12.38L0,-13.83Z" style="fill:rgb(158,158,158);fill-rule:nonzero;"/>
                </g>
                <g transform="matrix(1,0,0,1,573.3925,264.1825)">
                    <path d="M0,-22.07C-0.43,-18.83 -1.29,-15.75 -2.57,-12.93C-5.59,-6.26 -10.55,-1.81 -16.62,-0.33C-16.85,-0.27 -17.08,-0.22 -17.31,-0.17C-17.65,-0.1 -17.99,-0.04 -18.34,0C-18.11,-1.07 -17.95,-2.17 -17.83,-3.27C-17.45,-6.72 -17.56,-10.32 -18.16,-13.95L-18.24,-14.43L-16.7,-15.07L-3.96,-20.41L0,-22.07Z" style="fill:rgb(47,48,47);fill-rule:nonzero;"/>
                </g>
                <g transform="matrix(1,0,0,1,553.5724,272.2625)">
                    <path d="M0,-11.56C-0.13,-10.32 -0.33,-9.09 -0.6,-7.89C-0.69,-7.48 -0.78,-7.08 -0.89,-6.68C-1.1,-5.86 -1.35,-5.06 -1.63,-4.28C-4.01,2.57 -8.57,7.68 -14.63,10.23C-17.32,11.36 -20.18,11.94 -23.15,11.94C-34.99,11.94 -46.74,2.91 -52.39,-10.53C-54.18,-14.77 -55.25,-19.17 -55.58,-23.5L-51.54,-20.44L-39.48,-11.26C-38.17,-10.27 -36.71,-9.6 -35.11,-9.26C-34.35,-9.1 -33.58,-9.01 -32.81,-9.01C-31.36,-9.01 -29.92,-9.3 -28.56,-9.87L-20.32,-13.32L-16.74,-14.82L-13.04,-16.38L-3.77,-20.26L-0.31,-21.71C0.25,-18.28 0.36,-14.86 0,-11.56" style="fill:rgb(47,48,47);fill-rule:nonzero;"/>
                </g>
                <g transform="matrix(1,0,0,1,242.7723,223.0825)">
                    <path d="M0,29.62L-3.37,31.96C-4.26,25.94 -3.79,19.96 -1.95,14.61C0.76,6.73 6.08,1.11 13.03,-1.22C15.25,-1.96 17.58,-2.34 19.95,-2.34C25.88,-2.34 31.74,0.01 36.76,4.08L33.65,6.24L0,29.62Z" style="fill:rgb(158,158,158);fill-rule:nonzero;"/>
                </g>
                <g transform="matrix(1,0,0,1,262.7223,257.3325)">
                    <path d="M0,-40.22C-2.76,-40.22 -5.48,-39.78 -8.07,-38.91C-16,-36.25 -22.29,-29.66 -25.33,-20.82C-27.53,-14.39 -27.96,-7.18 -26.61,0L-23.32,-2.29L-19.95,-4.63C-21.19,-17.32 -15.68,-28.71 -5.77,-32.03C-3.88,-32.66 -1.94,-32.96 0,-32.96C4.72,-32.96 9.48,-31.18 13.7,-28.01L16.81,-30.17L19.88,-32.3C14.05,-37.3 7.08,-40.22 0,-40.22" style="fill:rgb(6,0,1);fill-rule:nonzero;"/>
                </g>
                <g transform="matrix(1,0,0,1,277.2623,232.5325)">
                    <path d="M0,53.42C-2.23,54.16 -4.55,54.54 -6.92,54.54C-19.24,54.54 -31.23,44.39 -36.1,29.86C-36.22,29.51 -36.33,29.17 -36.42,28.82L-33.29,26.64L3.68,0.95L6.67,-1.12C10.07,2.76 12.84,7.52 14.63,12.88C20.55,30.55 13.98,48.73 0,53.42" style="fill:rgb(47,48,47);fill-rule:nonzero;"/>
                </g>
                <g transform="matrix(1,0,0,1,315.8824,169.7725)">
                    <path d="M0,7.59C-0.07,6.94 -0.1,6.27 -0.1,5.62C-0.1,4.96 -0.06,4.32 0,3.73C0.18,2.11 0.71,0.51 1.56,-1.02C4.53,-6.38 5.73,-12.81 5.03,-19.61C4.06,-29.07 -0.69,-37.65 -7.35,-42.88C-9.85,-44.85 -12.62,-46.34 -15.57,-47.23C-15.63,-47.25 -15.69,-47.27 -15.75,-47.28C-17.79,-47.89 -19.88,-48.19 -21.95,-48.19C-33.28,-48.19 -42.6,-39.32 -44.61,-26.63C-44.93,-24.65 -45.03,-20.24 -45.08,-7.84L-42.58,-7.36C-42.56,-12.41 -42.53,-16.17 -42.49,-18.98C-42.48,-19.48 -42.47,-19.96 -42.46,-20.4C-42.46,-20.53 -42.45,-20.65 -42.45,-20.77C-42.45,-20.95 -42.44,-21.13 -42.44,-21.3C-42.41,-22.46 -42.37,-23.4 -42.33,-24.15C-42.32,-24.29 -42.32,-24.42 -42.31,-24.54L-42.31,-24.58C-42.29,-24.76 -42.28,-24.92 -42.27,-25.07C-42.27,-25.1 -42.27,-25.13 -42.26,-25.15C-42.26,-25.24 -42.25,-25.33 -42.24,-25.41C-42.21,-25.74 -42.18,-26.01 -42.14,-26.24C-40.33,-37.69 -32.02,-45.69 -21.95,-45.69C-20.06,-45.69 -18.16,-45.4 -16.29,-44.84C-16.03,-44.76 -15.78,-44.68 -15.52,-44.59C-14.84,-44.36 -14.17,-44.08 -13.51,-43.77C-13.32,-43.69 -13.13,-43.6 -12.95,-43.5C-12.79,-43.43 -12.64,-43.36 -12.49,-43.27C-12.28,-43.16 -12.07,-43.05 -11.87,-42.93C-10.82,-42.34 -9.81,-41.66 -8.84,-40.89C-8.67,-40.76 -8.49,-40.62 -8.32,-40.47C-8.16,-40.34 -7.99,-40.2 -7.83,-40.05C-7.57,-39.83 -7.31,-39.6 -7.06,-39.36C-1.88,-34.48 1.74,-27.25 2.55,-19.35C3.19,-13.06 2.1,-7.14 -0.63,-2.24C-1.64,-0.41 -2.27,1.5 -2.48,3.45C-2.56,4.13 -2.6,4.86 -2.6,5.6C-2.6,6.36 -2.56,7.11 -2.49,7.84C-2.25,10.11 -1.55,12.56 -0.39,15.11C2.12,20.63 3.09,26.66 2.44,32.55C1.1,44.56 -7.44,53.28 -17.88,53.28C-18.39,53.28 -18.91,53.26 -19.43,53.21C-20.92,53.09 -22.38,52.79 -23.8,52.32C-24.15,52.22 -24.49,52.1 -24.83,51.96C-25.14,51.85 -25.45,51.73 -25.75,51.59C-25.83,51.55 -25.92,51.52 -26,51.48C-26.26,51.36 -26.53,51.24 -26.79,51.11C-26.83,51.09 -26.88,51.06 -26.93,51.04C-27.19,50.91 -27.44,50.77 -27.7,50.63C-27.79,50.58 -27.89,50.52 -27.98,50.47C-28.25,50.32 -28.52,50.15 -28.79,49.98C-29.11,49.78 -29.42,49.58 -29.73,49.36C-30.04,49.15 -30.35,48.93 -30.65,48.69C-30.95,48.47 -31.24,48.23 -31.52,47.99C-31.53,47.99 -31.54,47.98 -31.55,47.97L-31.56,47.97C-31.84,47.73 -32.13,47.49 -32.4,47.23C-32.47,47.17 -32.54,47.11 -32.61,47.04C-32.69,46.97 -32.77,46.89 -32.85,46.81C-32.88,46.79 -32.9,46.77 -32.93,46.74C-33.11,46.57 -33.29,46.39 -33.47,46.2C-33.52,46.16 -33.56,46.12 -33.61,46.06C-33.73,45.94 -33.86,45.81 -33.98,45.68C-34.32,45.32 -34.65,44.95 -34.97,44.57C-35.27,44.22 -35.57,43.86 -35.85,43.48C-36.08,43.18 -36.31,42.87 -36.53,42.56C-36.73,42.29 -36.92,42.02 -37.1,41.74C-37.75,40.77 -38.36,39.75 -38.9,38.69C-39.08,38.34 -39.26,37.99 -39.43,37.63C-39.57,37.33 -39.71,37.03 -39.84,36.72C-39.91,36.56 -39.98,36.4 -40.04,36.24C-40.16,35.96 -40.27,35.68 -40.38,35.39C-40.86,34.14 -41.27,32.85 -41.6,31.52C-41.7,31.16 -41.78,30.8 -41.86,30.43C-42.02,29.7 -42.15,28.96 -42.26,28.21C-42.31,27.9 -42.35,27.51 -42.38,27.01L-42.38,27C-42.4,26.76 -42.41,26.49 -42.43,26.19C-42.44,26.04 -42.44,25.88 -42.45,25.71C-42.48,25.14 -42.5,24.49 -42.51,23.73C-42.53,23.26 -42.54,22.76 -42.55,22.21C-42.6,18.74 -42.62,13.64 -42.61,6.24L-42.61,6.22L-45.11,5.74L-45.11,5.76C-45.13,20.67 -45.06,26.34 -44.74,28.57C-44.74,28.59 -44.73,28.61 -44.73,28.63L-44.73,28.64C-44.23,32 -43.27,35.21 -41.92,38.17C-40.82,40.6 -39.46,42.86 -37.89,44.89C-36.61,46.57 -35.19,48.1 -33.65,49.43C-31.41,51.4 -28.93,52.98 -26.3,54.06C-24.16,54.95 -21.92,55.51 -19.63,55.7C-19.05,55.75 -18.46,55.78 -17.87,55.78C-6.15,55.78 3.44,46.13 4.92,32.83C5.63,26.49 4.58,20 1.89,14.08C0.84,11.77 0.21,9.59 0,7.59" style="fill:white;fill-rule:nonzero;"/>
                </g>
                <g transform="matrix(1,0,0,1,318.3724,170.0325)">
                    <path d="M0,7.07C-0.06,6.51 -0.09,5.94 -0.09,5.35C-0.09,4.79 -0.06,4.24 0,3.74C0.14,2.46 0.56,1.17 1.25,-0.07C4.48,-5.88 5.78,-12.81 5.03,-20.12C3.9,-31.08 -1.99,-40.96 -10.12,-46.43C-12.37,-47.95 -14.8,-49.12 -17.34,-49.89C-17.71,-50 -18.08,-50.1 -18.46,-50.2C-20.43,-50.7 -22.44,-50.95 -24.44,-50.95C-37.03,-50.95 -47.36,-41.22 -49.57,-27.28C-49.91,-25.15 -50.02,-20.9 -50.07,-8.34C-49.89,-8.36 -49.7,-8.37 -49.51,-8.37C-49.17,-8.37 -48.83,-8.34 -48.49,-8.28L-47.57,-8.1L-45.07,-7.62C-45.05,-12.67 -45.02,-16.43 -44.98,-19.24C-44.97,-19.74 -44.96,-20.22 -44.95,-20.66C-44.95,-20.79 -44.94,-20.91 -44.94,-21.03C-44.94,-21.21 -44.93,-21.39 -44.93,-21.56C-44.9,-22.72 -44.86,-23.66 -44.82,-24.41C-44.81,-24.55 -44.81,-24.68 -44.8,-24.8L-44.8,-24.84C-44.78,-25.02 -44.77,-25.18 -44.76,-25.33C-44.76,-25.36 -44.76,-25.39 -44.75,-25.41C-44.75,-25.5 -44.74,-25.59 -44.73,-25.67C-44.7,-26 -44.67,-26.27 -44.63,-26.5C-42.82,-37.95 -34.51,-45.95 -24.44,-45.95C-22.55,-45.95 -20.65,-45.66 -18.78,-45.1C-18.52,-45.02 -18.27,-44.94 -18.01,-44.85C-17.33,-44.62 -16.66,-44.34 -16,-44.03C-15.81,-43.95 -15.62,-43.86 -15.44,-43.76C-15.28,-43.69 -15.13,-43.62 -14.98,-43.53C-14.77,-43.42 -14.56,-43.31 -14.36,-43.19C-13.31,-42.6 -12.3,-41.92 -11.33,-41.15C-11.16,-41.02 -10.98,-40.88 -10.81,-40.73C-10.65,-40.6 -10.48,-40.46 -10.32,-40.31C-10.06,-40.09 -9.8,-39.86 -9.55,-39.62C-4.37,-34.74 -0.75,-27.51 0.06,-19.61C0.7,-13.32 -0.39,-7.4 -3.12,-2.5C-4.13,-0.67 -4.76,1.24 -4.97,3.19C-5.05,3.87 -5.09,4.6 -5.09,5.34C-5.09,6.1 -5.05,6.85 -4.98,7.58C-4.74,9.85 -4.04,12.3 -2.88,14.85C-0.37,20.37 0.6,26.4 -0.05,32.29C-1.39,44.3 -9.93,53.02 -20.37,53.02C-20.88,53.02 -21.4,53 -21.92,52.95C-23.41,52.83 -24.87,52.53 -26.29,52.06C-26.64,51.96 -26.98,51.84 -27.32,51.7C-27.63,51.59 -27.94,51.47 -28.24,51.33C-28.32,51.29 -28.41,51.26 -28.49,51.22C-28.75,51.1 -29.02,50.98 -29.28,50.85C-29.32,50.83 -29.37,50.8 -29.42,50.78C-29.68,50.65 -29.93,50.51 -30.19,50.37C-30.28,50.32 -30.38,50.26 -30.47,50.21C-30.74,50.06 -31.01,49.89 -31.28,49.72C-31.6,49.52 -31.91,49.32 -32.22,49.1C-32.53,48.89 -32.84,48.67 -33.14,48.43C-33.44,48.21 -33.73,47.97 -34.01,47.73C-34.02,47.73 -34.03,47.72 -34.04,47.71L-34.05,47.71C-34.33,47.47 -34.62,47.23 -34.89,46.97C-34.96,46.91 -35.03,46.85 -35.1,46.78C-35.18,46.71 -35.26,46.63 -35.34,46.55C-35.37,46.53 -35.39,46.51 -35.42,46.48C-35.6,46.31 -35.78,46.13 -35.96,45.94C-36.01,45.9 -36.05,45.86 -36.1,45.8C-36.22,45.68 -36.35,45.55 -36.47,45.42C-36.81,45.06 -37.14,44.69 -37.46,44.31C-37.76,43.96 -38.06,43.6 -38.34,43.22C-38.57,42.92 -38.8,42.61 -39.02,42.3C-39.22,42.03 -39.41,41.76 -39.59,41.48C-40.24,40.51 -40.85,39.49 -41.39,38.43C-41.57,38.08 -41.75,37.73 -41.92,37.37C-42.06,37.07 -42.2,36.77 -42.33,36.46C-42.4,36.3 -42.47,36.14 -42.53,35.98C-42.65,35.7 -42.76,35.42 -42.87,35.13C-43.35,33.88 -43.76,32.59 -44.09,31.26C-44.19,30.9 -44.27,30.54 -44.35,30.17C-44.51,29.44 -44.64,28.7 -44.75,27.95C-44.8,27.64 -44.84,27.25 -44.87,26.75L-44.87,26.74C-44.89,26.5 -44.9,26.23 -44.92,25.93C-44.93,25.78 -44.93,25.62 -44.94,25.45C-44.97,24.88 -44.99,24.23 -45,23.47C-45.02,23 -45.03,22.5 -45.04,21.95C-45.09,18.48 -45.11,13.38 -45.1,5.98L-45.1,5.96L-47.6,5.48L-50.09,4.99L-50.09,5C-50.13,21.71 -50.03,26.37 -49.7,28.67C-49.64,29.1 -49.57,29.53 -49.49,29.95L-49.49,29.96C-48.89,33.27 -47.86,36.43 -46.48,39.35C-45.36,41.76 -43.99,44 -42.42,46.05C-41.16,47.72 -39.75,49.25 -38.24,50.62C-36.08,52.6 -33.71,54.24 -31.18,55.46C-28.38,56.83 -25.4,57.69 -22.33,57.94C-21.68,57.99 -21.02,58.02 -20.37,58.02C-7.34,58.02 3.29,47.43 4.92,32.85C5.67,26.06 4.55,19.12 1.67,12.78C0.74,10.72 0.17,8.8 0,7.07" style="fill:rgb(236,227,208);fill-rule:nonzero;"/>
                </g>
                <g transform="matrix(1,0,0,1,197.2723,90.4325)">
                    <path d="M0,-0.5L-0.71,0L-0.71,-0.01L0,-0.5Z" style="fill:rgb(236,227,208);fill-rule:nonzero;"/>
                </g>
                <g transform="matrix(1,0,0,1,192.9923,93.0025)">
                    <path d="M0,14.98L-1.95,1.26L0.81,-0.66L3.57,-2.57L5.94,14.13C6.17,15.77 5.03,17.29 3.39,17.52C3.25,17.54 3.11,17.55 2.97,17.55C1.5,17.55 0.21,16.47 0,14.98" style="fill:rgb(236,227,208);fill-rule:nonzero;"/>
                </g>
                <g transform="matrix(1,0,0,1,235.8624,86.6725)">
                    <path d="M0,32.87C0.24,34.51 -0.9,36.03 -2.55,36.26C-2.69,36.28 -2.83,36.29 -2.97,36.29C-4.44,36.29 -5.72,35.21 -5.94,33.71L-9.5,8.65L-17.56,9.9C-17.88,9.94 -18.2,9.96 -18.51,9.96C-21.79,9.96 -24.65,7.56 -25.12,4.24C-25.37,2.48 -24.92,0.73 -23.85,-0.7C-22.79,-2.12 -21.23,-3.04 -19.47,-3.29C-18.86,-3.38 -18.23,-3.42 -17.59,-3.42C-15,-3.42 -12.23,-2.73 -9.88,-1.47C-7.74,-0.32 -6.1,1.18 -5.04,2.92C-4.49,3.37 -4.11,4.02 -3.99,4.77C-3.96,4.99 -3.95,5.21 -3.96,5.42C-3.87,5.77 -3.8,6.12 -3.75,6.48L0,32.87Z" style="fill:rgb(236,227,208);fill-rule:nonzero;"/>
                </g>
                <g transform="matrix(1,0,0,1,161.8324,162.5025)">
                    <path d="M0,3.28C0.03,3.44 0.05,3.62 0.08,3.81L0.76,3.58L0,3.28ZM57.11,-87.2C57.1,-87.21 57.08,-87.21 57.07,-87.21L137.15,-49.52L57.11,-87.2ZM121.65,54.5C121.58,54.44 121.51,54.38 121.44,54.31C121.36,54.24 121.28,54.16 121.2,54.08C121.17,54.06 121.15,54.04 121.12,54.01C120.94,53.84 120.76,53.66 120.58,53.47C120.53,53.43 120.49,53.39 120.44,53.33C120.32,53.21 120.19,53.08 120.07,52.95C119.73,52.59 119.4,52.22 119.08,51.84C118.78,51.49 118.48,51.13 118.2,50.75C117.97,50.45 117.74,50.14 117.52,49.83C117.32,49.56 117.13,49.29 116.95,49.01C116.3,48.04 115.69,47.02 115.15,45.96C114.97,45.61 114.79,45.26 114.62,44.9C114.48,44.6 114.34,44.3 114.21,43.99C114.14,43.83 114.07,43.67 114.01,43.51C113.89,43.23 113.78,42.95 113.67,42.66C113.19,41.41 112.78,40.12 112.45,38.79C112.36,38.43 112.27,38.06 112.19,37.7C112.03,36.97 111.9,36.23 111.79,35.48C111.74,35.17 111.7,34.78 111.67,34.28L111.67,34.27L109.32,35.9L109.32,35.91L107.05,37.48L72.29,61.64C71.44,62.22 70.35,62.31 69.42,61.85L55.57,55.06C52.38,56.93 48.74,57.87 44.65,57.87C41.79,57.87 38.73,57.41 35.45,56.5C34.07,56.12 32.65,55.65 31.2,55.1C26.25,53.23 21.97,50.83 18.25,48.07C18.24,48.06 18.23,48.06 18.22,48.05C10.75,42.54 5.58,35.61 2,28.82L2,28.81L-11.54,22.18L-15.94,-32.89L-16.23,-32.28L-11.66,22.12L-10.67,33.9L-10.12,40.47L-9.93,42.79L-9.89,43.28L-9.15,52.13L-9.14,52.14L-9.14,52.18C-9.11,52.41 -8.96,52.61 -8.75,52.71L-5.83,54.08C-4.41,53.87 -2.95,53.77 -1.44,53.77L-1.44,56.15L-1.43,56.16L-1.43,53.77C6.64,53.77 15.08,56.75 22.33,62.17C26.05,64.95 29.25,68.22 31.78,71.79L71.3,90.39C71.52,90.49 71.79,90.47 71.99,90.33L76.69,87.07L118.3,58.15L120.4,56.7L122.49,55.24C122.21,55 121.92,54.76 121.65,54.5" style="fill:rgb(236,227,208);fill-rule:nonzero;"/>
                </g>
                <g transform="matrix(1,0,0,1,160.3924,242.0825)">
                    <path d="M0,-25.81C-1.51,-25.81 -2.97,-25.71 -4.39,-25.5L-7.31,-26.87L-7.67,-27.04L-7.7,-27.4L-7.7,-27.44L-8.45,-36.3L-8.49,-36.79L-8.45,-36.77L72.98,3.13C73.46,3.09 73.93,2.93 74.34,2.64L115.56,-26L117.6,-27.42L119.64,-28.83C119.93,-28.46 120.22,-28.09 120.52,-27.74C120.84,-27.36 121.17,-26.99 121.51,-26.63C121.63,-26.5 121.76,-26.37 121.88,-26.25C121.93,-26.19 121.97,-26.15 122.02,-26.11C122.2,-25.92 122.38,-25.74 122.56,-25.57C122.59,-25.54 122.61,-25.52 122.64,-25.5C122.72,-25.42 122.8,-25.34 122.88,-25.27C122.95,-25.2 123.02,-25.14 123.09,-25.08C123.36,-24.82 123.65,-24.58 123.93,-24.34L121.84,-22.88L119.74,-21.43L78.13,7.49L73.43,10.75L73.1,10.98L72.74,10.81L33.22,-7.79C30.69,-11.36 27.49,-14.63 23.77,-17.41C16.52,-22.83 8.08,-25.81 0.01,-25.81L0,-25.81Z" style="fill:rgb(65,160,169);fill-rule:nonzero;"/>
                </g>
                <g transform="matrix(1,0,0,1,151.2323,198.7325)">
                    <path d="M0,-2.29L0,-2.3L-0.07,-2.33L-1.06,-14.11L-0.94,-14.05L12.6,-7.42L12.6,-7.41C16.18,-0.62 21.35,6.31 28.82,11.82L0,-2.29Z" style="fill:rgb(201,90,43);fill-rule:nonzero;"/>
                </g>
                <g transform="matrix(1,0,0,1,276.0424,226.4725)">
                    <path d="M0,-19.98L-41.76,9.04C-42.6,9.63 -43.7,9.71 -44.62,9.26L-78.76,-7.47C-75.48,-6.56 -72.42,-6.1 -69.56,-6.1C-65.47,-6.1 -61.83,-7.04 -58.64,-8.91L-44.79,-2.12C-43.86,-1.66 -42.77,-1.75 -41.92,-2.33L-2.54,-29.69C-2.51,-29.19 -2.47,-28.8 -2.42,-28.49C-1.98,-25.5 -1.15,-22.63 0,-19.98" style="fill:rgb(201,90,43);fill-rule:nonzero;"/>
                </g>
                <g transform="matrix(1,0,0,1,280.0323,228.3625)">
                    <path d="M0,-15.11L-45.3,16.36C-45.71,16.65 -46.18,16.81 -46.66,16.85L-128.09,-23.05L-128.13,-23.07L-128.32,-25.39L-128.87,-31.96L-128.8,-31.93L-128.8,-31.92L-99.98,-17.81C-99.97,-17.8 -99.96,-17.8 -99.95,-17.79C-96.23,-15.03 -91.95,-12.63 -87,-10.76C-85.55,-10.21 -84.13,-9.74 -82.75,-9.36L-48.61,7.37C-47.69,7.82 -46.59,7.74 -45.75,7.15L-3.99,-21.87C-2.92,-19.41 -1.57,-17.13 0,-15.11" style="fill:rgb(110,52,122);fill-rule:nonzero;"/>
                </g>
                <g transform="matrix(1,0,0,1,196.5624,237.7725)">
                    <path d="M0,-147.35L-1.26,-156.21L-4.02,-154.29L-6.78,-152.38L-5.52,-143.51L-2.76,-145.43L0,-147.34L0.71,-147.84L0,-147.35ZM-43.84,-22.73L-43.87,-23.09L-43.87,-23.13L-44.62,-32.46L-45.33,-41.33L-45.33,-41.34L-46.27,-53.09L-50.67,-108.16L-50.96,-107.55L-55.928,-97.025C-56.984,-94.788 -57.436,-92.312 -57.239,-89.845L-51.82,-22.1C-51.69,-20.53 -51.11,-19.05 -50.17,-17.84C-49.42,-18.3 -48.64,-18.71 -47.84,-19.08C-45.61,-20.11 -43.17,-20.82 -40.56,-21.19L-43.48,-22.56L-43.84,-22.73ZM-10.46,-149.82L-37.916,-130.744C-39.956,-129.326 -41.588,-127.397 -42.648,-125.151L-47.87,-114.08L-9.2,-140.96L-10.46,-149.82ZM94.49,-16.04C94.18,-16.15 93.87,-16.28 93.57,-16.41C93.49,-16.45 93.4,-16.48 93.32,-16.52C93.06,-16.64 92.79,-16.76 92.53,-16.89C92.49,-16.91 92.44,-16.94 92.39,-16.96C92.13,-17.09 91.88,-17.23 91.62,-17.37C91.53,-17.42 91.43,-17.48 91.34,-17.53C91.07,-17.68 90.8,-17.85 90.53,-18.02C90.21,-18.22 89.9,-18.42 89.59,-18.64C89.28,-18.85 88.97,-19.08 88.67,-19.31C88.37,-19.53 88.08,-19.77 87.8,-20.01C87.79,-20.01 87.78,-20.02 87.77,-20.03L87.76,-20.03L85.67,-18.57L83.57,-17.12L41.96,11.8L37.26,15.06L36.93,15.29L36.57,15.12L-2.95,-3.48C-0.64,-0.24 1.13,3.24 2.25,6.84C2.37,7.21 2.47,7.59 2.58,7.96L33.52,22.53C34.61,23.04 35.77,23.29 36.93,23.29C38.54,23.29 40.13,22.81 41.5,21.86L90.63,-12.28L93.02,-13.94L95.52,-15.68C95.17,-15.79 94.83,-15.91 94.49,-16.04M111.97,-110.88L111.69,-114.17L110.76,-125.29C110.52,-128.13 108.78,-130.64 106.2,-131.86L25.42,-169.88C24.34,-170.39 23.17,-170.64 22.01,-170.64C20.41,-170.64 18.81,-170.16 17.45,-169.21L2.39,-158.75C2.39,-158.68 2.4,-158.62 2.4,-158.55C2.47,-158.23 2.53,-157.91 2.58,-157.59L3.67,-149.9L21.68,-162.41L22.01,-162.64L22.31,-162.5L22.34,-162.48L102.42,-124.79L102.79,-124.62L102.82,-124.22L103.35,-117.94L103.57,-115.28L103.8,-112.59C104.48,-112.36 105.15,-112.08 105.81,-111.77C106,-111.69 106.19,-111.6 106.37,-111.5C106.53,-111.43 106.68,-111.36 106.83,-111.27C107.04,-111.17 107.24,-111.05 107.45,-110.93C108.5,-110.34 109.51,-109.66 110.48,-108.89C110.65,-108.76 110.83,-108.62 111,-108.47C111.16,-108.34 111.33,-108.2 111.49,-108.05C111.75,-107.83 112.01,-107.6 112.26,-107.36L111.97,-110.88Z" style="fill:rgb(236,227,208);fill-rule:nonzero;"/>
                </g>
                <g transform="matrix(1,0,0,1,196.3824,70.8825)">
                    <path d="M0,39.64C-0.14,39.66 -0.28,39.67 -0.42,39.67C-1.89,39.67 -3.18,38.59 -3.39,37.1L-5.34,23.38L-6.6,14.51L-6.95,12.04L-15.01,13.28C-15.33,13.33 -15.66,13.35 -15.97,13.35C-19.25,13.35 -22.1,10.94 -22.58,7.63C-23.09,3.99 -20.55,0.61 -16.92,0.09C-16.31,0.01 -15.68,-0.03 -15.04,-0.03C-12.46,-0.03 -9.69,0.65 -7.33,1.92C-5.19,3.07 -3.55,4.57 -2.49,6.31C-1.95,6.76 -1.56,7.4 -1.45,8.15C-1.41,8.37 -1.4,8.59 -1.42,8.81C-1.32,9.15 -1.25,9.5 -1.2,9.86L-1.08,10.68L0.18,19.54L0.18,19.55L2.55,36.25C2.78,37.89 1.64,39.41 0,39.64" style="fill:rgb(236,227,208);fill-rule:nonzero;"/>
                </g>
                <g transform="matrix(1,0,0,1,233.3124,83.2825)">
                    <path d="M0,39.65C-0.14,39.67 -0.28,39.68 -0.42,39.68C-1.89,39.68 -3.17,38.6 -3.39,37.1L-6.95,12.04L-15.01,13.29C-15.33,13.33 -15.65,13.35 -15.96,13.35C-19.24,13.35 -22.1,10.95 -22.57,7.63C-22.82,5.87 -22.37,4.12 -21.3,2.69C-20.24,1.27 -18.68,0.35 -16.92,0.1C-16.31,0.01 -15.68,-0.03 -15.04,-0.03C-12.45,-0.03 -9.68,0.66 -7.33,1.92C-5.19,3.07 -3.55,4.57 -2.49,6.31C-1.94,6.76 -1.56,7.41 -1.44,8.16C-1.41,8.38 -1.4,8.6 -1.41,8.81C-1.32,9.16 -1.25,9.51 -1.2,9.87L2.55,36.26C2.79,37.9 1.65,39.42 0,39.65" style="fill:rgb(236,227,208);fill-rule:nonzero;"/>
                </g>
                <g transform="matrix(1,0,0,1,162.5924,166.0125)">
                    <path d="M0,0.07L-0.68,0.3C-0.71,0.11 -0.73,-0.07 -0.76,-0.23L0,0.07Z" style="fill:rgb(236,227,208);fill-rule:nonzero;"/>
                </g>
                <g transform="matrix(1,0,0,1,238.4923,175.8525)">
                    <path d="M0,-51.69C-1.12,-50.19 -2.76,-49.22 -4.61,-48.96C-4.93,-48.92 -5.27,-48.89 -5.6,-48.89C-9.06,-48.89 -12.04,-51.48 -12.53,-54.91L-15.52,-75.96L-19.62,-75.33C-20.12,-75.25 -20.64,-75.22 -21.14,-75.22C-26.43,-75.22 -30.97,-79.15 -31.71,-84.37C-32.11,-87.19 -31.39,-90 -29.68,-92.28C-27.97,-94.56 -25.48,-96.03 -22.65,-96.43C-21.87,-96.54 -21.05,-96.6 -20.22,-96.6C-16.94,-96.6 -13.53,-95.74 -10.61,-94.17C-8.07,-92.8 -5.99,-90.97 -4.56,-88.83C-3.56,-87.79 -2.89,-86.47 -2.67,-85.02C-2.63,-84.76 -2.6,-84.49 -2.59,-84.23C-2.52,-83.91 -2.46,-83.58 -2.42,-83.27L1.33,-56.88C1.6,-55.03 1.12,-53.18 0,-51.69M-35.4,20.29L-36.11,7.03L-41.49,5L-41.56,3.72L-42.2,-8.25L-36.82,-6.23L-37.52,-19.48L-26.76,-15.43L-26.06,-2.17L-31.44,-4.2L-30.79,7.95L-30.73,9.05L-30.73,9.06L-25.35,11.08L-24.64,24.34L-35.4,20.29ZM-54.04,13.27L-64.79,9.22L-65.5,-4.04L-63.34,-3.23L-63.43,-4.87L-64.05,-16.48L-66.21,-17.3L-66.92,-30.55L-56.16,-26.5L-55.45,-13.24L-53.29,-12.43L-52.67,-0.64L-52.59,0.82L-54.74,0.01L-54.04,13.27ZM61.64,-53.36L61.42,-56.02L60.89,-62.3C60.87,-62.55 60.72,-62.76 60.49,-62.87L-19.59,-100.56L-19.62,-100.58C-19.83,-100.65 -20.06,-100.62 -20.25,-100.49L-38.26,-87.98L-35.6,-69.28C-35.34,-67.43 -35.81,-65.59 -36.93,-64.09C-38.06,-62.6 -39.7,-61.63 -41.54,-61.37C-41.87,-61.32 -42.2,-61.3 -42.53,-61.3C-46,-61.3 -48.97,-63.88 -49.46,-67.31L-51.13,-79.03L-89.8,-52.16L-92.6,-46.24L-88.2,8.83L-74.66,15.46C-79.56,6.2 -81.48,-2.8 -82.21,-7.58L-83.86,-7L-86.97,-14.02L-77.88,-17.19L-74.76,-10.17L-75.9,-9.77L-76.58,-9.54C-75.89,-4.61 -73.27,8.85 -64.45,20.47C-59.57,26.9 -52.8,32.76 -43.4,36.3C-37.42,38.55 -32.31,39.21 -28.12,38.27C-26.32,37.87 -24.7,37.18 -23.25,36.19C-15.7,31.03 -14.52,19.22 -14.34,16.24L-17.69,13.92L-17.49,13.18L-16.25,8.61L-4.58,16.71L-6.02,22.02L-8.87,20.04C-9.68,25.79 -12.18,35.66 -19.94,40.98C-20.32,41.24 -20.7,41.48 -21.09,41.71L-7.24,48.5C-6.31,48.96 -5.22,48.87 -4.37,48.29L30.39,24.13L32.66,22.56L32.66,22.55L35.01,20.92C34.99,20.68 34.98,20.41 34.96,20.11C34.95,19.96 34.95,19.8 34.94,19.63C34.91,19.06 34.89,18.41 34.88,17.65C34.86,17.18 34.85,16.68 34.84,16.13C34.79,12.66 34.77,7.56 34.78,0.16L32.28,-0.32L30.16,-0.73C30.03,-0.75 29.91,-0.78 29.79,-0.82C29.75,-0.82 29.71,-0.83 29.68,-0.85C26.86,-1.64 24.8,-4.61 24.81,-7.94C24.82,-11.29 26.93,-13.86 29.81,-14.16C29.99,-14.18 30.18,-14.19 30.37,-14.19C30.71,-14.19 31.05,-14.16 31.39,-14.1L32.31,-13.92L34.81,-13.44C34.83,-18.49 34.86,-22.25 34.9,-25.06C34.91,-25.56 34.92,-26.04 34.93,-26.48C34.93,-26.61 34.94,-26.73 34.94,-26.85C34.94,-27.03 34.95,-27.21 34.95,-27.38C34.98,-28.54 35.02,-29.48 35.06,-30.23C35.07,-30.37 35.07,-30.5 35.08,-30.62L35.08,-30.66C35.1,-30.84 35.11,-31 35.12,-31.15C35.12,-31.18 35.12,-31.21 35.13,-31.23C35.13,-31.32 35.14,-31.41 35.15,-31.49C35.18,-31.82 35.21,-32.09 35.25,-32.32C37.06,-43.77 45.37,-51.77 55.44,-51.77C57.33,-51.77 59.23,-51.48 61.1,-50.92C61.36,-50.84 61.61,-50.76 61.87,-50.67L61.64,-53.36Z" style="fill:rgb(236,227,208);fill-rule:nonzero;"/>
                </g>
                <g transform="matrix(1,0,0,1,162.5924,166.0125)">
                    <path d="M0,0.07L-0.68,0.3C-0.71,0.11 -0.73,-0.07 -0.76,-0.23L0,0.07Z" style="fill:rgb(6,0,1);fill-rule:nonzero;"/>
                </g>
                <g>
                    <clipPath id="_clip2">
                        <path d="M287.053,194.31C287.041,200.575 290.974,206.405 295.846,207.34C297.453,207.648 298.961,207.386 300.259,206.671L301.424,205.862C303.409,204.164 304.679,201.242 304.686,197.695C304.699,191.447 300.766,185.619 295.893,184.684C295.446,184.598 295.007,184.556 294.576,184.556C290.327,184.556 287.065,188.636 287.053,194.31Z" clip-rule="nonzero"/>
                    </clipPath>
                    <g clip-path="url(#_clip2)">
                        <g transform="matrix(1,0,0,1,107.2478,231.0726)">
                            <path d="M0,-30.069L127.702,32.509L243.516,-47.961L233.36,-62.578L127.507,10.97C126.663,11.557 125.566,11.641 124.643,11.188L7.832,-46.053L0,-30.069Z" style="fill:rgb(222,101,29);fill-rule:nonzero;"/>
                        </g>
                        <g transform="matrix(1,0,0,1,106.6114,213.1683)">
                            <path d="M0,-30.069L127.702,32.509L243.516,-47.961L233.36,-62.578L127.507,10.97C126.663,11.557 125.566,11.641 124.643,11.188L7.832,-46.053L0,-30.069Z" style="fill:rgb(201,90,43);fill-rule:nonzero;"/>
                        </g>
                        <g transform="matrix(1,0,0,1,106.7764,224.5415)">
                            <path d="M0,-30.069L127.702,32.509L243.516,-47.961L233.36,-62.578L127.507,10.97C126.663,11.557 125.566,11.641 124.643,11.188L7.832,-46.053L0,-30.069Z" style="fill:rgb(110,52,122);fill-rule:nonzero;"/>
                        </g>
                        <g transform="matrix(1,0,0,1,107.2203,233.7559)">
                            <path d="M0,-30.069L127.702,32.509L243.516,-47.961L233.36,-62.578L127.507,10.97C126.663,11.557 125.566,11.641 124.643,11.188L7.832,-46.053L0,-30.069Z" style="fill:rgb(65,160,169);fill-rule:nonzero;"/>
                        </g>
                    </g>
                </g>
                <g transform="matrix(1,0,0,1,302.3925,153.9625)">
                    <path d="M0,-4.54L0.38,0C0.42,-0.38 0.44,-0.76 0.44,-1.16C0.44,-2.31 0.29,-3.45 0,-4.54" style="fill:rgb(158,158,158);fill-rule:nonzero;"/>
                </g>
                <g transform="matrix(1,0,0,1,302.8324,150.5825)">
                    <path d="M0,2.22C0,2.62 -0.02,3 -0.06,3.38L-0.44,-1.16C-0.15,-0.07 0,1.07 0,2.22" style="fill:rgb(236,227,208);fill-rule:nonzero;"/>
                </g>
                <g transform="matrix(1,0,0,1,290.6824,167.9225)">
                    <path d="M0,4.63C0,6.39 -1.01,7.66 -2.33,7.66C-2.46,7.66 -2.6,7.65 -2.74,7.62L-9.4,6.34L-17.4,4.8L-19.9,4.32L-21.43,4.03C-21.77,3.96 -22.1,3.82 -22.4,3.61C-23.43,2.91 -24.16,1.49 -24.15,-0.01C-24.15,-1.51 -23.42,-2.64 -22.39,-2.94C-22.21,-3 -22.02,-3.03 -21.82,-3.03C-21.69,-3.03 -21.55,-3.02 -21.41,-3L-19.89,-2.71L-17.39,-2.23L-9.39,-0.69L-2.72,0.59C-1.22,0.88 0,2.69 0,4.63" style="fill:rgb(236,227,208);fill-rule:nonzero;"/>
                </g>
                <g transform="matrix(1,0,0,1,302.7723,193.1725)">
                    <path d="M0,-39.21C-0.23,-36.85 -1.16,-34.81 -2.59,-33.63C-3.7,-32.72 -5.05,-32.38 -6.47,-32.65C-10.39,-33.4 -13.7,-38.49 -13.69,-43.75C-13.68,-46.66 -12.71,-49.12 -11.03,-50.51C-10.17,-51.22 -9.17,-51.58 -8.1,-51.58C-7.79,-51.58 -7.47,-51.55 -7.15,-51.49C-4.09,-50.9 -1.4,-47.66 -0.38,-43.75C-0.09,-42.66 0.06,-41.52 0.06,-40.37C0.06,-39.97 0.04,-39.59 0,-39.21M-0.03,4.52C-0.03,7.38 -1.03,9.91 -2.69,11.28C-3.8,12.19 -5.14,12.53 -6.56,12.26C-7.58,12.06 -8.57,11.57 -9.46,10.85C-11.33,9.35 -12.81,6.87 -13.45,4.09C-13.66,3.13 -13.78,2.14 -13.78,1.14C-13.77,-1.71 -12.78,-4.23 -11.12,-5.6C-10.01,-6.51 -8.67,-6.85 -7.25,-6.58C-5.52,-6.25 -3.91,-5.08 -2.65,-3.41C-1.09,-1.36 -0.08,1.43 -0.03,4.3L-0.03,4.52ZM2.67,-14.75C2.56,-15.78 2.51,-16.8 2.51,-17.82C2.51,-18.83 2.57,-19.84 2.68,-20.82C3.03,-24.06 4.08,-26.98 5.49,-29.52C7.3,-32.79 8.2,-37.08 7.7,-41.93C6.98,-48.94 3.26,-55.38 -1.64,-58.71C-2.86,-59.54 -4.15,-60.18 -5.49,-60.58C-6.63,-60.92 -7.75,-61.09 -8.84,-61.09C-14.86,-61.09 -19.91,-56.08 -21.13,-48.39C-21.38,-46.84 -21.44,-38.67 -21.48,-29.23L-14.21,-27.83C-11.15,-27.24 -8.85,-24.14 -8.86,-20.61C-8.87,-17.05 -11.26,-14.36 -14.42,-14.36C-14.76,-14.36 -15.1,-14.4 -15.44,-14.46L-21.5,-15.62C-21.51,-10.31 -21.5,-5.4 -21.44,-1.83C-21.4,0.96 -21.34,2.93 -21.24,3.65C-20.99,5.38 -20.57,7.05 -19.99,8.64C-19.07,11.21 -17.77,13.56 -16.19,15.53C-14.82,17.26 -13.25,18.71 -11.55,19.78C-9.7,20.95 -7.71,21.67 -5.66,21.84C-5.36,21.87 -5.06,21.88 -4.77,21.88C1.55,21.88 6.7,16.3 7.6,8.27C8.11,3.62 7.24,-1.02 5.44,-4.98C4.04,-8.05 3.01,-11.38 2.67,-14.75" style="fill:rgb(236,227,208);fill-rule:nonzero;"/>
                </g>
                <g transform="matrix(1,0,0,1,195.3524,247.1325)">
                    <path d="M0,-1.44C-0.21,-2.1 -0.43,-2.76 -0.7,-3.41C-0.7,-3.45 -0.72,-3.49 -0.75,-3.53C-2.63,-8.32 -5.8,-12.86 -9.93,-16.7C-11.01,-17.7 -12.16,-18.65 -13.36,-19.55C-19.1,-23.84 -25.62,-26.47 -32,-27.09C-32.99,-27.19 -33.97,-27.24 -34.95,-27.24L-34.95,-23.61C-28.71,-23.61 -21.73,-21.28 -15.53,-16.65C-11.41,-13.57 -8.17,-9.87 -5.95,-5.98C-5.91,-5.93 -5.88,-5.87 -5.85,-5.82C-1.58,1.72 -1.12,9.95 -5.44,15.72C-8.65,20.03 -13.94,22.18 -19.92,22.18C-26.15,22.18 -33.14,19.85 -39.34,15.21C-51.49,6.13 -56.01,-8.36 -49.44,-17.16C-47.5,-19.75 -44.81,-21.56 -41.67,-22.58C-41.58,-22.62 -41.49,-22.65 -41.4,-22.67C-39.4,-23.3 -37.23,-23.61 -34.96,-23.61L-34.95,-23.61L-34.96,-27.24C-39.03,-27.24 -42.72,-26.39 -45.86,-24.78L-46.1,-24.66C-48.57,-23.35 -50.68,-21.56 -52.34,-19.33C-60.1,-8.94 -55.25,7.86 -41.51,18.12C-34.88,23.08 -27.21,25.8 -19.92,25.8C-12.52,25.8 -6.34,23 -2.53,17.9C1.36,12.68 2.26,5.82 0,-1.44" style="fill:rgb(6,0,1);fill-rule:nonzero;"/>
                </g>
                <g transform="matrix(1,0,0,1,192.8224,227.7925)">
                    <path d="M0,37.24C-3.81,42.34 -9.99,45.14 -17.39,45.14C-24.68,45.14 -32.35,42.42 -38.98,37.46C-52.72,27.2 -57.57,10.4 -49.81,0.01C-48.15,-2.22 -46.04,-4.01 -43.57,-5.32L-43.33,-5.44C-40.19,-7.05 -36.5,-7.9 -32.43,-7.9L-32.42,-7.9C-31.44,-7.9 -30.46,-7.85 -29.47,-7.75C-23.09,-7.13 -16.57,-4.5 -10.83,-0.21C-9.63,0.69 -8.48,1.64 -7.4,2.64C-3.27,6.48 -0.1,11.02 1.78,15.81C1.81,15.85 1.83,15.89 1.83,15.93C2.1,16.58 2.32,17.24 2.53,17.9C4.79,25.16 3.89,32.02 0,37.24" style="fill:rgb(47,48,47);fill-rule:nonzero;"/>
                </g>
            </g>
        </g>
    </g>
</svg>
