<?xml version="1.0" encoding="UTF-8" standalone="no"?>
<!DOCTYPE svg PUBLIC "-//W3C//DTD SVG 1.1//EN" "http://www.w3.org/Graphics/SVG/1.1/DTD/svg11.dtd">
<svg width="100%" height="100%" viewBox="0 0 3172 1415" version="1.1" xmlns="http://www.w3.org/2000/svg" xmlns:xlink="http://www.w3.org/1999/xlink" xml:space="preserve" xmlns:serif="http://www.serif.com/" style="fill-rule:evenodd;clip-rule:evenodd;stroke-miterlimit:10;">
    <g transform="matrix(1,0,0,1,-17745.84375,0)">
        <g id="Page-3" serif:id="Page 3" transform="matrix(4.166667,0,0,4.166667,17745.84375,0)">
            <rect x="0" y="0" width="761.207" height="339.421" style="fill:none;"/>
            <g id="图层-1" serif:id="图层 1">
                <g transform="matrix(1,0,0,1,196.5627,89.9425)">
                    <path d="M0,0.48L0,0.49L0.709,-0.01L0,0.48Z" style="fill:rgb(236,227,208);fill-rule:nonzero;"/>
                </g>
                <g transform="matrix(1,0,0,1,192.9923,93.0025)">
                    <path d="M0,14.98L-1.95,1.26L0.81,-0.66L3.57,-2.57L5.94,14.13C6.17,15.77 5.03,17.29 3.39,17.52C3.25,17.54 3.11,17.55 2.97,17.55C1.5,17.55 0.21,16.47 0,14.98" style="fill:rgb(236,227,208);fill-rule:nonzero;"/>
                </g>
                <g transform="matrix(1,0,0,1,235.8624,86.6725)">
                    <path d="M0,32.87C0.24,34.51 -0.9,36.03 -2.55,36.26C-2.69,36.28 -2.83,36.29 -2.97,36.29C-4.44,36.29 -5.72,35.21 -5.94,33.71L-9.5,8.65L-17.56,9.9C-17.88,9.94 -18.2,9.96 -18.51,9.96C-21.79,9.96 -24.65,7.56 -25.12,4.24C-25.37,2.48 -24.92,0.73 -23.85,-0.7C-22.79,-2.12 -21.23,-3.04 -19.47,-3.29C-18.86,-3.38 -18.23,-3.42 -17.59,-3.42C-15,-3.42 -12.23,-2.73 -9.88,-1.47C-7.74,-0.32 -6.1,1.18 -5.04,2.92C-4.49,3.37 -4.11,4.02 -3.99,4.77C-3.96,4.99 -3.95,5.21 -3.96,5.42C-3.87,5.77 -3.8,6.12 -3.75,6.48L0,32.87Z" style="fill:rgb(236,227,208);fill-rule:nonzero;"/>
                </g>
                <g transform="matrix(1,0,0,1,280.0323,115.0325)">
                    <path d="M0,98.22C-1.57,96.2 -2.92,93.92 -3.99,91.46C-5.14,88.81 -5.97,85.94 -6.41,82.95C-6.46,82.64 -6.5,82.25 -6.53,81.75L-6.53,81.74L-45.91,109.11C-46.76,109.69 -47.85,109.78 -48.78,109.32L-62.63,102.53C-65.82,104.4 -69.46,105.34 -73.55,105.34C-76.41,105.34 -79.47,104.88 -82.75,103.97C-84.13,103.59 -85.55,103.12 -87,102.57C-91.95,100.7 -96.23,98.3 -99.95,95.54C-99.96,95.53 -99.97,95.53 -99.98,95.52C-107.45,90.01 -112.62,83.08 -116.2,76.29L-116.2,76.28L-129.74,69.65L-134.44,10.81C-134.65,10.95 -134.76,11.19 -134.74,11.44L-129.86,69.59L-128.87,81.37L-128.32,87.94L-128.13,90.26L-128.09,90.75L-127.35,99.6L-127.34,99.61L-127.34,99.65C-127.31,99.88 -127.16,100.08 -126.95,100.18L-46.9,137.86C-46.68,137.96 -46.41,137.94 -46.21,137.8L-41.51,134.54L4.29,102.71C2.73,101.4 1.29,99.91 0,98.22M-61.09,-39.73C-61.1,-39.74 -61.12,-39.74 -61.13,-39.74L18.95,-2.05L-61.09,-39.73ZM-118.2,50.75C-118.17,50.91 -118.15,51.09 -118.12,51.28L-117.44,51.05L-118.2,50.75Z" style="fill:rgb(236,227,208);fill-rule:nonzero;"/>
                </g>
                <g transform="matrix(1,0,0,1,284.3224,240.6125)">
                    <path d="M0,-22.87L-45.8,8.96L-50.5,12.22L-50.83,12.45L-51.19,12.28L-131.24,-25.4L-131.6,-25.57L-131.63,-25.93L-131.63,-25.97L-132.38,-34.83L-132.42,-35.32L-132.38,-35.3L-50.95,4.6C-50.47,4.56 -50,4.4 -49.59,4.11L-4.29,-27.36C-3,-25.67 -1.56,-24.18 0,-22.87" style="fill:rgb(65,160,169);fill-rule:nonzero;"/>
                </g>
                <g transform="matrix(1,0,0,1,151.2323,198.7325)">
                    <path d="M0,-2.29L0,-2.3L-0.07,-2.33L-1.06,-14.11L-0.94,-14.05L12.6,-7.42L12.6,-7.41C16.18,-0.62 21.35,6.31 28.82,11.82L0,-2.29Z" style="fill:rgb(201,90,43);fill-rule:nonzero;"/>
                </g>
                <g transform="matrix(1,0,0,1,276.0424,226.4725)">
                    <path d="M0,-19.98L-41.76,9.04C-42.6,9.63 -43.7,9.71 -44.62,9.26L-78.76,-7.47C-75.48,-6.56 -72.42,-6.1 -69.56,-6.1C-65.47,-6.1 -61.83,-7.04 -58.64,-8.91L-44.79,-2.12C-43.86,-1.66 -42.77,-1.75 -41.92,-2.33L-2.54,-29.69C-2.51,-29.19 -2.47,-28.8 -2.42,-28.49C-1.98,-25.5 -1.15,-22.63 0,-19.98" style="fill:rgb(201,90,43);fill-rule:nonzero;"/>
                </g>
                <g transform="matrix(1,0,0,1,280.0323,228.3625)">
                    <path d="M0,-15.11L-45.3,16.36C-45.71,16.65 -46.18,16.81 -46.66,16.85L-128.09,-23.05L-128.13,-23.07L-128.32,-25.39L-128.87,-31.96L-128.8,-31.93L-128.8,-31.92L-99.98,-17.81C-99.97,-17.8 -99.96,-17.8 -99.95,-17.79C-96.23,-15.03 -91.95,-12.63 -87,-10.76C-85.55,-10.21 -84.13,-9.74 -82.75,-9.36L-48.61,7.37C-47.69,7.82 -46.59,7.74 -45.75,7.15L-3.99,-21.87C-2.92,-19.41 -1.57,-17.13 0,-15.11" style="fill:rgb(110,52,122);fill-rule:nonzero;"/>
                </g>
                <g transform="matrix(1,0,0,1,307.3224,108.6125)">
                    <path d="M0,3.87C-0.24,1.03 -1.98,-1.48 -4.56,-2.7L-85.34,-40.72C-86.42,-41.23 -87.59,-41.48 -88.75,-41.48C-90.35,-41.48 -91.95,-41 -93.31,-40.05L-108.37,-29.59C-108.37,-29.52 -108.36,-29.46 -108.36,-29.39C-108.29,-29.07 -108.23,-28.75 -108.18,-28.43L-107.09,-20.74L-89.08,-33.25L-88.75,-33.48L-88.45,-33.34L-88.42,-33.32L-8.34,4.37L-7.97,4.54L-7.94,4.94L-6.96,16.57C-3.87,17.63 -1,19.44 1.5,21.8L0,3.87ZM-4.93,40.81L-4.55,45.35C-4.51,44.97 -4.49,44.59 -4.49,44.19C-4.49,43.04 -4.64,41.9 -4.93,40.81M-110.76,-18.19L-112.02,-27.05L-114.78,-25.13L-117.54,-23.22L-116.28,-14.35L-113.52,-16.27L-110.76,-18.18L-110.05,-18.68L-110.76,-18.19Z" style="fill:rgb(236,227,208);fill-rule:nonzero;"/>
                </g>
                <g transform="matrix(1,0,0,1,196.3824,70.8825)">
                    <path d="M0,39.64C-0.14,39.66 -0.28,39.67 -0.42,39.67C-1.89,39.67 -3.18,38.59 -3.39,37.1L-5.34,23.38L-6.6,14.51L-6.95,12.04L-15.01,13.28C-15.33,13.33 -15.66,13.35 -15.97,13.35C-19.25,13.35 -22.1,10.94 -22.58,7.63C-23.09,3.99 -20.55,0.61 -16.92,0.09C-16.31,0.01 -15.68,-0.03 -15.04,-0.03C-12.46,-0.03 -9.69,0.65 -7.33,1.92C-5.19,3.07 -3.55,4.57 -2.49,6.31C-1.95,6.76 -1.56,7.4 -1.45,8.15C-1.41,8.37 -1.4,8.59 -1.42,8.81C-1.32,9.15 -1.25,9.5 -1.2,9.86L-1.08,10.68L0.18,19.54L0.18,19.55L2.55,36.25C2.78,37.89 1.64,39.41 0,39.64" style="fill:rgb(236,227,208);fill-rule:nonzero;"/>
                </g>
                <g transform="matrix(1,0,0,1,233.3124,83.2825)">
                    <path d="M0,39.65C-0.14,39.67 -0.28,39.68 -0.42,39.68C-1.89,39.68 -3.17,38.6 -3.39,37.1L-6.95,12.04L-15.01,13.29C-15.33,13.33 -15.65,13.35 -15.96,13.35C-19.24,13.35 -22.1,10.95 -22.57,7.63C-22.82,5.87 -22.37,4.12 -21.3,2.69C-20.24,1.27 -18.68,0.35 -16.92,0.1C-16.31,0.01 -15.68,-0.03 -15.04,-0.03C-12.45,-0.03 -9.68,0.66 -7.33,1.92C-5.19,3.07 -3.55,4.57 -2.49,6.31C-1.94,6.76 -1.56,7.41 -1.44,8.16C-1.41,8.38 -1.4,8.6 -1.41,8.81C-1.32,9.16 -1.25,9.51 -1.2,9.87L2.55,36.26C2.79,37.9 1.65,39.42 0,39.65" style="fill:rgb(236,227,208);fill-rule:nonzero;"/>
                </g>
                <g transform="matrix(1,0,0,1,162.5924,166.0125)">
                    <path d="M0,0.07L-0.68,0.3C-0.71,0.11 -0.73,-0.07 -0.76,-0.23L0,0.07Z" style="fill:rgb(236,227,208);fill-rule:nonzero;"/>
                </g>
                <g transform="matrix(1,0,0,1,238.4923,175.8525)">
                    <path d="M0,-51.69C-1.12,-50.19 -2.76,-49.22 -4.61,-48.96C-4.93,-48.92 -5.27,-48.89 -5.6,-48.89C-9.06,-48.89 -12.04,-51.48 -12.53,-54.91L-15.52,-75.96L-19.62,-75.33C-20.12,-75.25 -20.64,-75.22 -21.14,-75.22C-26.43,-75.22 -30.97,-79.15 -31.71,-84.37C-32.11,-87.19 -31.39,-90 -29.68,-92.28C-27.97,-94.56 -25.48,-96.03 -22.65,-96.43C-21.87,-96.54 -21.05,-96.6 -20.22,-96.6C-16.94,-96.6 -13.53,-95.74 -10.61,-94.17C-8.07,-92.8 -5.99,-90.97 -4.56,-88.83C-3.56,-87.79 -2.89,-86.47 -2.67,-85.02C-2.63,-84.76 -2.6,-84.49 -2.59,-84.23C-2.52,-83.91 -2.46,-83.58 -2.42,-83.27L1.33,-56.88C1.6,-55.03 1.12,-53.18 0,-51.69M-35.4,20.29L-36.11,7.03L-41.49,5L-41.56,3.72L-42.2,-8.25L-36.82,-6.23L-37.52,-19.48L-26.76,-15.43L-26.06,-2.17L-31.44,-4.2L-30.79,7.95L-30.73,9.05L-30.73,9.06L-25.35,11.08L-24.64,24.34L-35.4,20.29ZM-54.04,13.27L-64.79,9.22L-65.5,-4.04L-63.34,-3.23L-63.43,-4.87L-64.05,-16.48L-66.21,-17.3L-66.92,-30.55L-56.16,-26.5L-55.45,-13.24L-53.29,-12.43L-52.67,-0.64L-52.59,0.82L-54.74,0.01L-54.04,13.27ZM60.89,-62.3C60.87,-62.55 60.72,-62.76 60.49,-62.87L-19.59,-100.56L-19.62,-100.58C-19.83,-100.65 -20.06,-100.62 -20.25,-100.49L-38.26,-87.98L-35.6,-69.28C-35.34,-67.43 -35.81,-65.59 -36.93,-64.09C-38.06,-62.6 -39.7,-61.63 -41.54,-61.37C-41.87,-61.32 -42.2,-61.3 -42.53,-61.3C-46,-61.3 -48.97,-63.88 -49.46,-67.31L-51.13,-79.03L-92.9,-50.01L-88.2,8.83L-74.66,15.46C-79.56,6.2 -81.48,-2.8 -82.21,-7.58L-83.86,-7L-86.97,-14.02L-77.88,-17.19L-74.76,-10.17L-75.9,-9.77L-76.58,-9.54C-75.89,-4.61 -73.27,8.85 -64.45,20.47C-59.57,26.9 -52.8,32.76 -43.4,36.3C-37.42,38.55 -32.31,39.21 -28.12,38.27C-26.32,37.87 -24.7,37.18 -23.25,36.19C-15.7,31.03 -14.52,19.22 -14.34,16.24L-17.69,13.92L-17.49,13.18L-16.25,8.61L-4.58,16.71L-6.02,22.02L-8.87,20.04C-9.68,25.79 -12.18,35.66 -19.94,40.98C-20.32,41.24 -20.7,41.48 -21.09,41.71L-7.24,48.5C-6.31,48.96 -5.22,48.87 -4.37,48.29L35.01,20.92C34.81,18.15 34.77,12.21 34.78,0.16L30.16,-0.73C27.1,-1.31 24.8,-4.42 24.81,-7.94C24.82,-11.51 27.21,-14.19 30.37,-14.19C30.71,-14.19 31.05,-14.16 31.39,-14.1L34.81,-13.44C34.86,-25.86 34.96,-30.48 35.25,-32.32C37.06,-43.77 45.37,-51.77 55.44,-51.77C57.33,-51.77 59.23,-51.48 61.1,-50.92C61.36,-50.84 61.61,-50.76 61.87,-50.67L60.89,-62.3Z" style="fill:rgb(236,227,208);fill-rule:nonzero;"/>
                </g>
                <g transform="matrix(1,0,0,1,162.5924,166.0125)">
                    <path d="M0,0.07L-0.68,0.3C-0.71,0.11 -0.73,-0.07 -0.76,-0.23L0,0.07Z" style="fill:rgb(6,0,1);fill-rule:nonzero;"/>
                </g>
                <g>
                    <clipPath id="_clip1">
                        <path d="M287.053,194.31C287.041,200.575 290.974,206.405 295.846,207.34C297.453,207.648 298.961,207.386 300.259,206.671L301.424,205.862C303.409,204.164 304.679,201.242 304.686,197.695C304.699,191.447 300.766,185.619 295.893,184.684C295.446,184.598 295.007,184.556 294.576,184.556C290.327,184.556 287.065,188.636 287.053,194.31Z" clip-rule="nonzero"/>
                    </clipPath>
                    <g clip-path="url(#_clip1)">
                        <g transform="matrix(1,0,0,1,107.2478,231.0726)">
                            <path d="M0,-30.069L127.702,32.509L243.516,-47.961L233.36,-62.578L127.507,10.97C126.663,11.557 125.566,11.641 124.643,11.188L7.832,-46.053L0,-30.069Z" style="fill:rgb(222,101,29);fill-rule:nonzero;"/>
                        </g>
                        <g transform="matrix(1,0,0,1,106.6114,213.1683)">
                            <path d="M0,-30.069L127.702,32.509L243.516,-47.961L233.36,-62.578L127.507,10.97C126.663,11.557 125.566,11.641 124.643,11.188L7.832,-46.053L0,-30.069Z" style="fill:rgb(201,90,43);fill-rule:nonzero;"/>
                        </g>
                        <g transform="matrix(1,0,0,1,106.7764,224.5415)">
                            <path d="M0,-30.069L127.702,32.509L243.516,-47.961L233.36,-62.578L127.507,10.97C126.663,11.557 125.566,11.641 124.643,11.188L7.832,-46.053L0,-30.069Z" style="fill:rgb(110,52,122);fill-rule:nonzero;"/>
                        </g>
                        <g transform="matrix(1,0,0,1,107.2203,233.7559)">
                            <path d="M0,-30.069L127.702,32.509L243.516,-47.961L233.36,-62.578L127.507,10.97C126.663,11.557 125.566,11.641 124.643,11.188L7.832,-46.053L0,-30.069Z" style="fill:rgb(65,160,169);fill-rule:nonzero;"/>
                        </g>
                    </g>
                </g>
                <g transform="matrix(1,0,0,1,302.3925,153.9625)">
                    <path d="M0,-4.54L0.38,0C0.42,-0.38 0.44,-0.76 0.44,-1.16C0.44,-2.31 0.29,-3.45 0,-4.54" style="fill:rgb(158,158,158);fill-rule:nonzero;"/>
                </g>
                <g transform="matrix(1,0,0,1,302.8324,150.5825)">
                    <path d="M0,2.22C0,2.62 -0.02,3 -0.06,3.38L-0.44,-1.16C-0.15,-0.07 0,1.07 0,2.22" style="fill:rgb(236,227,208);fill-rule:nonzero;"/>
                </g>
                <g transform="matrix(1,0,0,1,290.6824,167.9225)">
                    <path d="M0,4.63C0,6.39 -1.01,7.66 -2.33,7.66C-2.46,7.66 -2.6,7.65 -2.74,7.62L-9.4,6.34L-17.4,4.8L-21.43,4.03C-22.94,3.74 -24.16,1.93 -24.15,-0.01C-24.15,-1.77 -23.14,-3.03 -21.82,-3.03C-21.69,-3.03 -21.55,-3.02 -21.41,-3L-17.39,-2.23L-9.39,-0.69L-2.72,0.59C-1.22,0.88 0,2.69 0,4.63" style="fill:rgb(236,227,208);fill-rule:nonzero;"/>
                </g>
                <g transform="matrix(1,0,0,1,302.7723,193.1725)">
                    <path d="M0,-39.21C-0.23,-36.85 -1.16,-34.81 -2.59,-33.63C-3.7,-32.72 -5.05,-32.38 -6.47,-32.65C-10.39,-33.4 -13.7,-38.49 -13.69,-43.75C-13.68,-46.66 -12.71,-49.12 -11.03,-50.51C-10.17,-51.22 -9.17,-51.58 -8.1,-51.58C-7.79,-51.58 -7.47,-51.55 -7.15,-51.49C-4.09,-50.9 -1.4,-47.66 -0.38,-43.75C-0.09,-42.66 0.06,-41.52 0.06,-40.37C0.06,-39.97 0.04,-39.59 0,-39.21M-0.03,4.52C-0.03,7.38 -1.03,9.91 -2.69,11.28C-3.8,12.19 -5.14,12.53 -6.56,12.26C-7.58,12.06 -8.57,11.57 -9.46,10.85C-11.33,9.35 -12.81,6.87 -13.45,4.09C-13.66,3.13 -13.78,2.14 -13.78,1.14C-13.77,-1.71 -12.78,-4.23 -11.12,-5.6C-10.01,-6.51 -8.67,-6.85 -7.25,-6.58C-5.52,-6.25 -3.91,-5.08 -2.65,-3.41C-1.09,-1.36 -0.08,1.43 -0.03,4.3L-0.03,4.52ZM2.67,-14.75C2.56,-15.78 2.51,-16.8 2.51,-17.82C2.51,-18.83 2.57,-19.84 2.68,-20.82C3.03,-24.06 4.08,-26.98 5.49,-29.52C7.3,-32.79 8.2,-37.08 7.7,-41.93C6.98,-48.94 3.26,-55.38 -1.64,-58.71C-2.86,-59.54 -4.15,-60.18 -5.49,-60.58C-6.63,-60.92 -7.75,-61.09 -8.84,-61.09C-14.86,-61.09 -19.91,-56.08 -21.13,-48.39C-21.38,-46.84 -21.44,-38.67 -21.48,-29.23L-14.21,-27.83C-11.15,-27.24 -8.85,-24.14 -8.86,-20.61C-8.87,-17.05 -11.26,-14.36 -14.42,-14.36C-14.76,-14.36 -15.1,-14.4 -15.44,-14.46L-21.5,-15.62C-21.51,-10.31 -21.5,-5.4 -21.44,-1.83C-21.4,0.96 -21.34,2.93 -21.24,3.65C-20.99,5.38 -20.57,7.05 -19.99,8.64C-19.07,11.21 -17.77,13.56 -16.19,15.53C-14.82,17.26 -13.25,18.71 -11.55,19.78C-9.7,20.95 -7.71,21.67 -5.66,21.84C-5.36,21.87 -5.06,21.88 -4.77,21.88C1.55,21.88 6.7,16.3 7.6,8.27C8.11,3.62 7.24,-1.02 5.44,-4.98C4.04,-8.05 3.01,-11.38 2.67,-14.75" style="fill:rgb(236,227,208);fill-rule:nonzero;"/>
                </g>
                <g transform="matrix(1,0,0,1,552.4183,202.7137)">
                    <path d="M0,61.665C-11.738,61.665 -22.506,50.681 -25.603,35.545C-29.038,18.748 -21.499,2.969 -8.797,0.37C-7.595,0.124 -6.361,0 -5.132,0C6.606,0 17.374,10.984 20.471,26.12C22.093,34.05 21.36,42.011 18.407,48.536C15.275,55.46 10.04,59.99 3.665,61.295C2.463,61.541 1.229,61.665 0,61.665" style="fill:rgb(158,158,158);fill-rule:nonzero;"/>
                </g>
                <g transform="matrix(1,0,0,1,547.2877,268.0058)">
                    <path d="M0,-68.919C-1.474,-68.919 -2.952,-68.769 -4.393,-68.475C-11.828,-66.954 -18.141,-61.554 -21.713,-53.659C-24.978,-46.443 -25.799,-37.693 -24.025,-29.02C-20.585,-12.205 -8.324,0 5.13,0C6.604,0 8.082,-0.15 9.523,-0.445C16.957,-1.965 23.27,-7.366 26.842,-15.26C30.108,-22.476 30.929,-31.226 29.155,-39.899C25.715,-56.714 13.454,-68.919 0,-68.919M-0.001,-61.665C9.788,-61.666 19.284,-51.956 22.048,-38.445C25.088,-23.584 18.829,-9.752 8.069,-7.551C7.091,-7.351 6.109,-7.254 5.13,-7.254C-4.658,-7.254 -14.155,-16.964 -16.918,-30.474C-19.958,-45.335 -13.7,-59.167 -2.94,-61.368C-1.962,-61.568 -0.979,-61.665 -0.001,-61.665" style="fill:rgb(6,0,1);fill-rule:nonzero;"/>
                </g>
                <g transform="matrix(1,0,0,1,530.4203,218.506)">
                    <path d="M0,65.693C-11.834,65.693 -23.585,56.664 -29.242,43.224C-32.676,35.067 -33.458,26.327 -31.442,18.614C-29.336,10.552 -24.455,4.547 -17.699,1.703C-15.014,0.573 -12.147,0 -9.179,0C2.655,0 14.406,9.029 20.063,22.468C23.497,30.626 24.279,39.366 22.264,47.079C20.157,55.14 15.276,61.146 8.521,63.99C5.835,65.12 2.969,65.693 0,65.693" style="fill:rgb(158,158,158);fill-rule:nonzero;"/>
                </g>
                <g transform="matrix(1,0,0,1,521.2424,287.8264)">
                    <path d="M0,-72.948C-3.455,-72.948 -6.796,-72.279 -9.929,-70.96C-17.635,-67.716 -23.41,-60.668 -25.774,-51.623C-27.989,-43.142 -27.149,-33.577 -23.408,-24.689C-17.191,-9.922 -4.096,0 9.178,0C12.632,0 15.973,-0.669 19.106,-1.987C26.812,-5.231 32.587,-12.28 34.951,-21.325C37.166,-29.805 36.326,-39.371 32.585,-48.259C26.368,-63.026 13.274,-72.948 0,-72.948M-0.001,-65.694C10.082,-65.695 20.691,-57.818 25.899,-45.445C32.362,-30.091 28.061,-13.627 16.291,-8.673C14.006,-7.711 11.607,-7.254 9.178,-7.254C-0.905,-7.254 -11.514,-15.13 -16.722,-27.503C-23.185,-42.857 -18.884,-59.32 -7.114,-64.275C-4.829,-65.237 -2.43,-65.694 -0.001,-65.694" style="fill:rgb(6,0,1);fill-rule:nonzero;"/>
                </g>
                <g transform="matrix(1,0,0,1,270.3412,220.7412)">
                    <path d="M0,66.328C-12.314,66.328 -24.312,56.182 -29.175,41.656C-31.984,33.264 -32.105,24.49 -29.516,16.951C-26.809,9.07 -21.489,3.449 -14.538,1.122C-12.314,0.378 -9.987,0 -7.619,0C4.694,0 16.69,10.145 21.555,24.672C27.47,42.34 20.903,60.523 6.917,65.207C4.694,65.951 2.367,66.328 0,66.328" style="fill:rgb(158,158,158);fill-rule:nonzero;"/>
                </g>
                <g transform="matrix(1,0,0,1,262.7228,290.6963)">
                    <path d="M0,-73.582L0,-66.328L0,-73.582L-0.002,-73.582C-2.762,-73.582 -5.477,-73.141 -8.071,-72.273C-16,-69.618 -22.289,-63.025 -25.327,-54.183C-28.175,-45.893 -28.057,-36.292 -24.996,-27.147C-19.644,-11.163 -6.233,0 7.618,0C10.377,0 13.092,-0.441 15.687,-1.309C23.616,-3.964 29.906,-10.557 32.943,-19.399C35.791,-27.689 35.674,-37.29 32.612,-46.435C27.261,-62.419 13.85,-73.582 0,-73.582M-0.002,-66.328C10.524,-66.329 21.269,-57.467 25.734,-44.132C31.022,-28.335 25.493,-12.242 13.384,-8.188C11.498,-7.556 9.561,-7.254 7.618,-7.254C-2.908,-7.254 -13.653,-16.115 -18.117,-29.45C-23.406,-45.247 -17.877,-61.34 -5.768,-65.394C-3.881,-66.026 -1.944,-66.328 -0.002,-66.328" style="fill:rgb(6,0,1);fill-rule:nonzero;"/>
                </g>
                <g transform="matrix(1,0,0,1,299.385,214.6361)">
                    <path d="M0,-101.081L7.391,-12.918C7.412,-12.67 7.299,-12.429 7.094,-12.287L-65.562,38.195C-65.766,38.337 -66.031,38.359 -66.256,38.253L-146.303,0.573C-146.528,0.467 -146.68,0.249 -146.701,-0L-152.461,-68.71C-147.21,-79.864 -143.015,-88.777 -137.764,-99.932L-81.139,-139.276C-80.935,-139.418 -80.67,-139.44 -80.445,-139.334L-0.398,-101.653C-0.172,-101.547 -0.021,-101.329 0,-101.081" style="fill:rgb(236,227,208);fill-rule:nonzero;"/>
                </g>
                <g>
                    <clipPath id="_clip2">
                        <path d="M215.888,76.998L161.621,114.704C156.37,125.859 152.175,134.772 146.924,145.926L152.717,215.037L233.493,253.061L304.122,203.987C305.785,202.831 306.706,200.876 306.536,198.857L299.624,116.415C299.455,114.398 298.222,112.623 296.39,111.76L221.538,76.525C220.769,76.163 219.945,75.985 219.123,75.985C217.986,75.985 216.854,76.327 215.888,76.998Z" clip-rule="nonzero"/>
                    </clipPath>
                    <g clip-path="url(#_clip2)">
                        <g transform="matrix(1,0,0,1,107.2478,231.0726)">
                            <path d="M0,-30.069L127.702,32.509L243.516,-47.961L233.36,-62.578L127.507,10.97C126.663,11.557 125.566,11.641 124.643,11.188L7.832,-46.053L0,-30.069Z" style="fill:rgb(222,101,29);fill-rule:nonzero;"/>
                        </g>
                        <g transform="matrix(1,0,0,1,106.6114,213.1683)">
                            <path d="M0,-30.069L127.702,32.509L243.516,-47.961L233.36,-62.578L127.507,10.97C126.663,11.557 125.566,11.641 124.643,11.188L7.832,-46.053L0,-30.069Z" style="fill:rgb(201,90,43);fill-rule:nonzero;"/>
                        </g>
                        <g transform="matrix(1,0,0,1,106.7764,224.5415)">
                            <path d="M0,-30.069L127.702,32.509L243.516,-47.961L233.36,-62.578L127.507,10.97C126.663,11.557 125.566,11.641 124.643,11.188L7.832,-46.053L0,-30.069Z" style="fill:rgb(110,52,122);fill-rule:nonzero;"/>
                        </g>
                        <g transform="matrix(1,0,0,1,107.2203,233.7559)">
                            <path d="M0,-30.069L127.702,32.509L243.516,-47.961L233.36,-62.578L127.507,10.97C126.663,11.557 125.566,11.641 124.643,11.188L7.832,-46.053L0,-30.069Z" style="fill:rgb(65,160,169);fill-rule:nonzero;"/>
                        </g>
                    </g>
                </g>
                <g transform="matrix(1,0,0,1,218.5768,261.0607)">
                    <path d="M0,-193.93C-1.606,-193.93 -3.202,-193.447 -4.565,-192.5L-61.263,-153.105C-62.412,-152.307 -63.332,-151.221 -63.93,-149.957L-71.284,-134.412L-78.638,-118.868C-79.237,-117.603 -79.493,-116.204 -79.382,-114.809L-73.834,-45.386C-73.605,-42.526 -71.862,-40.007 -69.266,-38.785L11.509,-0.762C12.593,-0.251 13.757,0 14.915,0C16.521,0 18.118,-0.483 19.481,-1.43L92.798,-52.372C95.145,-54.003 96.444,-56.762 96.205,-59.61L88.747,-148.575C88.508,-151.423 86.768,-153.928 84.182,-155.145L3.407,-193.168C2.323,-193.678 1.159,-193.93 0,-193.93M-0.001,-185.93L80.775,-147.907L88.233,-58.942L14.916,-8L-65.859,-46.023L-71.407,-115.447C-66.155,-126.548 -61.951,-135.434 -56.699,-146.535L-0.001,-185.93Z" style="fill:rgb(6,0,1);fill-rule:nonzero;"/>
                </g>
                <g transform="matrix(1,0,0,1,298.0072,128.0862)">
                    <path d="M0,90.964C-0.404,90.964 -0.812,90.947 -1.224,90.913C-10.491,90.149 -18.748,80.864 -20.43,69.317C-20.731,67.251 -20.765,59.31 -20.725,42.289C-20.686,25.374 -20.62,17.993 -20.315,16.073C-18.815,6.61 -12.138,0 -4.077,0C-2.58,0 -1.064,0.228 0.428,0.677C8.645,3.153 15.38,12.436 16.442,22.747C17.006,28.217 16.075,33.32 13.751,37.506C12.477,39.8 11.691,42.222 11.418,44.702C11.327,45.527 11.278,46.401 11.272,47.296C11.275,48.159 11.321,49.059 11.41,49.932C11.685,52.635 12.504,55.502 13.846,58.453C16.053,63.311 16.914,68.616 16.337,73.796C15.21,83.904 8.492,90.964 0.001,90.964L0,90.964Z" style="fill:rgb(158,158,158);fill-rule:nonzero;"/>
                </g>
                <g transform="matrix(1,0,0,1,293.9296,223.0507)">
                    <path d="M0,-98.965C-10.071,-98.965 -18.373,-90.968 -20.189,-79.517C-20.536,-77.329 -20.605,-71.21 -20.647,-52.684C-20.689,-34.301 -20.645,-27.366 -20.31,-25.071C-18.367,-11.729 -8.55,-0.979 2.525,-0.065C3.041,-0.022 3.563,0 4.078,0C14.508,0 23.05,-8.716 24.39,-20.725C25.047,-26.621 24.071,-32.652 21.565,-38.166C20.404,-40.721 19.698,-43.168 19.467,-45.438C19.393,-46.168 19.353,-46.922 19.35,-47.678C19.356,-48.422 19.397,-49.144 19.472,-49.825C19.687,-51.774 20.311,-53.689 21.325,-55.516C24.05,-60.422 25.147,-66.338 24.499,-72.627C23.259,-84.666 15.512,-95.148 5.66,-98.117C3.793,-98.68 1.889,-98.965 0,-98.965M0,-90.965C1.091,-90.965 2.214,-90.8 3.351,-90.458C10.064,-88.434 15.638,-80.569 16.541,-71.807C17.04,-66.963 16.147,-62.67 14.332,-59.401C12.922,-56.863 11.877,-53.941 11.52,-50.701C11.412,-49.714 11.357,-48.71 11.35,-47.696C11.353,-46.681 11.403,-45.656 11.508,-44.628C11.852,-41.254 12.884,-37.933 14.282,-34.856C16.083,-30.893 16.958,-26.261 16.439,-21.611C15.543,-13.579 10.392,-8.001 4.078,-8.001C3.782,-8.001 3.483,-8.013 3.183,-8.038C-4.235,-8.65 -10.991,-16.592 -12.394,-26.224C-12.691,-28.267 -12.675,-40.519 -12.647,-52.665C-12.62,-64.57 -12.588,-76.375 -12.288,-78.264C-11.068,-85.956 -6.02,-90.965 0,-90.965" style="fill:rgb(6,0,1);fill-rule:nonzero;"/>
                </g>
                <g transform="matrix(-0.999998,-0.00203,-0.00203,0.999998,295.9151,162.43123)">
                    <path d="M-0.023,-22.657C-4.898,-21.732 -8.843,-15.911 -8.843,-9.645C-8.843,-3.398 -4.898,0.925 -0.023,0C4.852,-0.926 8.797,-6.746 8.797,-12.994C8.797,-19.26 4.852,-23.582 -0.023,-22.657" style="fill:rgb(236,227,208);fill-rule:nonzero;"/>
                </g>
                <g transform="matrix(-0.999998,-0.00203,-0.00203,0.999998,295.9151,162.43123)">
                    <path d="M-0.023,-22.657C-4.898,-21.732 -8.843,-15.911 -8.843,-9.645C-8.843,-3.398 -4.898,0.925 -0.023,0C4.852,-0.926 8.797,-6.746 8.797,-12.994C8.797,-19.26 4.852,-23.582 -0.023,-22.657Z" style="fill:none;fill-rule:nonzero;stroke:rgb(6,0,1);stroke-width:3.89px;"/>
                </g>
                <g transform="matrix(1,0,0,1,288.35,163.2737)">
                    <path d="M0,13.922C-0.235,13.922 -0.474,13.899 -0.71,13.854L-19.398,10.266C-21.666,9.831 -23.439,7.36 -23.434,4.64C-23.428,1.994 -21.73,0 -19.485,0C-19.25,0 -19.012,0.024 -18.775,0.068L-0.087,3.656C2.18,4.091 3.952,6.563 3.947,9.282C3.941,11.928 2.245,13.922 0,13.922" style="fill:rgb(158,158,158);fill-rule:nonzero;"/>
                </g>
                <g transform="matrix(1,0,0,1,268.864,178.8092)">
                    <path d="M0,-17.149C-3.163,-17.149 -5.554,-14.462 -5.561,-10.899C-5.568,-7.372 -3.27,-4.271 -0.216,-3.684L18.471,-0.097C18.808,-0.033 19.149,0 19.487,0C22.65,0 25.04,-2.687 25.047,-6.25C25.054,-9.777 22.757,-12.878 19.703,-13.464L1.015,-17.052C0.679,-17.116 0.337,-17.149 0,-17.149M0,-13.921C0.133,-13.921 0.268,-13.908 0.407,-13.882L19.094,-10.295C20.603,-10.005 21.823,-8.197 21.819,-6.256C21.816,-4.494 20.803,-3.228 19.487,-3.228C19.354,-3.228 19.218,-3.241 19.08,-3.267L0.392,-6.854C-1.117,-7.144 -2.337,-8.952 -2.333,-10.893C-2.329,-12.655 -1.317,-13.921 0,-13.921" style="fill:rgb(6,0,1);fill-rule:nonzero;"/>
                </g>
                <g transform="matrix(1,0,0,1,195.9613,73.2461)">
                    <path d="M0,34.31L-3.751,7.919C-4.452,2.991 -11.148,0 -16.076,0.7C-18.078,0.985 -19.471,2.839 -19.186,4.841C-18.901,6.843 -17.047,8.236 -15.045,7.951L-3.989,6.247" style="fill:rgb(31,31,29);fill-rule:nonzero;stroke:rgb(31,31,29);stroke-width:6px;stroke-linecap:round;"/>
                </g>
                <g transform="matrix(1,0,0,1,232.8948,85.6516)">
                    <path d="M0,34.31L-3.751,7.919C-4.452,2.991 -11.148,0 -16.076,0.7C-18.078,0.985 -19.471,2.839 -19.186,4.841C-18.901,6.843 -17.047,8.236 -15.045,7.951L-3.989,6.247" style="fill:rgb(31,31,29);fill-rule:nonzero;stroke:rgb(31,31,29);stroke-width:6px;stroke-linecap:round;"/>
                </g>
                <g transform="matrix(1,0,0,1,227.0911,200.3431)">
                    <path d="M0,-8.921C0,-8.921 -0.364,26.841 -33.029,14.538C-65.694,2.235 -68.311,-35.762 -68.311,-35.762" style="fill:rgb(236,227,208);fill-rule:nonzero;stroke:rgb(6,0,1);stroke-width:5.82px;stroke-linecap:round;"/>
                </g>
                <g transform="matrix(-0.8215,-0.570209,-0.570209,0.8215,226.977469,182.739417)">
                    <path d="M-13.144,9.3L1.066,9.3L2.911,4.115L-11.299,4.115L-13.144,9.3Z" style="fill:rgb(6,0,1);fill-rule:nonzero;"/>
                </g>
                <g transform="matrix(0.944479,-0.328573,-0.328573,-0.944479,156.475784,169.549298)">
                    <path d="M-1.507,1.265L8.119,1.265L7.484,8.92L-2.142,8.92L-1.507,1.265Z" style="fill:rgb(6,0,1);fill-rule:nonzero;"/>
                </g>
                <g transform="matrix(0.935831,0.352448,0.352448,-0.935831,205.801241,181.418063)">
                    <path d="M-2.682,-2.576L8.814,-2.576L14.148,-14.733L2.651,-14.732L-2.682,-2.576Z" style="fill:rgb(6,0,1);fill-rule:nonzero;"/>
                </g>
                <g transform="matrix(0.935831,0.352448,0.352448,-0.935831,204.387041,154.905663)">
                    <path d="M-2.682,-2.576L8.814,-2.576L14.148,-14.733L2.651,-14.732L-2.682,-2.576Z" style="fill:rgb(6,0,1);fill-rule:nonzero;"/>
                </g>
                <g transform="matrix(0.935831,0.352448,0.352448,-0.935831,199.714641,166.135663)">
                    <path d="M-2.682,-2.576L8.814,-2.576L14.148,-14.733L2.651,-14.732L-2.682,-2.576Z" style="fill:rgb(6,0,1);fill-rule:nonzero;"/>
                </g>
                <g transform="matrix(-0.935831,-0.352448,-0.352448,0.935831,174.994841,143.834663)">
                    <path d="M-14.148,14.733L-2.652,14.733L2.682,2.576L-8.815,2.577L-14.148,14.733Z" style="fill:rgb(6,0,1);fill-rule:nonzero;"/>
                </g>
                <g transform="matrix(-0.935831,-0.352448,-0.352448,0.935831,176.408941,170.347163)">
                    <path d="M-14.148,14.733L-2.652,14.733L2.682,2.576L-8.815,2.577L-14.148,14.733Z" style="fill:rgb(6,0,1);fill-rule:nonzero;"/>
                </g>
                <g transform="matrix(-0.935831,-0.352448,-0.352448,0.935831,177.858641,157.903263)">
                    <path d="M-14.148,14.733L-2.652,14.733L2.682,2.576L-8.815,2.577L-14.148,14.733Z" style="fill:rgb(6,0,1);fill-rule:nonzero;"/>
                </g>
                <g>
                    <clipPath id="_clip3">
                        <path d="M287.053,194.31C287.041,200.575 290.974,206.405 295.846,207.34C297.453,207.648 298.961,207.386 300.259,206.671L301.424,205.862C303.409,204.164 304.679,201.242 304.686,197.695C304.699,191.447 300.766,185.619 295.893,184.684C295.446,184.598 295.007,184.556 294.576,184.556C290.327,184.556 287.065,188.636 287.053,194.31Z" clip-rule="nonzero"/>
                    </clipPath>
                    <g clip-path="url(#_clip3)">
                        <g transform="matrix(1,0,0,1,107.2478,231.0726)">
                            <path d="M0,-30.069L127.702,32.509L243.516,-47.961L233.36,-62.578L127.507,10.97C126.663,11.557 125.566,11.641 124.643,11.188L7.832,-46.053L0,-30.069Z" style="fill:rgb(222,101,29);fill-rule:nonzero;"/>
                        </g>
                        <g transform="matrix(1,0,0,1,106.6114,213.1683)">
                            <path d="M0,-30.069L127.702,32.509L243.516,-47.961L233.36,-62.578L127.507,10.97C126.663,11.557 125.566,11.641 124.643,11.188L7.832,-46.053L0,-30.069Z" style="fill:rgb(201,90,43);fill-rule:nonzero;"/>
                        </g>
                        <g transform="matrix(1,0,0,1,106.7764,224.5415)">
                            <path d="M0,-30.069L127.702,32.509L243.516,-47.961L233.36,-62.578L127.507,10.97C126.663,11.557 125.566,11.641 124.643,11.188L7.832,-46.053L0,-30.069Z" style="fill:rgb(110,52,122);fill-rule:nonzero;"/>
                        </g>
                        <g transform="matrix(1,0,0,1,107.2203,233.7559)">
                            <path d="M0,-30.069L127.702,32.509L243.516,-47.961L233.36,-62.578L127.507,10.97C126.663,11.557 125.566,11.641 124.643,11.188L7.832,-46.053L0,-30.069Z" style="fill:rgb(65,160,169);fill-rule:nonzero;"/>
                        </g>
                    </g>
                </g>
                <g transform="matrix(0.999998,0.00203,0.00203,-0.999998,295.8236,207.340029)">
                    <path d="M0.023,-0C-4.852,0.925 -8.797,6.746 -8.797,13.012C-8.797,19.26 -4.852,23.582 0.023,22.657C4.898,21.731 8.844,15.911 8.843,9.663C8.843,3.398 4.898,-0.925 0.023,-0Z" style="fill:none;fill-rule:nonzero;stroke:rgb(6,0,1);stroke-width:3.89px;"/>
                </g>
                <g transform="matrix(1,0,0,1,614.3117,197.9229)">
                    <path d="M0,-68.476L-11.045,19.304C-11.076,19.551 -11.236,19.763 -11.466,19.86L-93.008,54.185C-93.238,54.281 -93.501,54.248 -93.7,54.098L-164.197,0.643C-164.396,0.492 -164.499,0.247 -164.468,0L-155.86,-68.411C-148.411,-78.235 -142.459,-86.085 -135.01,-95.909L-71.46,-122.661C-71.23,-122.757 -70.966,-122.724 -70.768,-122.574L-0.27,-69.118C-0.072,-68.968 0.031,-68.723 0,-68.476" style="fill:rgb(236,227,208);fill-rule:nonzero;"/>
                </g>
                <g>
                    <clipPath id="_clip4">
                        <path d="M540.206,76.376L479.302,102.014C471.853,111.838 465.901,119.688 458.452,129.511L449.794,198.323L520.933,252.264L600.2,218.897C602.067,218.111 603.373,216.388 603.625,214.379L613.953,132.295C614.206,130.285 613.368,128.294 611.753,127.07L545.831,77.084C544.829,76.324 543.623,75.932 542.405,75.932C541.661,75.932 540.914,76.078 540.206,76.376Z" clip-rule="nonzero"/>
                    </clipPath>
                    <g clip-path="url(#_clip4)">
                        <g transform="matrix(1,0,0,1,408.2206,248.8447)">
                            <path d="M0,-73.677L111.957,14.013L241.936,-40.702L235.03,-57.107L116.231,-7.098C115.283,-6.699 114.193,-6.845 113.383,-7.479L10.975,-87.69L0,-73.677Z" style="fill:rgb(222,101,29);fill-rule:nonzero;"/>
                        </g>
                        <g transform="matrix(1,0,0,1,411.3094,231.1974)">
                            <path d="M0,-73.677L111.957,14.013L241.936,-40.702L235.03,-57.107L116.231,-7.098C115.283,-6.699 114.193,-6.845 113.383,-7.479L10.975,-87.69L0,-73.677Z" style="fill:rgb(201,90,43);fill-rule:nonzero;"/>
                        </g>
                        <g transform="matrix(1,0,0,1,409.1133,242.3578)">
                            <path d="M0,-73.677L111.957,14.013L241.936,-40.702L235.03,-57.107L116.231,-7.098C115.283,-6.699 114.193,-6.845 113.383,-7.479L10.975,-87.69L0,-73.677Z" style="fill:rgb(110,52,122);fill-rule:nonzero;"/>
                        </g>
                        <g transform="matrix(1,0,0,1,407.6375,251.4641)">
                            <path d="M0,-73.677L111.957,14.013L241.936,-40.702L235.03,-57.107L116.231,-7.098C115.283,-6.699 114.193,-6.845 113.383,-7.479L10.975,-87.69L0,-73.677Z" style="fill:rgb(65,160,169);fill-rule:nonzero;"/>
                        </g>
                    </g>
                </g>
                <g transform="matrix(1,0,0,1,543.222,260.2642)">
                    <path d="M0,-193.158C-1.049,-193.158 -2.104,-192.952 -3.103,-192.531L-66.735,-165.745C-68.025,-165.202 -69.149,-164.331 -69.997,-163.218L-82.164,-147.236L-90.83,-135.853C-91.677,-134.74 -92.218,-133.424 -92.398,-132.037L-101.362,-62.971C-101.731,-60.126 -100.548,-57.301 -98.262,-55.567L-27.123,-1.626C-25.709,-0.554 -24.006,0 -22.288,0C-21.239,0 -20.184,-0.207 -19.186,-0.627L63.099,-35.264C65.733,-36.373 67.575,-38.803 67.932,-41.639L79.077,-130.218C79.434,-133.054 78.251,-135.864 75.974,-137.591L4.835,-191.533C3.421,-192.605 1.718,-193.158 0,-193.158M0.001,-185.158L71.14,-131.217L59.995,-42.638L-22.289,-8L-93.428,-61.942L-84.465,-131.007C-77.026,-140.779 -71.071,-148.601 -63.631,-158.372L0.001,-185.158Z" style="fill:rgb(6,0,1);fill-rule:nonzero;"/>
                </g>
                <g transform="matrix(1,0,0,1,594.1019,142.2125)">
                    <path d="M0,90.469C-1.411,90.469 -2.821,90.26 -4.192,89.85C-13.101,87.18 -19.254,76.385 -18.505,64.74C-18.371,62.659 -16.758,54.883 -13.191,38.24C-9.646,21.696 -8.051,14.488 -7.357,12.678C-4.359,4.858 1.843,0 8.828,0C11.354,0 13.81,0.645 16.128,1.915C23.653,6.041 28.318,16.518 27.22,26.826C26.638,32.295 24.669,37.094 21.526,40.706C19.806,42.686 18.536,44.893 17.754,47.263C17.493,48.053 17.265,48.897 17.073,49.769C16.896,50.617 16.755,51.506 16.662,52.374C16.37,55.077 16.578,58.053 17.277,61.219C18.43,66.427 18.173,71.795 16.534,76.744C13.773,85.081 7.283,90.469 0.001,90.469L0,90.469Z" style="fill:rgb(158,158,158);fill-rule:nonzero;"/>
                </g>
                <g transform="matrix(1,0,0,1,602.9301,236.6811)">
                    <path d="M0,-98.469C-8.55,-98.469 -16.37,-92.484 -19.92,-83.223C-20.713,-81.153 -22.049,-75.182 -25.93,-57.067C-29.782,-39.093 -31.176,-32.3 -31.325,-29.984C-32.189,-16.53 -24.814,-3.978 -14.169,-0.788C-12.425,-0.265 -10.628,0 -8.828,0C0.209,0 8.19,-6.464 11.503,-16.467C13.369,-22.098 13.664,-28.201 12.356,-34.114C11.749,-36.855 11.566,-39.395 11.81,-41.664C11.889,-42.393 12.007,-43.138 12.161,-43.879C12.321,-44.605 12.51,-45.303 12.725,-45.953C13.339,-47.817 14.346,-49.561 15.718,-51.138C19.4,-55.372 21.699,-60.932 22.369,-67.219C23.651,-79.254 18.245,-91.114 9.223,-96.061C6.308,-97.659 3.205,-98.469 0,-98.469M0,-90.469C1.793,-90.469 3.617,-90.011 5.377,-89.046C11.525,-85.675 15.347,-76.825 14.414,-68.066C13.898,-63.224 12.135,-59.209 9.681,-56.388C7.776,-54.197 6.148,-51.555 5.127,-48.459C4.816,-47.516 4.555,-46.545 4.338,-45.555C4.13,-44.561 3.967,-43.548 3.856,-42.521C3.493,-39.149 3.814,-35.686 4.544,-32.386C5.484,-28.136 5.38,-23.423 3.909,-18.982C1.667,-12.214 -3.419,-8 -8.828,-8C-9.837,-8 -10.857,-8.147 -11.872,-8.451C-19.002,-10.588 -23.965,-19.757 -23.341,-29.471C-23.209,-31.532 -20.653,-43.514 -18.108,-55.391C-15.614,-67.031 -13.135,-78.573 -12.45,-80.359C-10.01,-86.723 -5.128,-90.469 0,-90.469" style="fill:rgb(6,0,1);fill-rule:nonzero;"/>
                </g>
                <g transform="matrix(-0.977852,-0.209297,-0.209297,0.977852,598.541725,175.805014)">
                    <path d="M-2.371,-22.406C-7.246,-21.481 -11.191,-15.66 -11.192,-9.394C-11.191,-3.146 -7.246,1.176 -2.371,0.251C2.504,-0.674 6.449,-6.495 6.449,-12.743C6.449,-19.009 2.504,-23.331 -2.371,-22.406" style="fill:rgb(236,227,208);fill-rule:nonzero;"/>
                </g>
                <g transform="matrix(-0.977852,-0.209297,-0.209297,0.977852,598.541725,175.805014)">
                    <path d="M-2.371,-22.406C-7.246,-21.481 -11.191,-15.66 -11.192,-9.394C-11.191,-3.146 -7.246,1.176 -2.371,0.251C2.504,-0.674 6.449,-6.495 6.449,-12.743C6.449,-19.009 2.504,-23.331 -2.371,-22.406Z" style="fill:none;fill-rule:nonzero;stroke:rgb(6,0,1);stroke-width:3.89px;"/>
                </g>
                <g transform="matrix(1,0,0,1,591.0736,171.6809)">
                    <path d="M0,17.815C-0.487,17.815 -0.969,17.716 -1.431,17.522L-18.968,10.139C-21.097,9.243 -22.318,6.458 -21.749,3.798C-21.263,1.526 -19.625,0 -17.674,0C-17.187,0 -16.707,0.098 -16.245,0.293L1.293,7.675C3.422,8.572 4.644,11.357 4.074,14.016C3.588,16.289 1.95,17.815 0,17.815" style="fill:rgb(158,158,158);fill-rule:nonzero;"/>
                </g>
                <g transform="matrix(1,0,0,1,573.3993,191.1105)">
                    <path d="M0,-21.044C-2.689,-21.044 -5.013,-18.957 -5.653,-15.969C-6.391,-12.52 -4.786,-9.01 -1.92,-7.803L15.618,-0.42C16.279,-0.142 16.971,0 17.674,0C20.362,0 22.687,-2.087 23.327,-5.076C24.065,-8.524 22.46,-12.035 19.594,-13.241L2.056,-20.625C1.394,-20.903 0.703,-21.044 0,-21.044M0,-17.816C0.265,-17.816 0.535,-17.762 0.803,-17.65L18.341,-10.267C19.757,-9.67 20.576,-7.649 20.17,-5.751C19.841,-4.213 18.808,-3.228 17.674,-3.228C17.409,-3.228 17.139,-3.282 16.87,-3.395L-0.668,-10.778C-2.084,-11.374 -2.903,-13.396 -2.497,-15.293C-2.167,-16.832 -1.134,-17.816 0,-17.816" style="fill:rgb(6,0,1);fill-rule:nonzero;"/>
                </g>
                <g transform="matrix(1,0,0,1,514.378,65.7904)">
                    <path d="M0,36.349L1.801,9.753C2.137,4.787 -3.793,0.473 -8.76,0.137C-10.777,0 -12.524,1.525 -12.661,3.543C-12.797,5.561 -11.272,7.308 -9.254,7.444L1.915,8.068" style="fill:rgb(31,31,29);fill-rule:nonzero;stroke:rgb(31,31,29);stroke-width:6px;stroke-linecap:round;"/>
                </g>
                <g transform="matrix(1,0,0,1,547.9377,85.5825)">
                    <path d="M0,36.349L1.801,9.753C2.137,4.787 -3.793,0.473 -8.76,0.137C-10.777,0 -12.524,1.525 -12.661,3.543C-12.797,5.561 -11.272,7.307 -9.254,7.444L1.915,8.068" style="fill:rgb(31,31,29);fill-rule:nonzero;stroke:rgb(31,31,29);stroke-width:6px;stroke-linecap:round;"/>
                </g>
                <g transform="matrix(1,0,0,1,527.447,185.1287)">
                    <path d="M0,5.508C0,5.508 -7.77,40.418 -37.174,21.611C-66.579,2.804 -61.264,-34.91 -61.264,-34.91" style="fill:rgb(236,227,208);fill-rule:nonzero;stroke:rgb(6,0,1);stroke-width:5.82px;stroke-linecap:round;"/>
                </g>
                <g transform="matrix(-0.685463,-0.728107,-0.728107,0.685463,530.831045,182.584948)">
                    <path d="M-11.643,10.215L2.568,10.215L4.413,5.03L-9.798,5.03L-11.643,10.215Z" style="fill:rgb(6,0,1);fill-rule:nonzero;"/>
                </g>
                <g transform="matrix(0.992069,-0.125697,-0.125697,-0.992069,461.82511,154.001447)">
                    <path d="M-0.517,0.535L9.11,0.535L8.475,8.19L-1.152,8.19L-0.517,0.535Z" style="fill:rgb(6,0,1);fill-rule:nonzero;"/>
                </g>
                <g transform="matrix(0.842406,0.538844,0.538844,-0.842406,510.849112,176.627775)">
                    <path d="M-4.601,-3.577L6.896,-3.577L12.23,-15.732L0.734,-15.733L-4.601,-3.577Z" style="fill:rgb(6,0,1);fill-rule:nonzero;"/>
                </g>
                <g transform="matrix(0.842406,0.538844,0.538844,-0.842406,514.961412,150.398075)">
                    <path d="M-4.601,-3.577L6.896,-3.577L12.23,-15.732L0.734,-15.733L-4.601,-3.577Z" style="fill:rgb(6,0,1);fill-rule:nonzero;"/>
                </g>
                <g transform="matrix(0.842406,0.538844,0.538844,-0.842406,508.062612,160.415575)">
                    <path d="M-4.601,-3.577L6.896,-3.577L12.23,-15.732L0.734,-15.733L-4.601,-3.577Z" style="fill:rgb(6,0,1);fill-rule:nonzero;"/>
                </g>
                <g transform="matrix(-0.842406,-0.538844,-0.538844,0.842406,488.502412,133.475675)">
                    <path d="M-12.23,15.732L-0.733,15.732L4.601,3.577L-6.895,3.576L-12.23,15.732Z" style="fill:rgb(6,0,1);fill-rule:nonzero;"/>
                </g>
                <g transform="matrix(-0.842406,-0.538844,-0.538844,0.842406,484.390112,159.705375)">
                    <path d="M-12.23,15.732L-0.733,15.732L4.601,3.577L-6.895,3.576L-12.23,15.732Z" style="fill:rgb(6,0,1);fill-rule:nonzero;"/>
                </g>
                <g transform="matrix(-0.842406,-0.538844,-0.538844,0.842406,488.387712,147.832275)">
                    <path d="M-12.23,15.732L-0.733,15.732L4.601,3.577L-6.895,3.576L-12.23,15.732Z" style="fill:rgb(6,0,1);fill-rule:nonzero;"/>
                </g>
                <g>
                    <clipPath id="_clip5">
                        <path d="M585.508,205.892C584.196,212.019 586.837,218.537 591.41,220.462C592.917,221.096 594.445,221.152 595.863,220.722L597.174,220.17C599.467,218.92 601.315,216.326 602.057,212.858C603.365,206.748 600.724,200.232 596.151,198.306C595.284,197.942 594.41,197.768 593.555,197.768C589.897,197.768 586.568,200.941 585.508,205.892Z" clip-rule="nonzero"/>
                    </clipPath>
                    <g clip-path="url(#_clip5)">
                        <g transform="matrix(1,0,0,1,408.2206,248.8447)">
                            <path d="M0,-73.677L111.957,14.013L241.936,-40.702L235.03,-57.107L116.231,-7.098C115.283,-6.699 114.193,-6.845 113.383,-7.479L10.975,-87.69L0,-73.677Z" style="fill:rgb(222,101,29);fill-rule:nonzero;"/>
                        </g>
                        <g transform="matrix(1,0,0,1,411.3094,231.1974)">
                            <path d="M0,-73.677L111.957,14.013L241.936,-40.702L235.03,-57.107L116.231,-7.098C115.283,-6.699 114.193,-6.845 113.383,-7.479L10.975,-87.69L0,-73.677Z" style="fill:rgb(201,90,43);fill-rule:nonzero;"/>
                        </g>
                        <g transform="matrix(1,0,0,1,409.1133,242.3578)">
                            <path d="M0,-73.677L111.957,14.013L241.936,-40.702L235.03,-57.107L116.231,-7.098C115.283,-6.699 114.193,-6.845 113.383,-7.479L10.975,-87.69L0,-73.677Z" style="fill:rgb(110,52,122);fill-rule:nonzero;"/>
                        </g>
                        <g transform="matrix(1,0,0,1,407.6375,251.4641)">
                            <path d="M0,-73.677L111.957,14.013L241.936,-40.702L235.03,-57.107L116.231,-7.098C115.283,-6.699 114.193,-6.845 113.383,-7.479L10.975,-87.69L0,-73.677Z" style="fill:rgb(65,160,169);fill-rule:nonzero;"/>
                        </g>
                    </g>
                </g>
                <g transform="matrix(0.977852,0.209297,0.209297,-0.977852,589.143425,219.719714)">
                    <path d="M2.371,-0.251C-2.504,0.674 -6.449,6.495 -6.45,12.76C-6.449,19.009 -2.504,23.331 2.371,22.406C7.246,21.481 11.191,15.661 11.191,9.412C11.191,3.146 7.246,-1.176 2.371,-0.251Z" style="fill:none;fill-rule:nonzero;stroke:rgb(6,0,1);stroke-width:3.89px;"/>
                </g>
                <g transform="matrix(1,0,0,1,175.434,219.8973)">
                    <path d="M0,53.039C-7.294,53.039 -14.963,50.31 -21.594,45.355C-35.327,35.093 -40.187,18.294 -32.426,7.908C-28.615,2.809 -22.439,0 -15.037,0C-7.743,0 -0.074,2.728 6.556,7.684C13.04,12.528 17.785,18.963 19.918,25.8C22.182,33.055 21.282,39.92 17.388,45.131C13.577,50.23 7.402,53.039 0,53.039" style="fill:rgb(158,158,158);fill-rule:nonzero;"/>
                </g>
                <g transform="matrix(1,0,0,1,160.3977,276.5633)">
                    <path d="M0,-60.293L0,-53.039L0,-60.293L-0.002,-60.293C-8.576,-60.292 -15.783,-56.967 -20.295,-50.929C-24.837,-44.85 -25.962,-36.619 -23.382,-28.347C-21.023,-20.786 -15.819,-13.704 -8.728,-8.405C-1.475,-2.985 6.965,0 15.037,0C23.611,0 30.818,-3.326 35.33,-9.364C39.872,-15.443 40.997,-23.674 38.417,-31.946C36.059,-39.507 30.854,-46.589 23.763,-51.888C16.51,-57.308 8.07,-60.293 0,-60.293M-0.002,-53.039C6.231,-53.04 13.22,-50.711 19.421,-46.077C31.573,-36.997 36.093,-22.504 29.519,-13.706C26.3,-9.398 21.016,-7.254 15.037,-7.254C8.804,-7.254 1.815,-9.582 -4.386,-14.216C-16.537,-23.296 -21.058,-37.789 -14.484,-46.587C-11.265,-50.895 -5.981,-53.039 -0.002,-53.039" style="fill:rgb(6,0,1);fill-rule:nonzero;"/>
                </g>
            </g>
        </g>
    </g>
</svg>
